G04 #@! TF.GenerationSoftware,KiCad,Pcbnew,(5.1.5)-3*
G04 #@! TF.CreationDate,2020-11-12T14:52:36+01:00*
G04 #@! TF.ProjectId,50 to 50 Attenuators,35302074-6f20-4353-9020-417474656e75,rev?*
G04 #@! TF.SameCoordinates,Original*
G04 #@! TF.FileFunction,Soldermask,Top*
G04 #@! TF.FilePolarity,Negative*
%FSLAX46Y46*%
G04 Gerber Fmt 4.6, Leading zero omitted, Abs format (unit mm)*
G04 Created by KiCad (PCBNEW (5.1.5)-3) date 2020-11-12 14:52:36*
%MOMM*%
%LPD*%
G04 APERTURE LIST*
%ADD10C,0.100000*%
G04 APERTURE END LIST*
D10*
G36*
X61056202Y-119203781D02*
G01*
X61331606Y-119258562D01*
X61850455Y-119473476D01*
X62317407Y-119785484D01*
X62714516Y-120182593D01*
X63026524Y-120649545D01*
X63241438Y-121168394D01*
X63351000Y-121719201D01*
X63351000Y-122280799D01*
X63241438Y-122831606D01*
X63026524Y-123350455D01*
X62714516Y-123817407D01*
X62317407Y-124214516D01*
X61850455Y-124526524D01*
X61331606Y-124741438D01*
X61056202Y-124796219D01*
X60780800Y-124851000D01*
X60219200Y-124851000D01*
X59943798Y-124796219D01*
X59668394Y-124741438D01*
X59149545Y-124526524D01*
X58682593Y-124214516D01*
X58285484Y-123817407D01*
X57973476Y-123350455D01*
X57758562Y-122831606D01*
X57649000Y-122280799D01*
X57649000Y-121719201D01*
X57758562Y-121168394D01*
X57973476Y-120649545D01*
X58285484Y-120182593D01*
X58682593Y-119785484D01*
X59149545Y-119473476D01*
X59668394Y-119258562D01*
X59943798Y-119203781D01*
X60219200Y-119149000D01*
X60780800Y-119149000D01*
X61056202Y-119203781D01*
G37*
G36*
X39556202Y-119203781D02*
G01*
X39831606Y-119258562D01*
X40350455Y-119473476D01*
X40817407Y-119785484D01*
X41214516Y-120182593D01*
X41526524Y-120649545D01*
X41741438Y-121168394D01*
X41851000Y-121719201D01*
X41851000Y-122280799D01*
X41741438Y-122831606D01*
X41526524Y-123350455D01*
X41214516Y-123817407D01*
X40817407Y-124214516D01*
X40350455Y-124526524D01*
X39831606Y-124741438D01*
X39556202Y-124796219D01*
X39280800Y-124851000D01*
X38719200Y-124851000D01*
X38443798Y-124796219D01*
X38168394Y-124741438D01*
X37649545Y-124526524D01*
X37182593Y-124214516D01*
X36785484Y-123817407D01*
X36473476Y-123350455D01*
X36258562Y-122831606D01*
X36149000Y-122280799D01*
X36149000Y-121719201D01*
X36258562Y-121168394D01*
X36473476Y-120649545D01*
X36785484Y-120182593D01*
X37182593Y-119785484D01*
X37649545Y-119473476D01*
X38168394Y-119258562D01*
X38443798Y-119203781D01*
X38719200Y-119149000D01*
X39280800Y-119149000D01*
X39556202Y-119203781D01*
G37*
G36*
X45270781Y-115603295D02*
G01*
X45306816Y-115614227D01*
X45340024Y-115631977D01*
X45369134Y-115655866D01*
X45393023Y-115684976D01*
X45410773Y-115718184D01*
X45421705Y-115754219D01*
X45426000Y-115797831D01*
X45426000Y-116802169D01*
X45421705Y-116845781D01*
X45410773Y-116881816D01*
X45393023Y-116915024D01*
X45369134Y-116944134D01*
X45340024Y-116968023D01*
X45306816Y-116985773D01*
X45270781Y-116996705D01*
X45227169Y-117001000D01*
X43772831Y-117001000D01*
X43729219Y-116996705D01*
X43693184Y-116985773D01*
X43659976Y-116968023D01*
X43630866Y-116944134D01*
X43606977Y-116915024D01*
X43589227Y-116881816D01*
X43578295Y-116845781D01*
X43574000Y-116802169D01*
X43574000Y-115797831D01*
X43578295Y-115754219D01*
X43589227Y-115718184D01*
X43606977Y-115684976D01*
X43630866Y-115655866D01*
X43659976Y-115631977D01*
X43693184Y-115614227D01*
X43729219Y-115603295D01*
X43772831Y-115599000D01*
X45227169Y-115599000D01*
X45270781Y-115603295D01*
G37*
G36*
X55270781Y-115603295D02*
G01*
X55306816Y-115614227D01*
X55340024Y-115631977D01*
X55369134Y-115655866D01*
X55393023Y-115684976D01*
X55410773Y-115718184D01*
X55421705Y-115754219D01*
X55426000Y-115797831D01*
X55426000Y-116802169D01*
X55421705Y-116845781D01*
X55410773Y-116881816D01*
X55393023Y-116915024D01*
X55369134Y-116944134D01*
X55340024Y-116968023D01*
X55306816Y-116985773D01*
X55270781Y-116996705D01*
X55227169Y-117001000D01*
X53772831Y-117001000D01*
X53729219Y-116996705D01*
X53693184Y-116985773D01*
X53659976Y-116968023D01*
X53630866Y-116944134D01*
X53606977Y-116915024D01*
X53589227Y-116881816D01*
X53578295Y-116845781D01*
X53574000Y-116802169D01*
X53574000Y-115797831D01*
X53578295Y-115754219D01*
X53589227Y-115718184D01*
X53606977Y-115684976D01*
X53630866Y-115655866D01*
X53659976Y-115631977D01*
X53693184Y-115614227D01*
X53729219Y-115603295D01*
X53772831Y-115599000D01*
X55227169Y-115599000D01*
X55270781Y-115603295D01*
G37*
G36*
X40151000Y-115551000D02*
G01*
X35849000Y-115551000D01*
X35849000Y-114099000D01*
X40151000Y-114099000D01*
X40151000Y-115551000D01*
G37*
G36*
X63651000Y-115551000D02*
G01*
X59349000Y-115551000D01*
X59349000Y-114099000D01*
X63651000Y-114099000D01*
X63651000Y-115551000D01*
G37*
G36*
X55270781Y-112503295D02*
G01*
X55306816Y-112514227D01*
X55340024Y-112531977D01*
X55369134Y-112555866D01*
X55393023Y-112584976D01*
X55410773Y-112618184D01*
X55421705Y-112654219D01*
X55426000Y-112697831D01*
X55426000Y-113702169D01*
X55421705Y-113745781D01*
X55410773Y-113781816D01*
X55393023Y-113815024D01*
X55369134Y-113844134D01*
X55340024Y-113868023D01*
X55306816Y-113885773D01*
X55270781Y-113896705D01*
X55227169Y-113901000D01*
X53772831Y-113901000D01*
X53729219Y-113896705D01*
X53693184Y-113885773D01*
X53659976Y-113868023D01*
X53630866Y-113844134D01*
X53606977Y-113815024D01*
X53589227Y-113781816D01*
X53578295Y-113745781D01*
X53574000Y-113702169D01*
X53574000Y-112697831D01*
X53578295Y-112654219D01*
X53589227Y-112618184D01*
X53606977Y-112584976D01*
X53630866Y-112555866D01*
X53659976Y-112531977D01*
X53693184Y-112514227D01*
X53729219Y-112503295D01*
X53772831Y-112499000D01*
X55227169Y-112499000D01*
X55270781Y-112503295D01*
G37*
G36*
X45270781Y-112503295D02*
G01*
X45306816Y-112514227D01*
X45340024Y-112531977D01*
X45369134Y-112555866D01*
X45393023Y-112584976D01*
X45410773Y-112618184D01*
X45421705Y-112654219D01*
X45426000Y-112697831D01*
X45426000Y-113702169D01*
X45421705Y-113745781D01*
X45410773Y-113781816D01*
X45393023Y-113815024D01*
X45369134Y-113844134D01*
X45340024Y-113868023D01*
X45306816Y-113885773D01*
X45270781Y-113896705D01*
X45227169Y-113901000D01*
X43772831Y-113901000D01*
X43729219Y-113896705D01*
X43693184Y-113885773D01*
X43659976Y-113868023D01*
X43630866Y-113844134D01*
X43606977Y-113815024D01*
X43589227Y-113781816D01*
X43578295Y-113745781D01*
X43574000Y-113702169D01*
X43574000Y-112697831D01*
X43578295Y-112654219D01*
X43589227Y-112618184D01*
X43606977Y-112584976D01*
X43630866Y-112555866D01*
X43659976Y-112531977D01*
X43693184Y-112514227D01*
X43729219Y-112503295D01*
X43772831Y-112499000D01*
X45227169Y-112499000D01*
X45270781Y-112503295D01*
G37*
G36*
X51595781Y-111078295D02*
G01*
X51631816Y-111089227D01*
X51665024Y-111106977D01*
X51694134Y-111130866D01*
X51718023Y-111159976D01*
X51735773Y-111193184D01*
X51746705Y-111229219D01*
X51751000Y-111272831D01*
X51751000Y-112727169D01*
X51746705Y-112770781D01*
X51735773Y-112806816D01*
X51718023Y-112840024D01*
X51694134Y-112869134D01*
X51665024Y-112893023D01*
X51631816Y-112910773D01*
X51595781Y-112921705D01*
X51552169Y-112926000D01*
X50547831Y-112926000D01*
X50504219Y-112921705D01*
X50468184Y-112910773D01*
X50434976Y-112893023D01*
X50405866Y-112869134D01*
X50381977Y-112840024D01*
X50364227Y-112806816D01*
X50353295Y-112770781D01*
X50349000Y-112727169D01*
X50349000Y-111272831D01*
X50353295Y-111229219D01*
X50364227Y-111193184D01*
X50381977Y-111159976D01*
X50405866Y-111130866D01*
X50434976Y-111106977D01*
X50468184Y-111089227D01*
X50504219Y-111078295D01*
X50547831Y-111074000D01*
X51552169Y-111074000D01*
X51595781Y-111078295D01*
G37*
G36*
X48495781Y-111078295D02*
G01*
X48531816Y-111089227D01*
X48565024Y-111106977D01*
X48594134Y-111130866D01*
X48618023Y-111159976D01*
X48635773Y-111193184D01*
X48646705Y-111229219D01*
X48651000Y-111272831D01*
X48651000Y-112727169D01*
X48646705Y-112770781D01*
X48635773Y-112806816D01*
X48618023Y-112840024D01*
X48594134Y-112869134D01*
X48565024Y-112893023D01*
X48531816Y-112910773D01*
X48495781Y-112921705D01*
X48452169Y-112926000D01*
X47447831Y-112926000D01*
X47404219Y-112921705D01*
X47368184Y-112910773D01*
X47334976Y-112893023D01*
X47305866Y-112869134D01*
X47281977Y-112840024D01*
X47264227Y-112806816D01*
X47253295Y-112770781D01*
X47249000Y-112727169D01*
X47249000Y-111272831D01*
X47253295Y-111229219D01*
X47264227Y-111193184D01*
X47281977Y-111159976D01*
X47305866Y-111130866D01*
X47334976Y-111106977D01*
X47368184Y-111089227D01*
X47404219Y-111078295D01*
X47447831Y-111074000D01*
X48452169Y-111074000D01*
X48495781Y-111078295D01*
G37*
G36*
X39651000Y-112686000D02*
G01*
X35949000Y-112686000D01*
X35949000Y-111314000D01*
X39651000Y-111314000D01*
X39651000Y-112686000D01*
G37*
G36*
X63551000Y-112686000D02*
G01*
X59849000Y-112686000D01*
X59849000Y-111314000D01*
X63551000Y-111314000D01*
X63551000Y-112686000D01*
G37*
G36*
X55270781Y-110103295D02*
G01*
X55306816Y-110114227D01*
X55340024Y-110131977D01*
X55369134Y-110155866D01*
X55393023Y-110184976D01*
X55410773Y-110218184D01*
X55421705Y-110254219D01*
X55426000Y-110297831D01*
X55426000Y-111302169D01*
X55421705Y-111345781D01*
X55410773Y-111381816D01*
X55393023Y-111415024D01*
X55369134Y-111444134D01*
X55340024Y-111468023D01*
X55306816Y-111485773D01*
X55270781Y-111496705D01*
X55227169Y-111501000D01*
X53772831Y-111501000D01*
X53729219Y-111496705D01*
X53693184Y-111485773D01*
X53659976Y-111468023D01*
X53630866Y-111444134D01*
X53606977Y-111415024D01*
X53589227Y-111381816D01*
X53578295Y-111345781D01*
X53574000Y-111302169D01*
X53574000Y-110297831D01*
X53578295Y-110254219D01*
X53589227Y-110218184D01*
X53606977Y-110184976D01*
X53630866Y-110155866D01*
X53659976Y-110131977D01*
X53693184Y-110114227D01*
X53729219Y-110103295D01*
X53772831Y-110099000D01*
X55227169Y-110099000D01*
X55270781Y-110103295D01*
G37*
G36*
X45270781Y-110103295D02*
G01*
X45306816Y-110114227D01*
X45340024Y-110131977D01*
X45369134Y-110155866D01*
X45393023Y-110184976D01*
X45410773Y-110218184D01*
X45421705Y-110254219D01*
X45426000Y-110297831D01*
X45426000Y-111302169D01*
X45421705Y-111345781D01*
X45410773Y-111381816D01*
X45393023Y-111415024D01*
X45369134Y-111444134D01*
X45340024Y-111468023D01*
X45306816Y-111485773D01*
X45270781Y-111496705D01*
X45227169Y-111501000D01*
X43772831Y-111501000D01*
X43729219Y-111496705D01*
X43693184Y-111485773D01*
X43659976Y-111468023D01*
X43630866Y-111444134D01*
X43606977Y-111415024D01*
X43589227Y-111381816D01*
X43578295Y-111345781D01*
X43574000Y-111302169D01*
X43574000Y-110297831D01*
X43578295Y-110254219D01*
X43589227Y-110218184D01*
X43606977Y-110184976D01*
X43630866Y-110155866D01*
X43659976Y-110131977D01*
X43693184Y-110114227D01*
X43729219Y-110103295D01*
X43772831Y-110099000D01*
X45227169Y-110099000D01*
X45270781Y-110103295D01*
G37*
G36*
X40151000Y-109901000D02*
G01*
X35849000Y-109901000D01*
X35849000Y-108449000D01*
X40151000Y-108449000D01*
X40151000Y-109901000D01*
G37*
G36*
X63651000Y-109901000D02*
G01*
X59349000Y-109901000D01*
X59349000Y-108449000D01*
X63651000Y-108449000D01*
X63651000Y-109901000D01*
G37*
G36*
X55270781Y-107003295D02*
G01*
X55306816Y-107014227D01*
X55340024Y-107031977D01*
X55369134Y-107055866D01*
X55393023Y-107084976D01*
X55410773Y-107118184D01*
X55421705Y-107154219D01*
X55426000Y-107197831D01*
X55426000Y-108202169D01*
X55421705Y-108245781D01*
X55410773Y-108281816D01*
X55393023Y-108315024D01*
X55369134Y-108344134D01*
X55340024Y-108368023D01*
X55306816Y-108385773D01*
X55270781Y-108396705D01*
X55227169Y-108401000D01*
X53772831Y-108401000D01*
X53729219Y-108396705D01*
X53693184Y-108385773D01*
X53659976Y-108368023D01*
X53630866Y-108344134D01*
X53606977Y-108315024D01*
X53589227Y-108281816D01*
X53578295Y-108245781D01*
X53574000Y-108202169D01*
X53574000Y-107197831D01*
X53578295Y-107154219D01*
X53589227Y-107118184D01*
X53606977Y-107084976D01*
X53630866Y-107055866D01*
X53659976Y-107031977D01*
X53693184Y-107014227D01*
X53729219Y-107003295D01*
X53772831Y-106999000D01*
X55227169Y-106999000D01*
X55270781Y-107003295D01*
G37*
G36*
X45270781Y-107003295D02*
G01*
X45306816Y-107014227D01*
X45340024Y-107031977D01*
X45369134Y-107055866D01*
X45393023Y-107084976D01*
X45410773Y-107118184D01*
X45421705Y-107154219D01*
X45426000Y-107197831D01*
X45426000Y-108202169D01*
X45421705Y-108245781D01*
X45410773Y-108281816D01*
X45393023Y-108315024D01*
X45369134Y-108344134D01*
X45340024Y-108368023D01*
X45306816Y-108385773D01*
X45270781Y-108396705D01*
X45227169Y-108401000D01*
X43772831Y-108401000D01*
X43729219Y-108396705D01*
X43693184Y-108385773D01*
X43659976Y-108368023D01*
X43630866Y-108344134D01*
X43606977Y-108315024D01*
X43589227Y-108281816D01*
X43578295Y-108245781D01*
X43574000Y-108202169D01*
X43574000Y-107197831D01*
X43578295Y-107154219D01*
X43589227Y-107118184D01*
X43606977Y-107084976D01*
X43630866Y-107055866D01*
X43659976Y-107031977D01*
X43693184Y-107014227D01*
X43729219Y-107003295D01*
X43772831Y-106999000D01*
X45227169Y-106999000D01*
X45270781Y-107003295D01*
G37*
G36*
X50270781Y-98103295D02*
G01*
X50306816Y-98114227D01*
X50340024Y-98131977D01*
X50369134Y-98155866D01*
X50393023Y-98184976D01*
X50410773Y-98218184D01*
X50421705Y-98254219D01*
X50426000Y-98297831D01*
X50426000Y-99302169D01*
X50421705Y-99345781D01*
X50410773Y-99381816D01*
X50393023Y-99415024D01*
X50369134Y-99444134D01*
X50340024Y-99468023D01*
X50306816Y-99485773D01*
X50270781Y-99496705D01*
X50227169Y-99501000D01*
X48772831Y-99501000D01*
X48729219Y-99496705D01*
X48693184Y-99485773D01*
X48659976Y-99468023D01*
X48630866Y-99444134D01*
X48606977Y-99415024D01*
X48589227Y-99381816D01*
X48578295Y-99345781D01*
X48574000Y-99302169D01*
X48574000Y-98297831D01*
X48578295Y-98254219D01*
X48589227Y-98218184D01*
X48606977Y-98184976D01*
X48630866Y-98155866D01*
X48659976Y-98131977D01*
X48693184Y-98114227D01*
X48729219Y-98103295D01*
X48772831Y-98099000D01*
X50227169Y-98099000D01*
X50270781Y-98103295D01*
G37*
G36*
X63651000Y-99051000D02*
G01*
X59349000Y-99051000D01*
X59349000Y-97599000D01*
X63651000Y-97599000D01*
X63651000Y-99051000D01*
G37*
G36*
X40151000Y-99051000D02*
G01*
X35849000Y-99051000D01*
X35849000Y-97599000D01*
X40151000Y-97599000D01*
X40151000Y-99051000D01*
G37*
G36*
X42995781Y-96078295D02*
G01*
X43031816Y-96089227D01*
X43065024Y-96106977D01*
X43094134Y-96130866D01*
X43118023Y-96159976D01*
X43135773Y-96193184D01*
X43146705Y-96229219D01*
X43151000Y-96272831D01*
X43151000Y-97727169D01*
X43146705Y-97770781D01*
X43135773Y-97806816D01*
X43118023Y-97840024D01*
X43094134Y-97869134D01*
X43065024Y-97893023D01*
X43031816Y-97910773D01*
X42995781Y-97921705D01*
X42952169Y-97926000D01*
X41947831Y-97926000D01*
X41904219Y-97921705D01*
X41868184Y-97910773D01*
X41834976Y-97893023D01*
X41805866Y-97869134D01*
X41781977Y-97840024D01*
X41764227Y-97806816D01*
X41753295Y-97770781D01*
X41749000Y-97727169D01*
X41749000Y-96272831D01*
X41753295Y-96229219D01*
X41764227Y-96193184D01*
X41781977Y-96159976D01*
X41805866Y-96130866D01*
X41834976Y-96106977D01*
X41868184Y-96089227D01*
X41904219Y-96078295D01*
X41947831Y-96074000D01*
X42952169Y-96074000D01*
X42995781Y-96078295D01*
G37*
G36*
X46095781Y-96078295D02*
G01*
X46131816Y-96089227D01*
X46165024Y-96106977D01*
X46194134Y-96130866D01*
X46218023Y-96159976D01*
X46235773Y-96193184D01*
X46246705Y-96229219D01*
X46251000Y-96272831D01*
X46251000Y-97727169D01*
X46246705Y-97770781D01*
X46235773Y-97806816D01*
X46218023Y-97840024D01*
X46194134Y-97869134D01*
X46165024Y-97893023D01*
X46131816Y-97910773D01*
X46095781Y-97921705D01*
X46052169Y-97926000D01*
X45047831Y-97926000D01*
X45004219Y-97921705D01*
X44968184Y-97910773D01*
X44934976Y-97893023D01*
X44905866Y-97869134D01*
X44881977Y-97840024D01*
X44864227Y-97806816D01*
X44853295Y-97770781D01*
X44849000Y-97727169D01*
X44849000Y-96272831D01*
X44853295Y-96229219D01*
X44864227Y-96193184D01*
X44881977Y-96159976D01*
X44905866Y-96130866D01*
X44934976Y-96106977D01*
X44968184Y-96089227D01*
X45004219Y-96078295D01*
X45047831Y-96074000D01*
X46052169Y-96074000D01*
X46095781Y-96078295D01*
G37*
G36*
X57095781Y-96078295D02*
G01*
X57131816Y-96089227D01*
X57165024Y-96106977D01*
X57194134Y-96130866D01*
X57218023Y-96159976D01*
X57235773Y-96193184D01*
X57246705Y-96229219D01*
X57251000Y-96272831D01*
X57251000Y-97727169D01*
X57246705Y-97770781D01*
X57235773Y-97806816D01*
X57218023Y-97840024D01*
X57194134Y-97869134D01*
X57165024Y-97893023D01*
X57131816Y-97910773D01*
X57095781Y-97921705D01*
X57052169Y-97926000D01*
X56047831Y-97926000D01*
X56004219Y-97921705D01*
X55968184Y-97910773D01*
X55934976Y-97893023D01*
X55905866Y-97869134D01*
X55881977Y-97840024D01*
X55864227Y-97806816D01*
X55853295Y-97770781D01*
X55849000Y-97727169D01*
X55849000Y-96272831D01*
X55853295Y-96229219D01*
X55864227Y-96193184D01*
X55881977Y-96159976D01*
X55905866Y-96130866D01*
X55934976Y-96106977D01*
X55968184Y-96089227D01*
X56004219Y-96078295D01*
X56047831Y-96074000D01*
X57052169Y-96074000D01*
X57095781Y-96078295D01*
G37*
G36*
X53995781Y-96078295D02*
G01*
X54031816Y-96089227D01*
X54065024Y-96106977D01*
X54094134Y-96130866D01*
X54118023Y-96159976D01*
X54135773Y-96193184D01*
X54146705Y-96229219D01*
X54151000Y-96272831D01*
X54151000Y-97727169D01*
X54146705Y-97770781D01*
X54135773Y-97806816D01*
X54118023Y-97840024D01*
X54094134Y-97869134D01*
X54065024Y-97893023D01*
X54031816Y-97910773D01*
X53995781Y-97921705D01*
X53952169Y-97926000D01*
X52947831Y-97926000D01*
X52904219Y-97921705D01*
X52868184Y-97910773D01*
X52834976Y-97893023D01*
X52805866Y-97869134D01*
X52781977Y-97840024D01*
X52764227Y-97806816D01*
X52753295Y-97770781D01*
X52749000Y-97727169D01*
X52749000Y-96272831D01*
X52753295Y-96229219D01*
X52764227Y-96193184D01*
X52781977Y-96159976D01*
X52805866Y-96130866D01*
X52834976Y-96106977D01*
X52868184Y-96089227D01*
X52904219Y-96078295D01*
X52947831Y-96074000D01*
X53952169Y-96074000D01*
X53995781Y-96078295D01*
G37*
G36*
X50270781Y-95003295D02*
G01*
X50306816Y-95014227D01*
X50340024Y-95031977D01*
X50369134Y-95055866D01*
X50393023Y-95084976D01*
X50410773Y-95118184D01*
X50421705Y-95154219D01*
X50426000Y-95197831D01*
X50426000Y-96202169D01*
X50421705Y-96245781D01*
X50410773Y-96281816D01*
X50393023Y-96315024D01*
X50369134Y-96344134D01*
X50340024Y-96368023D01*
X50306816Y-96385773D01*
X50270781Y-96396705D01*
X50227169Y-96401000D01*
X48772831Y-96401000D01*
X48729219Y-96396705D01*
X48693184Y-96385773D01*
X48659976Y-96368023D01*
X48630866Y-96344134D01*
X48606977Y-96315024D01*
X48589227Y-96281816D01*
X48578295Y-96245781D01*
X48574000Y-96202169D01*
X48574000Y-95197831D01*
X48578295Y-95154219D01*
X48589227Y-95118184D01*
X48606977Y-95084976D01*
X48630866Y-95055866D01*
X48659976Y-95031977D01*
X48693184Y-95014227D01*
X48729219Y-95003295D01*
X48772831Y-94999000D01*
X50227169Y-94999000D01*
X50270781Y-95003295D01*
G37*
G36*
X63551000Y-96186000D02*
G01*
X59849000Y-96186000D01*
X59849000Y-94814000D01*
X63551000Y-94814000D01*
X63551000Y-96186000D01*
G37*
G36*
X39651000Y-96186000D02*
G01*
X35949000Y-96186000D01*
X35949000Y-94814000D01*
X39651000Y-94814000D01*
X39651000Y-96186000D01*
G37*
G36*
X53995781Y-93078295D02*
G01*
X54031816Y-93089227D01*
X54065024Y-93106977D01*
X54094134Y-93130866D01*
X54118023Y-93159976D01*
X54135773Y-93193184D01*
X54146705Y-93229219D01*
X54151000Y-93272831D01*
X54151000Y-94727169D01*
X54146705Y-94770781D01*
X54135773Y-94806816D01*
X54118023Y-94840024D01*
X54094134Y-94869134D01*
X54065024Y-94893023D01*
X54031816Y-94910773D01*
X53995781Y-94921705D01*
X53952169Y-94926000D01*
X52947831Y-94926000D01*
X52904219Y-94921705D01*
X52868184Y-94910773D01*
X52834976Y-94893023D01*
X52805866Y-94869134D01*
X52781977Y-94840024D01*
X52764227Y-94806816D01*
X52753295Y-94770781D01*
X52749000Y-94727169D01*
X52749000Y-93272831D01*
X52753295Y-93229219D01*
X52764227Y-93193184D01*
X52781977Y-93159976D01*
X52805866Y-93130866D01*
X52834976Y-93106977D01*
X52868184Y-93089227D01*
X52904219Y-93078295D01*
X52947831Y-93074000D01*
X53952169Y-93074000D01*
X53995781Y-93078295D01*
G37*
G36*
X46095781Y-93078295D02*
G01*
X46131816Y-93089227D01*
X46165024Y-93106977D01*
X46194134Y-93130866D01*
X46218023Y-93159976D01*
X46235773Y-93193184D01*
X46246705Y-93229219D01*
X46251000Y-93272831D01*
X46251000Y-94727169D01*
X46246705Y-94770781D01*
X46235773Y-94806816D01*
X46218023Y-94840024D01*
X46194134Y-94869134D01*
X46165024Y-94893023D01*
X46131816Y-94910773D01*
X46095781Y-94921705D01*
X46052169Y-94926000D01*
X45047831Y-94926000D01*
X45004219Y-94921705D01*
X44968184Y-94910773D01*
X44934976Y-94893023D01*
X44905866Y-94869134D01*
X44881977Y-94840024D01*
X44864227Y-94806816D01*
X44853295Y-94770781D01*
X44849000Y-94727169D01*
X44849000Y-93272831D01*
X44853295Y-93229219D01*
X44864227Y-93193184D01*
X44881977Y-93159976D01*
X44905866Y-93130866D01*
X44934976Y-93106977D01*
X44968184Y-93089227D01*
X45004219Y-93078295D01*
X45047831Y-93074000D01*
X46052169Y-93074000D01*
X46095781Y-93078295D01*
G37*
G36*
X57095781Y-93078295D02*
G01*
X57131816Y-93089227D01*
X57165024Y-93106977D01*
X57194134Y-93130866D01*
X57218023Y-93159976D01*
X57235773Y-93193184D01*
X57246705Y-93229219D01*
X57251000Y-93272831D01*
X57251000Y-94727169D01*
X57246705Y-94770781D01*
X57235773Y-94806816D01*
X57218023Y-94840024D01*
X57194134Y-94869134D01*
X57165024Y-94893023D01*
X57131816Y-94910773D01*
X57095781Y-94921705D01*
X57052169Y-94926000D01*
X56047831Y-94926000D01*
X56004219Y-94921705D01*
X55968184Y-94910773D01*
X55934976Y-94893023D01*
X55905866Y-94869134D01*
X55881977Y-94840024D01*
X55864227Y-94806816D01*
X55853295Y-94770781D01*
X55849000Y-94727169D01*
X55849000Y-93272831D01*
X55853295Y-93229219D01*
X55864227Y-93193184D01*
X55881977Y-93159976D01*
X55905866Y-93130866D01*
X55934976Y-93106977D01*
X55968184Y-93089227D01*
X56004219Y-93078295D01*
X56047831Y-93074000D01*
X57052169Y-93074000D01*
X57095781Y-93078295D01*
G37*
G36*
X42995781Y-93078295D02*
G01*
X43031816Y-93089227D01*
X43065024Y-93106977D01*
X43094134Y-93130866D01*
X43118023Y-93159976D01*
X43135773Y-93193184D01*
X43146705Y-93229219D01*
X43151000Y-93272831D01*
X43151000Y-94727169D01*
X43146705Y-94770781D01*
X43135773Y-94806816D01*
X43118023Y-94840024D01*
X43094134Y-94869134D01*
X43065024Y-94893023D01*
X43031816Y-94910773D01*
X42995781Y-94921705D01*
X42952169Y-94926000D01*
X41947831Y-94926000D01*
X41904219Y-94921705D01*
X41868184Y-94910773D01*
X41834976Y-94893023D01*
X41805866Y-94869134D01*
X41781977Y-94840024D01*
X41764227Y-94806816D01*
X41753295Y-94770781D01*
X41749000Y-94727169D01*
X41749000Y-93272831D01*
X41753295Y-93229219D01*
X41764227Y-93193184D01*
X41781977Y-93159976D01*
X41805866Y-93130866D01*
X41834976Y-93106977D01*
X41868184Y-93089227D01*
X41904219Y-93078295D01*
X41947831Y-93074000D01*
X42952169Y-93074000D01*
X42995781Y-93078295D01*
G37*
G36*
X63651000Y-93401000D02*
G01*
X59349000Y-93401000D01*
X59349000Y-91949000D01*
X63651000Y-91949000D01*
X63651000Y-93401000D01*
G37*
G36*
X40151000Y-93401000D02*
G01*
X35849000Y-93401000D01*
X35849000Y-91949000D01*
X40151000Y-91949000D01*
X40151000Y-93401000D01*
G37*
G36*
X56270781Y-82603295D02*
G01*
X56306816Y-82614227D01*
X56340024Y-82631977D01*
X56369134Y-82655866D01*
X56393023Y-82684976D01*
X56410773Y-82718184D01*
X56421705Y-82754219D01*
X56426000Y-82797831D01*
X56426000Y-83802169D01*
X56421705Y-83845781D01*
X56410773Y-83881816D01*
X56393023Y-83915024D01*
X56369134Y-83944134D01*
X56340024Y-83968023D01*
X56306816Y-83985773D01*
X56270781Y-83996705D01*
X56227169Y-84001000D01*
X54772831Y-84001000D01*
X54729219Y-83996705D01*
X54693184Y-83985773D01*
X54659976Y-83968023D01*
X54630866Y-83944134D01*
X54606977Y-83915024D01*
X54589227Y-83881816D01*
X54578295Y-83845781D01*
X54574000Y-83802169D01*
X54574000Y-82797831D01*
X54578295Y-82754219D01*
X54589227Y-82718184D01*
X54606977Y-82684976D01*
X54630866Y-82655866D01*
X54659976Y-82631977D01*
X54693184Y-82614227D01*
X54729219Y-82603295D01*
X54772831Y-82599000D01*
X56227169Y-82599000D01*
X56270781Y-82603295D01*
G37*
G36*
X44270781Y-82603295D02*
G01*
X44306816Y-82614227D01*
X44340024Y-82631977D01*
X44369134Y-82655866D01*
X44393023Y-82684976D01*
X44410773Y-82718184D01*
X44421705Y-82754219D01*
X44426000Y-82797831D01*
X44426000Y-83802169D01*
X44421705Y-83845781D01*
X44410773Y-83881816D01*
X44393023Y-83915024D01*
X44369134Y-83944134D01*
X44340024Y-83968023D01*
X44306816Y-83985773D01*
X44270781Y-83996705D01*
X44227169Y-84001000D01*
X42772831Y-84001000D01*
X42729219Y-83996705D01*
X42693184Y-83985773D01*
X42659976Y-83968023D01*
X42630866Y-83944134D01*
X42606977Y-83915024D01*
X42589227Y-83881816D01*
X42578295Y-83845781D01*
X42574000Y-83802169D01*
X42574000Y-82797831D01*
X42578295Y-82754219D01*
X42589227Y-82718184D01*
X42606977Y-82684976D01*
X42630866Y-82655866D01*
X42659976Y-82631977D01*
X42693184Y-82614227D01*
X42729219Y-82603295D01*
X42772831Y-82599000D01*
X44227169Y-82599000D01*
X44270781Y-82603295D01*
G37*
G36*
X40151000Y-82551000D02*
G01*
X35849000Y-82551000D01*
X35849000Y-81099000D01*
X40151000Y-81099000D01*
X40151000Y-82551000D01*
G37*
G36*
X63651000Y-82551000D02*
G01*
X59349000Y-82551000D01*
X59349000Y-81099000D01*
X63651000Y-81099000D01*
X63651000Y-82551000D01*
G37*
G36*
X48495781Y-79328295D02*
G01*
X48531816Y-79339227D01*
X48565024Y-79356977D01*
X48594134Y-79380866D01*
X48618023Y-79409976D01*
X48635773Y-79443184D01*
X48646705Y-79479219D01*
X48651000Y-79522831D01*
X48651000Y-80977169D01*
X48646705Y-81020781D01*
X48635773Y-81056816D01*
X48618023Y-81090024D01*
X48594134Y-81119134D01*
X48565024Y-81143023D01*
X48531816Y-81160773D01*
X48495781Y-81171705D01*
X48452169Y-81176000D01*
X47447831Y-81176000D01*
X47404219Y-81171705D01*
X47368184Y-81160773D01*
X47334976Y-81143023D01*
X47305866Y-81119134D01*
X47281977Y-81090024D01*
X47264227Y-81056816D01*
X47253295Y-81020781D01*
X47249000Y-80977169D01*
X47249000Y-79522831D01*
X47253295Y-79479219D01*
X47264227Y-79443184D01*
X47281977Y-79409976D01*
X47305866Y-79380866D01*
X47334976Y-79356977D01*
X47368184Y-79339227D01*
X47404219Y-79328295D01*
X47447831Y-79324000D01*
X48452169Y-79324000D01*
X48495781Y-79328295D01*
G37*
G36*
X51595781Y-79328295D02*
G01*
X51631816Y-79339227D01*
X51665024Y-79356977D01*
X51694134Y-79380866D01*
X51718023Y-79409976D01*
X51735773Y-79443184D01*
X51746705Y-79479219D01*
X51751000Y-79522831D01*
X51751000Y-80977169D01*
X51746705Y-81020781D01*
X51735773Y-81056816D01*
X51718023Y-81090024D01*
X51694134Y-81119134D01*
X51665024Y-81143023D01*
X51631816Y-81160773D01*
X51595781Y-81171705D01*
X51552169Y-81176000D01*
X50547831Y-81176000D01*
X50504219Y-81171705D01*
X50468184Y-81160773D01*
X50434976Y-81143023D01*
X50405866Y-81119134D01*
X50381977Y-81090024D01*
X50364227Y-81056816D01*
X50353295Y-81020781D01*
X50349000Y-80977169D01*
X50349000Y-79522831D01*
X50353295Y-79479219D01*
X50364227Y-79443184D01*
X50381977Y-79409976D01*
X50405866Y-79380866D01*
X50434976Y-79356977D01*
X50468184Y-79339227D01*
X50504219Y-79328295D01*
X50547831Y-79324000D01*
X51552169Y-79324000D01*
X51595781Y-79328295D01*
G37*
G36*
X56270781Y-79503295D02*
G01*
X56306816Y-79514227D01*
X56340024Y-79531977D01*
X56369134Y-79555866D01*
X56393023Y-79584976D01*
X56410773Y-79618184D01*
X56421705Y-79654219D01*
X56426000Y-79697831D01*
X56426000Y-80702169D01*
X56421705Y-80745781D01*
X56410773Y-80781816D01*
X56393023Y-80815024D01*
X56369134Y-80844134D01*
X56340024Y-80868023D01*
X56306816Y-80885773D01*
X56270781Y-80896705D01*
X56227169Y-80901000D01*
X54772831Y-80901000D01*
X54729219Y-80896705D01*
X54693184Y-80885773D01*
X54659976Y-80868023D01*
X54630866Y-80844134D01*
X54606977Y-80815024D01*
X54589227Y-80781816D01*
X54578295Y-80745781D01*
X54574000Y-80702169D01*
X54574000Y-79697831D01*
X54578295Y-79654219D01*
X54589227Y-79618184D01*
X54606977Y-79584976D01*
X54630866Y-79555866D01*
X54659976Y-79531977D01*
X54693184Y-79514227D01*
X54729219Y-79503295D01*
X54772831Y-79499000D01*
X56227169Y-79499000D01*
X56270781Y-79503295D01*
G37*
G36*
X44270781Y-79503295D02*
G01*
X44306816Y-79514227D01*
X44340024Y-79531977D01*
X44369134Y-79555866D01*
X44393023Y-79584976D01*
X44410773Y-79618184D01*
X44421705Y-79654219D01*
X44426000Y-79697831D01*
X44426000Y-80702169D01*
X44421705Y-80745781D01*
X44410773Y-80781816D01*
X44393023Y-80815024D01*
X44369134Y-80844134D01*
X44340024Y-80868023D01*
X44306816Y-80885773D01*
X44270781Y-80896705D01*
X44227169Y-80901000D01*
X42772831Y-80901000D01*
X42729219Y-80896705D01*
X42693184Y-80885773D01*
X42659976Y-80868023D01*
X42630866Y-80844134D01*
X42606977Y-80815024D01*
X42589227Y-80781816D01*
X42578295Y-80745781D01*
X42574000Y-80702169D01*
X42574000Y-79697831D01*
X42578295Y-79654219D01*
X42589227Y-79618184D01*
X42606977Y-79584976D01*
X42630866Y-79555866D01*
X42659976Y-79531977D01*
X42693184Y-79514227D01*
X42729219Y-79503295D01*
X42772831Y-79499000D01*
X44227169Y-79499000D01*
X44270781Y-79503295D01*
G37*
G36*
X39651000Y-79686000D02*
G01*
X35949000Y-79686000D01*
X35949000Y-78314000D01*
X39651000Y-78314000D01*
X39651000Y-79686000D01*
G37*
G36*
X63551000Y-79686000D02*
G01*
X59849000Y-79686000D01*
X59849000Y-78314000D01*
X63551000Y-78314000D01*
X63551000Y-79686000D01*
G37*
G36*
X56270781Y-77103295D02*
G01*
X56306816Y-77114227D01*
X56340024Y-77131977D01*
X56369134Y-77155866D01*
X56393023Y-77184976D01*
X56410773Y-77218184D01*
X56421705Y-77254219D01*
X56426000Y-77297831D01*
X56426000Y-78302169D01*
X56421705Y-78345781D01*
X56410773Y-78381816D01*
X56393023Y-78415024D01*
X56369134Y-78444134D01*
X56340024Y-78468023D01*
X56306816Y-78485773D01*
X56270781Y-78496705D01*
X56227169Y-78501000D01*
X54772831Y-78501000D01*
X54729219Y-78496705D01*
X54693184Y-78485773D01*
X54659976Y-78468023D01*
X54630866Y-78444134D01*
X54606977Y-78415024D01*
X54589227Y-78381816D01*
X54578295Y-78345781D01*
X54574000Y-78302169D01*
X54574000Y-77297831D01*
X54578295Y-77254219D01*
X54589227Y-77218184D01*
X54606977Y-77184976D01*
X54630866Y-77155866D01*
X54659976Y-77131977D01*
X54693184Y-77114227D01*
X54729219Y-77103295D01*
X54772831Y-77099000D01*
X56227169Y-77099000D01*
X56270781Y-77103295D01*
G37*
G36*
X44270781Y-77103295D02*
G01*
X44306816Y-77114227D01*
X44340024Y-77131977D01*
X44369134Y-77155866D01*
X44393023Y-77184976D01*
X44410773Y-77218184D01*
X44421705Y-77254219D01*
X44426000Y-77297831D01*
X44426000Y-78302169D01*
X44421705Y-78345781D01*
X44410773Y-78381816D01*
X44393023Y-78415024D01*
X44369134Y-78444134D01*
X44340024Y-78468023D01*
X44306816Y-78485773D01*
X44270781Y-78496705D01*
X44227169Y-78501000D01*
X42772831Y-78501000D01*
X42729219Y-78496705D01*
X42693184Y-78485773D01*
X42659976Y-78468023D01*
X42630866Y-78444134D01*
X42606977Y-78415024D01*
X42589227Y-78381816D01*
X42578295Y-78345781D01*
X42574000Y-78302169D01*
X42574000Y-77297831D01*
X42578295Y-77254219D01*
X42589227Y-77218184D01*
X42606977Y-77184976D01*
X42630866Y-77155866D01*
X42659976Y-77131977D01*
X42693184Y-77114227D01*
X42729219Y-77103295D01*
X42772831Y-77099000D01*
X44227169Y-77099000D01*
X44270781Y-77103295D01*
G37*
G36*
X48495781Y-76328295D02*
G01*
X48531816Y-76339227D01*
X48565024Y-76356977D01*
X48594134Y-76380866D01*
X48618023Y-76409976D01*
X48635773Y-76443184D01*
X48646705Y-76479219D01*
X48651000Y-76522831D01*
X48651000Y-77977169D01*
X48646705Y-78020781D01*
X48635773Y-78056816D01*
X48618023Y-78090024D01*
X48594134Y-78119134D01*
X48565024Y-78143023D01*
X48531816Y-78160773D01*
X48495781Y-78171705D01*
X48452169Y-78176000D01*
X47447831Y-78176000D01*
X47404219Y-78171705D01*
X47368184Y-78160773D01*
X47334976Y-78143023D01*
X47305866Y-78119134D01*
X47281977Y-78090024D01*
X47264227Y-78056816D01*
X47253295Y-78020781D01*
X47249000Y-77977169D01*
X47249000Y-76522831D01*
X47253295Y-76479219D01*
X47264227Y-76443184D01*
X47281977Y-76409976D01*
X47305866Y-76380866D01*
X47334976Y-76356977D01*
X47368184Y-76339227D01*
X47404219Y-76328295D01*
X47447831Y-76324000D01*
X48452169Y-76324000D01*
X48495781Y-76328295D01*
G37*
G36*
X51595781Y-76328295D02*
G01*
X51631816Y-76339227D01*
X51665024Y-76356977D01*
X51694134Y-76380866D01*
X51718023Y-76409976D01*
X51735773Y-76443184D01*
X51746705Y-76479219D01*
X51751000Y-76522831D01*
X51751000Y-77977169D01*
X51746705Y-78020781D01*
X51735773Y-78056816D01*
X51718023Y-78090024D01*
X51694134Y-78119134D01*
X51665024Y-78143023D01*
X51631816Y-78160773D01*
X51595781Y-78171705D01*
X51552169Y-78176000D01*
X50547831Y-78176000D01*
X50504219Y-78171705D01*
X50468184Y-78160773D01*
X50434976Y-78143023D01*
X50405866Y-78119134D01*
X50381977Y-78090024D01*
X50364227Y-78056816D01*
X50353295Y-78020781D01*
X50349000Y-77977169D01*
X50349000Y-76522831D01*
X50353295Y-76479219D01*
X50364227Y-76443184D01*
X50381977Y-76409976D01*
X50405866Y-76380866D01*
X50434976Y-76356977D01*
X50468184Y-76339227D01*
X50504219Y-76328295D01*
X50547831Y-76324000D01*
X51552169Y-76324000D01*
X51595781Y-76328295D01*
G37*
G36*
X40151000Y-76901000D02*
G01*
X35849000Y-76901000D01*
X35849000Y-75449000D01*
X40151000Y-75449000D01*
X40151000Y-76901000D01*
G37*
G36*
X63651000Y-76901000D02*
G01*
X59349000Y-76901000D01*
X59349000Y-75449000D01*
X63651000Y-75449000D01*
X63651000Y-76901000D01*
G37*
G36*
X56270781Y-74003295D02*
G01*
X56306816Y-74014227D01*
X56340024Y-74031977D01*
X56369134Y-74055866D01*
X56393023Y-74084976D01*
X56410773Y-74118184D01*
X56421705Y-74154219D01*
X56426000Y-74197831D01*
X56426000Y-75202169D01*
X56421705Y-75245781D01*
X56410773Y-75281816D01*
X56393023Y-75315024D01*
X56369134Y-75344134D01*
X56340024Y-75368023D01*
X56306816Y-75385773D01*
X56270781Y-75396705D01*
X56227169Y-75401000D01*
X54772831Y-75401000D01*
X54729219Y-75396705D01*
X54693184Y-75385773D01*
X54659976Y-75368023D01*
X54630866Y-75344134D01*
X54606977Y-75315024D01*
X54589227Y-75281816D01*
X54578295Y-75245781D01*
X54574000Y-75202169D01*
X54574000Y-74197831D01*
X54578295Y-74154219D01*
X54589227Y-74118184D01*
X54606977Y-74084976D01*
X54630866Y-74055866D01*
X54659976Y-74031977D01*
X54693184Y-74014227D01*
X54729219Y-74003295D01*
X54772831Y-73999000D01*
X56227169Y-73999000D01*
X56270781Y-74003295D01*
G37*
G36*
X44270781Y-74003295D02*
G01*
X44306816Y-74014227D01*
X44340024Y-74031977D01*
X44369134Y-74055866D01*
X44393023Y-74084976D01*
X44410773Y-74118184D01*
X44421705Y-74154219D01*
X44426000Y-74197831D01*
X44426000Y-75202169D01*
X44421705Y-75245781D01*
X44410773Y-75281816D01*
X44393023Y-75315024D01*
X44369134Y-75344134D01*
X44340024Y-75368023D01*
X44306816Y-75385773D01*
X44270781Y-75396705D01*
X44227169Y-75401000D01*
X42772831Y-75401000D01*
X42729219Y-75396705D01*
X42693184Y-75385773D01*
X42659976Y-75368023D01*
X42630866Y-75344134D01*
X42606977Y-75315024D01*
X42589227Y-75281816D01*
X42578295Y-75245781D01*
X42574000Y-75202169D01*
X42574000Y-74197831D01*
X42578295Y-74154219D01*
X42589227Y-74118184D01*
X42606977Y-74084976D01*
X42630866Y-74055866D01*
X42659976Y-74031977D01*
X42693184Y-74014227D01*
X42729219Y-74003295D01*
X42772831Y-73999000D01*
X44227169Y-73999000D01*
X44270781Y-74003295D01*
G37*
G36*
X43248228Y-66681703D02*
G01*
X43403100Y-66745853D01*
X43542481Y-66838985D01*
X43661015Y-66957519D01*
X43754147Y-67096900D01*
X43818297Y-67251772D01*
X43851000Y-67416184D01*
X43851000Y-67583816D01*
X43818297Y-67748228D01*
X43754147Y-67903100D01*
X43661015Y-68042481D01*
X43542481Y-68161015D01*
X43403100Y-68254147D01*
X43248228Y-68318297D01*
X43083816Y-68351000D01*
X42916184Y-68351000D01*
X42751772Y-68318297D01*
X42596900Y-68254147D01*
X42457519Y-68161015D01*
X42338985Y-68042481D01*
X42245853Y-67903100D01*
X42181703Y-67748228D01*
X42149000Y-67583816D01*
X42149000Y-67416184D01*
X42181703Y-67251772D01*
X42245853Y-67096900D01*
X42338985Y-66957519D01*
X42457519Y-66838985D01*
X42596900Y-66745853D01*
X42751772Y-66681703D01*
X42916184Y-66649000D01*
X43083816Y-66649000D01*
X43248228Y-66681703D01*
G37*
G36*
X56748228Y-66681703D02*
G01*
X56903100Y-66745853D01*
X57042481Y-66838985D01*
X57161015Y-66957519D01*
X57254147Y-67096900D01*
X57318297Y-67251772D01*
X57351000Y-67416184D01*
X57351000Y-67583816D01*
X57318297Y-67748228D01*
X57254147Y-67903100D01*
X57161015Y-68042481D01*
X57042481Y-68161015D01*
X56903100Y-68254147D01*
X56748228Y-68318297D01*
X56583816Y-68351000D01*
X56416184Y-68351000D01*
X56251772Y-68318297D01*
X56096900Y-68254147D01*
X55957519Y-68161015D01*
X55838985Y-68042481D01*
X55745853Y-67903100D01*
X55681703Y-67748228D01*
X55649000Y-67583816D01*
X55649000Y-67416184D01*
X55681703Y-67251772D01*
X55745853Y-67096900D01*
X55838985Y-66957519D01*
X55957519Y-66838985D01*
X56096900Y-66745853D01*
X56251772Y-66681703D01*
X56416184Y-66649000D01*
X56583816Y-66649000D01*
X56748228Y-66681703D01*
G37*
G36*
X63701000Y-62301000D02*
G01*
X59399000Y-62301000D01*
X59399000Y-60849000D01*
X63701000Y-60849000D01*
X63701000Y-62301000D01*
G37*
G36*
X40151000Y-62301000D02*
G01*
X35849000Y-62301000D01*
X35849000Y-60849000D01*
X40151000Y-60849000D01*
X40151000Y-62301000D01*
G37*
G36*
X56748228Y-59061703D02*
G01*
X56903100Y-59125853D01*
X57042481Y-59218985D01*
X57161015Y-59337519D01*
X57254147Y-59476900D01*
X57318297Y-59631772D01*
X57351000Y-59796184D01*
X57351000Y-59963816D01*
X57318297Y-60128228D01*
X57254147Y-60283100D01*
X57161015Y-60422481D01*
X57042481Y-60541015D01*
X56903100Y-60634147D01*
X56748228Y-60698297D01*
X56583816Y-60731000D01*
X56416184Y-60731000D01*
X56251772Y-60698297D01*
X56096900Y-60634147D01*
X55957519Y-60541015D01*
X55838985Y-60422481D01*
X55745853Y-60283100D01*
X55681703Y-60128228D01*
X55649000Y-59963816D01*
X55649000Y-59796184D01*
X55681703Y-59631772D01*
X55745853Y-59476900D01*
X55838985Y-59337519D01*
X55957519Y-59218985D01*
X56096900Y-59125853D01*
X56251772Y-59061703D01*
X56416184Y-59029000D01*
X56583816Y-59029000D01*
X56748228Y-59061703D01*
G37*
G36*
X43248228Y-59061703D02*
G01*
X43403100Y-59125853D01*
X43542481Y-59218985D01*
X43661015Y-59337519D01*
X43754147Y-59476900D01*
X43818297Y-59631772D01*
X43851000Y-59796184D01*
X43851000Y-59963816D01*
X43818297Y-60128228D01*
X43754147Y-60283100D01*
X43661015Y-60422481D01*
X43542481Y-60541015D01*
X43403100Y-60634147D01*
X43248228Y-60698297D01*
X43083816Y-60731000D01*
X42916184Y-60731000D01*
X42751772Y-60698297D01*
X42596900Y-60634147D01*
X42457519Y-60541015D01*
X42338985Y-60422481D01*
X42245853Y-60283100D01*
X42181703Y-60128228D01*
X42149000Y-59963816D01*
X42149000Y-59796184D01*
X42181703Y-59631772D01*
X42245853Y-59476900D01*
X42338985Y-59337519D01*
X42457519Y-59218985D01*
X42596900Y-59125853D01*
X42751772Y-59061703D01*
X42916184Y-59029000D01*
X43083816Y-59029000D01*
X43248228Y-59061703D01*
G37*
G36*
X53868228Y-58681703D02*
G01*
X54023100Y-58745853D01*
X54162481Y-58838985D01*
X54281015Y-58957519D01*
X54374147Y-59096900D01*
X54438297Y-59251772D01*
X54471000Y-59416184D01*
X54471000Y-59583816D01*
X54438297Y-59748228D01*
X54374147Y-59903100D01*
X54281015Y-60042481D01*
X54162481Y-60161015D01*
X54023100Y-60254147D01*
X53868228Y-60318297D01*
X53703816Y-60351000D01*
X53536184Y-60351000D01*
X53371772Y-60318297D01*
X53216900Y-60254147D01*
X53077519Y-60161015D01*
X52958985Y-60042481D01*
X52865853Y-59903100D01*
X52801703Y-59748228D01*
X52769000Y-59583816D01*
X52769000Y-59416184D01*
X52801703Y-59251772D01*
X52865853Y-59096900D01*
X52958985Y-58957519D01*
X53077519Y-58838985D01*
X53216900Y-58745853D01*
X53371772Y-58681703D01*
X53536184Y-58649000D01*
X53703816Y-58649000D01*
X53868228Y-58681703D01*
G37*
G36*
X46248228Y-58681703D02*
G01*
X46403100Y-58745853D01*
X46542481Y-58838985D01*
X46661015Y-58957519D01*
X46754147Y-59096900D01*
X46818297Y-59251772D01*
X46851000Y-59416184D01*
X46851000Y-59583816D01*
X46818297Y-59748228D01*
X46754147Y-59903100D01*
X46661015Y-60042481D01*
X46542481Y-60161015D01*
X46403100Y-60254147D01*
X46248228Y-60318297D01*
X46083816Y-60351000D01*
X45916184Y-60351000D01*
X45751772Y-60318297D01*
X45596900Y-60254147D01*
X45457519Y-60161015D01*
X45338985Y-60042481D01*
X45245853Y-59903100D01*
X45181703Y-59748228D01*
X45149000Y-59583816D01*
X45149000Y-59416184D01*
X45181703Y-59251772D01*
X45245853Y-59096900D01*
X45338985Y-58957519D01*
X45457519Y-58838985D01*
X45596900Y-58745853D01*
X45751772Y-58681703D01*
X45916184Y-58649000D01*
X46083816Y-58649000D01*
X46248228Y-58681703D01*
G37*
G36*
X63601000Y-59436000D02*
G01*
X59899000Y-59436000D01*
X59899000Y-58064000D01*
X63601000Y-58064000D01*
X63601000Y-59436000D01*
G37*
G36*
X39651000Y-59436000D02*
G01*
X35949000Y-59436000D01*
X35949000Y-58064000D01*
X39651000Y-58064000D01*
X39651000Y-59436000D01*
G37*
G36*
X56748228Y-56681703D02*
G01*
X56903100Y-56745853D01*
X57042481Y-56838985D01*
X57161015Y-56957519D01*
X57254147Y-57096900D01*
X57318297Y-57251772D01*
X57351000Y-57416184D01*
X57351000Y-57583816D01*
X57318297Y-57748228D01*
X57254147Y-57903100D01*
X57161015Y-58042481D01*
X57042481Y-58161015D01*
X56903100Y-58254147D01*
X56748228Y-58318297D01*
X56583816Y-58351000D01*
X56416184Y-58351000D01*
X56251772Y-58318297D01*
X56096900Y-58254147D01*
X55957519Y-58161015D01*
X55838985Y-58042481D01*
X55745853Y-57903100D01*
X55681703Y-57748228D01*
X55649000Y-57583816D01*
X55649000Y-57416184D01*
X55681703Y-57251772D01*
X55745853Y-57096900D01*
X55838985Y-56957519D01*
X55957519Y-56838985D01*
X56096900Y-56745853D01*
X56251772Y-56681703D01*
X56416184Y-56649000D01*
X56583816Y-56649000D01*
X56748228Y-56681703D01*
G37*
G36*
X43248228Y-56681703D02*
G01*
X43403100Y-56745853D01*
X43542481Y-56838985D01*
X43661015Y-56957519D01*
X43754147Y-57096900D01*
X43818297Y-57251772D01*
X43851000Y-57416184D01*
X43851000Y-57583816D01*
X43818297Y-57748228D01*
X43754147Y-57903100D01*
X43661015Y-58042481D01*
X43542481Y-58161015D01*
X43403100Y-58254147D01*
X43248228Y-58318297D01*
X43083816Y-58351000D01*
X42916184Y-58351000D01*
X42751772Y-58318297D01*
X42596900Y-58254147D01*
X42457519Y-58161015D01*
X42338985Y-58042481D01*
X42245853Y-57903100D01*
X42181703Y-57748228D01*
X42149000Y-57583816D01*
X42149000Y-57416184D01*
X42181703Y-57251772D01*
X42245853Y-57096900D01*
X42338985Y-56957519D01*
X42457519Y-56838985D01*
X42596900Y-56745853D01*
X42751772Y-56681703D01*
X42916184Y-56649000D01*
X43083816Y-56649000D01*
X43248228Y-56681703D01*
G37*
G36*
X46248228Y-55181703D02*
G01*
X46403100Y-55245853D01*
X46542481Y-55338985D01*
X46661015Y-55457519D01*
X46754147Y-55596900D01*
X46818297Y-55751772D01*
X46851000Y-55916184D01*
X46851000Y-56083816D01*
X46818297Y-56248228D01*
X46754147Y-56403100D01*
X46661015Y-56542481D01*
X46542481Y-56661015D01*
X46403100Y-56754147D01*
X46248228Y-56818297D01*
X46083816Y-56851000D01*
X45916184Y-56851000D01*
X45751772Y-56818297D01*
X45596900Y-56754147D01*
X45457519Y-56661015D01*
X45338985Y-56542481D01*
X45245853Y-56403100D01*
X45181703Y-56248228D01*
X45149000Y-56083816D01*
X45149000Y-55916184D01*
X45181703Y-55751772D01*
X45245853Y-55596900D01*
X45338985Y-55457519D01*
X45457519Y-55338985D01*
X45596900Y-55245853D01*
X45751772Y-55181703D01*
X45916184Y-55149000D01*
X46083816Y-55149000D01*
X46248228Y-55181703D01*
G37*
G36*
X53868228Y-55181703D02*
G01*
X54023100Y-55245853D01*
X54162481Y-55338985D01*
X54281015Y-55457519D01*
X54374147Y-55596900D01*
X54438297Y-55751772D01*
X54471000Y-55916184D01*
X54471000Y-56083816D01*
X54438297Y-56248228D01*
X54374147Y-56403100D01*
X54281015Y-56542481D01*
X54162481Y-56661015D01*
X54023100Y-56754147D01*
X53868228Y-56818297D01*
X53703816Y-56851000D01*
X53536184Y-56851000D01*
X53371772Y-56818297D01*
X53216900Y-56754147D01*
X53077519Y-56661015D01*
X52958985Y-56542481D01*
X52865853Y-56403100D01*
X52801703Y-56248228D01*
X52769000Y-56083816D01*
X52769000Y-55916184D01*
X52801703Y-55751772D01*
X52865853Y-55596900D01*
X52958985Y-55457519D01*
X53077519Y-55338985D01*
X53216900Y-55245853D01*
X53371772Y-55181703D01*
X53536184Y-55149000D01*
X53703816Y-55149000D01*
X53868228Y-55181703D01*
G37*
G36*
X40151000Y-56651000D02*
G01*
X35849000Y-56651000D01*
X35849000Y-55199000D01*
X40151000Y-55199000D01*
X40151000Y-56651000D01*
G37*
G36*
X63701000Y-56651000D02*
G01*
X59399000Y-56651000D01*
X59399000Y-55199000D01*
X63701000Y-55199000D01*
X63701000Y-56651000D01*
G37*
G36*
X56748228Y-49061703D02*
G01*
X56903100Y-49125853D01*
X57042481Y-49218985D01*
X57161015Y-49337519D01*
X57254147Y-49476900D01*
X57318297Y-49631772D01*
X57351000Y-49796184D01*
X57351000Y-49963816D01*
X57318297Y-50128228D01*
X57254147Y-50283100D01*
X57161015Y-50422481D01*
X57042481Y-50541015D01*
X56903100Y-50634147D01*
X56748228Y-50698297D01*
X56583816Y-50731000D01*
X56416184Y-50731000D01*
X56251772Y-50698297D01*
X56096900Y-50634147D01*
X55957519Y-50541015D01*
X55838985Y-50422481D01*
X55745853Y-50283100D01*
X55681703Y-50128228D01*
X55649000Y-49963816D01*
X55649000Y-49796184D01*
X55681703Y-49631772D01*
X55745853Y-49476900D01*
X55838985Y-49337519D01*
X55957519Y-49218985D01*
X56096900Y-49125853D01*
X56251772Y-49061703D01*
X56416184Y-49029000D01*
X56583816Y-49029000D01*
X56748228Y-49061703D01*
G37*
G36*
X43248228Y-49061703D02*
G01*
X43403100Y-49125853D01*
X43542481Y-49218985D01*
X43661015Y-49337519D01*
X43754147Y-49476900D01*
X43818297Y-49631772D01*
X43851000Y-49796184D01*
X43851000Y-49963816D01*
X43818297Y-50128228D01*
X43754147Y-50283100D01*
X43661015Y-50422481D01*
X43542481Y-50541015D01*
X43403100Y-50634147D01*
X43248228Y-50698297D01*
X43083816Y-50731000D01*
X42916184Y-50731000D01*
X42751772Y-50698297D01*
X42596900Y-50634147D01*
X42457519Y-50541015D01*
X42338985Y-50422481D01*
X42245853Y-50283100D01*
X42181703Y-50128228D01*
X42149000Y-49963816D01*
X42149000Y-49796184D01*
X42181703Y-49631772D01*
X42245853Y-49476900D01*
X42338985Y-49337519D01*
X42457519Y-49218985D01*
X42596900Y-49125853D01*
X42751772Y-49061703D01*
X42916184Y-49029000D01*
X43083816Y-49029000D01*
X43248228Y-49061703D01*
G37*
G36*
X57770781Y-42103295D02*
G01*
X57806816Y-42114227D01*
X57840024Y-42131977D01*
X57869134Y-42155866D01*
X57893023Y-42184976D01*
X57910773Y-42218184D01*
X57921705Y-42254219D01*
X57926000Y-42297831D01*
X57926000Y-43302169D01*
X57921705Y-43345781D01*
X57910773Y-43381816D01*
X57893023Y-43415024D01*
X57869134Y-43444134D01*
X57840024Y-43468023D01*
X57806816Y-43485773D01*
X57770781Y-43496705D01*
X57727169Y-43501000D01*
X56272831Y-43501000D01*
X56229219Y-43496705D01*
X56193184Y-43485773D01*
X56159976Y-43468023D01*
X56130866Y-43444134D01*
X56106977Y-43415024D01*
X56089227Y-43381816D01*
X56078295Y-43345781D01*
X56074000Y-43302169D01*
X56074000Y-42297831D01*
X56078295Y-42254219D01*
X56089227Y-42218184D01*
X56106977Y-42184976D01*
X56130866Y-42155866D01*
X56159976Y-42131977D01*
X56193184Y-42114227D01*
X56229219Y-42103295D01*
X56272831Y-42099000D01*
X57727169Y-42099000D01*
X57770781Y-42103295D01*
G37*
G36*
X45270781Y-42103295D02*
G01*
X45306816Y-42114227D01*
X45340024Y-42131977D01*
X45369134Y-42155866D01*
X45393023Y-42184976D01*
X45410773Y-42218184D01*
X45421705Y-42254219D01*
X45426000Y-42297831D01*
X45426000Y-43302169D01*
X45421705Y-43345781D01*
X45410773Y-43381816D01*
X45393023Y-43415024D01*
X45369134Y-43444134D01*
X45340024Y-43468023D01*
X45306816Y-43485773D01*
X45270781Y-43496705D01*
X45227169Y-43501000D01*
X43772831Y-43501000D01*
X43729219Y-43496705D01*
X43693184Y-43485773D01*
X43659976Y-43468023D01*
X43630866Y-43444134D01*
X43606977Y-43415024D01*
X43589227Y-43381816D01*
X43578295Y-43345781D01*
X43574000Y-43302169D01*
X43574000Y-42297831D01*
X43578295Y-42254219D01*
X43589227Y-42218184D01*
X43606977Y-42184976D01*
X43630866Y-42155866D01*
X43659976Y-42131977D01*
X43693184Y-42114227D01*
X43729219Y-42103295D01*
X43772831Y-42099000D01*
X45227169Y-42099000D01*
X45270781Y-42103295D01*
G37*
G36*
X63626000Y-42051000D02*
G01*
X59324000Y-42051000D01*
X59324000Y-40599000D01*
X63626000Y-40599000D01*
X63626000Y-42051000D01*
G37*
G36*
X40151000Y-42051000D02*
G01*
X35849000Y-42051000D01*
X35849000Y-40599000D01*
X40151000Y-40599000D01*
X40151000Y-42051000D01*
G37*
G36*
X52595781Y-39078295D02*
G01*
X52631816Y-39089227D01*
X52665024Y-39106977D01*
X52694134Y-39130866D01*
X52718023Y-39159976D01*
X52735773Y-39193184D01*
X52746705Y-39229219D01*
X52751000Y-39272831D01*
X52751000Y-40727169D01*
X52746705Y-40770781D01*
X52735773Y-40806816D01*
X52718023Y-40840024D01*
X52694134Y-40869134D01*
X52665024Y-40893023D01*
X52631816Y-40910773D01*
X52595781Y-40921705D01*
X52552169Y-40926000D01*
X51547831Y-40926000D01*
X51504219Y-40921705D01*
X51468184Y-40910773D01*
X51434976Y-40893023D01*
X51405866Y-40869134D01*
X51381977Y-40840024D01*
X51364227Y-40806816D01*
X51353295Y-40770781D01*
X51349000Y-40727169D01*
X51349000Y-39272831D01*
X51353295Y-39229219D01*
X51364227Y-39193184D01*
X51381977Y-39159976D01*
X51405866Y-39130866D01*
X51434976Y-39106977D01*
X51468184Y-39089227D01*
X51504219Y-39078295D01*
X51547831Y-39074000D01*
X52552169Y-39074000D01*
X52595781Y-39078295D01*
G37*
G36*
X49495781Y-39078295D02*
G01*
X49531816Y-39089227D01*
X49565024Y-39106977D01*
X49594134Y-39130866D01*
X49618023Y-39159976D01*
X49635773Y-39193184D01*
X49646705Y-39229219D01*
X49651000Y-39272831D01*
X49651000Y-40727169D01*
X49646705Y-40770781D01*
X49635773Y-40806816D01*
X49618023Y-40840024D01*
X49594134Y-40869134D01*
X49565024Y-40893023D01*
X49531816Y-40910773D01*
X49495781Y-40921705D01*
X49452169Y-40926000D01*
X48447831Y-40926000D01*
X48404219Y-40921705D01*
X48368184Y-40910773D01*
X48334976Y-40893023D01*
X48305866Y-40869134D01*
X48281977Y-40840024D01*
X48264227Y-40806816D01*
X48253295Y-40770781D01*
X48249000Y-40727169D01*
X48249000Y-39272831D01*
X48253295Y-39229219D01*
X48264227Y-39193184D01*
X48281977Y-39159976D01*
X48305866Y-39130866D01*
X48334976Y-39106977D01*
X48368184Y-39089227D01*
X48404219Y-39078295D01*
X48447831Y-39074000D01*
X49452169Y-39074000D01*
X49495781Y-39078295D01*
G37*
G36*
X57770781Y-39003295D02*
G01*
X57806816Y-39014227D01*
X57840024Y-39031977D01*
X57869134Y-39055866D01*
X57893023Y-39084976D01*
X57910773Y-39118184D01*
X57921705Y-39154219D01*
X57926000Y-39197831D01*
X57926000Y-40202169D01*
X57921705Y-40245781D01*
X57910773Y-40281816D01*
X57893023Y-40315024D01*
X57869134Y-40344134D01*
X57840024Y-40368023D01*
X57806816Y-40385773D01*
X57770781Y-40396705D01*
X57727169Y-40401000D01*
X56272831Y-40401000D01*
X56229219Y-40396705D01*
X56193184Y-40385773D01*
X56159976Y-40368023D01*
X56130866Y-40344134D01*
X56106977Y-40315024D01*
X56089227Y-40281816D01*
X56078295Y-40245781D01*
X56074000Y-40202169D01*
X56074000Y-39197831D01*
X56078295Y-39154219D01*
X56089227Y-39118184D01*
X56106977Y-39084976D01*
X56130866Y-39055866D01*
X56159976Y-39031977D01*
X56193184Y-39014227D01*
X56229219Y-39003295D01*
X56272831Y-38999000D01*
X57727169Y-38999000D01*
X57770781Y-39003295D01*
G37*
G36*
X45270781Y-39003295D02*
G01*
X45306816Y-39014227D01*
X45340024Y-39031977D01*
X45369134Y-39055866D01*
X45393023Y-39084976D01*
X45410773Y-39118184D01*
X45421705Y-39154219D01*
X45426000Y-39197831D01*
X45426000Y-40202169D01*
X45421705Y-40245781D01*
X45410773Y-40281816D01*
X45393023Y-40315024D01*
X45369134Y-40344134D01*
X45340024Y-40368023D01*
X45306816Y-40385773D01*
X45270781Y-40396705D01*
X45227169Y-40401000D01*
X43772831Y-40401000D01*
X43729219Y-40396705D01*
X43693184Y-40385773D01*
X43659976Y-40368023D01*
X43630866Y-40344134D01*
X43606977Y-40315024D01*
X43589227Y-40281816D01*
X43578295Y-40245781D01*
X43574000Y-40202169D01*
X43574000Y-39197831D01*
X43578295Y-39154219D01*
X43589227Y-39118184D01*
X43606977Y-39084976D01*
X43630866Y-39055866D01*
X43659976Y-39031977D01*
X43693184Y-39014227D01*
X43729219Y-39003295D01*
X43772831Y-38999000D01*
X45227169Y-38999000D01*
X45270781Y-39003295D01*
G37*
G36*
X39651000Y-39186000D02*
G01*
X35949000Y-39186000D01*
X35949000Y-37814000D01*
X39651000Y-37814000D01*
X39651000Y-39186000D01*
G37*
G36*
X63526000Y-39186000D02*
G01*
X59824000Y-39186000D01*
X59824000Y-37814000D01*
X63526000Y-37814000D01*
X63526000Y-39186000D01*
G37*
G36*
X57770781Y-36603295D02*
G01*
X57806816Y-36614227D01*
X57840024Y-36631977D01*
X57869134Y-36655866D01*
X57893023Y-36684976D01*
X57910773Y-36718184D01*
X57921705Y-36754219D01*
X57926000Y-36797831D01*
X57926000Y-37802169D01*
X57921705Y-37845781D01*
X57910773Y-37881816D01*
X57893023Y-37915024D01*
X57869134Y-37944134D01*
X57840024Y-37968023D01*
X57806816Y-37985773D01*
X57770781Y-37996705D01*
X57727169Y-38001000D01*
X56272831Y-38001000D01*
X56229219Y-37996705D01*
X56193184Y-37985773D01*
X56159976Y-37968023D01*
X56130866Y-37944134D01*
X56106977Y-37915024D01*
X56089227Y-37881816D01*
X56078295Y-37845781D01*
X56074000Y-37802169D01*
X56074000Y-36797831D01*
X56078295Y-36754219D01*
X56089227Y-36718184D01*
X56106977Y-36684976D01*
X56130866Y-36655866D01*
X56159976Y-36631977D01*
X56193184Y-36614227D01*
X56229219Y-36603295D01*
X56272831Y-36599000D01*
X57727169Y-36599000D01*
X57770781Y-36603295D01*
G37*
G36*
X45270781Y-36553295D02*
G01*
X45306816Y-36564227D01*
X45340024Y-36581977D01*
X45369134Y-36605866D01*
X45393023Y-36634976D01*
X45410773Y-36668184D01*
X45421705Y-36704219D01*
X45426000Y-36747831D01*
X45426000Y-37752169D01*
X45421705Y-37795781D01*
X45410773Y-37831816D01*
X45393023Y-37865024D01*
X45369134Y-37894134D01*
X45340024Y-37918023D01*
X45306816Y-37935773D01*
X45270781Y-37946705D01*
X45227169Y-37951000D01*
X43772831Y-37951000D01*
X43729219Y-37946705D01*
X43693184Y-37935773D01*
X43659976Y-37918023D01*
X43630866Y-37894134D01*
X43606977Y-37865024D01*
X43589227Y-37831816D01*
X43578295Y-37795781D01*
X43574000Y-37752169D01*
X43574000Y-36747831D01*
X43578295Y-36704219D01*
X43589227Y-36668184D01*
X43606977Y-36634976D01*
X43630866Y-36605866D01*
X43659976Y-36581977D01*
X43693184Y-36564227D01*
X43729219Y-36553295D01*
X43772831Y-36549000D01*
X45227169Y-36549000D01*
X45270781Y-36553295D01*
G37*
G36*
X49495781Y-36078295D02*
G01*
X49531816Y-36089227D01*
X49565024Y-36106977D01*
X49594134Y-36130866D01*
X49618023Y-36159976D01*
X49635773Y-36193184D01*
X49646705Y-36229219D01*
X49651000Y-36272831D01*
X49651000Y-37727169D01*
X49646705Y-37770781D01*
X49635773Y-37806816D01*
X49618023Y-37840024D01*
X49594134Y-37869134D01*
X49565024Y-37893023D01*
X49531816Y-37910773D01*
X49495781Y-37921705D01*
X49452169Y-37926000D01*
X48447831Y-37926000D01*
X48404219Y-37921705D01*
X48368184Y-37910773D01*
X48334976Y-37893023D01*
X48305866Y-37869134D01*
X48281977Y-37840024D01*
X48264227Y-37806816D01*
X48253295Y-37770781D01*
X48249000Y-37727169D01*
X48249000Y-36272831D01*
X48253295Y-36229219D01*
X48264227Y-36193184D01*
X48281977Y-36159976D01*
X48305866Y-36130866D01*
X48334976Y-36106977D01*
X48368184Y-36089227D01*
X48404219Y-36078295D01*
X48447831Y-36074000D01*
X49452169Y-36074000D01*
X49495781Y-36078295D01*
G37*
G36*
X52595781Y-36078295D02*
G01*
X52631816Y-36089227D01*
X52665024Y-36106977D01*
X52694134Y-36130866D01*
X52718023Y-36159976D01*
X52735773Y-36193184D01*
X52746705Y-36229219D01*
X52751000Y-36272831D01*
X52751000Y-37727169D01*
X52746705Y-37770781D01*
X52735773Y-37806816D01*
X52718023Y-37840024D01*
X52694134Y-37869134D01*
X52665024Y-37893023D01*
X52631816Y-37910773D01*
X52595781Y-37921705D01*
X52552169Y-37926000D01*
X51547831Y-37926000D01*
X51504219Y-37921705D01*
X51468184Y-37910773D01*
X51434976Y-37893023D01*
X51405866Y-37869134D01*
X51381977Y-37840024D01*
X51364227Y-37806816D01*
X51353295Y-37770781D01*
X51349000Y-37727169D01*
X51349000Y-36272831D01*
X51353295Y-36229219D01*
X51364227Y-36193184D01*
X51381977Y-36159976D01*
X51405866Y-36130866D01*
X51434976Y-36106977D01*
X51468184Y-36089227D01*
X51504219Y-36078295D01*
X51547831Y-36074000D01*
X52552169Y-36074000D01*
X52595781Y-36078295D01*
G37*
G36*
X63626000Y-36401000D02*
G01*
X59324000Y-36401000D01*
X59324000Y-34949000D01*
X63626000Y-34949000D01*
X63626000Y-36401000D01*
G37*
G36*
X40151000Y-36401000D02*
G01*
X35849000Y-36401000D01*
X35849000Y-34949000D01*
X40151000Y-34949000D01*
X40151000Y-36401000D01*
G37*
G36*
X57770781Y-33503295D02*
G01*
X57806816Y-33514227D01*
X57840024Y-33531977D01*
X57869134Y-33555866D01*
X57893023Y-33584976D01*
X57910773Y-33618184D01*
X57921705Y-33654219D01*
X57926000Y-33697831D01*
X57926000Y-34702169D01*
X57921705Y-34745781D01*
X57910773Y-34781816D01*
X57893023Y-34815024D01*
X57869134Y-34844134D01*
X57840024Y-34868023D01*
X57806816Y-34885773D01*
X57770781Y-34896705D01*
X57727169Y-34901000D01*
X56272831Y-34901000D01*
X56229219Y-34896705D01*
X56193184Y-34885773D01*
X56159976Y-34868023D01*
X56130866Y-34844134D01*
X56106977Y-34815024D01*
X56089227Y-34781816D01*
X56078295Y-34745781D01*
X56074000Y-34702169D01*
X56074000Y-33697831D01*
X56078295Y-33654219D01*
X56089227Y-33618184D01*
X56106977Y-33584976D01*
X56130866Y-33555866D01*
X56159976Y-33531977D01*
X56193184Y-33514227D01*
X56229219Y-33503295D01*
X56272831Y-33499000D01*
X57727169Y-33499000D01*
X57770781Y-33503295D01*
G37*
G36*
X45270781Y-33453295D02*
G01*
X45306816Y-33464227D01*
X45340024Y-33481977D01*
X45369134Y-33505866D01*
X45393023Y-33534976D01*
X45410773Y-33568184D01*
X45421705Y-33604219D01*
X45426000Y-33647831D01*
X45426000Y-34652169D01*
X45421705Y-34695781D01*
X45410773Y-34731816D01*
X45393023Y-34765024D01*
X45369134Y-34794134D01*
X45340024Y-34818023D01*
X45306816Y-34835773D01*
X45270781Y-34846705D01*
X45227169Y-34851000D01*
X43772831Y-34851000D01*
X43729219Y-34846705D01*
X43693184Y-34835773D01*
X43659976Y-34818023D01*
X43630866Y-34794134D01*
X43606977Y-34765024D01*
X43589227Y-34731816D01*
X43578295Y-34695781D01*
X43574000Y-34652169D01*
X43574000Y-33647831D01*
X43578295Y-33604219D01*
X43589227Y-33568184D01*
X43606977Y-33534976D01*
X43630866Y-33505866D01*
X43659976Y-33481977D01*
X43693184Y-33464227D01*
X43729219Y-33453295D01*
X43772831Y-33449000D01*
X45227169Y-33449000D01*
X45270781Y-33453295D01*
G37*
G36*
X61056202Y-26195781D02*
G01*
X61331606Y-26250562D01*
X61850455Y-26465476D01*
X62317407Y-26777484D01*
X62714516Y-27174593D01*
X63026524Y-27641545D01*
X63241438Y-28160394D01*
X63351000Y-28711201D01*
X63351000Y-29272799D01*
X63241438Y-29823606D01*
X63026524Y-30342455D01*
X62714516Y-30809407D01*
X62317407Y-31206516D01*
X61850455Y-31518524D01*
X61331606Y-31733438D01*
X61056202Y-31788219D01*
X60780800Y-31843000D01*
X60219200Y-31843000D01*
X59943798Y-31788219D01*
X59668394Y-31733438D01*
X59149545Y-31518524D01*
X58682593Y-31206516D01*
X58285484Y-30809407D01*
X57973476Y-30342455D01*
X57758562Y-29823606D01*
X57649000Y-29272799D01*
X57649000Y-28711201D01*
X57758562Y-28160394D01*
X57973476Y-27641545D01*
X58285484Y-27174593D01*
X58682593Y-26777484D01*
X59149545Y-26465476D01*
X59668394Y-26250562D01*
X59943798Y-26195781D01*
X60219200Y-26141000D01*
X60780800Y-26141000D01*
X61056202Y-26195781D01*
G37*
G36*
X39556202Y-26195781D02*
G01*
X39831606Y-26250562D01*
X40350455Y-26465476D01*
X40817407Y-26777484D01*
X41214516Y-27174593D01*
X41526524Y-27641545D01*
X41741438Y-28160394D01*
X41851000Y-28711201D01*
X41851000Y-29272799D01*
X41741438Y-29823606D01*
X41526524Y-30342455D01*
X41214516Y-30809407D01*
X40817407Y-31206516D01*
X40350455Y-31518524D01*
X39831606Y-31733438D01*
X39556202Y-31788219D01*
X39280800Y-31843000D01*
X38719200Y-31843000D01*
X38443798Y-31788219D01*
X38168394Y-31733438D01*
X37649545Y-31518524D01*
X37182593Y-31206516D01*
X36785484Y-30809407D01*
X36473476Y-30342455D01*
X36258562Y-29823606D01*
X36149000Y-29272799D01*
X36149000Y-28711201D01*
X36258562Y-28160394D01*
X36473476Y-27641545D01*
X36785484Y-27174593D01*
X37182593Y-26777484D01*
X37649545Y-26465476D01*
X38168394Y-26250562D01*
X38443798Y-26195781D01*
X38719200Y-26141000D01*
X39280800Y-26141000D01*
X39556202Y-26195781D01*
G37*
M02*
