G04 #@! TF.GenerationSoftware,KiCad,Pcbnew,(5.1.5)-3*
G04 #@! TF.CreationDate,2020-11-12T14:52:36+01:00*
G04 #@! TF.ProjectId,50 to 50 Attenuators,35302074-6f20-4353-9020-417474656e75,rev?*
G04 #@! TF.SameCoordinates,Original*
G04 #@! TF.FileFunction,Paste,Top*
G04 #@! TF.FilePolarity,Positive*
%FSLAX46Y46*%
G04 Gerber Fmt 4.6, Leading zero omitted, Abs format (unit mm)*
G04 Created by KiCad (PCBNEW (5.1.5)-3) date 2020-11-12 14:52:36*
%MOMM*%
%LPD*%
G04 APERTURE LIST*
%ADD10R,3.600000X1.270000*%
%ADD11R,4.200000X1.350000*%
%ADD12C,0.100000*%
G04 APERTURE END LIST*
D10*
X37800000Y-38500000D03*
D11*
X38000000Y-41325000D03*
X38000000Y-35675000D03*
D10*
X61675000Y-38500000D03*
D11*
X61475000Y-35675000D03*
X61475000Y-41325000D03*
X38000000Y-55925000D03*
X38000000Y-61575000D03*
D10*
X37800000Y-58750000D03*
D11*
X61550000Y-61575000D03*
X61550000Y-55925000D03*
D10*
X61750000Y-58750000D03*
D11*
X38000000Y-76175000D03*
X38000000Y-81825000D03*
D10*
X37800000Y-79000000D03*
X61700000Y-79000000D03*
D11*
X61500000Y-76175000D03*
X61500000Y-81825000D03*
X38000000Y-92675000D03*
X38000000Y-98325000D03*
D10*
X37800000Y-95500000D03*
X61700000Y-95500000D03*
D11*
X61500000Y-92675000D03*
X61500000Y-98325000D03*
D10*
X37800000Y-112000000D03*
D11*
X38000000Y-114825000D03*
X38000000Y-109175000D03*
X61500000Y-114825000D03*
X61500000Y-109175000D03*
D10*
X61700000Y-112000000D03*
D12*
G36*
X45149504Y-33501204D02*
G01*
X45173773Y-33504804D01*
X45197571Y-33510765D01*
X45220671Y-33519030D01*
X45242849Y-33529520D01*
X45263893Y-33542133D01*
X45283598Y-33556747D01*
X45301777Y-33573223D01*
X45318253Y-33591402D01*
X45332867Y-33611107D01*
X45345480Y-33632151D01*
X45355970Y-33654329D01*
X45364235Y-33677429D01*
X45370196Y-33701227D01*
X45373796Y-33725496D01*
X45375000Y-33750000D01*
X45375000Y-34550000D01*
X45373796Y-34574504D01*
X45370196Y-34598773D01*
X45364235Y-34622571D01*
X45355970Y-34645671D01*
X45345480Y-34667849D01*
X45332867Y-34688893D01*
X45318253Y-34708598D01*
X45301777Y-34726777D01*
X45283598Y-34743253D01*
X45263893Y-34757867D01*
X45242849Y-34770480D01*
X45220671Y-34780970D01*
X45197571Y-34789235D01*
X45173773Y-34795196D01*
X45149504Y-34798796D01*
X45125000Y-34800000D01*
X43875000Y-34800000D01*
X43850496Y-34798796D01*
X43826227Y-34795196D01*
X43802429Y-34789235D01*
X43779329Y-34780970D01*
X43757151Y-34770480D01*
X43736107Y-34757867D01*
X43716402Y-34743253D01*
X43698223Y-34726777D01*
X43681747Y-34708598D01*
X43667133Y-34688893D01*
X43654520Y-34667849D01*
X43644030Y-34645671D01*
X43635765Y-34622571D01*
X43629804Y-34598773D01*
X43626204Y-34574504D01*
X43625000Y-34550000D01*
X43625000Y-33750000D01*
X43626204Y-33725496D01*
X43629804Y-33701227D01*
X43635765Y-33677429D01*
X43644030Y-33654329D01*
X43654520Y-33632151D01*
X43667133Y-33611107D01*
X43681747Y-33591402D01*
X43698223Y-33573223D01*
X43716402Y-33556747D01*
X43736107Y-33542133D01*
X43757151Y-33529520D01*
X43779329Y-33519030D01*
X43802429Y-33510765D01*
X43826227Y-33504804D01*
X43850496Y-33501204D01*
X43875000Y-33500000D01*
X45125000Y-33500000D01*
X45149504Y-33501204D01*
G37*
G36*
X45149504Y-36601204D02*
G01*
X45173773Y-36604804D01*
X45197571Y-36610765D01*
X45220671Y-36619030D01*
X45242849Y-36629520D01*
X45263893Y-36642133D01*
X45283598Y-36656747D01*
X45301777Y-36673223D01*
X45318253Y-36691402D01*
X45332867Y-36711107D01*
X45345480Y-36732151D01*
X45355970Y-36754329D01*
X45364235Y-36777429D01*
X45370196Y-36801227D01*
X45373796Y-36825496D01*
X45375000Y-36850000D01*
X45375000Y-37650000D01*
X45373796Y-37674504D01*
X45370196Y-37698773D01*
X45364235Y-37722571D01*
X45355970Y-37745671D01*
X45345480Y-37767849D01*
X45332867Y-37788893D01*
X45318253Y-37808598D01*
X45301777Y-37826777D01*
X45283598Y-37843253D01*
X45263893Y-37857867D01*
X45242849Y-37870480D01*
X45220671Y-37880970D01*
X45197571Y-37889235D01*
X45173773Y-37895196D01*
X45149504Y-37898796D01*
X45125000Y-37900000D01*
X43875000Y-37900000D01*
X43850496Y-37898796D01*
X43826227Y-37895196D01*
X43802429Y-37889235D01*
X43779329Y-37880970D01*
X43757151Y-37870480D01*
X43736107Y-37857867D01*
X43716402Y-37843253D01*
X43698223Y-37826777D01*
X43681747Y-37808598D01*
X43667133Y-37788893D01*
X43654520Y-37767849D01*
X43644030Y-37745671D01*
X43635765Y-37722571D01*
X43629804Y-37698773D01*
X43626204Y-37674504D01*
X43625000Y-37650000D01*
X43625000Y-36850000D01*
X43626204Y-36825496D01*
X43629804Y-36801227D01*
X43635765Y-36777429D01*
X43644030Y-36754329D01*
X43654520Y-36732151D01*
X43667133Y-36711107D01*
X43681747Y-36691402D01*
X43698223Y-36673223D01*
X43716402Y-36656747D01*
X43736107Y-36642133D01*
X43757151Y-36629520D01*
X43779329Y-36619030D01*
X43802429Y-36610765D01*
X43826227Y-36604804D01*
X43850496Y-36601204D01*
X43875000Y-36600000D01*
X45125000Y-36600000D01*
X45149504Y-36601204D01*
G37*
G36*
X57649504Y-36651204D02*
G01*
X57673773Y-36654804D01*
X57697571Y-36660765D01*
X57720671Y-36669030D01*
X57742849Y-36679520D01*
X57763893Y-36692133D01*
X57783598Y-36706747D01*
X57801777Y-36723223D01*
X57818253Y-36741402D01*
X57832867Y-36761107D01*
X57845480Y-36782151D01*
X57855970Y-36804329D01*
X57864235Y-36827429D01*
X57870196Y-36851227D01*
X57873796Y-36875496D01*
X57875000Y-36900000D01*
X57875000Y-37700000D01*
X57873796Y-37724504D01*
X57870196Y-37748773D01*
X57864235Y-37772571D01*
X57855970Y-37795671D01*
X57845480Y-37817849D01*
X57832867Y-37838893D01*
X57818253Y-37858598D01*
X57801777Y-37876777D01*
X57783598Y-37893253D01*
X57763893Y-37907867D01*
X57742849Y-37920480D01*
X57720671Y-37930970D01*
X57697571Y-37939235D01*
X57673773Y-37945196D01*
X57649504Y-37948796D01*
X57625000Y-37950000D01*
X56375000Y-37950000D01*
X56350496Y-37948796D01*
X56326227Y-37945196D01*
X56302429Y-37939235D01*
X56279329Y-37930970D01*
X56257151Y-37920480D01*
X56236107Y-37907867D01*
X56216402Y-37893253D01*
X56198223Y-37876777D01*
X56181747Y-37858598D01*
X56167133Y-37838893D01*
X56154520Y-37817849D01*
X56144030Y-37795671D01*
X56135765Y-37772571D01*
X56129804Y-37748773D01*
X56126204Y-37724504D01*
X56125000Y-37700000D01*
X56125000Y-36900000D01*
X56126204Y-36875496D01*
X56129804Y-36851227D01*
X56135765Y-36827429D01*
X56144030Y-36804329D01*
X56154520Y-36782151D01*
X56167133Y-36761107D01*
X56181747Y-36741402D01*
X56198223Y-36723223D01*
X56216402Y-36706747D01*
X56236107Y-36692133D01*
X56257151Y-36679520D01*
X56279329Y-36669030D01*
X56302429Y-36660765D01*
X56326227Y-36654804D01*
X56350496Y-36651204D01*
X56375000Y-36650000D01*
X57625000Y-36650000D01*
X57649504Y-36651204D01*
G37*
G36*
X57649504Y-33551204D02*
G01*
X57673773Y-33554804D01*
X57697571Y-33560765D01*
X57720671Y-33569030D01*
X57742849Y-33579520D01*
X57763893Y-33592133D01*
X57783598Y-33606747D01*
X57801777Y-33623223D01*
X57818253Y-33641402D01*
X57832867Y-33661107D01*
X57845480Y-33682151D01*
X57855970Y-33704329D01*
X57864235Y-33727429D01*
X57870196Y-33751227D01*
X57873796Y-33775496D01*
X57875000Y-33800000D01*
X57875000Y-34600000D01*
X57873796Y-34624504D01*
X57870196Y-34648773D01*
X57864235Y-34672571D01*
X57855970Y-34695671D01*
X57845480Y-34717849D01*
X57832867Y-34738893D01*
X57818253Y-34758598D01*
X57801777Y-34776777D01*
X57783598Y-34793253D01*
X57763893Y-34807867D01*
X57742849Y-34820480D01*
X57720671Y-34830970D01*
X57697571Y-34839235D01*
X57673773Y-34845196D01*
X57649504Y-34848796D01*
X57625000Y-34850000D01*
X56375000Y-34850000D01*
X56350496Y-34848796D01*
X56326227Y-34845196D01*
X56302429Y-34839235D01*
X56279329Y-34830970D01*
X56257151Y-34820480D01*
X56236107Y-34807867D01*
X56216402Y-34793253D01*
X56198223Y-34776777D01*
X56181747Y-34758598D01*
X56167133Y-34738893D01*
X56154520Y-34717849D01*
X56144030Y-34695671D01*
X56135765Y-34672571D01*
X56129804Y-34648773D01*
X56126204Y-34624504D01*
X56125000Y-34600000D01*
X56125000Y-33800000D01*
X56126204Y-33775496D01*
X56129804Y-33751227D01*
X56135765Y-33727429D01*
X56144030Y-33704329D01*
X56154520Y-33682151D01*
X56167133Y-33661107D01*
X56181747Y-33641402D01*
X56198223Y-33623223D01*
X56216402Y-33606747D01*
X56236107Y-33592133D01*
X56257151Y-33579520D01*
X56279329Y-33569030D01*
X56302429Y-33560765D01*
X56326227Y-33554804D01*
X56350496Y-33551204D01*
X56375000Y-33550000D01*
X57625000Y-33550000D01*
X57649504Y-33551204D01*
G37*
G36*
X52474504Y-39126204D02*
G01*
X52498773Y-39129804D01*
X52522571Y-39135765D01*
X52545671Y-39144030D01*
X52567849Y-39154520D01*
X52588893Y-39167133D01*
X52608598Y-39181747D01*
X52626777Y-39198223D01*
X52643253Y-39216402D01*
X52657867Y-39236107D01*
X52670480Y-39257151D01*
X52680970Y-39279329D01*
X52689235Y-39302429D01*
X52695196Y-39326227D01*
X52698796Y-39350496D01*
X52700000Y-39375000D01*
X52700000Y-40625000D01*
X52698796Y-40649504D01*
X52695196Y-40673773D01*
X52689235Y-40697571D01*
X52680970Y-40720671D01*
X52670480Y-40742849D01*
X52657867Y-40763893D01*
X52643253Y-40783598D01*
X52626777Y-40801777D01*
X52608598Y-40818253D01*
X52588893Y-40832867D01*
X52567849Y-40845480D01*
X52545671Y-40855970D01*
X52522571Y-40864235D01*
X52498773Y-40870196D01*
X52474504Y-40873796D01*
X52450000Y-40875000D01*
X51650000Y-40875000D01*
X51625496Y-40873796D01*
X51601227Y-40870196D01*
X51577429Y-40864235D01*
X51554329Y-40855970D01*
X51532151Y-40845480D01*
X51511107Y-40832867D01*
X51491402Y-40818253D01*
X51473223Y-40801777D01*
X51456747Y-40783598D01*
X51442133Y-40763893D01*
X51429520Y-40742849D01*
X51419030Y-40720671D01*
X51410765Y-40697571D01*
X51404804Y-40673773D01*
X51401204Y-40649504D01*
X51400000Y-40625000D01*
X51400000Y-39375000D01*
X51401204Y-39350496D01*
X51404804Y-39326227D01*
X51410765Y-39302429D01*
X51419030Y-39279329D01*
X51429520Y-39257151D01*
X51442133Y-39236107D01*
X51456747Y-39216402D01*
X51473223Y-39198223D01*
X51491402Y-39181747D01*
X51511107Y-39167133D01*
X51532151Y-39154520D01*
X51554329Y-39144030D01*
X51577429Y-39135765D01*
X51601227Y-39129804D01*
X51625496Y-39126204D01*
X51650000Y-39125000D01*
X52450000Y-39125000D01*
X52474504Y-39126204D01*
G37*
G36*
X49374504Y-39126204D02*
G01*
X49398773Y-39129804D01*
X49422571Y-39135765D01*
X49445671Y-39144030D01*
X49467849Y-39154520D01*
X49488893Y-39167133D01*
X49508598Y-39181747D01*
X49526777Y-39198223D01*
X49543253Y-39216402D01*
X49557867Y-39236107D01*
X49570480Y-39257151D01*
X49580970Y-39279329D01*
X49589235Y-39302429D01*
X49595196Y-39326227D01*
X49598796Y-39350496D01*
X49600000Y-39375000D01*
X49600000Y-40625000D01*
X49598796Y-40649504D01*
X49595196Y-40673773D01*
X49589235Y-40697571D01*
X49580970Y-40720671D01*
X49570480Y-40742849D01*
X49557867Y-40763893D01*
X49543253Y-40783598D01*
X49526777Y-40801777D01*
X49508598Y-40818253D01*
X49488893Y-40832867D01*
X49467849Y-40845480D01*
X49445671Y-40855970D01*
X49422571Y-40864235D01*
X49398773Y-40870196D01*
X49374504Y-40873796D01*
X49350000Y-40875000D01*
X48550000Y-40875000D01*
X48525496Y-40873796D01*
X48501227Y-40870196D01*
X48477429Y-40864235D01*
X48454329Y-40855970D01*
X48432151Y-40845480D01*
X48411107Y-40832867D01*
X48391402Y-40818253D01*
X48373223Y-40801777D01*
X48356747Y-40783598D01*
X48342133Y-40763893D01*
X48329520Y-40742849D01*
X48319030Y-40720671D01*
X48310765Y-40697571D01*
X48304804Y-40673773D01*
X48301204Y-40649504D01*
X48300000Y-40625000D01*
X48300000Y-39375000D01*
X48301204Y-39350496D01*
X48304804Y-39326227D01*
X48310765Y-39302429D01*
X48319030Y-39279329D01*
X48329520Y-39257151D01*
X48342133Y-39236107D01*
X48356747Y-39216402D01*
X48373223Y-39198223D01*
X48391402Y-39181747D01*
X48411107Y-39167133D01*
X48432151Y-39154520D01*
X48454329Y-39144030D01*
X48477429Y-39135765D01*
X48501227Y-39129804D01*
X48525496Y-39126204D01*
X48550000Y-39125000D01*
X49350000Y-39125000D01*
X49374504Y-39126204D01*
G37*
G36*
X49374504Y-36126204D02*
G01*
X49398773Y-36129804D01*
X49422571Y-36135765D01*
X49445671Y-36144030D01*
X49467849Y-36154520D01*
X49488893Y-36167133D01*
X49508598Y-36181747D01*
X49526777Y-36198223D01*
X49543253Y-36216402D01*
X49557867Y-36236107D01*
X49570480Y-36257151D01*
X49580970Y-36279329D01*
X49589235Y-36302429D01*
X49595196Y-36326227D01*
X49598796Y-36350496D01*
X49600000Y-36375000D01*
X49600000Y-37625000D01*
X49598796Y-37649504D01*
X49595196Y-37673773D01*
X49589235Y-37697571D01*
X49580970Y-37720671D01*
X49570480Y-37742849D01*
X49557867Y-37763893D01*
X49543253Y-37783598D01*
X49526777Y-37801777D01*
X49508598Y-37818253D01*
X49488893Y-37832867D01*
X49467849Y-37845480D01*
X49445671Y-37855970D01*
X49422571Y-37864235D01*
X49398773Y-37870196D01*
X49374504Y-37873796D01*
X49350000Y-37875000D01*
X48550000Y-37875000D01*
X48525496Y-37873796D01*
X48501227Y-37870196D01*
X48477429Y-37864235D01*
X48454329Y-37855970D01*
X48432151Y-37845480D01*
X48411107Y-37832867D01*
X48391402Y-37818253D01*
X48373223Y-37801777D01*
X48356747Y-37783598D01*
X48342133Y-37763893D01*
X48329520Y-37742849D01*
X48319030Y-37720671D01*
X48310765Y-37697571D01*
X48304804Y-37673773D01*
X48301204Y-37649504D01*
X48300000Y-37625000D01*
X48300000Y-36375000D01*
X48301204Y-36350496D01*
X48304804Y-36326227D01*
X48310765Y-36302429D01*
X48319030Y-36279329D01*
X48329520Y-36257151D01*
X48342133Y-36236107D01*
X48356747Y-36216402D01*
X48373223Y-36198223D01*
X48391402Y-36181747D01*
X48411107Y-36167133D01*
X48432151Y-36154520D01*
X48454329Y-36144030D01*
X48477429Y-36135765D01*
X48501227Y-36129804D01*
X48525496Y-36126204D01*
X48550000Y-36125000D01*
X49350000Y-36125000D01*
X49374504Y-36126204D01*
G37*
G36*
X52474504Y-36126204D02*
G01*
X52498773Y-36129804D01*
X52522571Y-36135765D01*
X52545671Y-36144030D01*
X52567849Y-36154520D01*
X52588893Y-36167133D01*
X52608598Y-36181747D01*
X52626777Y-36198223D01*
X52643253Y-36216402D01*
X52657867Y-36236107D01*
X52670480Y-36257151D01*
X52680970Y-36279329D01*
X52689235Y-36302429D01*
X52695196Y-36326227D01*
X52698796Y-36350496D01*
X52700000Y-36375000D01*
X52700000Y-37625000D01*
X52698796Y-37649504D01*
X52695196Y-37673773D01*
X52689235Y-37697571D01*
X52680970Y-37720671D01*
X52670480Y-37742849D01*
X52657867Y-37763893D01*
X52643253Y-37783598D01*
X52626777Y-37801777D01*
X52608598Y-37818253D01*
X52588893Y-37832867D01*
X52567849Y-37845480D01*
X52545671Y-37855970D01*
X52522571Y-37864235D01*
X52498773Y-37870196D01*
X52474504Y-37873796D01*
X52450000Y-37875000D01*
X51650000Y-37875000D01*
X51625496Y-37873796D01*
X51601227Y-37870196D01*
X51577429Y-37864235D01*
X51554329Y-37855970D01*
X51532151Y-37845480D01*
X51511107Y-37832867D01*
X51491402Y-37818253D01*
X51473223Y-37801777D01*
X51456747Y-37783598D01*
X51442133Y-37763893D01*
X51429520Y-37742849D01*
X51419030Y-37720671D01*
X51410765Y-37697571D01*
X51404804Y-37673773D01*
X51401204Y-37649504D01*
X51400000Y-37625000D01*
X51400000Y-36375000D01*
X51401204Y-36350496D01*
X51404804Y-36326227D01*
X51410765Y-36302429D01*
X51419030Y-36279329D01*
X51429520Y-36257151D01*
X51442133Y-36236107D01*
X51456747Y-36216402D01*
X51473223Y-36198223D01*
X51491402Y-36181747D01*
X51511107Y-36167133D01*
X51532151Y-36154520D01*
X51554329Y-36144030D01*
X51577429Y-36135765D01*
X51601227Y-36129804D01*
X51625496Y-36126204D01*
X51650000Y-36125000D01*
X52450000Y-36125000D01*
X52474504Y-36126204D01*
G37*
G36*
X45149504Y-39051204D02*
G01*
X45173773Y-39054804D01*
X45197571Y-39060765D01*
X45220671Y-39069030D01*
X45242849Y-39079520D01*
X45263893Y-39092133D01*
X45283598Y-39106747D01*
X45301777Y-39123223D01*
X45318253Y-39141402D01*
X45332867Y-39161107D01*
X45345480Y-39182151D01*
X45355970Y-39204329D01*
X45364235Y-39227429D01*
X45370196Y-39251227D01*
X45373796Y-39275496D01*
X45375000Y-39300000D01*
X45375000Y-40100000D01*
X45373796Y-40124504D01*
X45370196Y-40148773D01*
X45364235Y-40172571D01*
X45355970Y-40195671D01*
X45345480Y-40217849D01*
X45332867Y-40238893D01*
X45318253Y-40258598D01*
X45301777Y-40276777D01*
X45283598Y-40293253D01*
X45263893Y-40307867D01*
X45242849Y-40320480D01*
X45220671Y-40330970D01*
X45197571Y-40339235D01*
X45173773Y-40345196D01*
X45149504Y-40348796D01*
X45125000Y-40350000D01*
X43875000Y-40350000D01*
X43850496Y-40348796D01*
X43826227Y-40345196D01*
X43802429Y-40339235D01*
X43779329Y-40330970D01*
X43757151Y-40320480D01*
X43736107Y-40307867D01*
X43716402Y-40293253D01*
X43698223Y-40276777D01*
X43681747Y-40258598D01*
X43667133Y-40238893D01*
X43654520Y-40217849D01*
X43644030Y-40195671D01*
X43635765Y-40172571D01*
X43629804Y-40148773D01*
X43626204Y-40124504D01*
X43625000Y-40100000D01*
X43625000Y-39300000D01*
X43626204Y-39275496D01*
X43629804Y-39251227D01*
X43635765Y-39227429D01*
X43644030Y-39204329D01*
X43654520Y-39182151D01*
X43667133Y-39161107D01*
X43681747Y-39141402D01*
X43698223Y-39123223D01*
X43716402Y-39106747D01*
X43736107Y-39092133D01*
X43757151Y-39079520D01*
X43779329Y-39069030D01*
X43802429Y-39060765D01*
X43826227Y-39054804D01*
X43850496Y-39051204D01*
X43875000Y-39050000D01*
X45125000Y-39050000D01*
X45149504Y-39051204D01*
G37*
G36*
X45149504Y-42151204D02*
G01*
X45173773Y-42154804D01*
X45197571Y-42160765D01*
X45220671Y-42169030D01*
X45242849Y-42179520D01*
X45263893Y-42192133D01*
X45283598Y-42206747D01*
X45301777Y-42223223D01*
X45318253Y-42241402D01*
X45332867Y-42261107D01*
X45345480Y-42282151D01*
X45355970Y-42304329D01*
X45364235Y-42327429D01*
X45370196Y-42351227D01*
X45373796Y-42375496D01*
X45375000Y-42400000D01*
X45375000Y-43200000D01*
X45373796Y-43224504D01*
X45370196Y-43248773D01*
X45364235Y-43272571D01*
X45355970Y-43295671D01*
X45345480Y-43317849D01*
X45332867Y-43338893D01*
X45318253Y-43358598D01*
X45301777Y-43376777D01*
X45283598Y-43393253D01*
X45263893Y-43407867D01*
X45242849Y-43420480D01*
X45220671Y-43430970D01*
X45197571Y-43439235D01*
X45173773Y-43445196D01*
X45149504Y-43448796D01*
X45125000Y-43450000D01*
X43875000Y-43450000D01*
X43850496Y-43448796D01*
X43826227Y-43445196D01*
X43802429Y-43439235D01*
X43779329Y-43430970D01*
X43757151Y-43420480D01*
X43736107Y-43407867D01*
X43716402Y-43393253D01*
X43698223Y-43376777D01*
X43681747Y-43358598D01*
X43667133Y-43338893D01*
X43654520Y-43317849D01*
X43644030Y-43295671D01*
X43635765Y-43272571D01*
X43629804Y-43248773D01*
X43626204Y-43224504D01*
X43625000Y-43200000D01*
X43625000Y-42400000D01*
X43626204Y-42375496D01*
X43629804Y-42351227D01*
X43635765Y-42327429D01*
X43644030Y-42304329D01*
X43654520Y-42282151D01*
X43667133Y-42261107D01*
X43681747Y-42241402D01*
X43698223Y-42223223D01*
X43716402Y-42206747D01*
X43736107Y-42192133D01*
X43757151Y-42179520D01*
X43779329Y-42169030D01*
X43802429Y-42160765D01*
X43826227Y-42154804D01*
X43850496Y-42151204D01*
X43875000Y-42150000D01*
X45125000Y-42150000D01*
X45149504Y-42151204D01*
G37*
G36*
X57649504Y-42151204D02*
G01*
X57673773Y-42154804D01*
X57697571Y-42160765D01*
X57720671Y-42169030D01*
X57742849Y-42179520D01*
X57763893Y-42192133D01*
X57783598Y-42206747D01*
X57801777Y-42223223D01*
X57818253Y-42241402D01*
X57832867Y-42261107D01*
X57845480Y-42282151D01*
X57855970Y-42304329D01*
X57864235Y-42327429D01*
X57870196Y-42351227D01*
X57873796Y-42375496D01*
X57875000Y-42400000D01*
X57875000Y-43200000D01*
X57873796Y-43224504D01*
X57870196Y-43248773D01*
X57864235Y-43272571D01*
X57855970Y-43295671D01*
X57845480Y-43317849D01*
X57832867Y-43338893D01*
X57818253Y-43358598D01*
X57801777Y-43376777D01*
X57783598Y-43393253D01*
X57763893Y-43407867D01*
X57742849Y-43420480D01*
X57720671Y-43430970D01*
X57697571Y-43439235D01*
X57673773Y-43445196D01*
X57649504Y-43448796D01*
X57625000Y-43450000D01*
X56375000Y-43450000D01*
X56350496Y-43448796D01*
X56326227Y-43445196D01*
X56302429Y-43439235D01*
X56279329Y-43430970D01*
X56257151Y-43420480D01*
X56236107Y-43407867D01*
X56216402Y-43393253D01*
X56198223Y-43376777D01*
X56181747Y-43358598D01*
X56167133Y-43338893D01*
X56154520Y-43317849D01*
X56144030Y-43295671D01*
X56135765Y-43272571D01*
X56129804Y-43248773D01*
X56126204Y-43224504D01*
X56125000Y-43200000D01*
X56125000Y-42400000D01*
X56126204Y-42375496D01*
X56129804Y-42351227D01*
X56135765Y-42327429D01*
X56144030Y-42304329D01*
X56154520Y-42282151D01*
X56167133Y-42261107D01*
X56181747Y-42241402D01*
X56198223Y-42223223D01*
X56216402Y-42206747D01*
X56236107Y-42192133D01*
X56257151Y-42179520D01*
X56279329Y-42169030D01*
X56302429Y-42160765D01*
X56326227Y-42154804D01*
X56350496Y-42151204D01*
X56375000Y-42150000D01*
X57625000Y-42150000D01*
X57649504Y-42151204D01*
G37*
G36*
X57649504Y-39051204D02*
G01*
X57673773Y-39054804D01*
X57697571Y-39060765D01*
X57720671Y-39069030D01*
X57742849Y-39079520D01*
X57763893Y-39092133D01*
X57783598Y-39106747D01*
X57801777Y-39123223D01*
X57818253Y-39141402D01*
X57832867Y-39161107D01*
X57845480Y-39182151D01*
X57855970Y-39204329D01*
X57864235Y-39227429D01*
X57870196Y-39251227D01*
X57873796Y-39275496D01*
X57875000Y-39300000D01*
X57875000Y-40100000D01*
X57873796Y-40124504D01*
X57870196Y-40148773D01*
X57864235Y-40172571D01*
X57855970Y-40195671D01*
X57845480Y-40217849D01*
X57832867Y-40238893D01*
X57818253Y-40258598D01*
X57801777Y-40276777D01*
X57783598Y-40293253D01*
X57763893Y-40307867D01*
X57742849Y-40320480D01*
X57720671Y-40330970D01*
X57697571Y-40339235D01*
X57673773Y-40345196D01*
X57649504Y-40348796D01*
X57625000Y-40350000D01*
X56375000Y-40350000D01*
X56350496Y-40348796D01*
X56326227Y-40345196D01*
X56302429Y-40339235D01*
X56279329Y-40330970D01*
X56257151Y-40320480D01*
X56236107Y-40307867D01*
X56216402Y-40293253D01*
X56198223Y-40276777D01*
X56181747Y-40258598D01*
X56167133Y-40238893D01*
X56154520Y-40217849D01*
X56144030Y-40195671D01*
X56135765Y-40172571D01*
X56129804Y-40148773D01*
X56126204Y-40124504D01*
X56125000Y-40100000D01*
X56125000Y-39300000D01*
X56126204Y-39275496D01*
X56129804Y-39251227D01*
X56135765Y-39227429D01*
X56144030Y-39204329D01*
X56154520Y-39182151D01*
X56167133Y-39161107D01*
X56181747Y-39141402D01*
X56198223Y-39123223D01*
X56216402Y-39106747D01*
X56236107Y-39092133D01*
X56257151Y-39079520D01*
X56279329Y-39069030D01*
X56302429Y-39060765D01*
X56326227Y-39054804D01*
X56350496Y-39051204D01*
X56375000Y-39050000D01*
X57625000Y-39050000D01*
X57649504Y-39051204D01*
G37*
G36*
X44149504Y-77151204D02*
G01*
X44173773Y-77154804D01*
X44197571Y-77160765D01*
X44220671Y-77169030D01*
X44242849Y-77179520D01*
X44263893Y-77192133D01*
X44283598Y-77206747D01*
X44301777Y-77223223D01*
X44318253Y-77241402D01*
X44332867Y-77261107D01*
X44345480Y-77282151D01*
X44355970Y-77304329D01*
X44364235Y-77327429D01*
X44370196Y-77351227D01*
X44373796Y-77375496D01*
X44375000Y-77400000D01*
X44375000Y-78200000D01*
X44373796Y-78224504D01*
X44370196Y-78248773D01*
X44364235Y-78272571D01*
X44355970Y-78295671D01*
X44345480Y-78317849D01*
X44332867Y-78338893D01*
X44318253Y-78358598D01*
X44301777Y-78376777D01*
X44283598Y-78393253D01*
X44263893Y-78407867D01*
X44242849Y-78420480D01*
X44220671Y-78430970D01*
X44197571Y-78439235D01*
X44173773Y-78445196D01*
X44149504Y-78448796D01*
X44125000Y-78450000D01*
X42875000Y-78450000D01*
X42850496Y-78448796D01*
X42826227Y-78445196D01*
X42802429Y-78439235D01*
X42779329Y-78430970D01*
X42757151Y-78420480D01*
X42736107Y-78407867D01*
X42716402Y-78393253D01*
X42698223Y-78376777D01*
X42681747Y-78358598D01*
X42667133Y-78338893D01*
X42654520Y-78317849D01*
X42644030Y-78295671D01*
X42635765Y-78272571D01*
X42629804Y-78248773D01*
X42626204Y-78224504D01*
X42625000Y-78200000D01*
X42625000Y-77400000D01*
X42626204Y-77375496D01*
X42629804Y-77351227D01*
X42635765Y-77327429D01*
X42644030Y-77304329D01*
X42654520Y-77282151D01*
X42667133Y-77261107D01*
X42681747Y-77241402D01*
X42698223Y-77223223D01*
X42716402Y-77206747D01*
X42736107Y-77192133D01*
X42757151Y-77179520D01*
X42779329Y-77169030D01*
X42802429Y-77160765D01*
X42826227Y-77154804D01*
X42850496Y-77151204D01*
X42875000Y-77150000D01*
X44125000Y-77150000D01*
X44149504Y-77151204D01*
G37*
G36*
X44149504Y-74051204D02*
G01*
X44173773Y-74054804D01*
X44197571Y-74060765D01*
X44220671Y-74069030D01*
X44242849Y-74079520D01*
X44263893Y-74092133D01*
X44283598Y-74106747D01*
X44301777Y-74123223D01*
X44318253Y-74141402D01*
X44332867Y-74161107D01*
X44345480Y-74182151D01*
X44355970Y-74204329D01*
X44364235Y-74227429D01*
X44370196Y-74251227D01*
X44373796Y-74275496D01*
X44375000Y-74300000D01*
X44375000Y-75100000D01*
X44373796Y-75124504D01*
X44370196Y-75148773D01*
X44364235Y-75172571D01*
X44355970Y-75195671D01*
X44345480Y-75217849D01*
X44332867Y-75238893D01*
X44318253Y-75258598D01*
X44301777Y-75276777D01*
X44283598Y-75293253D01*
X44263893Y-75307867D01*
X44242849Y-75320480D01*
X44220671Y-75330970D01*
X44197571Y-75339235D01*
X44173773Y-75345196D01*
X44149504Y-75348796D01*
X44125000Y-75350000D01*
X42875000Y-75350000D01*
X42850496Y-75348796D01*
X42826227Y-75345196D01*
X42802429Y-75339235D01*
X42779329Y-75330970D01*
X42757151Y-75320480D01*
X42736107Y-75307867D01*
X42716402Y-75293253D01*
X42698223Y-75276777D01*
X42681747Y-75258598D01*
X42667133Y-75238893D01*
X42654520Y-75217849D01*
X42644030Y-75195671D01*
X42635765Y-75172571D01*
X42629804Y-75148773D01*
X42626204Y-75124504D01*
X42625000Y-75100000D01*
X42625000Y-74300000D01*
X42626204Y-74275496D01*
X42629804Y-74251227D01*
X42635765Y-74227429D01*
X42644030Y-74204329D01*
X42654520Y-74182151D01*
X42667133Y-74161107D01*
X42681747Y-74141402D01*
X42698223Y-74123223D01*
X42716402Y-74106747D01*
X42736107Y-74092133D01*
X42757151Y-74079520D01*
X42779329Y-74069030D01*
X42802429Y-74060765D01*
X42826227Y-74054804D01*
X42850496Y-74051204D01*
X42875000Y-74050000D01*
X44125000Y-74050000D01*
X44149504Y-74051204D01*
G37*
G36*
X51474504Y-76376204D02*
G01*
X51498773Y-76379804D01*
X51522571Y-76385765D01*
X51545671Y-76394030D01*
X51567849Y-76404520D01*
X51588893Y-76417133D01*
X51608598Y-76431747D01*
X51626777Y-76448223D01*
X51643253Y-76466402D01*
X51657867Y-76486107D01*
X51670480Y-76507151D01*
X51680970Y-76529329D01*
X51689235Y-76552429D01*
X51695196Y-76576227D01*
X51698796Y-76600496D01*
X51700000Y-76625000D01*
X51700000Y-77875000D01*
X51698796Y-77899504D01*
X51695196Y-77923773D01*
X51689235Y-77947571D01*
X51680970Y-77970671D01*
X51670480Y-77992849D01*
X51657867Y-78013893D01*
X51643253Y-78033598D01*
X51626777Y-78051777D01*
X51608598Y-78068253D01*
X51588893Y-78082867D01*
X51567849Y-78095480D01*
X51545671Y-78105970D01*
X51522571Y-78114235D01*
X51498773Y-78120196D01*
X51474504Y-78123796D01*
X51450000Y-78125000D01*
X50650000Y-78125000D01*
X50625496Y-78123796D01*
X50601227Y-78120196D01*
X50577429Y-78114235D01*
X50554329Y-78105970D01*
X50532151Y-78095480D01*
X50511107Y-78082867D01*
X50491402Y-78068253D01*
X50473223Y-78051777D01*
X50456747Y-78033598D01*
X50442133Y-78013893D01*
X50429520Y-77992849D01*
X50419030Y-77970671D01*
X50410765Y-77947571D01*
X50404804Y-77923773D01*
X50401204Y-77899504D01*
X50400000Y-77875000D01*
X50400000Y-76625000D01*
X50401204Y-76600496D01*
X50404804Y-76576227D01*
X50410765Y-76552429D01*
X50419030Y-76529329D01*
X50429520Y-76507151D01*
X50442133Y-76486107D01*
X50456747Y-76466402D01*
X50473223Y-76448223D01*
X50491402Y-76431747D01*
X50511107Y-76417133D01*
X50532151Y-76404520D01*
X50554329Y-76394030D01*
X50577429Y-76385765D01*
X50601227Y-76379804D01*
X50625496Y-76376204D01*
X50650000Y-76375000D01*
X51450000Y-76375000D01*
X51474504Y-76376204D01*
G37*
G36*
X48374504Y-76376204D02*
G01*
X48398773Y-76379804D01*
X48422571Y-76385765D01*
X48445671Y-76394030D01*
X48467849Y-76404520D01*
X48488893Y-76417133D01*
X48508598Y-76431747D01*
X48526777Y-76448223D01*
X48543253Y-76466402D01*
X48557867Y-76486107D01*
X48570480Y-76507151D01*
X48580970Y-76529329D01*
X48589235Y-76552429D01*
X48595196Y-76576227D01*
X48598796Y-76600496D01*
X48600000Y-76625000D01*
X48600000Y-77875000D01*
X48598796Y-77899504D01*
X48595196Y-77923773D01*
X48589235Y-77947571D01*
X48580970Y-77970671D01*
X48570480Y-77992849D01*
X48557867Y-78013893D01*
X48543253Y-78033598D01*
X48526777Y-78051777D01*
X48508598Y-78068253D01*
X48488893Y-78082867D01*
X48467849Y-78095480D01*
X48445671Y-78105970D01*
X48422571Y-78114235D01*
X48398773Y-78120196D01*
X48374504Y-78123796D01*
X48350000Y-78125000D01*
X47550000Y-78125000D01*
X47525496Y-78123796D01*
X47501227Y-78120196D01*
X47477429Y-78114235D01*
X47454329Y-78105970D01*
X47432151Y-78095480D01*
X47411107Y-78082867D01*
X47391402Y-78068253D01*
X47373223Y-78051777D01*
X47356747Y-78033598D01*
X47342133Y-78013893D01*
X47329520Y-77992849D01*
X47319030Y-77970671D01*
X47310765Y-77947571D01*
X47304804Y-77923773D01*
X47301204Y-77899504D01*
X47300000Y-77875000D01*
X47300000Y-76625000D01*
X47301204Y-76600496D01*
X47304804Y-76576227D01*
X47310765Y-76552429D01*
X47319030Y-76529329D01*
X47329520Y-76507151D01*
X47342133Y-76486107D01*
X47356747Y-76466402D01*
X47373223Y-76448223D01*
X47391402Y-76431747D01*
X47411107Y-76417133D01*
X47432151Y-76404520D01*
X47454329Y-76394030D01*
X47477429Y-76385765D01*
X47501227Y-76379804D01*
X47525496Y-76376204D01*
X47550000Y-76375000D01*
X48350000Y-76375000D01*
X48374504Y-76376204D01*
G37*
G36*
X56149504Y-74051204D02*
G01*
X56173773Y-74054804D01*
X56197571Y-74060765D01*
X56220671Y-74069030D01*
X56242849Y-74079520D01*
X56263893Y-74092133D01*
X56283598Y-74106747D01*
X56301777Y-74123223D01*
X56318253Y-74141402D01*
X56332867Y-74161107D01*
X56345480Y-74182151D01*
X56355970Y-74204329D01*
X56364235Y-74227429D01*
X56370196Y-74251227D01*
X56373796Y-74275496D01*
X56375000Y-74300000D01*
X56375000Y-75100000D01*
X56373796Y-75124504D01*
X56370196Y-75148773D01*
X56364235Y-75172571D01*
X56355970Y-75195671D01*
X56345480Y-75217849D01*
X56332867Y-75238893D01*
X56318253Y-75258598D01*
X56301777Y-75276777D01*
X56283598Y-75293253D01*
X56263893Y-75307867D01*
X56242849Y-75320480D01*
X56220671Y-75330970D01*
X56197571Y-75339235D01*
X56173773Y-75345196D01*
X56149504Y-75348796D01*
X56125000Y-75350000D01*
X54875000Y-75350000D01*
X54850496Y-75348796D01*
X54826227Y-75345196D01*
X54802429Y-75339235D01*
X54779329Y-75330970D01*
X54757151Y-75320480D01*
X54736107Y-75307867D01*
X54716402Y-75293253D01*
X54698223Y-75276777D01*
X54681747Y-75258598D01*
X54667133Y-75238893D01*
X54654520Y-75217849D01*
X54644030Y-75195671D01*
X54635765Y-75172571D01*
X54629804Y-75148773D01*
X54626204Y-75124504D01*
X54625000Y-75100000D01*
X54625000Y-74300000D01*
X54626204Y-74275496D01*
X54629804Y-74251227D01*
X54635765Y-74227429D01*
X54644030Y-74204329D01*
X54654520Y-74182151D01*
X54667133Y-74161107D01*
X54681747Y-74141402D01*
X54698223Y-74123223D01*
X54716402Y-74106747D01*
X54736107Y-74092133D01*
X54757151Y-74079520D01*
X54779329Y-74069030D01*
X54802429Y-74060765D01*
X54826227Y-74054804D01*
X54850496Y-74051204D01*
X54875000Y-74050000D01*
X56125000Y-74050000D01*
X56149504Y-74051204D01*
G37*
G36*
X56149504Y-77151204D02*
G01*
X56173773Y-77154804D01*
X56197571Y-77160765D01*
X56220671Y-77169030D01*
X56242849Y-77179520D01*
X56263893Y-77192133D01*
X56283598Y-77206747D01*
X56301777Y-77223223D01*
X56318253Y-77241402D01*
X56332867Y-77261107D01*
X56345480Y-77282151D01*
X56355970Y-77304329D01*
X56364235Y-77327429D01*
X56370196Y-77351227D01*
X56373796Y-77375496D01*
X56375000Y-77400000D01*
X56375000Y-78200000D01*
X56373796Y-78224504D01*
X56370196Y-78248773D01*
X56364235Y-78272571D01*
X56355970Y-78295671D01*
X56345480Y-78317849D01*
X56332867Y-78338893D01*
X56318253Y-78358598D01*
X56301777Y-78376777D01*
X56283598Y-78393253D01*
X56263893Y-78407867D01*
X56242849Y-78420480D01*
X56220671Y-78430970D01*
X56197571Y-78439235D01*
X56173773Y-78445196D01*
X56149504Y-78448796D01*
X56125000Y-78450000D01*
X54875000Y-78450000D01*
X54850496Y-78448796D01*
X54826227Y-78445196D01*
X54802429Y-78439235D01*
X54779329Y-78430970D01*
X54757151Y-78420480D01*
X54736107Y-78407867D01*
X54716402Y-78393253D01*
X54698223Y-78376777D01*
X54681747Y-78358598D01*
X54667133Y-78338893D01*
X54654520Y-78317849D01*
X54644030Y-78295671D01*
X54635765Y-78272571D01*
X54629804Y-78248773D01*
X54626204Y-78224504D01*
X54625000Y-78200000D01*
X54625000Y-77400000D01*
X54626204Y-77375496D01*
X54629804Y-77351227D01*
X54635765Y-77327429D01*
X54644030Y-77304329D01*
X54654520Y-77282151D01*
X54667133Y-77261107D01*
X54681747Y-77241402D01*
X54698223Y-77223223D01*
X54716402Y-77206747D01*
X54736107Y-77192133D01*
X54757151Y-77179520D01*
X54779329Y-77169030D01*
X54802429Y-77160765D01*
X54826227Y-77154804D01*
X54850496Y-77151204D01*
X54875000Y-77150000D01*
X56125000Y-77150000D01*
X56149504Y-77151204D01*
G37*
G36*
X51474504Y-79376204D02*
G01*
X51498773Y-79379804D01*
X51522571Y-79385765D01*
X51545671Y-79394030D01*
X51567849Y-79404520D01*
X51588893Y-79417133D01*
X51608598Y-79431747D01*
X51626777Y-79448223D01*
X51643253Y-79466402D01*
X51657867Y-79486107D01*
X51670480Y-79507151D01*
X51680970Y-79529329D01*
X51689235Y-79552429D01*
X51695196Y-79576227D01*
X51698796Y-79600496D01*
X51700000Y-79625000D01*
X51700000Y-80875000D01*
X51698796Y-80899504D01*
X51695196Y-80923773D01*
X51689235Y-80947571D01*
X51680970Y-80970671D01*
X51670480Y-80992849D01*
X51657867Y-81013893D01*
X51643253Y-81033598D01*
X51626777Y-81051777D01*
X51608598Y-81068253D01*
X51588893Y-81082867D01*
X51567849Y-81095480D01*
X51545671Y-81105970D01*
X51522571Y-81114235D01*
X51498773Y-81120196D01*
X51474504Y-81123796D01*
X51450000Y-81125000D01*
X50650000Y-81125000D01*
X50625496Y-81123796D01*
X50601227Y-81120196D01*
X50577429Y-81114235D01*
X50554329Y-81105970D01*
X50532151Y-81095480D01*
X50511107Y-81082867D01*
X50491402Y-81068253D01*
X50473223Y-81051777D01*
X50456747Y-81033598D01*
X50442133Y-81013893D01*
X50429520Y-80992849D01*
X50419030Y-80970671D01*
X50410765Y-80947571D01*
X50404804Y-80923773D01*
X50401204Y-80899504D01*
X50400000Y-80875000D01*
X50400000Y-79625000D01*
X50401204Y-79600496D01*
X50404804Y-79576227D01*
X50410765Y-79552429D01*
X50419030Y-79529329D01*
X50429520Y-79507151D01*
X50442133Y-79486107D01*
X50456747Y-79466402D01*
X50473223Y-79448223D01*
X50491402Y-79431747D01*
X50511107Y-79417133D01*
X50532151Y-79404520D01*
X50554329Y-79394030D01*
X50577429Y-79385765D01*
X50601227Y-79379804D01*
X50625496Y-79376204D01*
X50650000Y-79375000D01*
X51450000Y-79375000D01*
X51474504Y-79376204D01*
G37*
G36*
X48374504Y-79376204D02*
G01*
X48398773Y-79379804D01*
X48422571Y-79385765D01*
X48445671Y-79394030D01*
X48467849Y-79404520D01*
X48488893Y-79417133D01*
X48508598Y-79431747D01*
X48526777Y-79448223D01*
X48543253Y-79466402D01*
X48557867Y-79486107D01*
X48570480Y-79507151D01*
X48580970Y-79529329D01*
X48589235Y-79552429D01*
X48595196Y-79576227D01*
X48598796Y-79600496D01*
X48600000Y-79625000D01*
X48600000Y-80875000D01*
X48598796Y-80899504D01*
X48595196Y-80923773D01*
X48589235Y-80947571D01*
X48580970Y-80970671D01*
X48570480Y-80992849D01*
X48557867Y-81013893D01*
X48543253Y-81033598D01*
X48526777Y-81051777D01*
X48508598Y-81068253D01*
X48488893Y-81082867D01*
X48467849Y-81095480D01*
X48445671Y-81105970D01*
X48422571Y-81114235D01*
X48398773Y-81120196D01*
X48374504Y-81123796D01*
X48350000Y-81125000D01*
X47550000Y-81125000D01*
X47525496Y-81123796D01*
X47501227Y-81120196D01*
X47477429Y-81114235D01*
X47454329Y-81105970D01*
X47432151Y-81095480D01*
X47411107Y-81082867D01*
X47391402Y-81068253D01*
X47373223Y-81051777D01*
X47356747Y-81033598D01*
X47342133Y-81013893D01*
X47329520Y-80992849D01*
X47319030Y-80970671D01*
X47310765Y-80947571D01*
X47304804Y-80923773D01*
X47301204Y-80899504D01*
X47300000Y-80875000D01*
X47300000Y-79625000D01*
X47301204Y-79600496D01*
X47304804Y-79576227D01*
X47310765Y-79552429D01*
X47319030Y-79529329D01*
X47329520Y-79507151D01*
X47342133Y-79486107D01*
X47356747Y-79466402D01*
X47373223Y-79448223D01*
X47391402Y-79431747D01*
X47411107Y-79417133D01*
X47432151Y-79404520D01*
X47454329Y-79394030D01*
X47477429Y-79385765D01*
X47501227Y-79379804D01*
X47525496Y-79376204D01*
X47550000Y-79375000D01*
X48350000Y-79375000D01*
X48374504Y-79376204D01*
G37*
G36*
X44149504Y-82651204D02*
G01*
X44173773Y-82654804D01*
X44197571Y-82660765D01*
X44220671Y-82669030D01*
X44242849Y-82679520D01*
X44263893Y-82692133D01*
X44283598Y-82706747D01*
X44301777Y-82723223D01*
X44318253Y-82741402D01*
X44332867Y-82761107D01*
X44345480Y-82782151D01*
X44355970Y-82804329D01*
X44364235Y-82827429D01*
X44370196Y-82851227D01*
X44373796Y-82875496D01*
X44375000Y-82900000D01*
X44375000Y-83700000D01*
X44373796Y-83724504D01*
X44370196Y-83748773D01*
X44364235Y-83772571D01*
X44355970Y-83795671D01*
X44345480Y-83817849D01*
X44332867Y-83838893D01*
X44318253Y-83858598D01*
X44301777Y-83876777D01*
X44283598Y-83893253D01*
X44263893Y-83907867D01*
X44242849Y-83920480D01*
X44220671Y-83930970D01*
X44197571Y-83939235D01*
X44173773Y-83945196D01*
X44149504Y-83948796D01*
X44125000Y-83950000D01*
X42875000Y-83950000D01*
X42850496Y-83948796D01*
X42826227Y-83945196D01*
X42802429Y-83939235D01*
X42779329Y-83930970D01*
X42757151Y-83920480D01*
X42736107Y-83907867D01*
X42716402Y-83893253D01*
X42698223Y-83876777D01*
X42681747Y-83858598D01*
X42667133Y-83838893D01*
X42654520Y-83817849D01*
X42644030Y-83795671D01*
X42635765Y-83772571D01*
X42629804Y-83748773D01*
X42626204Y-83724504D01*
X42625000Y-83700000D01*
X42625000Y-82900000D01*
X42626204Y-82875496D01*
X42629804Y-82851227D01*
X42635765Y-82827429D01*
X42644030Y-82804329D01*
X42654520Y-82782151D01*
X42667133Y-82761107D01*
X42681747Y-82741402D01*
X42698223Y-82723223D01*
X42716402Y-82706747D01*
X42736107Y-82692133D01*
X42757151Y-82679520D01*
X42779329Y-82669030D01*
X42802429Y-82660765D01*
X42826227Y-82654804D01*
X42850496Y-82651204D01*
X42875000Y-82650000D01*
X44125000Y-82650000D01*
X44149504Y-82651204D01*
G37*
G36*
X44149504Y-79551204D02*
G01*
X44173773Y-79554804D01*
X44197571Y-79560765D01*
X44220671Y-79569030D01*
X44242849Y-79579520D01*
X44263893Y-79592133D01*
X44283598Y-79606747D01*
X44301777Y-79623223D01*
X44318253Y-79641402D01*
X44332867Y-79661107D01*
X44345480Y-79682151D01*
X44355970Y-79704329D01*
X44364235Y-79727429D01*
X44370196Y-79751227D01*
X44373796Y-79775496D01*
X44375000Y-79800000D01*
X44375000Y-80600000D01*
X44373796Y-80624504D01*
X44370196Y-80648773D01*
X44364235Y-80672571D01*
X44355970Y-80695671D01*
X44345480Y-80717849D01*
X44332867Y-80738893D01*
X44318253Y-80758598D01*
X44301777Y-80776777D01*
X44283598Y-80793253D01*
X44263893Y-80807867D01*
X44242849Y-80820480D01*
X44220671Y-80830970D01*
X44197571Y-80839235D01*
X44173773Y-80845196D01*
X44149504Y-80848796D01*
X44125000Y-80850000D01*
X42875000Y-80850000D01*
X42850496Y-80848796D01*
X42826227Y-80845196D01*
X42802429Y-80839235D01*
X42779329Y-80830970D01*
X42757151Y-80820480D01*
X42736107Y-80807867D01*
X42716402Y-80793253D01*
X42698223Y-80776777D01*
X42681747Y-80758598D01*
X42667133Y-80738893D01*
X42654520Y-80717849D01*
X42644030Y-80695671D01*
X42635765Y-80672571D01*
X42629804Y-80648773D01*
X42626204Y-80624504D01*
X42625000Y-80600000D01*
X42625000Y-79800000D01*
X42626204Y-79775496D01*
X42629804Y-79751227D01*
X42635765Y-79727429D01*
X42644030Y-79704329D01*
X42654520Y-79682151D01*
X42667133Y-79661107D01*
X42681747Y-79641402D01*
X42698223Y-79623223D01*
X42716402Y-79606747D01*
X42736107Y-79592133D01*
X42757151Y-79579520D01*
X42779329Y-79569030D01*
X42802429Y-79560765D01*
X42826227Y-79554804D01*
X42850496Y-79551204D01*
X42875000Y-79550000D01*
X44125000Y-79550000D01*
X44149504Y-79551204D01*
G37*
G36*
X56149504Y-82651204D02*
G01*
X56173773Y-82654804D01*
X56197571Y-82660765D01*
X56220671Y-82669030D01*
X56242849Y-82679520D01*
X56263893Y-82692133D01*
X56283598Y-82706747D01*
X56301777Y-82723223D01*
X56318253Y-82741402D01*
X56332867Y-82761107D01*
X56345480Y-82782151D01*
X56355970Y-82804329D01*
X56364235Y-82827429D01*
X56370196Y-82851227D01*
X56373796Y-82875496D01*
X56375000Y-82900000D01*
X56375000Y-83700000D01*
X56373796Y-83724504D01*
X56370196Y-83748773D01*
X56364235Y-83772571D01*
X56355970Y-83795671D01*
X56345480Y-83817849D01*
X56332867Y-83838893D01*
X56318253Y-83858598D01*
X56301777Y-83876777D01*
X56283598Y-83893253D01*
X56263893Y-83907867D01*
X56242849Y-83920480D01*
X56220671Y-83930970D01*
X56197571Y-83939235D01*
X56173773Y-83945196D01*
X56149504Y-83948796D01*
X56125000Y-83950000D01*
X54875000Y-83950000D01*
X54850496Y-83948796D01*
X54826227Y-83945196D01*
X54802429Y-83939235D01*
X54779329Y-83930970D01*
X54757151Y-83920480D01*
X54736107Y-83907867D01*
X54716402Y-83893253D01*
X54698223Y-83876777D01*
X54681747Y-83858598D01*
X54667133Y-83838893D01*
X54654520Y-83817849D01*
X54644030Y-83795671D01*
X54635765Y-83772571D01*
X54629804Y-83748773D01*
X54626204Y-83724504D01*
X54625000Y-83700000D01*
X54625000Y-82900000D01*
X54626204Y-82875496D01*
X54629804Y-82851227D01*
X54635765Y-82827429D01*
X54644030Y-82804329D01*
X54654520Y-82782151D01*
X54667133Y-82761107D01*
X54681747Y-82741402D01*
X54698223Y-82723223D01*
X54716402Y-82706747D01*
X54736107Y-82692133D01*
X54757151Y-82679520D01*
X54779329Y-82669030D01*
X54802429Y-82660765D01*
X54826227Y-82654804D01*
X54850496Y-82651204D01*
X54875000Y-82650000D01*
X56125000Y-82650000D01*
X56149504Y-82651204D01*
G37*
G36*
X56149504Y-79551204D02*
G01*
X56173773Y-79554804D01*
X56197571Y-79560765D01*
X56220671Y-79569030D01*
X56242849Y-79579520D01*
X56263893Y-79592133D01*
X56283598Y-79606747D01*
X56301777Y-79623223D01*
X56318253Y-79641402D01*
X56332867Y-79661107D01*
X56345480Y-79682151D01*
X56355970Y-79704329D01*
X56364235Y-79727429D01*
X56370196Y-79751227D01*
X56373796Y-79775496D01*
X56375000Y-79800000D01*
X56375000Y-80600000D01*
X56373796Y-80624504D01*
X56370196Y-80648773D01*
X56364235Y-80672571D01*
X56355970Y-80695671D01*
X56345480Y-80717849D01*
X56332867Y-80738893D01*
X56318253Y-80758598D01*
X56301777Y-80776777D01*
X56283598Y-80793253D01*
X56263893Y-80807867D01*
X56242849Y-80820480D01*
X56220671Y-80830970D01*
X56197571Y-80839235D01*
X56173773Y-80845196D01*
X56149504Y-80848796D01*
X56125000Y-80850000D01*
X54875000Y-80850000D01*
X54850496Y-80848796D01*
X54826227Y-80845196D01*
X54802429Y-80839235D01*
X54779329Y-80830970D01*
X54757151Y-80820480D01*
X54736107Y-80807867D01*
X54716402Y-80793253D01*
X54698223Y-80776777D01*
X54681747Y-80758598D01*
X54667133Y-80738893D01*
X54654520Y-80717849D01*
X54644030Y-80695671D01*
X54635765Y-80672571D01*
X54629804Y-80648773D01*
X54626204Y-80624504D01*
X54625000Y-80600000D01*
X54625000Y-79800000D01*
X54626204Y-79775496D01*
X54629804Y-79751227D01*
X54635765Y-79727429D01*
X54644030Y-79704329D01*
X54654520Y-79682151D01*
X54667133Y-79661107D01*
X54681747Y-79641402D01*
X54698223Y-79623223D01*
X54716402Y-79606747D01*
X54736107Y-79592133D01*
X54757151Y-79579520D01*
X54779329Y-79569030D01*
X54802429Y-79560765D01*
X54826227Y-79554804D01*
X54850496Y-79551204D01*
X54875000Y-79550000D01*
X56125000Y-79550000D01*
X56149504Y-79551204D01*
G37*
G36*
X42874504Y-93126204D02*
G01*
X42898773Y-93129804D01*
X42922571Y-93135765D01*
X42945671Y-93144030D01*
X42967849Y-93154520D01*
X42988893Y-93167133D01*
X43008598Y-93181747D01*
X43026777Y-93198223D01*
X43043253Y-93216402D01*
X43057867Y-93236107D01*
X43070480Y-93257151D01*
X43080970Y-93279329D01*
X43089235Y-93302429D01*
X43095196Y-93326227D01*
X43098796Y-93350496D01*
X43100000Y-93375000D01*
X43100000Y-94625000D01*
X43098796Y-94649504D01*
X43095196Y-94673773D01*
X43089235Y-94697571D01*
X43080970Y-94720671D01*
X43070480Y-94742849D01*
X43057867Y-94763893D01*
X43043253Y-94783598D01*
X43026777Y-94801777D01*
X43008598Y-94818253D01*
X42988893Y-94832867D01*
X42967849Y-94845480D01*
X42945671Y-94855970D01*
X42922571Y-94864235D01*
X42898773Y-94870196D01*
X42874504Y-94873796D01*
X42850000Y-94875000D01*
X42050000Y-94875000D01*
X42025496Y-94873796D01*
X42001227Y-94870196D01*
X41977429Y-94864235D01*
X41954329Y-94855970D01*
X41932151Y-94845480D01*
X41911107Y-94832867D01*
X41891402Y-94818253D01*
X41873223Y-94801777D01*
X41856747Y-94783598D01*
X41842133Y-94763893D01*
X41829520Y-94742849D01*
X41819030Y-94720671D01*
X41810765Y-94697571D01*
X41804804Y-94673773D01*
X41801204Y-94649504D01*
X41800000Y-94625000D01*
X41800000Y-93375000D01*
X41801204Y-93350496D01*
X41804804Y-93326227D01*
X41810765Y-93302429D01*
X41819030Y-93279329D01*
X41829520Y-93257151D01*
X41842133Y-93236107D01*
X41856747Y-93216402D01*
X41873223Y-93198223D01*
X41891402Y-93181747D01*
X41911107Y-93167133D01*
X41932151Y-93154520D01*
X41954329Y-93144030D01*
X41977429Y-93135765D01*
X42001227Y-93129804D01*
X42025496Y-93126204D01*
X42050000Y-93125000D01*
X42850000Y-93125000D01*
X42874504Y-93126204D01*
G37*
G36*
X45974504Y-93126204D02*
G01*
X45998773Y-93129804D01*
X46022571Y-93135765D01*
X46045671Y-93144030D01*
X46067849Y-93154520D01*
X46088893Y-93167133D01*
X46108598Y-93181747D01*
X46126777Y-93198223D01*
X46143253Y-93216402D01*
X46157867Y-93236107D01*
X46170480Y-93257151D01*
X46180970Y-93279329D01*
X46189235Y-93302429D01*
X46195196Y-93326227D01*
X46198796Y-93350496D01*
X46200000Y-93375000D01*
X46200000Y-94625000D01*
X46198796Y-94649504D01*
X46195196Y-94673773D01*
X46189235Y-94697571D01*
X46180970Y-94720671D01*
X46170480Y-94742849D01*
X46157867Y-94763893D01*
X46143253Y-94783598D01*
X46126777Y-94801777D01*
X46108598Y-94818253D01*
X46088893Y-94832867D01*
X46067849Y-94845480D01*
X46045671Y-94855970D01*
X46022571Y-94864235D01*
X45998773Y-94870196D01*
X45974504Y-94873796D01*
X45950000Y-94875000D01*
X45150000Y-94875000D01*
X45125496Y-94873796D01*
X45101227Y-94870196D01*
X45077429Y-94864235D01*
X45054329Y-94855970D01*
X45032151Y-94845480D01*
X45011107Y-94832867D01*
X44991402Y-94818253D01*
X44973223Y-94801777D01*
X44956747Y-94783598D01*
X44942133Y-94763893D01*
X44929520Y-94742849D01*
X44919030Y-94720671D01*
X44910765Y-94697571D01*
X44904804Y-94673773D01*
X44901204Y-94649504D01*
X44900000Y-94625000D01*
X44900000Y-93375000D01*
X44901204Y-93350496D01*
X44904804Y-93326227D01*
X44910765Y-93302429D01*
X44919030Y-93279329D01*
X44929520Y-93257151D01*
X44942133Y-93236107D01*
X44956747Y-93216402D01*
X44973223Y-93198223D01*
X44991402Y-93181747D01*
X45011107Y-93167133D01*
X45032151Y-93154520D01*
X45054329Y-93144030D01*
X45077429Y-93135765D01*
X45101227Y-93129804D01*
X45125496Y-93126204D01*
X45150000Y-93125000D01*
X45950000Y-93125000D01*
X45974504Y-93126204D01*
G37*
G36*
X56974504Y-93126204D02*
G01*
X56998773Y-93129804D01*
X57022571Y-93135765D01*
X57045671Y-93144030D01*
X57067849Y-93154520D01*
X57088893Y-93167133D01*
X57108598Y-93181747D01*
X57126777Y-93198223D01*
X57143253Y-93216402D01*
X57157867Y-93236107D01*
X57170480Y-93257151D01*
X57180970Y-93279329D01*
X57189235Y-93302429D01*
X57195196Y-93326227D01*
X57198796Y-93350496D01*
X57200000Y-93375000D01*
X57200000Y-94625000D01*
X57198796Y-94649504D01*
X57195196Y-94673773D01*
X57189235Y-94697571D01*
X57180970Y-94720671D01*
X57170480Y-94742849D01*
X57157867Y-94763893D01*
X57143253Y-94783598D01*
X57126777Y-94801777D01*
X57108598Y-94818253D01*
X57088893Y-94832867D01*
X57067849Y-94845480D01*
X57045671Y-94855970D01*
X57022571Y-94864235D01*
X56998773Y-94870196D01*
X56974504Y-94873796D01*
X56950000Y-94875000D01*
X56150000Y-94875000D01*
X56125496Y-94873796D01*
X56101227Y-94870196D01*
X56077429Y-94864235D01*
X56054329Y-94855970D01*
X56032151Y-94845480D01*
X56011107Y-94832867D01*
X55991402Y-94818253D01*
X55973223Y-94801777D01*
X55956747Y-94783598D01*
X55942133Y-94763893D01*
X55929520Y-94742849D01*
X55919030Y-94720671D01*
X55910765Y-94697571D01*
X55904804Y-94673773D01*
X55901204Y-94649504D01*
X55900000Y-94625000D01*
X55900000Y-93375000D01*
X55901204Y-93350496D01*
X55904804Y-93326227D01*
X55910765Y-93302429D01*
X55919030Y-93279329D01*
X55929520Y-93257151D01*
X55942133Y-93236107D01*
X55956747Y-93216402D01*
X55973223Y-93198223D01*
X55991402Y-93181747D01*
X56011107Y-93167133D01*
X56032151Y-93154520D01*
X56054329Y-93144030D01*
X56077429Y-93135765D01*
X56101227Y-93129804D01*
X56125496Y-93126204D01*
X56150000Y-93125000D01*
X56950000Y-93125000D01*
X56974504Y-93126204D01*
G37*
G36*
X53874504Y-93126204D02*
G01*
X53898773Y-93129804D01*
X53922571Y-93135765D01*
X53945671Y-93144030D01*
X53967849Y-93154520D01*
X53988893Y-93167133D01*
X54008598Y-93181747D01*
X54026777Y-93198223D01*
X54043253Y-93216402D01*
X54057867Y-93236107D01*
X54070480Y-93257151D01*
X54080970Y-93279329D01*
X54089235Y-93302429D01*
X54095196Y-93326227D01*
X54098796Y-93350496D01*
X54100000Y-93375000D01*
X54100000Y-94625000D01*
X54098796Y-94649504D01*
X54095196Y-94673773D01*
X54089235Y-94697571D01*
X54080970Y-94720671D01*
X54070480Y-94742849D01*
X54057867Y-94763893D01*
X54043253Y-94783598D01*
X54026777Y-94801777D01*
X54008598Y-94818253D01*
X53988893Y-94832867D01*
X53967849Y-94845480D01*
X53945671Y-94855970D01*
X53922571Y-94864235D01*
X53898773Y-94870196D01*
X53874504Y-94873796D01*
X53850000Y-94875000D01*
X53050000Y-94875000D01*
X53025496Y-94873796D01*
X53001227Y-94870196D01*
X52977429Y-94864235D01*
X52954329Y-94855970D01*
X52932151Y-94845480D01*
X52911107Y-94832867D01*
X52891402Y-94818253D01*
X52873223Y-94801777D01*
X52856747Y-94783598D01*
X52842133Y-94763893D01*
X52829520Y-94742849D01*
X52819030Y-94720671D01*
X52810765Y-94697571D01*
X52804804Y-94673773D01*
X52801204Y-94649504D01*
X52800000Y-94625000D01*
X52800000Y-93375000D01*
X52801204Y-93350496D01*
X52804804Y-93326227D01*
X52810765Y-93302429D01*
X52819030Y-93279329D01*
X52829520Y-93257151D01*
X52842133Y-93236107D01*
X52856747Y-93216402D01*
X52873223Y-93198223D01*
X52891402Y-93181747D01*
X52911107Y-93167133D01*
X52932151Y-93154520D01*
X52954329Y-93144030D01*
X52977429Y-93135765D01*
X53001227Y-93129804D01*
X53025496Y-93126204D01*
X53050000Y-93125000D01*
X53850000Y-93125000D01*
X53874504Y-93126204D01*
G37*
G36*
X42874504Y-96126204D02*
G01*
X42898773Y-96129804D01*
X42922571Y-96135765D01*
X42945671Y-96144030D01*
X42967849Y-96154520D01*
X42988893Y-96167133D01*
X43008598Y-96181747D01*
X43026777Y-96198223D01*
X43043253Y-96216402D01*
X43057867Y-96236107D01*
X43070480Y-96257151D01*
X43080970Y-96279329D01*
X43089235Y-96302429D01*
X43095196Y-96326227D01*
X43098796Y-96350496D01*
X43100000Y-96375000D01*
X43100000Y-97625000D01*
X43098796Y-97649504D01*
X43095196Y-97673773D01*
X43089235Y-97697571D01*
X43080970Y-97720671D01*
X43070480Y-97742849D01*
X43057867Y-97763893D01*
X43043253Y-97783598D01*
X43026777Y-97801777D01*
X43008598Y-97818253D01*
X42988893Y-97832867D01*
X42967849Y-97845480D01*
X42945671Y-97855970D01*
X42922571Y-97864235D01*
X42898773Y-97870196D01*
X42874504Y-97873796D01*
X42850000Y-97875000D01*
X42050000Y-97875000D01*
X42025496Y-97873796D01*
X42001227Y-97870196D01*
X41977429Y-97864235D01*
X41954329Y-97855970D01*
X41932151Y-97845480D01*
X41911107Y-97832867D01*
X41891402Y-97818253D01*
X41873223Y-97801777D01*
X41856747Y-97783598D01*
X41842133Y-97763893D01*
X41829520Y-97742849D01*
X41819030Y-97720671D01*
X41810765Y-97697571D01*
X41804804Y-97673773D01*
X41801204Y-97649504D01*
X41800000Y-97625000D01*
X41800000Y-96375000D01*
X41801204Y-96350496D01*
X41804804Y-96326227D01*
X41810765Y-96302429D01*
X41819030Y-96279329D01*
X41829520Y-96257151D01*
X41842133Y-96236107D01*
X41856747Y-96216402D01*
X41873223Y-96198223D01*
X41891402Y-96181747D01*
X41911107Y-96167133D01*
X41932151Y-96154520D01*
X41954329Y-96144030D01*
X41977429Y-96135765D01*
X42001227Y-96129804D01*
X42025496Y-96126204D01*
X42050000Y-96125000D01*
X42850000Y-96125000D01*
X42874504Y-96126204D01*
G37*
G36*
X45974504Y-96126204D02*
G01*
X45998773Y-96129804D01*
X46022571Y-96135765D01*
X46045671Y-96144030D01*
X46067849Y-96154520D01*
X46088893Y-96167133D01*
X46108598Y-96181747D01*
X46126777Y-96198223D01*
X46143253Y-96216402D01*
X46157867Y-96236107D01*
X46170480Y-96257151D01*
X46180970Y-96279329D01*
X46189235Y-96302429D01*
X46195196Y-96326227D01*
X46198796Y-96350496D01*
X46200000Y-96375000D01*
X46200000Y-97625000D01*
X46198796Y-97649504D01*
X46195196Y-97673773D01*
X46189235Y-97697571D01*
X46180970Y-97720671D01*
X46170480Y-97742849D01*
X46157867Y-97763893D01*
X46143253Y-97783598D01*
X46126777Y-97801777D01*
X46108598Y-97818253D01*
X46088893Y-97832867D01*
X46067849Y-97845480D01*
X46045671Y-97855970D01*
X46022571Y-97864235D01*
X45998773Y-97870196D01*
X45974504Y-97873796D01*
X45950000Y-97875000D01*
X45150000Y-97875000D01*
X45125496Y-97873796D01*
X45101227Y-97870196D01*
X45077429Y-97864235D01*
X45054329Y-97855970D01*
X45032151Y-97845480D01*
X45011107Y-97832867D01*
X44991402Y-97818253D01*
X44973223Y-97801777D01*
X44956747Y-97783598D01*
X44942133Y-97763893D01*
X44929520Y-97742849D01*
X44919030Y-97720671D01*
X44910765Y-97697571D01*
X44904804Y-97673773D01*
X44901204Y-97649504D01*
X44900000Y-97625000D01*
X44900000Y-96375000D01*
X44901204Y-96350496D01*
X44904804Y-96326227D01*
X44910765Y-96302429D01*
X44919030Y-96279329D01*
X44929520Y-96257151D01*
X44942133Y-96236107D01*
X44956747Y-96216402D01*
X44973223Y-96198223D01*
X44991402Y-96181747D01*
X45011107Y-96167133D01*
X45032151Y-96154520D01*
X45054329Y-96144030D01*
X45077429Y-96135765D01*
X45101227Y-96129804D01*
X45125496Y-96126204D01*
X45150000Y-96125000D01*
X45950000Y-96125000D01*
X45974504Y-96126204D01*
G37*
G36*
X50149504Y-98151204D02*
G01*
X50173773Y-98154804D01*
X50197571Y-98160765D01*
X50220671Y-98169030D01*
X50242849Y-98179520D01*
X50263893Y-98192133D01*
X50283598Y-98206747D01*
X50301777Y-98223223D01*
X50318253Y-98241402D01*
X50332867Y-98261107D01*
X50345480Y-98282151D01*
X50355970Y-98304329D01*
X50364235Y-98327429D01*
X50370196Y-98351227D01*
X50373796Y-98375496D01*
X50375000Y-98400000D01*
X50375000Y-99200000D01*
X50373796Y-99224504D01*
X50370196Y-99248773D01*
X50364235Y-99272571D01*
X50355970Y-99295671D01*
X50345480Y-99317849D01*
X50332867Y-99338893D01*
X50318253Y-99358598D01*
X50301777Y-99376777D01*
X50283598Y-99393253D01*
X50263893Y-99407867D01*
X50242849Y-99420480D01*
X50220671Y-99430970D01*
X50197571Y-99439235D01*
X50173773Y-99445196D01*
X50149504Y-99448796D01*
X50125000Y-99450000D01*
X48875000Y-99450000D01*
X48850496Y-99448796D01*
X48826227Y-99445196D01*
X48802429Y-99439235D01*
X48779329Y-99430970D01*
X48757151Y-99420480D01*
X48736107Y-99407867D01*
X48716402Y-99393253D01*
X48698223Y-99376777D01*
X48681747Y-99358598D01*
X48667133Y-99338893D01*
X48654520Y-99317849D01*
X48644030Y-99295671D01*
X48635765Y-99272571D01*
X48629804Y-99248773D01*
X48626204Y-99224504D01*
X48625000Y-99200000D01*
X48625000Y-98400000D01*
X48626204Y-98375496D01*
X48629804Y-98351227D01*
X48635765Y-98327429D01*
X48644030Y-98304329D01*
X48654520Y-98282151D01*
X48667133Y-98261107D01*
X48681747Y-98241402D01*
X48698223Y-98223223D01*
X48716402Y-98206747D01*
X48736107Y-98192133D01*
X48757151Y-98179520D01*
X48779329Y-98169030D01*
X48802429Y-98160765D01*
X48826227Y-98154804D01*
X48850496Y-98151204D01*
X48875000Y-98150000D01*
X50125000Y-98150000D01*
X50149504Y-98151204D01*
G37*
G36*
X50149504Y-95051204D02*
G01*
X50173773Y-95054804D01*
X50197571Y-95060765D01*
X50220671Y-95069030D01*
X50242849Y-95079520D01*
X50263893Y-95092133D01*
X50283598Y-95106747D01*
X50301777Y-95123223D01*
X50318253Y-95141402D01*
X50332867Y-95161107D01*
X50345480Y-95182151D01*
X50355970Y-95204329D01*
X50364235Y-95227429D01*
X50370196Y-95251227D01*
X50373796Y-95275496D01*
X50375000Y-95300000D01*
X50375000Y-96100000D01*
X50373796Y-96124504D01*
X50370196Y-96148773D01*
X50364235Y-96172571D01*
X50355970Y-96195671D01*
X50345480Y-96217849D01*
X50332867Y-96238893D01*
X50318253Y-96258598D01*
X50301777Y-96276777D01*
X50283598Y-96293253D01*
X50263893Y-96307867D01*
X50242849Y-96320480D01*
X50220671Y-96330970D01*
X50197571Y-96339235D01*
X50173773Y-96345196D01*
X50149504Y-96348796D01*
X50125000Y-96350000D01*
X48875000Y-96350000D01*
X48850496Y-96348796D01*
X48826227Y-96345196D01*
X48802429Y-96339235D01*
X48779329Y-96330970D01*
X48757151Y-96320480D01*
X48736107Y-96307867D01*
X48716402Y-96293253D01*
X48698223Y-96276777D01*
X48681747Y-96258598D01*
X48667133Y-96238893D01*
X48654520Y-96217849D01*
X48644030Y-96195671D01*
X48635765Y-96172571D01*
X48629804Y-96148773D01*
X48626204Y-96124504D01*
X48625000Y-96100000D01*
X48625000Y-95300000D01*
X48626204Y-95275496D01*
X48629804Y-95251227D01*
X48635765Y-95227429D01*
X48644030Y-95204329D01*
X48654520Y-95182151D01*
X48667133Y-95161107D01*
X48681747Y-95141402D01*
X48698223Y-95123223D01*
X48716402Y-95106747D01*
X48736107Y-95092133D01*
X48757151Y-95079520D01*
X48779329Y-95069030D01*
X48802429Y-95060765D01*
X48826227Y-95054804D01*
X48850496Y-95051204D01*
X48875000Y-95050000D01*
X50125000Y-95050000D01*
X50149504Y-95051204D01*
G37*
G36*
X53874504Y-96126204D02*
G01*
X53898773Y-96129804D01*
X53922571Y-96135765D01*
X53945671Y-96144030D01*
X53967849Y-96154520D01*
X53988893Y-96167133D01*
X54008598Y-96181747D01*
X54026777Y-96198223D01*
X54043253Y-96216402D01*
X54057867Y-96236107D01*
X54070480Y-96257151D01*
X54080970Y-96279329D01*
X54089235Y-96302429D01*
X54095196Y-96326227D01*
X54098796Y-96350496D01*
X54100000Y-96375000D01*
X54100000Y-97625000D01*
X54098796Y-97649504D01*
X54095196Y-97673773D01*
X54089235Y-97697571D01*
X54080970Y-97720671D01*
X54070480Y-97742849D01*
X54057867Y-97763893D01*
X54043253Y-97783598D01*
X54026777Y-97801777D01*
X54008598Y-97818253D01*
X53988893Y-97832867D01*
X53967849Y-97845480D01*
X53945671Y-97855970D01*
X53922571Y-97864235D01*
X53898773Y-97870196D01*
X53874504Y-97873796D01*
X53850000Y-97875000D01*
X53050000Y-97875000D01*
X53025496Y-97873796D01*
X53001227Y-97870196D01*
X52977429Y-97864235D01*
X52954329Y-97855970D01*
X52932151Y-97845480D01*
X52911107Y-97832867D01*
X52891402Y-97818253D01*
X52873223Y-97801777D01*
X52856747Y-97783598D01*
X52842133Y-97763893D01*
X52829520Y-97742849D01*
X52819030Y-97720671D01*
X52810765Y-97697571D01*
X52804804Y-97673773D01*
X52801204Y-97649504D01*
X52800000Y-97625000D01*
X52800000Y-96375000D01*
X52801204Y-96350496D01*
X52804804Y-96326227D01*
X52810765Y-96302429D01*
X52819030Y-96279329D01*
X52829520Y-96257151D01*
X52842133Y-96236107D01*
X52856747Y-96216402D01*
X52873223Y-96198223D01*
X52891402Y-96181747D01*
X52911107Y-96167133D01*
X52932151Y-96154520D01*
X52954329Y-96144030D01*
X52977429Y-96135765D01*
X53001227Y-96129804D01*
X53025496Y-96126204D01*
X53050000Y-96125000D01*
X53850000Y-96125000D01*
X53874504Y-96126204D01*
G37*
G36*
X56974504Y-96126204D02*
G01*
X56998773Y-96129804D01*
X57022571Y-96135765D01*
X57045671Y-96144030D01*
X57067849Y-96154520D01*
X57088893Y-96167133D01*
X57108598Y-96181747D01*
X57126777Y-96198223D01*
X57143253Y-96216402D01*
X57157867Y-96236107D01*
X57170480Y-96257151D01*
X57180970Y-96279329D01*
X57189235Y-96302429D01*
X57195196Y-96326227D01*
X57198796Y-96350496D01*
X57200000Y-96375000D01*
X57200000Y-97625000D01*
X57198796Y-97649504D01*
X57195196Y-97673773D01*
X57189235Y-97697571D01*
X57180970Y-97720671D01*
X57170480Y-97742849D01*
X57157867Y-97763893D01*
X57143253Y-97783598D01*
X57126777Y-97801777D01*
X57108598Y-97818253D01*
X57088893Y-97832867D01*
X57067849Y-97845480D01*
X57045671Y-97855970D01*
X57022571Y-97864235D01*
X56998773Y-97870196D01*
X56974504Y-97873796D01*
X56950000Y-97875000D01*
X56150000Y-97875000D01*
X56125496Y-97873796D01*
X56101227Y-97870196D01*
X56077429Y-97864235D01*
X56054329Y-97855970D01*
X56032151Y-97845480D01*
X56011107Y-97832867D01*
X55991402Y-97818253D01*
X55973223Y-97801777D01*
X55956747Y-97783598D01*
X55942133Y-97763893D01*
X55929520Y-97742849D01*
X55919030Y-97720671D01*
X55910765Y-97697571D01*
X55904804Y-97673773D01*
X55901204Y-97649504D01*
X55900000Y-97625000D01*
X55900000Y-96375000D01*
X55901204Y-96350496D01*
X55904804Y-96326227D01*
X55910765Y-96302429D01*
X55919030Y-96279329D01*
X55929520Y-96257151D01*
X55942133Y-96236107D01*
X55956747Y-96216402D01*
X55973223Y-96198223D01*
X55991402Y-96181747D01*
X56011107Y-96167133D01*
X56032151Y-96154520D01*
X56054329Y-96144030D01*
X56077429Y-96135765D01*
X56101227Y-96129804D01*
X56125496Y-96126204D01*
X56150000Y-96125000D01*
X56950000Y-96125000D01*
X56974504Y-96126204D01*
G37*
G36*
X45149504Y-110151204D02*
G01*
X45173773Y-110154804D01*
X45197571Y-110160765D01*
X45220671Y-110169030D01*
X45242849Y-110179520D01*
X45263893Y-110192133D01*
X45283598Y-110206747D01*
X45301777Y-110223223D01*
X45318253Y-110241402D01*
X45332867Y-110261107D01*
X45345480Y-110282151D01*
X45355970Y-110304329D01*
X45364235Y-110327429D01*
X45370196Y-110351227D01*
X45373796Y-110375496D01*
X45375000Y-110400000D01*
X45375000Y-111200000D01*
X45373796Y-111224504D01*
X45370196Y-111248773D01*
X45364235Y-111272571D01*
X45355970Y-111295671D01*
X45345480Y-111317849D01*
X45332867Y-111338893D01*
X45318253Y-111358598D01*
X45301777Y-111376777D01*
X45283598Y-111393253D01*
X45263893Y-111407867D01*
X45242849Y-111420480D01*
X45220671Y-111430970D01*
X45197571Y-111439235D01*
X45173773Y-111445196D01*
X45149504Y-111448796D01*
X45125000Y-111450000D01*
X43875000Y-111450000D01*
X43850496Y-111448796D01*
X43826227Y-111445196D01*
X43802429Y-111439235D01*
X43779329Y-111430970D01*
X43757151Y-111420480D01*
X43736107Y-111407867D01*
X43716402Y-111393253D01*
X43698223Y-111376777D01*
X43681747Y-111358598D01*
X43667133Y-111338893D01*
X43654520Y-111317849D01*
X43644030Y-111295671D01*
X43635765Y-111272571D01*
X43629804Y-111248773D01*
X43626204Y-111224504D01*
X43625000Y-111200000D01*
X43625000Y-110400000D01*
X43626204Y-110375496D01*
X43629804Y-110351227D01*
X43635765Y-110327429D01*
X43644030Y-110304329D01*
X43654520Y-110282151D01*
X43667133Y-110261107D01*
X43681747Y-110241402D01*
X43698223Y-110223223D01*
X43716402Y-110206747D01*
X43736107Y-110192133D01*
X43757151Y-110179520D01*
X43779329Y-110169030D01*
X43802429Y-110160765D01*
X43826227Y-110154804D01*
X43850496Y-110151204D01*
X43875000Y-110150000D01*
X45125000Y-110150000D01*
X45149504Y-110151204D01*
G37*
G36*
X45149504Y-107051204D02*
G01*
X45173773Y-107054804D01*
X45197571Y-107060765D01*
X45220671Y-107069030D01*
X45242849Y-107079520D01*
X45263893Y-107092133D01*
X45283598Y-107106747D01*
X45301777Y-107123223D01*
X45318253Y-107141402D01*
X45332867Y-107161107D01*
X45345480Y-107182151D01*
X45355970Y-107204329D01*
X45364235Y-107227429D01*
X45370196Y-107251227D01*
X45373796Y-107275496D01*
X45375000Y-107300000D01*
X45375000Y-108100000D01*
X45373796Y-108124504D01*
X45370196Y-108148773D01*
X45364235Y-108172571D01*
X45355970Y-108195671D01*
X45345480Y-108217849D01*
X45332867Y-108238893D01*
X45318253Y-108258598D01*
X45301777Y-108276777D01*
X45283598Y-108293253D01*
X45263893Y-108307867D01*
X45242849Y-108320480D01*
X45220671Y-108330970D01*
X45197571Y-108339235D01*
X45173773Y-108345196D01*
X45149504Y-108348796D01*
X45125000Y-108350000D01*
X43875000Y-108350000D01*
X43850496Y-108348796D01*
X43826227Y-108345196D01*
X43802429Y-108339235D01*
X43779329Y-108330970D01*
X43757151Y-108320480D01*
X43736107Y-108307867D01*
X43716402Y-108293253D01*
X43698223Y-108276777D01*
X43681747Y-108258598D01*
X43667133Y-108238893D01*
X43654520Y-108217849D01*
X43644030Y-108195671D01*
X43635765Y-108172571D01*
X43629804Y-108148773D01*
X43626204Y-108124504D01*
X43625000Y-108100000D01*
X43625000Y-107300000D01*
X43626204Y-107275496D01*
X43629804Y-107251227D01*
X43635765Y-107227429D01*
X43644030Y-107204329D01*
X43654520Y-107182151D01*
X43667133Y-107161107D01*
X43681747Y-107141402D01*
X43698223Y-107123223D01*
X43716402Y-107106747D01*
X43736107Y-107092133D01*
X43757151Y-107079520D01*
X43779329Y-107069030D01*
X43802429Y-107060765D01*
X43826227Y-107054804D01*
X43850496Y-107051204D01*
X43875000Y-107050000D01*
X45125000Y-107050000D01*
X45149504Y-107051204D01*
G37*
G36*
X55149504Y-110151204D02*
G01*
X55173773Y-110154804D01*
X55197571Y-110160765D01*
X55220671Y-110169030D01*
X55242849Y-110179520D01*
X55263893Y-110192133D01*
X55283598Y-110206747D01*
X55301777Y-110223223D01*
X55318253Y-110241402D01*
X55332867Y-110261107D01*
X55345480Y-110282151D01*
X55355970Y-110304329D01*
X55364235Y-110327429D01*
X55370196Y-110351227D01*
X55373796Y-110375496D01*
X55375000Y-110400000D01*
X55375000Y-111200000D01*
X55373796Y-111224504D01*
X55370196Y-111248773D01*
X55364235Y-111272571D01*
X55355970Y-111295671D01*
X55345480Y-111317849D01*
X55332867Y-111338893D01*
X55318253Y-111358598D01*
X55301777Y-111376777D01*
X55283598Y-111393253D01*
X55263893Y-111407867D01*
X55242849Y-111420480D01*
X55220671Y-111430970D01*
X55197571Y-111439235D01*
X55173773Y-111445196D01*
X55149504Y-111448796D01*
X55125000Y-111450000D01*
X53875000Y-111450000D01*
X53850496Y-111448796D01*
X53826227Y-111445196D01*
X53802429Y-111439235D01*
X53779329Y-111430970D01*
X53757151Y-111420480D01*
X53736107Y-111407867D01*
X53716402Y-111393253D01*
X53698223Y-111376777D01*
X53681747Y-111358598D01*
X53667133Y-111338893D01*
X53654520Y-111317849D01*
X53644030Y-111295671D01*
X53635765Y-111272571D01*
X53629804Y-111248773D01*
X53626204Y-111224504D01*
X53625000Y-111200000D01*
X53625000Y-110400000D01*
X53626204Y-110375496D01*
X53629804Y-110351227D01*
X53635765Y-110327429D01*
X53644030Y-110304329D01*
X53654520Y-110282151D01*
X53667133Y-110261107D01*
X53681747Y-110241402D01*
X53698223Y-110223223D01*
X53716402Y-110206747D01*
X53736107Y-110192133D01*
X53757151Y-110179520D01*
X53779329Y-110169030D01*
X53802429Y-110160765D01*
X53826227Y-110154804D01*
X53850496Y-110151204D01*
X53875000Y-110150000D01*
X55125000Y-110150000D01*
X55149504Y-110151204D01*
G37*
G36*
X55149504Y-107051204D02*
G01*
X55173773Y-107054804D01*
X55197571Y-107060765D01*
X55220671Y-107069030D01*
X55242849Y-107079520D01*
X55263893Y-107092133D01*
X55283598Y-107106747D01*
X55301777Y-107123223D01*
X55318253Y-107141402D01*
X55332867Y-107161107D01*
X55345480Y-107182151D01*
X55355970Y-107204329D01*
X55364235Y-107227429D01*
X55370196Y-107251227D01*
X55373796Y-107275496D01*
X55375000Y-107300000D01*
X55375000Y-108100000D01*
X55373796Y-108124504D01*
X55370196Y-108148773D01*
X55364235Y-108172571D01*
X55355970Y-108195671D01*
X55345480Y-108217849D01*
X55332867Y-108238893D01*
X55318253Y-108258598D01*
X55301777Y-108276777D01*
X55283598Y-108293253D01*
X55263893Y-108307867D01*
X55242849Y-108320480D01*
X55220671Y-108330970D01*
X55197571Y-108339235D01*
X55173773Y-108345196D01*
X55149504Y-108348796D01*
X55125000Y-108350000D01*
X53875000Y-108350000D01*
X53850496Y-108348796D01*
X53826227Y-108345196D01*
X53802429Y-108339235D01*
X53779329Y-108330970D01*
X53757151Y-108320480D01*
X53736107Y-108307867D01*
X53716402Y-108293253D01*
X53698223Y-108276777D01*
X53681747Y-108258598D01*
X53667133Y-108238893D01*
X53654520Y-108217849D01*
X53644030Y-108195671D01*
X53635765Y-108172571D01*
X53629804Y-108148773D01*
X53626204Y-108124504D01*
X53625000Y-108100000D01*
X53625000Y-107300000D01*
X53626204Y-107275496D01*
X53629804Y-107251227D01*
X53635765Y-107227429D01*
X53644030Y-107204329D01*
X53654520Y-107182151D01*
X53667133Y-107161107D01*
X53681747Y-107141402D01*
X53698223Y-107123223D01*
X53716402Y-107106747D01*
X53736107Y-107092133D01*
X53757151Y-107079520D01*
X53779329Y-107069030D01*
X53802429Y-107060765D01*
X53826227Y-107054804D01*
X53850496Y-107051204D01*
X53875000Y-107050000D01*
X55125000Y-107050000D01*
X55149504Y-107051204D01*
G37*
G36*
X48374504Y-111126204D02*
G01*
X48398773Y-111129804D01*
X48422571Y-111135765D01*
X48445671Y-111144030D01*
X48467849Y-111154520D01*
X48488893Y-111167133D01*
X48508598Y-111181747D01*
X48526777Y-111198223D01*
X48543253Y-111216402D01*
X48557867Y-111236107D01*
X48570480Y-111257151D01*
X48580970Y-111279329D01*
X48589235Y-111302429D01*
X48595196Y-111326227D01*
X48598796Y-111350496D01*
X48600000Y-111375000D01*
X48600000Y-112625000D01*
X48598796Y-112649504D01*
X48595196Y-112673773D01*
X48589235Y-112697571D01*
X48580970Y-112720671D01*
X48570480Y-112742849D01*
X48557867Y-112763893D01*
X48543253Y-112783598D01*
X48526777Y-112801777D01*
X48508598Y-112818253D01*
X48488893Y-112832867D01*
X48467849Y-112845480D01*
X48445671Y-112855970D01*
X48422571Y-112864235D01*
X48398773Y-112870196D01*
X48374504Y-112873796D01*
X48350000Y-112875000D01*
X47550000Y-112875000D01*
X47525496Y-112873796D01*
X47501227Y-112870196D01*
X47477429Y-112864235D01*
X47454329Y-112855970D01*
X47432151Y-112845480D01*
X47411107Y-112832867D01*
X47391402Y-112818253D01*
X47373223Y-112801777D01*
X47356747Y-112783598D01*
X47342133Y-112763893D01*
X47329520Y-112742849D01*
X47319030Y-112720671D01*
X47310765Y-112697571D01*
X47304804Y-112673773D01*
X47301204Y-112649504D01*
X47300000Y-112625000D01*
X47300000Y-111375000D01*
X47301204Y-111350496D01*
X47304804Y-111326227D01*
X47310765Y-111302429D01*
X47319030Y-111279329D01*
X47329520Y-111257151D01*
X47342133Y-111236107D01*
X47356747Y-111216402D01*
X47373223Y-111198223D01*
X47391402Y-111181747D01*
X47411107Y-111167133D01*
X47432151Y-111154520D01*
X47454329Y-111144030D01*
X47477429Y-111135765D01*
X47501227Y-111129804D01*
X47525496Y-111126204D01*
X47550000Y-111125000D01*
X48350000Y-111125000D01*
X48374504Y-111126204D01*
G37*
G36*
X51474504Y-111126204D02*
G01*
X51498773Y-111129804D01*
X51522571Y-111135765D01*
X51545671Y-111144030D01*
X51567849Y-111154520D01*
X51588893Y-111167133D01*
X51608598Y-111181747D01*
X51626777Y-111198223D01*
X51643253Y-111216402D01*
X51657867Y-111236107D01*
X51670480Y-111257151D01*
X51680970Y-111279329D01*
X51689235Y-111302429D01*
X51695196Y-111326227D01*
X51698796Y-111350496D01*
X51700000Y-111375000D01*
X51700000Y-112625000D01*
X51698796Y-112649504D01*
X51695196Y-112673773D01*
X51689235Y-112697571D01*
X51680970Y-112720671D01*
X51670480Y-112742849D01*
X51657867Y-112763893D01*
X51643253Y-112783598D01*
X51626777Y-112801777D01*
X51608598Y-112818253D01*
X51588893Y-112832867D01*
X51567849Y-112845480D01*
X51545671Y-112855970D01*
X51522571Y-112864235D01*
X51498773Y-112870196D01*
X51474504Y-112873796D01*
X51450000Y-112875000D01*
X50650000Y-112875000D01*
X50625496Y-112873796D01*
X50601227Y-112870196D01*
X50577429Y-112864235D01*
X50554329Y-112855970D01*
X50532151Y-112845480D01*
X50511107Y-112832867D01*
X50491402Y-112818253D01*
X50473223Y-112801777D01*
X50456747Y-112783598D01*
X50442133Y-112763893D01*
X50429520Y-112742849D01*
X50419030Y-112720671D01*
X50410765Y-112697571D01*
X50404804Y-112673773D01*
X50401204Y-112649504D01*
X50400000Y-112625000D01*
X50400000Y-111375000D01*
X50401204Y-111350496D01*
X50404804Y-111326227D01*
X50410765Y-111302429D01*
X50419030Y-111279329D01*
X50429520Y-111257151D01*
X50442133Y-111236107D01*
X50456747Y-111216402D01*
X50473223Y-111198223D01*
X50491402Y-111181747D01*
X50511107Y-111167133D01*
X50532151Y-111154520D01*
X50554329Y-111144030D01*
X50577429Y-111135765D01*
X50601227Y-111129804D01*
X50625496Y-111126204D01*
X50650000Y-111125000D01*
X51450000Y-111125000D01*
X51474504Y-111126204D01*
G37*
G36*
X45149504Y-112551204D02*
G01*
X45173773Y-112554804D01*
X45197571Y-112560765D01*
X45220671Y-112569030D01*
X45242849Y-112579520D01*
X45263893Y-112592133D01*
X45283598Y-112606747D01*
X45301777Y-112623223D01*
X45318253Y-112641402D01*
X45332867Y-112661107D01*
X45345480Y-112682151D01*
X45355970Y-112704329D01*
X45364235Y-112727429D01*
X45370196Y-112751227D01*
X45373796Y-112775496D01*
X45375000Y-112800000D01*
X45375000Y-113600000D01*
X45373796Y-113624504D01*
X45370196Y-113648773D01*
X45364235Y-113672571D01*
X45355970Y-113695671D01*
X45345480Y-113717849D01*
X45332867Y-113738893D01*
X45318253Y-113758598D01*
X45301777Y-113776777D01*
X45283598Y-113793253D01*
X45263893Y-113807867D01*
X45242849Y-113820480D01*
X45220671Y-113830970D01*
X45197571Y-113839235D01*
X45173773Y-113845196D01*
X45149504Y-113848796D01*
X45125000Y-113850000D01*
X43875000Y-113850000D01*
X43850496Y-113848796D01*
X43826227Y-113845196D01*
X43802429Y-113839235D01*
X43779329Y-113830970D01*
X43757151Y-113820480D01*
X43736107Y-113807867D01*
X43716402Y-113793253D01*
X43698223Y-113776777D01*
X43681747Y-113758598D01*
X43667133Y-113738893D01*
X43654520Y-113717849D01*
X43644030Y-113695671D01*
X43635765Y-113672571D01*
X43629804Y-113648773D01*
X43626204Y-113624504D01*
X43625000Y-113600000D01*
X43625000Y-112800000D01*
X43626204Y-112775496D01*
X43629804Y-112751227D01*
X43635765Y-112727429D01*
X43644030Y-112704329D01*
X43654520Y-112682151D01*
X43667133Y-112661107D01*
X43681747Y-112641402D01*
X43698223Y-112623223D01*
X43716402Y-112606747D01*
X43736107Y-112592133D01*
X43757151Y-112579520D01*
X43779329Y-112569030D01*
X43802429Y-112560765D01*
X43826227Y-112554804D01*
X43850496Y-112551204D01*
X43875000Y-112550000D01*
X45125000Y-112550000D01*
X45149504Y-112551204D01*
G37*
G36*
X45149504Y-115651204D02*
G01*
X45173773Y-115654804D01*
X45197571Y-115660765D01*
X45220671Y-115669030D01*
X45242849Y-115679520D01*
X45263893Y-115692133D01*
X45283598Y-115706747D01*
X45301777Y-115723223D01*
X45318253Y-115741402D01*
X45332867Y-115761107D01*
X45345480Y-115782151D01*
X45355970Y-115804329D01*
X45364235Y-115827429D01*
X45370196Y-115851227D01*
X45373796Y-115875496D01*
X45375000Y-115900000D01*
X45375000Y-116700000D01*
X45373796Y-116724504D01*
X45370196Y-116748773D01*
X45364235Y-116772571D01*
X45355970Y-116795671D01*
X45345480Y-116817849D01*
X45332867Y-116838893D01*
X45318253Y-116858598D01*
X45301777Y-116876777D01*
X45283598Y-116893253D01*
X45263893Y-116907867D01*
X45242849Y-116920480D01*
X45220671Y-116930970D01*
X45197571Y-116939235D01*
X45173773Y-116945196D01*
X45149504Y-116948796D01*
X45125000Y-116950000D01*
X43875000Y-116950000D01*
X43850496Y-116948796D01*
X43826227Y-116945196D01*
X43802429Y-116939235D01*
X43779329Y-116930970D01*
X43757151Y-116920480D01*
X43736107Y-116907867D01*
X43716402Y-116893253D01*
X43698223Y-116876777D01*
X43681747Y-116858598D01*
X43667133Y-116838893D01*
X43654520Y-116817849D01*
X43644030Y-116795671D01*
X43635765Y-116772571D01*
X43629804Y-116748773D01*
X43626204Y-116724504D01*
X43625000Y-116700000D01*
X43625000Y-115900000D01*
X43626204Y-115875496D01*
X43629804Y-115851227D01*
X43635765Y-115827429D01*
X43644030Y-115804329D01*
X43654520Y-115782151D01*
X43667133Y-115761107D01*
X43681747Y-115741402D01*
X43698223Y-115723223D01*
X43716402Y-115706747D01*
X43736107Y-115692133D01*
X43757151Y-115679520D01*
X43779329Y-115669030D01*
X43802429Y-115660765D01*
X43826227Y-115654804D01*
X43850496Y-115651204D01*
X43875000Y-115650000D01*
X45125000Y-115650000D01*
X45149504Y-115651204D01*
G37*
G36*
X55149504Y-115651204D02*
G01*
X55173773Y-115654804D01*
X55197571Y-115660765D01*
X55220671Y-115669030D01*
X55242849Y-115679520D01*
X55263893Y-115692133D01*
X55283598Y-115706747D01*
X55301777Y-115723223D01*
X55318253Y-115741402D01*
X55332867Y-115761107D01*
X55345480Y-115782151D01*
X55355970Y-115804329D01*
X55364235Y-115827429D01*
X55370196Y-115851227D01*
X55373796Y-115875496D01*
X55375000Y-115900000D01*
X55375000Y-116700000D01*
X55373796Y-116724504D01*
X55370196Y-116748773D01*
X55364235Y-116772571D01*
X55355970Y-116795671D01*
X55345480Y-116817849D01*
X55332867Y-116838893D01*
X55318253Y-116858598D01*
X55301777Y-116876777D01*
X55283598Y-116893253D01*
X55263893Y-116907867D01*
X55242849Y-116920480D01*
X55220671Y-116930970D01*
X55197571Y-116939235D01*
X55173773Y-116945196D01*
X55149504Y-116948796D01*
X55125000Y-116950000D01*
X53875000Y-116950000D01*
X53850496Y-116948796D01*
X53826227Y-116945196D01*
X53802429Y-116939235D01*
X53779329Y-116930970D01*
X53757151Y-116920480D01*
X53736107Y-116907867D01*
X53716402Y-116893253D01*
X53698223Y-116876777D01*
X53681747Y-116858598D01*
X53667133Y-116838893D01*
X53654520Y-116817849D01*
X53644030Y-116795671D01*
X53635765Y-116772571D01*
X53629804Y-116748773D01*
X53626204Y-116724504D01*
X53625000Y-116700000D01*
X53625000Y-115900000D01*
X53626204Y-115875496D01*
X53629804Y-115851227D01*
X53635765Y-115827429D01*
X53644030Y-115804329D01*
X53654520Y-115782151D01*
X53667133Y-115761107D01*
X53681747Y-115741402D01*
X53698223Y-115723223D01*
X53716402Y-115706747D01*
X53736107Y-115692133D01*
X53757151Y-115679520D01*
X53779329Y-115669030D01*
X53802429Y-115660765D01*
X53826227Y-115654804D01*
X53850496Y-115651204D01*
X53875000Y-115650000D01*
X55125000Y-115650000D01*
X55149504Y-115651204D01*
G37*
G36*
X55149504Y-112551204D02*
G01*
X55173773Y-112554804D01*
X55197571Y-112560765D01*
X55220671Y-112569030D01*
X55242849Y-112579520D01*
X55263893Y-112592133D01*
X55283598Y-112606747D01*
X55301777Y-112623223D01*
X55318253Y-112641402D01*
X55332867Y-112661107D01*
X55345480Y-112682151D01*
X55355970Y-112704329D01*
X55364235Y-112727429D01*
X55370196Y-112751227D01*
X55373796Y-112775496D01*
X55375000Y-112800000D01*
X55375000Y-113600000D01*
X55373796Y-113624504D01*
X55370196Y-113648773D01*
X55364235Y-113672571D01*
X55355970Y-113695671D01*
X55345480Y-113717849D01*
X55332867Y-113738893D01*
X55318253Y-113758598D01*
X55301777Y-113776777D01*
X55283598Y-113793253D01*
X55263893Y-113807867D01*
X55242849Y-113820480D01*
X55220671Y-113830970D01*
X55197571Y-113839235D01*
X55173773Y-113845196D01*
X55149504Y-113848796D01*
X55125000Y-113850000D01*
X53875000Y-113850000D01*
X53850496Y-113848796D01*
X53826227Y-113845196D01*
X53802429Y-113839235D01*
X53779329Y-113830970D01*
X53757151Y-113820480D01*
X53736107Y-113807867D01*
X53716402Y-113793253D01*
X53698223Y-113776777D01*
X53681747Y-113758598D01*
X53667133Y-113738893D01*
X53654520Y-113717849D01*
X53644030Y-113695671D01*
X53635765Y-113672571D01*
X53629804Y-113648773D01*
X53626204Y-113624504D01*
X53625000Y-113600000D01*
X53625000Y-112800000D01*
X53626204Y-112775496D01*
X53629804Y-112751227D01*
X53635765Y-112727429D01*
X53644030Y-112704329D01*
X53654520Y-112682151D01*
X53667133Y-112661107D01*
X53681747Y-112641402D01*
X53698223Y-112623223D01*
X53716402Y-112606747D01*
X53736107Y-112592133D01*
X53757151Y-112579520D01*
X53779329Y-112569030D01*
X53802429Y-112560765D01*
X53826227Y-112554804D01*
X53850496Y-112551204D01*
X53875000Y-112550000D01*
X55125000Y-112550000D01*
X55149504Y-112551204D01*
G37*
M02*
