M48
; DRILL file {KiCad (5.1.7)-1} date 11/08/20 23:09:10
; FORMAT={-:-/ absolute / metric / decimal}
; #@! TF.CreationDate,2020-11-08T23:09:10+01:00
; #@! TF.GenerationSoftware,Kicad,Pcbnew,(5.1.7)-1
; #@! TF.FileFunction,Plated,1,2,PTH
FMAT,2
METRIC
T1C0.400
T2C0.500
T3C0.800
T4C1.016
T5C1.100
T6C1.500
T7C1.520
T8C3.200
%
G90
G05
T1
X102.0Y-82.0
X103.2Y-71.8
X105.6Y-53.1
X105.6Y-78.0
X106.2Y-83.6
X107.4Y-75.1
X107.6Y-59.6
X108.1Y-82.9
X108.2Y-70.6
X110.5Y-75.0
X112.6Y-81.5
X115.0Y-79.1
T2
X101.6Y-44.0
X102.303Y-42.303
X102.303Y-45.697
X104.0Y-41.6
X104.0Y-46.4
X105.697Y-42.303
X105.697Y-45.697
X106.4Y-44.0
X148.6Y-44.0
X149.303Y-42.303
X149.303Y-45.697
X151.0Y-41.6
X151.0Y-46.4
X152.697Y-42.303
X152.697Y-45.697
X153.4Y-44.0
X101.6Y-91.0
X102.303Y-89.303
X102.303Y-92.697
X104.0Y-88.6
X104.0Y-93.4
X105.697Y-89.303
X105.697Y-92.697
X106.4Y-91.0
X148.6Y-91.0
X149.303Y-89.303
X149.303Y-92.697
X151.0Y-88.6
X151.0Y-93.4
X152.697Y-89.303
X152.697Y-92.697
X153.4Y-91.0
T3
X121.0Y-84.38
X121.0Y-92.0
X123.54Y-84.38
X123.54Y-92.0
X126.08Y-84.38
X126.08Y-92.0
X128.62Y-84.38
X128.62Y-92.0
T4
X102.5Y-62.16
X102.5Y-64.7
X102.5Y-67.24
T5
X112.0Y-85.72
X112.0Y-88.26
X112.0Y-90.8
T6
X102.5Y-74.5
X102.5Y-79.5
X102.5Y-84.5
T7
X103.0Y-50.6
X103.0Y-55.68
T8
X104.0Y-44.0
X151.0Y-44.0
X104.0Y-91.0
X151.0Y-91.0
T0
M30
