G04 #@! TF.GenerationSoftware,KiCad,Pcbnew,(5.1.7)-1*
G04 #@! TF.CreationDate,2020-11-08T23:09:12+01:00*
G04 #@! TF.ProjectId,Red Power LED Board 50x50,52656420-506f-4776-9572-204c45442042,rev?*
G04 #@! TF.SameCoordinates,Original*
G04 #@! TF.FileFunction,Legend,Bot*
G04 #@! TF.FilePolarity,Positive*
%FSLAX46Y46*%
G04 Gerber Fmt 4.6, Leading zero omitted, Abs format (unit mm)*
G04 Created by KiCad (PCBNEW (5.1.7)-1) date 2020-11-08 23:09:12*
%MOMM*%
%LPD*%
G01*
G04 APERTURE LIST*
%ADD10C,0.120000*%
%ADD11C,0.150000*%
G04 APERTURE END LIST*
D10*
X115690000Y-85720000D02*
X113150000Y-85720000D01*
X115690000Y-88260000D02*
X113150000Y-88260000D01*
X115690000Y-90800000D02*
X113150000Y-90800000D01*
X131580000Y-83140000D02*
X115690000Y-83140000D01*
X131580000Y-93380000D02*
X115690000Y-93380000D01*
X131580000Y-93380000D02*
X131580000Y-83140000D01*
X115690000Y-93380000D02*
X115690000Y-83140000D01*
D11*
X110468000Y-90538095D02*
X110515619Y-90633333D01*
X110515619Y-90776190D01*
X110468000Y-90919047D01*
X110372761Y-91014285D01*
X110277523Y-91061904D01*
X110087047Y-91109523D01*
X109944190Y-91109523D01*
X109753714Y-91061904D01*
X109658476Y-91014285D01*
X109563238Y-90919047D01*
X109515619Y-90776190D01*
X109515619Y-90680952D01*
X109563238Y-90538095D01*
X109610857Y-90490476D01*
X109944190Y-90490476D01*
X109944190Y-90680952D01*
X109515619Y-88521904D02*
X110515619Y-88521904D01*
X110515619Y-88283809D01*
X110468000Y-88140952D01*
X110372761Y-88045714D01*
X110277523Y-87998095D01*
X110087047Y-87950476D01*
X109944190Y-87950476D01*
X109753714Y-87998095D01*
X109658476Y-88045714D01*
X109563238Y-88140952D01*
X109515619Y-88283809D01*
X109515619Y-88521904D01*
X109563238Y-86005714D02*
X109515619Y-85862857D01*
X109515619Y-85624761D01*
X109563238Y-85529523D01*
X109610857Y-85481904D01*
X109706095Y-85434285D01*
X109801333Y-85434285D01*
X109896571Y-85481904D01*
X109944190Y-85529523D01*
X109991809Y-85624761D01*
X110039428Y-85815238D01*
X110087047Y-85910476D01*
X110134666Y-85958095D01*
X110229904Y-86005714D01*
X110325142Y-86005714D01*
X110420380Y-85958095D01*
X110468000Y-85910476D01*
X110515619Y-85815238D01*
X110515619Y-85577142D01*
X110468000Y-85434285D01*
M02*
