G04 #@! TF.GenerationSoftware,KiCad,Pcbnew,(5.1.7)-1*
G04 #@! TF.CreationDate,2020-11-08T23:09:12+01:00*
G04 #@! TF.ProjectId,Red Power LED Board 50x50,52656420-506f-4776-9572-204c45442042,rev?*
G04 #@! TF.SameCoordinates,Original*
G04 #@! TF.FileFunction,Soldermask,Top*
G04 #@! TF.FilePolarity,Negative*
%FSLAX46Y46*%
G04 Gerber Fmt 4.6, Leading zero omitted, Abs format (unit mm)*
G04 Created by KiCad (PCBNEW (5.1.7)-1) date 2020-11-08 23:09:12*
%MOMM*%
%LPD*%
G01*
G04 APERTURE LIST*
%ADD10O,3.602000X3.602000*%
%ADD11O,2.102000X2.007000*%
%ADD12C,0.902000*%
%ADD13C,6.502000*%
%ADD14C,3.102000*%
%ADD15O,3.852000X2.602000*%
%ADD16C,2.082800*%
%ADD17O,1.702000X2.502000*%
G04 APERTURE END LIST*
D10*
X128660000Y-88260000D03*
G36*
G01*
X113000000Y-91803500D02*
X111000000Y-91803500D01*
G75*
G02*
X110949000Y-91752500I0J51000D01*
G01*
X110949000Y-89847500D01*
G75*
G02*
X111000000Y-89796500I51000J0D01*
G01*
X113000000Y-89796500D01*
G75*
G02*
X113051000Y-89847500I0J-51000D01*
G01*
X113051000Y-91752500D01*
G75*
G02*
X113000000Y-91803500I-51000J0D01*
G01*
G37*
D11*
X112000000Y-88260000D03*
X112000000Y-85720000D03*
G36*
G01*
X124049000Y-79275500D02*
X124049000Y-78724500D01*
G75*
G02*
X124299500Y-78474000I250500J0D01*
G01*
X124800500Y-78474000D01*
G75*
G02*
X125051000Y-78724500I0J-250500D01*
G01*
X125051000Y-79275500D01*
G75*
G02*
X124800500Y-79526000I-250500J0D01*
G01*
X124299500Y-79526000D01*
G75*
G02*
X124049000Y-79275500I0J250500D01*
G01*
G37*
G36*
G01*
X122499000Y-79275500D02*
X122499000Y-78724500D01*
G75*
G02*
X122749500Y-78474000I250500J0D01*
G01*
X123250500Y-78474000D01*
G75*
G02*
X123501000Y-78724500I0J-250500D01*
G01*
X123501000Y-79275500D01*
G75*
G02*
X123250500Y-79526000I-250500J0D01*
G01*
X122749500Y-79526000D01*
G75*
G02*
X122499000Y-79275500I0J250500D01*
G01*
G37*
G36*
G01*
X129051000Y-81224500D02*
X129051000Y-81775500D01*
G75*
G02*
X128800500Y-82026000I-250500J0D01*
G01*
X128299500Y-82026000D01*
G75*
G02*
X128049000Y-81775500I0J250500D01*
G01*
X128049000Y-81224500D01*
G75*
G02*
X128299500Y-80974000I250500J0D01*
G01*
X128800500Y-80974000D01*
G75*
G02*
X129051000Y-81224500I0J-250500D01*
G01*
G37*
G36*
G01*
X127501000Y-81224500D02*
X127501000Y-81775500D01*
G75*
G02*
X127250500Y-82026000I-250500J0D01*
G01*
X126749500Y-82026000D01*
G75*
G02*
X126499000Y-81775500I0J250500D01*
G01*
X126499000Y-81224500D01*
G75*
G02*
X126749500Y-80974000I250500J0D01*
G01*
X127250500Y-80974000D01*
G75*
G02*
X127501000Y-81224500I0J-250500D01*
G01*
G37*
G36*
G01*
X112231750Y-48663500D02*
X111268250Y-48663500D01*
G75*
G02*
X110999000Y-48394250I0J269250D01*
G01*
X110999000Y-47855750D01*
G75*
G02*
X111268250Y-47586500I269250J0D01*
G01*
X112231750Y-47586500D01*
G75*
G02*
X112501000Y-47855750I0J-269250D01*
G01*
X112501000Y-48394250D01*
G75*
G02*
X112231750Y-48663500I-269250J0D01*
G01*
G37*
G36*
G01*
X112231750Y-50538500D02*
X111268250Y-50538500D01*
G75*
G02*
X110999000Y-50269250I0J269250D01*
G01*
X110999000Y-49730750D01*
G75*
G02*
X111268250Y-49461500I269250J0D01*
G01*
X112231750Y-49461500D01*
G75*
G02*
X112501000Y-49730750I0J-269250D01*
G01*
X112501000Y-50269250D01*
G75*
G02*
X112231750Y-50538500I-269250J0D01*
G01*
G37*
G36*
G01*
X115731750Y-50476000D02*
X114768250Y-50476000D01*
G75*
G02*
X114499000Y-50206750I0J269250D01*
G01*
X114499000Y-49668250D01*
G75*
G02*
X114768250Y-49399000I269250J0D01*
G01*
X115731750Y-49399000D01*
G75*
G02*
X116001000Y-49668250I0J-269250D01*
G01*
X116001000Y-50206750D01*
G75*
G02*
X115731750Y-50476000I-269250J0D01*
G01*
G37*
G36*
G01*
X115731750Y-48601000D02*
X114768250Y-48601000D01*
G75*
G02*
X114499000Y-48331750I0J269250D01*
G01*
X114499000Y-47793250D01*
G75*
G02*
X114768250Y-47524000I269250J0D01*
G01*
X115731750Y-47524000D01*
G75*
G02*
X116001000Y-47793250I0J-269250D01*
G01*
X116001000Y-48331750D01*
G75*
G02*
X115731750Y-48601000I-269250J0D01*
G01*
G37*
G36*
G01*
X119231750Y-48601000D02*
X118268250Y-48601000D01*
G75*
G02*
X117999000Y-48331750I0J269250D01*
G01*
X117999000Y-47793250D01*
G75*
G02*
X118268250Y-47524000I269250J0D01*
G01*
X119231750Y-47524000D01*
G75*
G02*
X119501000Y-47793250I0J-269250D01*
G01*
X119501000Y-48331750D01*
G75*
G02*
X119231750Y-48601000I-269250J0D01*
G01*
G37*
G36*
G01*
X119231750Y-50476000D02*
X118268250Y-50476000D01*
G75*
G02*
X117999000Y-50206750I0J269250D01*
G01*
X117999000Y-49668250D01*
G75*
G02*
X118268250Y-49399000I269250J0D01*
G01*
X119231750Y-49399000D01*
G75*
G02*
X119501000Y-49668250I0J-269250D01*
G01*
X119501000Y-50206750D01*
G75*
G02*
X119231750Y-50476000I-269250J0D01*
G01*
G37*
G36*
G01*
X122731750Y-50476000D02*
X121768250Y-50476000D01*
G75*
G02*
X121499000Y-50206750I0J269250D01*
G01*
X121499000Y-49668250D01*
G75*
G02*
X121768250Y-49399000I269250J0D01*
G01*
X122731750Y-49399000D01*
G75*
G02*
X123001000Y-49668250I0J-269250D01*
G01*
X123001000Y-50206750D01*
G75*
G02*
X122731750Y-50476000I-269250J0D01*
G01*
G37*
G36*
G01*
X122731750Y-48601000D02*
X121768250Y-48601000D01*
G75*
G02*
X121499000Y-48331750I0J269250D01*
G01*
X121499000Y-47793250D01*
G75*
G02*
X121768250Y-47524000I269250J0D01*
G01*
X122731750Y-47524000D01*
G75*
G02*
X123001000Y-47793250I0J-269250D01*
G01*
X123001000Y-48331750D01*
G75*
G02*
X122731750Y-48601000I-269250J0D01*
G01*
G37*
G36*
G01*
X126231750Y-48601000D02*
X125268250Y-48601000D01*
G75*
G02*
X124999000Y-48331750I0J269250D01*
G01*
X124999000Y-47793250D01*
G75*
G02*
X125268250Y-47524000I269250J0D01*
G01*
X126231750Y-47524000D01*
G75*
G02*
X126501000Y-47793250I0J-269250D01*
G01*
X126501000Y-48331750D01*
G75*
G02*
X126231750Y-48601000I-269250J0D01*
G01*
G37*
G36*
G01*
X126231750Y-50476000D02*
X125268250Y-50476000D01*
G75*
G02*
X124999000Y-50206750I0J269250D01*
G01*
X124999000Y-49668250D01*
G75*
G02*
X125268250Y-49399000I269250J0D01*
G01*
X126231750Y-49399000D01*
G75*
G02*
X126501000Y-49668250I0J-269250D01*
G01*
X126501000Y-50206750D01*
G75*
G02*
X126231750Y-50476000I-269250J0D01*
G01*
G37*
G36*
G01*
X129731750Y-50476000D02*
X128768250Y-50476000D01*
G75*
G02*
X128499000Y-50206750I0J269250D01*
G01*
X128499000Y-49668250D01*
G75*
G02*
X128768250Y-49399000I269250J0D01*
G01*
X129731750Y-49399000D01*
G75*
G02*
X130001000Y-49668250I0J-269250D01*
G01*
X130001000Y-50206750D01*
G75*
G02*
X129731750Y-50476000I-269250J0D01*
G01*
G37*
G36*
G01*
X129731750Y-48601000D02*
X128768250Y-48601000D01*
G75*
G02*
X128499000Y-48331750I0J269250D01*
G01*
X128499000Y-47793250D01*
G75*
G02*
X128768250Y-47524000I269250J0D01*
G01*
X129731750Y-47524000D01*
G75*
G02*
X130001000Y-47793250I0J-269250D01*
G01*
X130001000Y-48331750D01*
G75*
G02*
X129731750Y-48601000I-269250J0D01*
G01*
G37*
G36*
G01*
X133231750Y-48601000D02*
X132268250Y-48601000D01*
G75*
G02*
X131999000Y-48331750I0J269250D01*
G01*
X131999000Y-47793250D01*
G75*
G02*
X132268250Y-47524000I269250J0D01*
G01*
X133231750Y-47524000D01*
G75*
G02*
X133501000Y-47793250I0J-269250D01*
G01*
X133501000Y-48331750D01*
G75*
G02*
X133231750Y-48601000I-269250J0D01*
G01*
G37*
G36*
G01*
X133231750Y-50476000D02*
X132268250Y-50476000D01*
G75*
G02*
X131999000Y-50206750I0J269250D01*
G01*
X131999000Y-49668250D01*
G75*
G02*
X132268250Y-49399000I269250J0D01*
G01*
X133231750Y-49399000D01*
G75*
G02*
X133501000Y-49668250I0J-269250D01*
G01*
X133501000Y-50206750D01*
G75*
G02*
X133231750Y-50476000I-269250J0D01*
G01*
G37*
G36*
G01*
X136731750Y-48601000D02*
X135768250Y-48601000D01*
G75*
G02*
X135499000Y-48331750I0J269250D01*
G01*
X135499000Y-47793250D01*
G75*
G02*
X135768250Y-47524000I269250J0D01*
G01*
X136731750Y-47524000D01*
G75*
G02*
X137001000Y-47793250I0J-269250D01*
G01*
X137001000Y-48331750D01*
G75*
G02*
X136731750Y-48601000I-269250J0D01*
G01*
G37*
G36*
G01*
X136731750Y-50476000D02*
X135768250Y-50476000D01*
G75*
G02*
X135499000Y-50206750I0J269250D01*
G01*
X135499000Y-49668250D01*
G75*
G02*
X135768250Y-49399000I269250J0D01*
G01*
X136731750Y-49399000D01*
G75*
G02*
X137001000Y-49668250I0J-269250D01*
G01*
X137001000Y-50206750D01*
G75*
G02*
X136731750Y-50476000I-269250J0D01*
G01*
G37*
G36*
G01*
X140231750Y-50476000D02*
X139268250Y-50476000D01*
G75*
G02*
X138999000Y-50206750I0J269250D01*
G01*
X138999000Y-49668250D01*
G75*
G02*
X139268250Y-49399000I269250J0D01*
G01*
X140231750Y-49399000D01*
G75*
G02*
X140501000Y-49668250I0J-269250D01*
G01*
X140501000Y-50206750D01*
G75*
G02*
X140231750Y-50476000I-269250J0D01*
G01*
G37*
G36*
G01*
X140231750Y-48601000D02*
X139268250Y-48601000D01*
G75*
G02*
X138999000Y-48331750I0J269250D01*
G01*
X138999000Y-47793250D01*
G75*
G02*
X139268250Y-47524000I269250J0D01*
G01*
X140231750Y-47524000D01*
G75*
G02*
X140501000Y-47793250I0J-269250D01*
G01*
X140501000Y-48331750D01*
G75*
G02*
X140231750Y-48601000I-269250J0D01*
G01*
G37*
G36*
G01*
X143731750Y-50476000D02*
X142768250Y-50476000D01*
G75*
G02*
X142499000Y-50206750I0J269250D01*
G01*
X142499000Y-49668250D01*
G75*
G02*
X142768250Y-49399000I269250J0D01*
G01*
X143731750Y-49399000D01*
G75*
G02*
X144001000Y-49668250I0J-269250D01*
G01*
X144001000Y-50206750D01*
G75*
G02*
X143731750Y-50476000I-269250J0D01*
G01*
G37*
G36*
G01*
X143731750Y-48601000D02*
X142768250Y-48601000D01*
G75*
G02*
X142499000Y-48331750I0J269250D01*
G01*
X142499000Y-47793250D01*
G75*
G02*
X142768250Y-47524000I269250J0D01*
G01*
X143731750Y-47524000D01*
G75*
G02*
X144001000Y-47793250I0J-269250D01*
G01*
X144001000Y-48331750D01*
G75*
G02*
X143731750Y-48601000I-269250J0D01*
G01*
G37*
G36*
G01*
X112231750Y-54976000D02*
X111268250Y-54976000D01*
G75*
G02*
X110999000Y-54706750I0J269250D01*
G01*
X110999000Y-54168250D01*
G75*
G02*
X111268250Y-53899000I269250J0D01*
G01*
X112231750Y-53899000D01*
G75*
G02*
X112501000Y-54168250I0J-269250D01*
G01*
X112501000Y-54706750D01*
G75*
G02*
X112231750Y-54976000I-269250J0D01*
G01*
G37*
G36*
G01*
X112231750Y-53101000D02*
X111268250Y-53101000D01*
G75*
G02*
X110999000Y-52831750I0J269250D01*
G01*
X110999000Y-52293250D01*
G75*
G02*
X111268250Y-52024000I269250J0D01*
G01*
X112231750Y-52024000D01*
G75*
G02*
X112501000Y-52293250I0J-269250D01*
G01*
X112501000Y-52831750D01*
G75*
G02*
X112231750Y-53101000I-269250J0D01*
G01*
G37*
G36*
G01*
X115731750Y-53101000D02*
X114768250Y-53101000D01*
G75*
G02*
X114499000Y-52831750I0J269250D01*
G01*
X114499000Y-52293250D01*
G75*
G02*
X114768250Y-52024000I269250J0D01*
G01*
X115731750Y-52024000D01*
G75*
G02*
X116001000Y-52293250I0J-269250D01*
G01*
X116001000Y-52831750D01*
G75*
G02*
X115731750Y-53101000I-269250J0D01*
G01*
G37*
G36*
G01*
X115731750Y-54976000D02*
X114768250Y-54976000D01*
G75*
G02*
X114499000Y-54706750I0J269250D01*
G01*
X114499000Y-54168250D01*
G75*
G02*
X114768250Y-53899000I269250J0D01*
G01*
X115731750Y-53899000D01*
G75*
G02*
X116001000Y-54168250I0J-269250D01*
G01*
X116001000Y-54706750D01*
G75*
G02*
X115731750Y-54976000I-269250J0D01*
G01*
G37*
G36*
G01*
X119231750Y-53101000D02*
X118268250Y-53101000D01*
G75*
G02*
X117999000Y-52831750I0J269250D01*
G01*
X117999000Y-52293250D01*
G75*
G02*
X118268250Y-52024000I269250J0D01*
G01*
X119231750Y-52024000D01*
G75*
G02*
X119501000Y-52293250I0J-269250D01*
G01*
X119501000Y-52831750D01*
G75*
G02*
X119231750Y-53101000I-269250J0D01*
G01*
G37*
G36*
G01*
X119231750Y-54976000D02*
X118268250Y-54976000D01*
G75*
G02*
X117999000Y-54706750I0J269250D01*
G01*
X117999000Y-54168250D01*
G75*
G02*
X118268250Y-53899000I269250J0D01*
G01*
X119231750Y-53899000D01*
G75*
G02*
X119501000Y-54168250I0J-269250D01*
G01*
X119501000Y-54706750D01*
G75*
G02*
X119231750Y-54976000I-269250J0D01*
G01*
G37*
G36*
G01*
X122731750Y-54976000D02*
X121768250Y-54976000D01*
G75*
G02*
X121499000Y-54706750I0J269250D01*
G01*
X121499000Y-54168250D01*
G75*
G02*
X121768250Y-53899000I269250J0D01*
G01*
X122731750Y-53899000D01*
G75*
G02*
X123001000Y-54168250I0J-269250D01*
G01*
X123001000Y-54706750D01*
G75*
G02*
X122731750Y-54976000I-269250J0D01*
G01*
G37*
G36*
G01*
X122731750Y-53101000D02*
X121768250Y-53101000D01*
G75*
G02*
X121499000Y-52831750I0J269250D01*
G01*
X121499000Y-52293250D01*
G75*
G02*
X121768250Y-52024000I269250J0D01*
G01*
X122731750Y-52024000D01*
G75*
G02*
X123001000Y-52293250I0J-269250D01*
G01*
X123001000Y-52831750D01*
G75*
G02*
X122731750Y-53101000I-269250J0D01*
G01*
G37*
G36*
G01*
X126231750Y-53101000D02*
X125268250Y-53101000D01*
G75*
G02*
X124999000Y-52831750I0J269250D01*
G01*
X124999000Y-52293250D01*
G75*
G02*
X125268250Y-52024000I269250J0D01*
G01*
X126231750Y-52024000D01*
G75*
G02*
X126501000Y-52293250I0J-269250D01*
G01*
X126501000Y-52831750D01*
G75*
G02*
X126231750Y-53101000I-269250J0D01*
G01*
G37*
G36*
G01*
X126231750Y-54976000D02*
X125268250Y-54976000D01*
G75*
G02*
X124999000Y-54706750I0J269250D01*
G01*
X124999000Y-54168250D01*
G75*
G02*
X125268250Y-53899000I269250J0D01*
G01*
X126231750Y-53899000D01*
G75*
G02*
X126501000Y-54168250I0J-269250D01*
G01*
X126501000Y-54706750D01*
G75*
G02*
X126231750Y-54976000I-269250J0D01*
G01*
G37*
G36*
G01*
X129731750Y-53101000D02*
X128768250Y-53101000D01*
G75*
G02*
X128499000Y-52831750I0J269250D01*
G01*
X128499000Y-52293250D01*
G75*
G02*
X128768250Y-52024000I269250J0D01*
G01*
X129731750Y-52024000D01*
G75*
G02*
X130001000Y-52293250I0J-269250D01*
G01*
X130001000Y-52831750D01*
G75*
G02*
X129731750Y-53101000I-269250J0D01*
G01*
G37*
G36*
G01*
X129731750Y-54976000D02*
X128768250Y-54976000D01*
G75*
G02*
X128499000Y-54706750I0J269250D01*
G01*
X128499000Y-54168250D01*
G75*
G02*
X128768250Y-53899000I269250J0D01*
G01*
X129731750Y-53899000D01*
G75*
G02*
X130001000Y-54168250I0J-269250D01*
G01*
X130001000Y-54706750D01*
G75*
G02*
X129731750Y-54976000I-269250J0D01*
G01*
G37*
G36*
G01*
X133231750Y-53101000D02*
X132268250Y-53101000D01*
G75*
G02*
X131999000Y-52831750I0J269250D01*
G01*
X131999000Y-52293250D01*
G75*
G02*
X132268250Y-52024000I269250J0D01*
G01*
X133231750Y-52024000D01*
G75*
G02*
X133501000Y-52293250I0J-269250D01*
G01*
X133501000Y-52831750D01*
G75*
G02*
X133231750Y-53101000I-269250J0D01*
G01*
G37*
G36*
G01*
X133231750Y-54976000D02*
X132268250Y-54976000D01*
G75*
G02*
X131999000Y-54706750I0J269250D01*
G01*
X131999000Y-54168250D01*
G75*
G02*
X132268250Y-53899000I269250J0D01*
G01*
X133231750Y-53899000D01*
G75*
G02*
X133501000Y-54168250I0J-269250D01*
G01*
X133501000Y-54706750D01*
G75*
G02*
X133231750Y-54976000I-269250J0D01*
G01*
G37*
G36*
G01*
X136731750Y-53163500D02*
X135768250Y-53163500D01*
G75*
G02*
X135499000Y-52894250I0J269250D01*
G01*
X135499000Y-52355750D01*
G75*
G02*
X135768250Y-52086500I269250J0D01*
G01*
X136731750Y-52086500D01*
G75*
G02*
X137001000Y-52355750I0J-269250D01*
G01*
X137001000Y-52894250D01*
G75*
G02*
X136731750Y-53163500I-269250J0D01*
G01*
G37*
G36*
G01*
X136731750Y-55038500D02*
X135768250Y-55038500D01*
G75*
G02*
X135499000Y-54769250I0J269250D01*
G01*
X135499000Y-54230750D01*
G75*
G02*
X135768250Y-53961500I269250J0D01*
G01*
X136731750Y-53961500D01*
G75*
G02*
X137001000Y-54230750I0J-269250D01*
G01*
X137001000Y-54769250D01*
G75*
G02*
X136731750Y-55038500I-269250J0D01*
G01*
G37*
G36*
G01*
X140231750Y-53101000D02*
X139268250Y-53101000D01*
G75*
G02*
X138999000Y-52831750I0J269250D01*
G01*
X138999000Y-52293250D01*
G75*
G02*
X139268250Y-52024000I269250J0D01*
G01*
X140231750Y-52024000D01*
G75*
G02*
X140501000Y-52293250I0J-269250D01*
G01*
X140501000Y-52831750D01*
G75*
G02*
X140231750Y-53101000I-269250J0D01*
G01*
G37*
G36*
G01*
X140231750Y-54976000D02*
X139268250Y-54976000D01*
G75*
G02*
X138999000Y-54706750I0J269250D01*
G01*
X138999000Y-54168250D01*
G75*
G02*
X139268250Y-53899000I269250J0D01*
G01*
X140231750Y-53899000D01*
G75*
G02*
X140501000Y-54168250I0J-269250D01*
G01*
X140501000Y-54706750D01*
G75*
G02*
X140231750Y-54976000I-269250J0D01*
G01*
G37*
G36*
G01*
X143731750Y-55038500D02*
X142768250Y-55038500D01*
G75*
G02*
X142499000Y-54769250I0J269250D01*
G01*
X142499000Y-54230750D01*
G75*
G02*
X142768250Y-53961500I269250J0D01*
G01*
X143731750Y-53961500D01*
G75*
G02*
X144001000Y-54230750I0J-269250D01*
G01*
X144001000Y-54769250D01*
G75*
G02*
X143731750Y-55038500I-269250J0D01*
G01*
G37*
G36*
G01*
X143731750Y-53163500D02*
X142768250Y-53163500D01*
G75*
G02*
X142499000Y-52894250I0J269250D01*
G01*
X142499000Y-52355750D01*
G75*
G02*
X142768250Y-52086500I269250J0D01*
G01*
X143731750Y-52086500D01*
G75*
G02*
X144001000Y-52355750I0J-269250D01*
G01*
X144001000Y-52894250D01*
G75*
G02*
X143731750Y-53163500I-269250J0D01*
G01*
G37*
G36*
G01*
X148600000Y-60651000D02*
X147400000Y-60651000D01*
G75*
G02*
X147349000Y-60600000I0J51000D01*
G01*
X147349000Y-59700000D01*
G75*
G02*
X147400000Y-59649000I51000J0D01*
G01*
X148600000Y-59649000D01*
G75*
G02*
X148651000Y-59700000I0J-51000D01*
G01*
X148651000Y-60600000D01*
G75*
G02*
X148600000Y-60651000I-51000J0D01*
G01*
G37*
G36*
G01*
X148600000Y-57351000D02*
X147400000Y-57351000D01*
G75*
G02*
X147349000Y-57300000I0J51000D01*
G01*
X147349000Y-56400000D01*
G75*
G02*
X147400000Y-56349000I51000J0D01*
G01*
X148600000Y-56349000D01*
G75*
G02*
X148651000Y-56400000I0J-51000D01*
G01*
X148651000Y-57300000D01*
G75*
G02*
X148600000Y-57351000I-51000J0D01*
G01*
G37*
G36*
G01*
X112231750Y-57663500D02*
X111268250Y-57663500D01*
G75*
G02*
X110999000Y-57394250I0J269250D01*
G01*
X110999000Y-56855750D01*
G75*
G02*
X111268250Y-56586500I269250J0D01*
G01*
X112231750Y-56586500D01*
G75*
G02*
X112501000Y-56855750I0J-269250D01*
G01*
X112501000Y-57394250D01*
G75*
G02*
X112231750Y-57663500I-269250J0D01*
G01*
G37*
G36*
G01*
X112231750Y-59538500D02*
X111268250Y-59538500D01*
G75*
G02*
X110999000Y-59269250I0J269250D01*
G01*
X110999000Y-58730750D01*
G75*
G02*
X111268250Y-58461500I269250J0D01*
G01*
X112231750Y-58461500D01*
G75*
G02*
X112501000Y-58730750I0J-269250D01*
G01*
X112501000Y-59269250D01*
G75*
G02*
X112231750Y-59538500I-269250J0D01*
G01*
G37*
G36*
G01*
X115731750Y-57663500D02*
X114768250Y-57663500D01*
G75*
G02*
X114499000Y-57394250I0J269250D01*
G01*
X114499000Y-56855750D01*
G75*
G02*
X114768250Y-56586500I269250J0D01*
G01*
X115731750Y-56586500D01*
G75*
G02*
X116001000Y-56855750I0J-269250D01*
G01*
X116001000Y-57394250D01*
G75*
G02*
X115731750Y-57663500I-269250J0D01*
G01*
G37*
G36*
G01*
X115731750Y-59538500D02*
X114768250Y-59538500D01*
G75*
G02*
X114499000Y-59269250I0J269250D01*
G01*
X114499000Y-58730750D01*
G75*
G02*
X114768250Y-58461500I269250J0D01*
G01*
X115731750Y-58461500D01*
G75*
G02*
X116001000Y-58730750I0J-269250D01*
G01*
X116001000Y-59269250D01*
G75*
G02*
X115731750Y-59538500I-269250J0D01*
G01*
G37*
G36*
G01*
X119231750Y-59538500D02*
X118268250Y-59538500D01*
G75*
G02*
X117999000Y-59269250I0J269250D01*
G01*
X117999000Y-58730750D01*
G75*
G02*
X118268250Y-58461500I269250J0D01*
G01*
X119231750Y-58461500D01*
G75*
G02*
X119501000Y-58730750I0J-269250D01*
G01*
X119501000Y-59269250D01*
G75*
G02*
X119231750Y-59538500I-269250J0D01*
G01*
G37*
G36*
G01*
X119231750Y-57663500D02*
X118268250Y-57663500D01*
G75*
G02*
X117999000Y-57394250I0J269250D01*
G01*
X117999000Y-56855750D01*
G75*
G02*
X118268250Y-56586500I269250J0D01*
G01*
X119231750Y-56586500D01*
G75*
G02*
X119501000Y-56855750I0J-269250D01*
G01*
X119501000Y-57394250D01*
G75*
G02*
X119231750Y-57663500I-269250J0D01*
G01*
G37*
G36*
G01*
X122731750Y-57663500D02*
X121768250Y-57663500D01*
G75*
G02*
X121499000Y-57394250I0J269250D01*
G01*
X121499000Y-56855750D01*
G75*
G02*
X121768250Y-56586500I269250J0D01*
G01*
X122731750Y-56586500D01*
G75*
G02*
X123001000Y-56855750I0J-269250D01*
G01*
X123001000Y-57394250D01*
G75*
G02*
X122731750Y-57663500I-269250J0D01*
G01*
G37*
G36*
G01*
X122731750Y-59538500D02*
X121768250Y-59538500D01*
G75*
G02*
X121499000Y-59269250I0J269250D01*
G01*
X121499000Y-58730750D01*
G75*
G02*
X121768250Y-58461500I269250J0D01*
G01*
X122731750Y-58461500D01*
G75*
G02*
X123001000Y-58730750I0J-269250D01*
G01*
X123001000Y-59269250D01*
G75*
G02*
X122731750Y-59538500I-269250J0D01*
G01*
G37*
G36*
G01*
X126231750Y-59476000D02*
X125268250Y-59476000D01*
G75*
G02*
X124999000Y-59206750I0J269250D01*
G01*
X124999000Y-58668250D01*
G75*
G02*
X125268250Y-58399000I269250J0D01*
G01*
X126231750Y-58399000D01*
G75*
G02*
X126501000Y-58668250I0J-269250D01*
G01*
X126501000Y-59206750D01*
G75*
G02*
X126231750Y-59476000I-269250J0D01*
G01*
G37*
G36*
G01*
X126231750Y-57601000D02*
X125268250Y-57601000D01*
G75*
G02*
X124999000Y-57331750I0J269250D01*
G01*
X124999000Y-56793250D01*
G75*
G02*
X125268250Y-56524000I269250J0D01*
G01*
X126231750Y-56524000D01*
G75*
G02*
X126501000Y-56793250I0J-269250D01*
G01*
X126501000Y-57331750D01*
G75*
G02*
X126231750Y-57601000I-269250J0D01*
G01*
G37*
G36*
G01*
X129731750Y-59476000D02*
X128768250Y-59476000D01*
G75*
G02*
X128499000Y-59206750I0J269250D01*
G01*
X128499000Y-58668250D01*
G75*
G02*
X128768250Y-58399000I269250J0D01*
G01*
X129731750Y-58399000D01*
G75*
G02*
X130001000Y-58668250I0J-269250D01*
G01*
X130001000Y-59206750D01*
G75*
G02*
X129731750Y-59476000I-269250J0D01*
G01*
G37*
G36*
G01*
X129731750Y-57601000D02*
X128768250Y-57601000D01*
G75*
G02*
X128499000Y-57331750I0J269250D01*
G01*
X128499000Y-56793250D01*
G75*
G02*
X128768250Y-56524000I269250J0D01*
G01*
X129731750Y-56524000D01*
G75*
G02*
X130001000Y-56793250I0J-269250D01*
G01*
X130001000Y-57331750D01*
G75*
G02*
X129731750Y-57601000I-269250J0D01*
G01*
G37*
G36*
G01*
X133231750Y-59476000D02*
X132268250Y-59476000D01*
G75*
G02*
X131999000Y-59206750I0J269250D01*
G01*
X131999000Y-58668250D01*
G75*
G02*
X132268250Y-58399000I269250J0D01*
G01*
X133231750Y-58399000D01*
G75*
G02*
X133501000Y-58668250I0J-269250D01*
G01*
X133501000Y-59206750D01*
G75*
G02*
X133231750Y-59476000I-269250J0D01*
G01*
G37*
G36*
G01*
X133231750Y-57601000D02*
X132268250Y-57601000D01*
G75*
G02*
X131999000Y-57331750I0J269250D01*
G01*
X131999000Y-56793250D01*
G75*
G02*
X132268250Y-56524000I269250J0D01*
G01*
X133231750Y-56524000D01*
G75*
G02*
X133501000Y-56793250I0J-269250D01*
G01*
X133501000Y-57331750D01*
G75*
G02*
X133231750Y-57601000I-269250J0D01*
G01*
G37*
G36*
G01*
X136731750Y-59476000D02*
X135768250Y-59476000D01*
G75*
G02*
X135499000Y-59206750I0J269250D01*
G01*
X135499000Y-58668250D01*
G75*
G02*
X135768250Y-58399000I269250J0D01*
G01*
X136731750Y-58399000D01*
G75*
G02*
X137001000Y-58668250I0J-269250D01*
G01*
X137001000Y-59206750D01*
G75*
G02*
X136731750Y-59476000I-269250J0D01*
G01*
G37*
G36*
G01*
X136731750Y-57601000D02*
X135768250Y-57601000D01*
G75*
G02*
X135499000Y-57331750I0J269250D01*
G01*
X135499000Y-56793250D01*
G75*
G02*
X135768250Y-56524000I269250J0D01*
G01*
X136731750Y-56524000D01*
G75*
G02*
X137001000Y-56793250I0J-269250D01*
G01*
X137001000Y-57331750D01*
G75*
G02*
X136731750Y-57601000I-269250J0D01*
G01*
G37*
G36*
G01*
X140231750Y-59476000D02*
X139268250Y-59476000D01*
G75*
G02*
X138999000Y-59206750I0J269250D01*
G01*
X138999000Y-58668250D01*
G75*
G02*
X139268250Y-58399000I269250J0D01*
G01*
X140231750Y-58399000D01*
G75*
G02*
X140501000Y-58668250I0J-269250D01*
G01*
X140501000Y-59206750D01*
G75*
G02*
X140231750Y-59476000I-269250J0D01*
G01*
G37*
G36*
G01*
X140231750Y-57601000D02*
X139268250Y-57601000D01*
G75*
G02*
X138999000Y-57331750I0J269250D01*
G01*
X138999000Y-56793250D01*
G75*
G02*
X139268250Y-56524000I269250J0D01*
G01*
X140231750Y-56524000D01*
G75*
G02*
X140501000Y-56793250I0J-269250D01*
G01*
X140501000Y-57331750D01*
G75*
G02*
X140231750Y-57601000I-269250J0D01*
G01*
G37*
G36*
G01*
X143731750Y-57663500D02*
X142768250Y-57663500D01*
G75*
G02*
X142499000Y-57394250I0J269250D01*
G01*
X142499000Y-56855750D01*
G75*
G02*
X142768250Y-56586500I269250J0D01*
G01*
X143731750Y-56586500D01*
G75*
G02*
X144001000Y-56855750I0J-269250D01*
G01*
X144001000Y-57394250D01*
G75*
G02*
X143731750Y-57663500I-269250J0D01*
G01*
G37*
G36*
G01*
X143731750Y-59538500D02*
X142768250Y-59538500D01*
G75*
G02*
X142499000Y-59269250I0J269250D01*
G01*
X142499000Y-58730750D01*
G75*
G02*
X142768250Y-58461500I269250J0D01*
G01*
X143731750Y-58461500D01*
G75*
G02*
X144001000Y-58730750I0J-269250D01*
G01*
X144001000Y-59269250D01*
G75*
G02*
X143731750Y-59538500I-269250J0D01*
G01*
G37*
G36*
G01*
X112169250Y-62163500D02*
X111205750Y-62163500D01*
G75*
G02*
X110936500Y-61894250I0J269250D01*
G01*
X110936500Y-61355750D01*
G75*
G02*
X111205750Y-61086500I269250J0D01*
G01*
X112169250Y-61086500D01*
G75*
G02*
X112438500Y-61355750I0J-269250D01*
G01*
X112438500Y-61894250D01*
G75*
G02*
X112169250Y-62163500I-269250J0D01*
G01*
G37*
G36*
G01*
X112169250Y-64038500D02*
X111205750Y-64038500D01*
G75*
G02*
X110936500Y-63769250I0J269250D01*
G01*
X110936500Y-63230750D01*
G75*
G02*
X111205750Y-62961500I269250J0D01*
G01*
X112169250Y-62961500D01*
G75*
G02*
X112438500Y-63230750I0J-269250D01*
G01*
X112438500Y-63769250D01*
G75*
G02*
X112169250Y-64038500I-269250J0D01*
G01*
G37*
G36*
G01*
X115731750Y-63976000D02*
X114768250Y-63976000D01*
G75*
G02*
X114499000Y-63706750I0J269250D01*
G01*
X114499000Y-63168250D01*
G75*
G02*
X114768250Y-62899000I269250J0D01*
G01*
X115731750Y-62899000D01*
G75*
G02*
X116001000Y-63168250I0J-269250D01*
G01*
X116001000Y-63706750D01*
G75*
G02*
X115731750Y-63976000I-269250J0D01*
G01*
G37*
G36*
G01*
X115731750Y-62101000D02*
X114768250Y-62101000D01*
G75*
G02*
X114499000Y-61831750I0J269250D01*
G01*
X114499000Y-61293250D01*
G75*
G02*
X114768250Y-61024000I269250J0D01*
G01*
X115731750Y-61024000D01*
G75*
G02*
X116001000Y-61293250I0J-269250D01*
G01*
X116001000Y-61831750D01*
G75*
G02*
X115731750Y-62101000I-269250J0D01*
G01*
G37*
G36*
G01*
X119231750Y-62163500D02*
X118268250Y-62163500D01*
G75*
G02*
X117999000Y-61894250I0J269250D01*
G01*
X117999000Y-61355750D01*
G75*
G02*
X118268250Y-61086500I269250J0D01*
G01*
X119231750Y-61086500D01*
G75*
G02*
X119501000Y-61355750I0J-269250D01*
G01*
X119501000Y-61894250D01*
G75*
G02*
X119231750Y-62163500I-269250J0D01*
G01*
G37*
G36*
G01*
X119231750Y-64038500D02*
X118268250Y-64038500D01*
G75*
G02*
X117999000Y-63769250I0J269250D01*
G01*
X117999000Y-63230750D01*
G75*
G02*
X118268250Y-62961500I269250J0D01*
G01*
X119231750Y-62961500D01*
G75*
G02*
X119501000Y-63230750I0J-269250D01*
G01*
X119501000Y-63769250D01*
G75*
G02*
X119231750Y-64038500I-269250J0D01*
G01*
G37*
G36*
G01*
X122731750Y-64038500D02*
X121768250Y-64038500D01*
G75*
G02*
X121499000Y-63769250I0J269250D01*
G01*
X121499000Y-63230750D01*
G75*
G02*
X121768250Y-62961500I269250J0D01*
G01*
X122731750Y-62961500D01*
G75*
G02*
X123001000Y-63230750I0J-269250D01*
G01*
X123001000Y-63769250D01*
G75*
G02*
X122731750Y-64038500I-269250J0D01*
G01*
G37*
G36*
G01*
X122731750Y-62163500D02*
X121768250Y-62163500D01*
G75*
G02*
X121499000Y-61894250I0J269250D01*
G01*
X121499000Y-61355750D01*
G75*
G02*
X121768250Y-61086500I269250J0D01*
G01*
X122731750Y-61086500D01*
G75*
G02*
X123001000Y-61355750I0J-269250D01*
G01*
X123001000Y-61894250D01*
G75*
G02*
X122731750Y-62163500I-269250J0D01*
G01*
G37*
G36*
G01*
X126231750Y-62101000D02*
X125268250Y-62101000D01*
G75*
G02*
X124999000Y-61831750I0J269250D01*
G01*
X124999000Y-61293250D01*
G75*
G02*
X125268250Y-61024000I269250J0D01*
G01*
X126231750Y-61024000D01*
G75*
G02*
X126501000Y-61293250I0J-269250D01*
G01*
X126501000Y-61831750D01*
G75*
G02*
X126231750Y-62101000I-269250J0D01*
G01*
G37*
G36*
G01*
X126231750Y-63976000D02*
X125268250Y-63976000D01*
G75*
G02*
X124999000Y-63706750I0J269250D01*
G01*
X124999000Y-63168250D01*
G75*
G02*
X125268250Y-62899000I269250J0D01*
G01*
X126231750Y-62899000D01*
G75*
G02*
X126501000Y-63168250I0J-269250D01*
G01*
X126501000Y-63706750D01*
G75*
G02*
X126231750Y-63976000I-269250J0D01*
G01*
G37*
G36*
G01*
X129731750Y-62163500D02*
X128768250Y-62163500D01*
G75*
G02*
X128499000Y-61894250I0J269250D01*
G01*
X128499000Y-61355750D01*
G75*
G02*
X128768250Y-61086500I269250J0D01*
G01*
X129731750Y-61086500D01*
G75*
G02*
X130001000Y-61355750I0J-269250D01*
G01*
X130001000Y-61894250D01*
G75*
G02*
X129731750Y-62163500I-269250J0D01*
G01*
G37*
G36*
G01*
X129731750Y-64038500D02*
X128768250Y-64038500D01*
G75*
G02*
X128499000Y-63769250I0J269250D01*
G01*
X128499000Y-63230750D01*
G75*
G02*
X128768250Y-62961500I269250J0D01*
G01*
X129731750Y-62961500D01*
G75*
G02*
X130001000Y-63230750I0J-269250D01*
G01*
X130001000Y-63769250D01*
G75*
G02*
X129731750Y-64038500I-269250J0D01*
G01*
G37*
G36*
G01*
X133231750Y-62163500D02*
X132268250Y-62163500D01*
G75*
G02*
X131999000Y-61894250I0J269250D01*
G01*
X131999000Y-61355750D01*
G75*
G02*
X132268250Y-61086500I269250J0D01*
G01*
X133231750Y-61086500D01*
G75*
G02*
X133501000Y-61355750I0J-269250D01*
G01*
X133501000Y-61894250D01*
G75*
G02*
X133231750Y-62163500I-269250J0D01*
G01*
G37*
G36*
G01*
X133231750Y-64038500D02*
X132268250Y-64038500D01*
G75*
G02*
X131999000Y-63769250I0J269250D01*
G01*
X131999000Y-63230750D01*
G75*
G02*
X132268250Y-62961500I269250J0D01*
G01*
X133231750Y-62961500D01*
G75*
G02*
X133501000Y-63230750I0J-269250D01*
G01*
X133501000Y-63769250D01*
G75*
G02*
X133231750Y-64038500I-269250J0D01*
G01*
G37*
G36*
G01*
X136731750Y-62101000D02*
X135768250Y-62101000D01*
G75*
G02*
X135499000Y-61831750I0J269250D01*
G01*
X135499000Y-61293250D01*
G75*
G02*
X135768250Y-61024000I269250J0D01*
G01*
X136731750Y-61024000D01*
G75*
G02*
X137001000Y-61293250I0J-269250D01*
G01*
X137001000Y-61831750D01*
G75*
G02*
X136731750Y-62101000I-269250J0D01*
G01*
G37*
G36*
G01*
X136731750Y-63976000D02*
X135768250Y-63976000D01*
G75*
G02*
X135499000Y-63706750I0J269250D01*
G01*
X135499000Y-63168250D01*
G75*
G02*
X135768250Y-62899000I269250J0D01*
G01*
X136731750Y-62899000D01*
G75*
G02*
X137001000Y-63168250I0J-269250D01*
G01*
X137001000Y-63706750D01*
G75*
G02*
X136731750Y-63976000I-269250J0D01*
G01*
G37*
G36*
G01*
X140231750Y-62163500D02*
X139268250Y-62163500D01*
G75*
G02*
X138999000Y-61894250I0J269250D01*
G01*
X138999000Y-61355750D01*
G75*
G02*
X139268250Y-61086500I269250J0D01*
G01*
X140231750Y-61086500D01*
G75*
G02*
X140501000Y-61355750I0J-269250D01*
G01*
X140501000Y-61894250D01*
G75*
G02*
X140231750Y-62163500I-269250J0D01*
G01*
G37*
G36*
G01*
X140231750Y-64038500D02*
X139268250Y-64038500D01*
G75*
G02*
X138999000Y-63769250I0J269250D01*
G01*
X138999000Y-63230750D01*
G75*
G02*
X139268250Y-62961500I269250J0D01*
G01*
X140231750Y-62961500D01*
G75*
G02*
X140501000Y-63230750I0J-269250D01*
G01*
X140501000Y-63769250D01*
G75*
G02*
X140231750Y-64038500I-269250J0D01*
G01*
G37*
G36*
G01*
X143731750Y-63976000D02*
X142768250Y-63976000D01*
G75*
G02*
X142499000Y-63706750I0J269250D01*
G01*
X142499000Y-63168250D01*
G75*
G02*
X142768250Y-62899000I269250J0D01*
G01*
X143731750Y-62899000D01*
G75*
G02*
X144001000Y-63168250I0J-269250D01*
G01*
X144001000Y-63706750D01*
G75*
G02*
X143731750Y-63976000I-269250J0D01*
G01*
G37*
G36*
G01*
X143731750Y-62101000D02*
X142768250Y-62101000D01*
G75*
G02*
X142499000Y-61831750I0J269250D01*
G01*
X142499000Y-61293250D01*
G75*
G02*
X142768250Y-61024000I269250J0D01*
G01*
X143731750Y-61024000D01*
G75*
G02*
X144001000Y-61293250I0J-269250D01*
G01*
X144001000Y-61831750D01*
G75*
G02*
X143731750Y-62101000I-269250J0D01*
G01*
G37*
G36*
G01*
X112231750Y-66663500D02*
X111268250Y-66663500D01*
G75*
G02*
X110999000Y-66394250I0J269250D01*
G01*
X110999000Y-65855750D01*
G75*
G02*
X111268250Y-65586500I269250J0D01*
G01*
X112231750Y-65586500D01*
G75*
G02*
X112501000Y-65855750I0J-269250D01*
G01*
X112501000Y-66394250D01*
G75*
G02*
X112231750Y-66663500I-269250J0D01*
G01*
G37*
G36*
G01*
X112231750Y-68538500D02*
X111268250Y-68538500D01*
G75*
G02*
X110999000Y-68269250I0J269250D01*
G01*
X110999000Y-67730750D01*
G75*
G02*
X111268250Y-67461500I269250J0D01*
G01*
X112231750Y-67461500D01*
G75*
G02*
X112501000Y-67730750I0J-269250D01*
G01*
X112501000Y-68269250D01*
G75*
G02*
X112231750Y-68538500I-269250J0D01*
G01*
G37*
G36*
G01*
X115731750Y-68538500D02*
X114768250Y-68538500D01*
G75*
G02*
X114499000Y-68269250I0J269250D01*
G01*
X114499000Y-67730750D01*
G75*
G02*
X114768250Y-67461500I269250J0D01*
G01*
X115731750Y-67461500D01*
G75*
G02*
X116001000Y-67730750I0J-269250D01*
G01*
X116001000Y-68269250D01*
G75*
G02*
X115731750Y-68538500I-269250J0D01*
G01*
G37*
G36*
G01*
X115731750Y-66663500D02*
X114768250Y-66663500D01*
G75*
G02*
X114499000Y-66394250I0J269250D01*
G01*
X114499000Y-65855750D01*
G75*
G02*
X114768250Y-65586500I269250J0D01*
G01*
X115731750Y-65586500D01*
G75*
G02*
X116001000Y-65855750I0J-269250D01*
G01*
X116001000Y-66394250D01*
G75*
G02*
X115731750Y-66663500I-269250J0D01*
G01*
G37*
G36*
G01*
X119231750Y-68538500D02*
X118268250Y-68538500D01*
G75*
G02*
X117999000Y-68269250I0J269250D01*
G01*
X117999000Y-67730750D01*
G75*
G02*
X118268250Y-67461500I269250J0D01*
G01*
X119231750Y-67461500D01*
G75*
G02*
X119501000Y-67730750I0J-269250D01*
G01*
X119501000Y-68269250D01*
G75*
G02*
X119231750Y-68538500I-269250J0D01*
G01*
G37*
G36*
G01*
X119231750Y-66663500D02*
X118268250Y-66663500D01*
G75*
G02*
X117999000Y-66394250I0J269250D01*
G01*
X117999000Y-65855750D01*
G75*
G02*
X118268250Y-65586500I269250J0D01*
G01*
X119231750Y-65586500D01*
G75*
G02*
X119501000Y-65855750I0J-269250D01*
G01*
X119501000Y-66394250D01*
G75*
G02*
X119231750Y-66663500I-269250J0D01*
G01*
G37*
G36*
G01*
X122731750Y-66538500D02*
X121768250Y-66538500D01*
G75*
G02*
X121499000Y-66269250I0J269250D01*
G01*
X121499000Y-65730750D01*
G75*
G02*
X121768250Y-65461500I269250J0D01*
G01*
X122731750Y-65461500D01*
G75*
G02*
X123001000Y-65730750I0J-269250D01*
G01*
X123001000Y-66269250D01*
G75*
G02*
X122731750Y-66538500I-269250J0D01*
G01*
G37*
G36*
G01*
X122731750Y-68413500D02*
X121768250Y-68413500D01*
G75*
G02*
X121499000Y-68144250I0J269250D01*
G01*
X121499000Y-67605750D01*
G75*
G02*
X121768250Y-67336500I269250J0D01*
G01*
X122731750Y-67336500D01*
G75*
G02*
X123001000Y-67605750I0J-269250D01*
G01*
X123001000Y-68144250D01*
G75*
G02*
X122731750Y-68413500I-269250J0D01*
G01*
G37*
G36*
G01*
X126231750Y-68476000D02*
X125268250Y-68476000D01*
G75*
G02*
X124999000Y-68206750I0J269250D01*
G01*
X124999000Y-67668250D01*
G75*
G02*
X125268250Y-67399000I269250J0D01*
G01*
X126231750Y-67399000D01*
G75*
G02*
X126501000Y-67668250I0J-269250D01*
G01*
X126501000Y-68206750D01*
G75*
G02*
X126231750Y-68476000I-269250J0D01*
G01*
G37*
G36*
G01*
X126231750Y-66601000D02*
X125268250Y-66601000D01*
G75*
G02*
X124999000Y-66331750I0J269250D01*
G01*
X124999000Y-65793250D01*
G75*
G02*
X125268250Y-65524000I269250J0D01*
G01*
X126231750Y-65524000D01*
G75*
G02*
X126501000Y-65793250I0J-269250D01*
G01*
X126501000Y-66331750D01*
G75*
G02*
X126231750Y-66601000I-269250J0D01*
G01*
G37*
G36*
G01*
X129731750Y-66538500D02*
X128768250Y-66538500D01*
G75*
G02*
X128499000Y-66269250I0J269250D01*
G01*
X128499000Y-65730750D01*
G75*
G02*
X128768250Y-65461500I269250J0D01*
G01*
X129731750Y-65461500D01*
G75*
G02*
X130001000Y-65730750I0J-269250D01*
G01*
X130001000Y-66269250D01*
G75*
G02*
X129731750Y-66538500I-269250J0D01*
G01*
G37*
G36*
G01*
X129731750Y-68413500D02*
X128768250Y-68413500D01*
G75*
G02*
X128499000Y-68144250I0J269250D01*
G01*
X128499000Y-67605750D01*
G75*
G02*
X128768250Y-67336500I269250J0D01*
G01*
X129731750Y-67336500D01*
G75*
G02*
X130001000Y-67605750I0J-269250D01*
G01*
X130001000Y-68144250D01*
G75*
G02*
X129731750Y-68413500I-269250J0D01*
G01*
G37*
G36*
G01*
X133231750Y-68538500D02*
X132268250Y-68538500D01*
G75*
G02*
X131999000Y-68269250I0J269250D01*
G01*
X131999000Y-67730750D01*
G75*
G02*
X132268250Y-67461500I269250J0D01*
G01*
X133231750Y-67461500D01*
G75*
G02*
X133501000Y-67730750I0J-269250D01*
G01*
X133501000Y-68269250D01*
G75*
G02*
X133231750Y-68538500I-269250J0D01*
G01*
G37*
G36*
G01*
X133231750Y-66663500D02*
X132268250Y-66663500D01*
G75*
G02*
X131999000Y-66394250I0J269250D01*
G01*
X131999000Y-65855750D01*
G75*
G02*
X132268250Y-65586500I269250J0D01*
G01*
X133231750Y-65586500D01*
G75*
G02*
X133501000Y-65855750I0J-269250D01*
G01*
X133501000Y-66394250D01*
G75*
G02*
X133231750Y-66663500I-269250J0D01*
G01*
G37*
G36*
G01*
X136731750Y-68538500D02*
X135768250Y-68538500D01*
G75*
G02*
X135499000Y-68269250I0J269250D01*
G01*
X135499000Y-67730750D01*
G75*
G02*
X135768250Y-67461500I269250J0D01*
G01*
X136731750Y-67461500D01*
G75*
G02*
X137001000Y-67730750I0J-269250D01*
G01*
X137001000Y-68269250D01*
G75*
G02*
X136731750Y-68538500I-269250J0D01*
G01*
G37*
G36*
G01*
X136731750Y-66663500D02*
X135768250Y-66663500D01*
G75*
G02*
X135499000Y-66394250I0J269250D01*
G01*
X135499000Y-65855750D01*
G75*
G02*
X135768250Y-65586500I269250J0D01*
G01*
X136731750Y-65586500D01*
G75*
G02*
X137001000Y-65855750I0J-269250D01*
G01*
X137001000Y-66394250D01*
G75*
G02*
X136731750Y-66663500I-269250J0D01*
G01*
G37*
G36*
G01*
X140231750Y-68538500D02*
X139268250Y-68538500D01*
G75*
G02*
X138999000Y-68269250I0J269250D01*
G01*
X138999000Y-67730750D01*
G75*
G02*
X139268250Y-67461500I269250J0D01*
G01*
X140231750Y-67461500D01*
G75*
G02*
X140501000Y-67730750I0J-269250D01*
G01*
X140501000Y-68269250D01*
G75*
G02*
X140231750Y-68538500I-269250J0D01*
G01*
G37*
G36*
G01*
X140231750Y-66663500D02*
X139268250Y-66663500D01*
G75*
G02*
X138999000Y-66394250I0J269250D01*
G01*
X138999000Y-65855750D01*
G75*
G02*
X139268250Y-65586500I269250J0D01*
G01*
X140231750Y-65586500D01*
G75*
G02*
X140501000Y-65855750I0J-269250D01*
G01*
X140501000Y-66394250D01*
G75*
G02*
X140231750Y-66663500I-269250J0D01*
G01*
G37*
G36*
G01*
X143731750Y-66663500D02*
X142768250Y-66663500D01*
G75*
G02*
X142499000Y-66394250I0J269250D01*
G01*
X142499000Y-65855750D01*
G75*
G02*
X142768250Y-65586500I269250J0D01*
G01*
X143731750Y-65586500D01*
G75*
G02*
X144001000Y-65855750I0J-269250D01*
G01*
X144001000Y-66394250D01*
G75*
G02*
X143731750Y-66663500I-269250J0D01*
G01*
G37*
G36*
G01*
X143731750Y-68538500D02*
X142768250Y-68538500D01*
G75*
G02*
X142499000Y-68269250I0J269250D01*
G01*
X142499000Y-67730750D01*
G75*
G02*
X142768250Y-67461500I269250J0D01*
G01*
X143731750Y-67461500D01*
G75*
G02*
X144001000Y-67730750I0J-269250D01*
G01*
X144001000Y-68269250D01*
G75*
G02*
X143731750Y-68538500I-269250J0D01*
G01*
G37*
G36*
G01*
X112231750Y-73038500D02*
X111268250Y-73038500D01*
G75*
G02*
X110999000Y-72769250I0J269250D01*
G01*
X110999000Y-72230750D01*
G75*
G02*
X111268250Y-71961500I269250J0D01*
G01*
X112231750Y-71961500D01*
G75*
G02*
X112501000Y-72230750I0J-269250D01*
G01*
X112501000Y-72769250D01*
G75*
G02*
X112231750Y-73038500I-269250J0D01*
G01*
G37*
G36*
G01*
X112231750Y-71163500D02*
X111268250Y-71163500D01*
G75*
G02*
X110999000Y-70894250I0J269250D01*
G01*
X110999000Y-70355750D01*
G75*
G02*
X111268250Y-70086500I269250J0D01*
G01*
X112231750Y-70086500D01*
G75*
G02*
X112501000Y-70355750I0J-269250D01*
G01*
X112501000Y-70894250D01*
G75*
G02*
X112231750Y-71163500I-269250J0D01*
G01*
G37*
G36*
G01*
X115731750Y-73038500D02*
X114768250Y-73038500D01*
G75*
G02*
X114499000Y-72769250I0J269250D01*
G01*
X114499000Y-72230750D01*
G75*
G02*
X114768250Y-71961500I269250J0D01*
G01*
X115731750Y-71961500D01*
G75*
G02*
X116001000Y-72230750I0J-269250D01*
G01*
X116001000Y-72769250D01*
G75*
G02*
X115731750Y-73038500I-269250J0D01*
G01*
G37*
G36*
G01*
X115731750Y-71163500D02*
X114768250Y-71163500D01*
G75*
G02*
X114499000Y-70894250I0J269250D01*
G01*
X114499000Y-70355750D01*
G75*
G02*
X114768250Y-70086500I269250J0D01*
G01*
X115731750Y-70086500D01*
G75*
G02*
X116001000Y-70355750I0J-269250D01*
G01*
X116001000Y-70894250D01*
G75*
G02*
X115731750Y-71163500I-269250J0D01*
G01*
G37*
G36*
G01*
X119231750Y-72976000D02*
X118268250Y-72976000D01*
G75*
G02*
X117999000Y-72706750I0J269250D01*
G01*
X117999000Y-72168250D01*
G75*
G02*
X118268250Y-71899000I269250J0D01*
G01*
X119231750Y-71899000D01*
G75*
G02*
X119501000Y-72168250I0J-269250D01*
G01*
X119501000Y-72706750D01*
G75*
G02*
X119231750Y-72976000I-269250J0D01*
G01*
G37*
G36*
G01*
X119231750Y-71101000D02*
X118268250Y-71101000D01*
G75*
G02*
X117999000Y-70831750I0J269250D01*
G01*
X117999000Y-70293250D01*
G75*
G02*
X118268250Y-70024000I269250J0D01*
G01*
X119231750Y-70024000D01*
G75*
G02*
X119501000Y-70293250I0J-269250D01*
G01*
X119501000Y-70831750D01*
G75*
G02*
X119231750Y-71101000I-269250J0D01*
G01*
G37*
G36*
G01*
X122731750Y-72976000D02*
X121768250Y-72976000D01*
G75*
G02*
X121499000Y-72706750I0J269250D01*
G01*
X121499000Y-72168250D01*
G75*
G02*
X121768250Y-71899000I269250J0D01*
G01*
X122731750Y-71899000D01*
G75*
G02*
X123001000Y-72168250I0J-269250D01*
G01*
X123001000Y-72706750D01*
G75*
G02*
X122731750Y-72976000I-269250J0D01*
G01*
G37*
G36*
G01*
X122731750Y-71101000D02*
X121768250Y-71101000D01*
G75*
G02*
X121499000Y-70831750I0J269250D01*
G01*
X121499000Y-70293250D01*
G75*
G02*
X121768250Y-70024000I269250J0D01*
G01*
X122731750Y-70024000D01*
G75*
G02*
X123001000Y-70293250I0J-269250D01*
G01*
X123001000Y-70831750D01*
G75*
G02*
X122731750Y-71101000I-269250J0D01*
G01*
G37*
G36*
G01*
X126231750Y-71101000D02*
X125268250Y-71101000D01*
G75*
G02*
X124999000Y-70831750I0J269250D01*
G01*
X124999000Y-70293250D01*
G75*
G02*
X125268250Y-70024000I269250J0D01*
G01*
X126231750Y-70024000D01*
G75*
G02*
X126501000Y-70293250I0J-269250D01*
G01*
X126501000Y-70831750D01*
G75*
G02*
X126231750Y-71101000I-269250J0D01*
G01*
G37*
G36*
G01*
X126231750Y-72976000D02*
X125268250Y-72976000D01*
G75*
G02*
X124999000Y-72706750I0J269250D01*
G01*
X124999000Y-72168250D01*
G75*
G02*
X125268250Y-71899000I269250J0D01*
G01*
X126231750Y-71899000D01*
G75*
G02*
X126501000Y-72168250I0J-269250D01*
G01*
X126501000Y-72706750D01*
G75*
G02*
X126231750Y-72976000I-269250J0D01*
G01*
G37*
G36*
G01*
X129731750Y-73038500D02*
X128768250Y-73038500D01*
G75*
G02*
X128499000Y-72769250I0J269250D01*
G01*
X128499000Y-72230750D01*
G75*
G02*
X128768250Y-71961500I269250J0D01*
G01*
X129731750Y-71961500D01*
G75*
G02*
X130001000Y-72230750I0J-269250D01*
G01*
X130001000Y-72769250D01*
G75*
G02*
X129731750Y-73038500I-269250J0D01*
G01*
G37*
G36*
G01*
X129731750Y-71163500D02*
X128768250Y-71163500D01*
G75*
G02*
X128499000Y-70894250I0J269250D01*
G01*
X128499000Y-70355750D01*
G75*
G02*
X128768250Y-70086500I269250J0D01*
G01*
X129731750Y-70086500D01*
G75*
G02*
X130001000Y-70355750I0J-269250D01*
G01*
X130001000Y-70894250D01*
G75*
G02*
X129731750Y-71163500I-269250J0D01*
G01*
G37*
G36*
G01*
X133231750Y-72976000D02*
X132268250Y-72976000D01*
G75*
G02*
X131999000Y-72706750I0J269250D01*
G01*
X131999000Y-72168250D01*
G75*
G02*
X132268250Y-71899000I269250J0D01*
G01*
X133231750Y-71899000D01*
G75*
G02*
X133501000Y-72168250I0J-269250D01*
G01*
X133501000Y-72706750D01*
G75*
G02*
X133231750Y-72976000I-269250J0D01*
G01*
G37*
G36*
G01*
X133231750Y-71101000D02*
X132268250Y-71101000D01*
G75*
G02*
X131999000Y-70831750I0J269250D01*
G01*
X131999000Y-70293250D01*
G75*
G02*
X132268250Y-70024000I269250J0D01*
G01*
X133231750Y-70024000D01*
G75*
G02*
X133501000Y-70293250I0J-269250D01*
G01*
X133501000Y-70831750D01*
G75*
G02*
X133231750Y-71101000I-269250J0D01*
G01*
G37*
G36*
G01*
X136731750Y-71101000D02*
X135768250Y-71101000D01*
G75*
G02*
X135499000Y-70831750I0J269250D01*
G01*
X135499000Y-70293250D01*
G75*
G02*
X135768250Y-70024000I269250J0D01*
G01*
X136731750Y-70024000D01*
G75*
G02*
X137001000Y-70293250I0J-269250D01*
G01*
X137001000Y-70831750D01*
G75*
G02*
X136731750Y-71101000I-269250J0D01*
G01*
G37*
G36*
G01*
X136731750Y-72976000D02*
X135768250Y-72976000D01*
G75*
G02*
X135499000Y-72706750I0J269250D01*
G01*
X135499000Y-72168250D01*
G75*
G02*
X135768250Y-71899000I269250J0D01*
G01*
X136731750Y-71899000D01*
G75*
G02*
X137001000Y-72168250I0J-269250D01*
G01*
X137001000Y-72706750D01*
G75*
G02*
X136731750Y-72976000I-269250J0D01*
G01*
G37*
G36*
G01*
X140231750Y-71163500D02*
X139268250Y-71163500D01*
G75*
G02*
X138999000Y-70894250I0J269250D01*
G01*
X138999000Y-70355750D01*
G75*
G02*
X139268250Y-70086500I269250J0D01*
G01*
X140231750Y-70086500D01*
G75*
G02*
X140501000Y-70355750I0J-269250D01*
G01*
X140501000Y-70894250D01*
G75*
G02*
X140231750Y-71163500I-269250J0D01*
G01*
G37*
G36*
G01*
X140231750Y-73038500D02*
X139268250Y-73038500D01*
G75*
G02*
X138999000Y-72769250I0J269250D01*
G01*
X138999000Y-72230750D01*
G75*
G02*
X139268250Y-71961500I269250J0D01*
G01*
X140231750Y-71961500D01*
G75*
G02*
X140501000Y-72230750I0J-269250D01*
G01*
X140501000Y-72769250D01*
G75*
G02*
X140231750Y-73038500I-269250J0D01*
G01*
G37*
G36*
G01*
X143731750Y-72913500D02*
X142768250Y-72913500D01*
G75*
G02*
X142499000Y-72644250I0J269250D01*
G01*
X142499000Y-72105750D01*
G75*
G02*
X142768250Y-71836500I269250J0D01*
G01*
X143731750Y-71836500D01*
G75*
G02*
X144001000Y-72105750I0J-269250D01*
G01*
X144001000Y-72644250D01*
G75*
G02*
X143731750Y-72913500I-269250J0D01*
G01*
G37*
G36*
G01*
X143731750Y-71038500D02*
X142768250Y-71038500D01*
G75*
G02*
X142499000Y-70769250I0J269250D01*
G01*
X142499000Y-70230750D01*
G75*
G02*
X142768250Y-69961500I269250J0D01*
G01*
X143731750Y-69961500D01*
G75*
G02*
X144001000Y-70230750I0J-269250D01*
G01*
X144001000Y-70769250D01*
G75*
G02*
X143731750Y-71038500I-269250J0D01*
G01*
G37*
G36*
G01*
X120218250Y-80436500D02*
X121181750Y-80436500D01*
G75*
G02*
X121451000Y-80705750I0J-269250D01*
G01*
X121451000Y-81244250D01*
G75*
G02*
X121181750Y-81513500I-269250J0D01*
G01*
X120218250Y-81513500D01*
G75*
G02*
X119949000Y-81244250I0J269250D01*
G01*
X119949000Y-80705750D01*
G75*
G02*
X120218250Y-80436500I269250J0D01*
G01*
G37*
G36*
G01*
X120218250Y-78561500D02*
X121181750Y-78561500D01*
G75*
G02*
X121451000Y-78830750I0J-269250D01*
G01*
X121451000Y-79369250D01*
G75*
G02*
X121181750Y-79638500I-269250J0D01*
G01*
X120218250Y-79638500D01*
G75*
G02*
X119949000Y-79369250I0J269250D01*
G01*
X119949000Y-78830750D01*
G75*
G02*
X120218250Y-78561500I269250J0D01*
G01*
G37*
G36*
G01*
X118981750Y-81513500D02*
X118018250Y-81513500D01*
G75*
G02*
X117749000Y-81244250I0J269250D01*
G01*
X117749000Y-80705750D01*
G75*
G02*
X118018250Y-80436500I269250J0D01*
G01*
X118981750Y-80436500D01*
G75*
G02*
X119251000Y-80705750I0J-269250D01*
G01*
X119251000Y-81244250D01*
G75*
G02*
X118981750Y-81513500I-269250J0D01*
G01*
G37*
G36*
G01*
X118981750Y-79638500D02*
X118018250Y-79638500D01*
G75*
G02*
X117749000Y-79369250I0J269250D01*
G01*
X117749000Y-78830750D01*
G75*
G02*
X118018250Y-78561500I269250J0D01*
G01*
X118981750Y-78561500D01*
G75*
G02*
X119251000Y-78830750I0J-269250D01*
G01*
X119251000Y-79369250D01*
G75*
G02*
X118981750Y-79638500I-269250J0D01*
G01*
G37*
D12*
X152697056Y-89302944D03*
X151000000Y-88600000D03*
X149302944Y-89302944D03*
X148600000Y-91000000D03*
X149302944Y-92697056D03*
X151000000Y-93400000D03*
X152697056Y-92697056D03*
X153400000Y-91000000D03*
D13*
X151000000Y-91000000D03*
X104000000Y-91000000D03*
D12*
X106400000Y-91000000D03*
X105697056Y-92697056D03*
X104000000Y-93400000D03*
X102302944Y-92697056D03*
X101600000Y-91000000D03*
X102302944Y-89302944D03*
X104000000Y-88600000D03*
X105697056Y-89302944D03*
X152697056Y-42302944D03*
X151000000Y-41600000D03*
X149302944Y-42302944D03*
X148600000Y-44000000D03*
X149302944Y-45697056D03*
X151000000Y-46400000D03*
X152697056Y-45697056D03*
X153400000Y-44000000D03*
D13*
X151000000Y-44000000D03*
X104000000Y-44000000D03*
D12*
X106400000Y-44000000D03*
X105697056Y-45697056D03*
X104000000Y-46400000D03*
X102302944Y-45697056D03*
X101600000Y-44000000D03*
X102302944Y-42302944D03*
X104000000Y-41600000D03*
X105697056Y-42302944D03*
G36*
G01*
X101500000Y-49049000D02*
X104500000Y-49049000D01*
G75*
G02*
X104551000Y-49100000I0J-51000D01*
G01*
X104551000Y-52100000D01*
G75*
G02*
X104500000Y-52151000I-51000J0D01*
G01*
X101500000Y-52151000D01*
G75*
G02*
X101449000Y-52100000I0J51000D01*
G01*
X101449000Y-49100000D01*
G75*
G02*
X101500000Y-49049000I51000J0D01*
G01*
G37*
D14*
X103000000Y-55680000D03*
G36*
G01*
X109346665Y-41424000D02*
X110653335Y-41424000D01*
G75*
G02*
X110926000Y-41696665I0J-272665D01*
G01*
X110926000Y-42378335D01*
G75*
G02*
X110653335Y-42651000I-272665J0D01*
G01*
X109346665Y-42651000D01*
G75*
G02*
X109074000Y-42378335I0J272665D01*
G01*
X109074000Y-41696665D01*
G75*
G02*
X109346665Y-41424000I272665J0D01*
G01*
G37*
G36*
G01*
X109346665Y-44349000D02*
X110653335Y-44349000D01*
G75*
G02*
X110926000Y-44621665I0J-272665D01*
G01*
X110926000Y-45303335D01*
G75*
G02*
X110653335Y-45576000I-272665J0D01*
G01*
X109346665Y-45576000D01*
G75*
G02*
X109074000Y-45303335I0J272665D01*
G01*
X109074000Y-44621665D01*
G75*
G02*
X109346665Y-44349000I272665J0D01*
G01*
G37*
G36*
G01*
X113346665Y-44349000D02*
X114653335Y-44349000D01*
G75*
G02*
X114926000Y-44621665I0J-272665D01*
G01*
X114926000Y-45303335D01*
G75*
G02*
X114653335Y-45576000I-272665J0D01*
G01*
X113346665Y-45576000D01*
G75*
G02*
X113074000Y-45303335I0J272665D01*
G01*
X113074000Y-44621665D01*
G75*
G02*
X113346665Y-44349000I272665J0D01*
G01*
G37*
G36*
G01*
X113346665Y-41424000D02*
X114653335Y-41424000D01*
G75*
G02*
X114926000Y-41696665I0J-272665D01*
G01*
X114926000Y-42378335D01*
G75*
G02*
X114653335Y-42651000I-272665J0D01*
G01*
X113346665Y-42651000D01*
G75*
G02*
X113074000Y-42378335I0J272665D01*
G01*
X113074000Y-41696665D01*
G75*
G02*
X113346665Y-41424000I272665J0D01*
G01*
G37*
G36*
G01*
X117246665Y-41424000D02*
X118553335Y-41424000D01*
G75*
G02*
X118826000Y-41696665I0J-272665D01*
G01*
X118826000Y-42378335D01*
G75*
G02*
X118553335Y-42651000I-272665J0D01*
G01*
X117246665Y-42651000D01*
G75*
G02*
X116974000Y-42378335I0J272665D01*
G01*
X116974000Y-41696665D01*
G75*
G02*
X117246665Y-41424000I272665J0D01*
G01*
G37*
G36*
G01*
X117246665Y-44349000D02*
X118553335Y-44349000D01*
G75*
G02*
X118826000Y-44621665I0J-272665D01*
G01*
X118826000Y-45303335D01*
G75*
G02*
X118553335Y-45576000I-272665J0D01*
G01*
X117246665Y-45576000D01*
G75*
G02*
X116974000Y-45303335I0J272665D01*
G01*
X116974000Y-44621665D01*
G75*
G02*
X117246665Y-44349000I272665J0D01*
G01*
G37*
G36*
G01*
X120846665Y-44349000D02*
X122153335Y-44349000D01*
G75*
G02*
X122426000Y-44621665I0J-272665D01*
G01*
X122426000Y-45303335D01*
G75*
G02*
X122153335Y-45576000I-272665J0D01*
G01*
X120846665Y-45576000D01*
G75*
G02*
X120574000Y-45303335I0J272665D01*
G01*
X120574000Y-44621665D01*
G75*
G02*
X120846665Y-44349000I272665J0D01*
G01*
G37*
G36*
G01*
X120846665Y-41424000D02*
X122153335Y-41424000D01*
G75*
G02*
X122426000Y-41696665I0J-272665D01*
G01*
X122426000Y-42378335D01*
G75*
G02*
X122153335Y-42651000I-272665J0D01*
G01*
X120846665Y-42651000D01*
G75*
G02*
X120574000Y-42378335I0J272665D01*
G01*
X120574000Y-41696665D01*
G75*
G02*
X120846665Y-41424000I272665J0D01*
G01*
G37*
G36*
G01*
X124846665Y-41424000D02*
X126153335Y-41424000D01*
G75*
G02*
X126426000Y-41696665I0J-272665D01*
G01*
X126426000Y-42378335D01*
G75*
G02*
X126153335Y-42651000I-272665J0D01*
G01*
X124846665Y-42651000D01*
G75*
G02*
X124574000Y-42378335I0J272665D01*
G01*
X124574000Y-41696665D01*
G75*
G02*
X124846665Y-41424000I272665J0D01*
G01*
G37*
G36*
G01*
X124846665Y-44349000D02*
X126153335Y-44349000D01*
G75*
G02*
X126426000Y-44621665I0J-272665D01*
G01*
X126426000Y-45303335D01*
G75*
G02*
X126153335Y-45576000I-272665J0D01*
G01*
X124846665Y-45576000D01*
G75*
G02*
X124574000Y-45303335I0J272665D01*
G01*
X124574000Y-44621665D01*
G75*
G02*
X124846665Y-44349000I272665J0D01*
G01*
G37*
G36*
G01*
X128846665Y-44349000D02*
X130153335Y-44349000D01*
G75*
G02*
X130426000Y-44621665I0J-272665D01*
G01*
X130426000Y-45303335D01*
G75*
G02*
X130153335Y-45576000I-272665J0D01*
G01*
X128846665Y-45576000D01*
G75*
G02*
X128574000Y-45303335I0J272665D01*
G01*
X128574000Y-44621665D01*
G75*
G02*
X128846665Y-44349000I272665J0D01*
G01*
G37*
G36*
G01*
X128846665Y-41424000D02*
X130153335Y-41424000D01*
G75*
G02*
X130426000Y-41696665I0J-272665D01*
G01*
X130426000Y-42378335D01*
G75*
G02*
X130153335Y-42651000I-272665J0D01*
G01*
X128846665Y-42651000D01*
G75*
G02*
X128574000Y-42378335I0J272665D01*
G01*
X128574000Y-41696665D01*
G75*
G02*
X128846665Y-41424000I272665J0D01*
G01*
G37*
G36*
G01*
X132346665Y-41424000D02*
X133653335Y-41424000D01*
G75*
G02*
X133926000Y-41696665I0J-272665D01*
G01*
X133926000Y-42378335D01*
G75*
G02*
X133653335Y-42651000I-272665J0D01*
G01*
X132346665Y-42651000D01*
G75*
G02*
X132074000Y-42378335I0J272665D01*
G01*
X132074000Y-41696665D01*
G75*
G02*
X132346665Y-41424000I272665J0D01*
G01*
G37*
G36*
G01*
X132346665Y-44349000D02*
X133653335Y-44349000D01*
G75*
G02*
X133926000Y-44621665I0J-272665D01*
G01*
X133926000Y-45303335D01*
G75*
G02*
X133653335Y-45576000I-272665J0D01*
G01*
X132346665Y-45576000D01*
G75*
G02*
X132074000Y-45303335I0J272665D01*
G01*
X132074000Y-44621665D01*
G75*
G02*
X132346665Y-44349000I272665J0D01*
G01*
G37*
G36*
G01*
X136346665Y-44349000D02*
X137653335Y-44349000D01*
G75*
G02*
X137926000Y-44621665I0J-272665D01*
G01*
X137926000Y-45303335D01*
G75*
G02*
X137653335Y-45576000I-272665J0D01*
G01*
X136346665Y-45576000D01*
G75*
G02*
X136074000Y-45303335I0J272665D01*
G01*
X136074000Y-44621665D01*
G75*
G02*
X136346665Y-44349000I272665J0D01*
G01*
G37*
G36*
G01*
X136346665Y-41424000D02*
X137653335Y-41424000D01*
G75*
G02*
X137926000Y-41696665I0J-272665D01*
G01*
X137926000Y-42378335D01*
G75*
G02*
X137653335Y-42651000I-272665J0D01*
G01*
X136346665Y-42651000D01*
G75*
G02*
X136074000Y-42378335I0J272665D01*
G01*
X136074000Y-41696665D01*
G75*
G02*
X136346665Y-41424000I272665J0D01*
G01*
G37*
G36*
G01*
X140346665Y-41424000D02*
X141653335Y-41424000D01*
G75*
G02*
X141926000Y-41696665I0J-272665D01*
G01*
X141926000Y-42378335D01*
G75*
G02*
X141653335Y-42651000I-272665J0D01*
G01*
X140346665Y-42651000D01*
G75*
G02*
X140074000Y-42378335I0J272665D01*
G01*
X140074000Y-41696665D01*
G75*
G02*
X140346665Y-41424000I272665J0D01*
G01*
G37*
G36*
G01*
X140346665Y-44349000D02*
X141653335Y-44349000D01*
G75*
G02*
X141926000Y-44621665I0J-272665D01*
G01*
X141926000Y-45303335D01*
G75*
G02*
X141653335Y-45576000I-272665J0D01*
G01*
X140346665Y-45576000D01*
G75*
G02*
X140074000Y-45303335I0J272665D01*
G01*
X140074000Y-44621665D01*
G75*
G02*
X140346665Y-44349000I272665J0D01*
G01*
G37*
G36*
G01*
X144346665Y-44349000D02*
X145653335Y-44349000D01*
G75*
G02*
X145926000Y-44621665I0J-272665D01*
G01*
X145926000Y-45303335D01*
G75*
G02*
X145653335Y-45576000I-272665J0D01*
G01*
X144346665Y-45576000D01*
G75*
G02*
X144074000Y-45303335I0J272665D01*
G01*
X144074000Y-44621665D01*
G75*
G02*
X144346665Y-44349000I272665J0D01*
G01*
G37*
G36*
G01*
X144346665Y-41424000D02*
X145653335Y-41424000D01*
G75*
G02*
X145926000Y-41696665I0J-272665D01*
G01*
X145926000Y-42378335D01*
G75*
G02*
X145653335Y-42651000I-272665J0D01*
G01*
X144346665Y-42651000D01*
G75*
G02*
X144074000Y-42378335I0J272665D01*
G01*
X144074000Y-41696665D01*
G75*
G02*
X144346665Y-41424000I272665J0D01*
G01*
G37*
G36*
G01*
X114523876Y-89436500D02*
X115476124Y-89436500D01*
G75*
G02*
X115751000Y-89711376I0J-274876D01*
G01*
X115751000Y-90288624D01*
G75*
G02*
X115476124Y-90563500I-274876J0D01*
G01*
X114523876Y-90563500D01*
G75*
G02*
X114249000Y-90288624I0J274876D01*
G01*
X114249000Y-89711376D01*
G75*
G02*
X114523876Y-89436500I274876J0D01*
G01*
G37*
G36*
G01*
X114523876Y-87611500D02*
X115476124Y-87611500D01*
G75*
G02*
X115751000Y-87886376I0J-274876D01*
G01*
X115751000Y-88463624D01*
G75*
G02*
X115476124Y-88738500I-274876J0D01*
G01*
X114523876Y-88738500D01*
G75*
G02*
X114249000Y-88463624I0J274876D01*
G01*
X114249000Y-87886376D01*
G75*
G02*
X114523876Y-87611500I274876J0D01*
G01*
G37*
G36*
G01*
X133976124Y-93063500D02*
X133023876Y-93063500D01*
G75*
G02*
X132749000Y-92788624I0J274876D01*
G01*
X132749000Y-92211376D01*
G75*
G02*
X133023876Y-91936500I274876J0D01*
G01*
X133976124Y-91936500D01*
G75*
G02*
X134251000Y-92211376I0J-274876D01*
G01*
X134251000Y-92788624D01*
G75*
G02*
X133976124Y-93063500I-274876J0D01*
G01*
G37*
G36*
G01*
X133976124Y-91238500D02*
X133023876Y-91238500D01*
G75*
G02*
X132749000Y-90963624I0J274876D01*
G01*
X132749000Y-90386376D01*
G75*
G02*
X133023876Y-90111500I274876J0D01*
G01*
X133976124Y-90111500D01*
G75*
G02*
X134251000Y-90386376I0J-274876D01*
G01*
X134251000Y-90963624D01*
G75*
G02*
X133976124Y-91238500I-274876J0D01*
G01*
G37*
D15*
X102500000Y-84500000D03*
X102500000Y-79500000D03*
X102500000Y-74500000D03*
D16*
X102500000Y-62160000D03*
X102500000Y-64700000D03*
X102500000Y-67240000D03*
G36*
G01*
X121800000Y-93251000D02*
X120200000Y-93251000D01*
G75*
G02*
X120149000Y-93200000I0J51000D01*
G01*
X120149000Y-90800000D01*
G75*
G02*
X120200000Y-90749000I51000J0D01*
G01*
X121800000Y-90749000D01*
G75*
G02*
X121851000Y-90800000I0J-51000D01*
G01*
X121851000Y-93200000D01*
G75*
G02*
X121800000Y-93251000I-51000J0D01*
G01*
G37*
D17*
X128620000Y-84380000D03*
X123540000Y-92000000D03*
X126080000Y-84380000D03*
X126080000Y-92000000D03*
X123540000Y-84380000D03*
X128620000Y-92000000D03*
X121000000Y-84380000D03*
M02*
