G04 #@! TF.GenerationSoftware,KiCad,Pcbnew,(5.1.7)-1*
G04 #@! TF.CreationDate,2020-11-08T23:09:12+01:00*
G04 #@! TF.ProjectId,Red Power LED Board 50x50,52656420-506f-4776-9572-204c45442042,rev?*
G04 #@! TF.SameCoordinates,Original*
G04 #@! TF.FileFunction,Copper,L1,Top*
G04 #@! TF.FilePolarity,Positive*
%FSLAX46Y46*%
G04 Gerber Fmt 4.6, Leading zero omitted, Abs format (unit mm)*
G04 Created by KiCad (PCBNEW (5.1.7)-1) date 2020-11-08 23:09:12*
%MOMM*%
%LPD*%
G01*
G04 APERTURE LIST*
G04 #@! TA.AperFunction,ComponentPad*
%ADD10R,2.000000X1.905000*%
G04 #@! TD*
G04 #@! TA.AperFunction,ComponentPad*
%ADD11O,2.000000X1.905000*%
G04 #@! TD*
G04 #@! TA.AperFunction,SMDPad,CuDef*
%ADD12R,1.200000X0.900000*%
G04 #@! TD*
G04 #@! TA.AperFunction,ComponentPad*
%ADD13C,0.800000*%
G04 #@! TD*
G04 #@! TA.AperFunction,ComponentPad*
%ADD14C,6.400000*%
G04 #@! TD*
G04 #@! TA.AperFunction,ComponentPad*
%ADD15R,3.000000X3.000000*%
G04 #@! TD*
G04 #@! TA.AperFunction,ComponentPad*
%ADD16C,3.000000*%
G04 #@! TD*
G04 #@! TA.AperFunction,ComponentPad*
%ADD17O,3.750000X2.500000*%
G04 #@! TD*
G04 #@! TA.AperFunction,ComponentPad*
%ADD18C,1.879600*%
G04 #@! TD*
G04 #@! TA.AperFunction,ComponentPad*
%ADD19R,1.600000X2.400000*%
G04 #@! TD*
G04 #@! TA.AperFunction,ComponentPad*
%ADD20O,1.600000X2.400000*%
G04 #@! TD*
G04 #@! TA.AperFunction,ViaPad*
%ADD21C,0.800000*%
G04 #@! TD*
G04 #@! TA.AperFunction,Conductor*
%ADD22C,0.250000*%
G04 #@! TD*
G04 #@! TA.AperFunction,Conductor*
%ADD23C,0.350000*%
G04 #@! TD*
G04 #@! TA.AperFunction,Conductor*
%ADD24C,0.500000*%
G04 #@! TD*
G04 #@! TA.AperFunction,Conductor*
%ADD25C,0.508000*%
G04 #@! TD*
G04 #@! TA.AperFunction,Conductor*
%ADD26C,0.100000*%
G04 #@! TD*
G04 APERTURE END LIST*
D10*
X112000000Y-90800000D03*
D11*
X112000000Y-88260000D03*
X112000000Y-85720000D03*
G04 #@! TA.AperFunction,SMDPad,CuDef*
G36*
G01*
X124100000Y-79250000D02*
X124100000Y-78750000D01*
G75*
G02*
X124325000Y-78525000I225000J0D01*
G01*
X124775000Y-78525000D01*
G75*
G02*
X125000000Y-78750000I0J-225000D01*
G01*
X125000000Y-79250000D01*
G75*
G02*
X124775000Y-79475000I-225000J0D01*
G01*
X124325000Y-79475000D01*
G75*
G02*
X124100000Y-79250000I0J225000D01*
G01*
G37*
G04 #@! TD.AperFunction*
G04 #@! TA.AperFunction,SMDPad,CuDef*
G36*
G01*
X122550000Y-79250000D02*
X122550000Y-78750000D01*
G75*
G02*
X122775000Y-78525000I225000J0D01*
G01*
X123225000Y-78525000D01*
G75*
G02*
X123450000Y-78750000I0J-225000D01*
G01*
X123450000Y-79250000D01*
G75*
G02*
X123225000Y-79475000I-225000J0D01*
G01*
X122775000Y-79475000D01*
G75*
G02*
X122550000Y-79250000I0J225000D01*
G01*
G37*
G04 #@! TD.AperFunction*
G04 #@! TA.AperFunction,SMDPad,CuDef*
G36*
G01*
X129000000Y-81250000D02*
X129000000Y-81750000D01*
G75*
G02*
X128775000Y-81975000I-225000J0D01*
G01*
X128325000Y-81975000D01*
G75*
G02*
X128100000Y-81750000I0J225000D01*
G01*
X128100000Y-81250000D01*
G75*
G02*
X128325000Y-81025000I225000J0D01*
G01*
X128775000Y-81025000D01*
G75*
G02*
X129000000Y-81250000I0J-225000D01*
G01*
G37*
G04 #@! TD.AperFunction*
G04 #@! TA.AperFunction,SMDPad,CuDef*
G36*
G01*
X127450000Y-81250000D02*
X127450000Y-81750000D01*
G75*
G02*
X127225000Y-81975000I-225000J0D01*
G01*
X126775000Y-81975000D01*
G75*
G02*
X126550000Y-81750000I0J225000D01*
G01*
X126550000Y-81250000D01*
G75*
G02*
X126775000Y-81025000I225000J0D01*
G01*
X127225000Y-81025000D01*
G75*
G02*
X127450000Y-81250000I0J-225000D01*
G01*
G37*
G04 #@! TD.AperFunction*
G04 #@! TA.AperFunction,SMDPad,CuDef*
G36*
G01*
X112206250Y-48612500D02*
X111293750Y-48612500D01*
G75*
G02*
X111050000Y-48368750I0J243750D01*
G01*
X111050000Y-47881250D01*
G75*
G02*
X111293750Y-47637500I243750J0D01*
G01*
X112206250Y-47637500D01*
G75*
G02*
X112450000Y-47881250I0J-243750D01*
G01*
X112450000Y-48368750D01*
G75*
G02*
X112206250Y-48612500I-243750J0D01*
G01*
G37*
G04 #@! TD.AperFunction*
G04 #@! TA.AperFunction,SMDPad,CuDef*
G36*
G01*
X112206250Y-50487500D02*
X111293750Y-50487500D01*
G75*
G02*
X111050000Y-50243750I0J243750D01*
G01*
X111050000Y-49756250D01*
G75*
G02*
X111293750Y-49512500I243750J0D01*
G01*
X112206250Y-49512500D01*
G75*
G02*
X112450000Y-49756250I0J-243750D01*
G01*
X112450000Y-50243750D01*
G75*
G02*
X112206250Y-50487500I-243750J0D01*
G01*
G37*
G04 #@! TD.AperFunction*
G04 #@! TA.AperFunction,SMDPad,CuDef*
G36*
G01*
X115706250Y-50425000D02*
X114793750Y-50425000D01*
G75*
G02*
X114550000Y-50181250I0J243750D01*
G01*
X114550000Y-49693750D01*
G75*
G02*
X114793750Y-49450000I243750J0D01*
G01*
X115706250Y-49450000D01*
G75*
G02*
X115950000Y-49693750I0J-243750D01*
G01*
X115950000Y-50181250D01*
G75*
G02*
X115706250Y-50425000I-243750J0D01*
G01*
G37*
G04 #@! TD.AperFunction*
G04 #@! TA.AperFunction,SMDPad,CuDef*
G36*
G01*
X115706250Y-48550000D02*
X114793750Y-48550000D01*
G75*
G02*
X114550000Y-48306250I0J243750D01*
G01*
X114550000Y-47818750D01*
G75*
G02*
X114793750Y-47575000I243750J0D01*
G01*
X115706250Y-47575000D01*
G75*
G02*
X115950000Y-47818750I0J-243750D01*
G01*
X115950000Y-48306250D01*
G75*
G02*
X115706250Y-48550000I-243750J0D01*
G01*
G37*
G04 #@! TD.AperFunction*
G04 #@! TA.AperFunction,SMDPad,CuDef*
G36*
G01*
X119206250Y-48550000D02*
X118293750Y-48550000D01*
G75*
G02*
X118050000Y-48306250I0J243750D01*
G01*
X118050000Y-47818750D01*
G75*
G02*
X118293750Y-47575000I243750J0D01*
G01*
X119206250Y-47575000D01*
G75*
G02*
X119450000Y-47818750I0J-243750D01*
G01*
X119450000Y-48306250D01*
G75*
G02*
X119206250Y-48550000I-243750J0D01*
G01*
G37*
G04 #@! TD.AperFunction*
G04 #@! TA.AperFunction,SMDPad,CuDef*
G36*
G01*
X119206250Y-50425000D02*
X118293750Y-50425000D01*
G75*
G02*
X118050000Y-50181250I0J243750D01*
G01*
X118050000Y-49693750D01*
G75*
G02*
X118293750Y-49450000I243750J0D01*
G01*
X119206250Y-49450000D01*
G75*
G02*
X119450000Y-49693750I0J-243750D01*
G01*
X119450000Y-50181250D01*
G75*
G02*
X119206250Y-50425000I-243750J0D01*
G01*
G37*
G04 #@! TD.AperFunction*
G04 #@! TA.AperFunction,SMDPad,CuDef*
G36*
G01*
X122706250Y-50425000D02*
X121793750Y-50425000D01*
G75*
G02*
X121550000Y-50181250I0J243750D01*
G01*
X121550000Y-49693750D01*
G75*
G02*
X121793750Y-49450000I243750J0D01*
G01*
X122706250Y-49450000D01*
G75*
G02*
X122950000Y-49693750I0J-243750D01*
G01*
X122950000Y-50181250D01*
G75*
G02*
X122706250Y-50425000I-243750J0D01*
G01*
G37*
G04 #@! TD.AperFunction*
G04 #@! TA.AperFunction,SMDPad,CuDef*
G36*
G01*
X122706250Y-48550000D02*
X121793750Y-48550000D01*
G75*
G02*
X121550000Y-48306250I0J243750D01*
G01*
X121550000Y-47818750D01*
G75*
G02*
X121793750Y-47575000I243750J0D01*
G01*
X122706250Y-47575000D01*
G75*
G02*
X122950000Y-47818750I0J-243750D01*
G01*
X122950000Y-48306250D01*
G75*
G02*
X122706250Y-48550000I-243750J0D01*
G01*
G37*
G04 #@! TD.AperFunction*
G04 #@! TA.AperFunction,SMDPad,CuDef*
G36*
G01*
X126206250Y-48550000D02*
X125293750Y-48550000D01*
G75*
G02*
X125050000Y-48306250I0J243750D01*
G01*
X125050000Y-47818750D01*
G75*
G02*
X125293750Y-47575000I243750J0D01*
G01*
X126206250Y-47575000D01*
G75*
G02*
X126450000Y-47818750I0J-243750D01*
G01*
X126450000Y-48306250D01*
G75*
G02*
X126206250Y-48550000I-243750J0D01*
G01*
G37*
G04 #@! TD.AperFunction*
G04 #@! TA.AperFunction,SMDPad,CuDef*
G36*
G01*
X126206250Y-50425000D02*
X125293750Y-50425000D01*
G75*
G02*
X125050000Y-50181250I0J243750D01*
G01*
X125050000Y-49693750D01*
G75*
G02*
X125293750Y-49450000I243750J0D01*
G01*
X126206250Y-49450000D01*
G75*
G02*
X126450000Y-49693750I0J-243750D01*
G01*
X126450000Y-50181250D01*
G75*
G02*
X126206250Y-50425000I-243750J0D01*
G01*
G37*
G04 #@! TD.AperFunction*
G04 #@! TA.AperFunction,SMDPad,CuDef*
G36*
G01*
X129706250Y-50425000D02*
X128793750Y-50425000D01*
G75*
G02*
X128550000Y-50181250I0J243750D01*
G01*
X128550000Y-49693750D01*
G75*
G02*
X128793750Y-49450000I243750J0D01*
G01*
X129706250Y-49450000D01*
G75*
G02*
X129950000Y-49693750I0J-243750D01*
G01*
X129950000Y-50181250D01*
G75*
G02*
X129706250Y-50425000I-243750J0D01*
G01*
G37*
G04 #@! TD.AperFunction*
G04 #@! TA.AperFunction,SMDPad,CuDef*
G36*
G01*
X129706250Y-48550000D02*
X128793750Y-48550000D01*
G75*
G02*
X128550000Y-48306250I0J243750D01*
G01*
X128550000Y-47818750D01*
G75*
G02*
X128793750Y-47575000I243750J0D01*
G01*
X129706250Y-47575000D01*
G75*
G02*
X129950000Y-47818750I0J-243750D01*
G01*
X129950000Y-48306250D01*
G75*
G02*
X129706250Y-48550000I-243750J0D01*
G01*
G37*
G04 #@! TD.AperFunction*
G04 #@! TA.AperFunction,SMDPad,CuDef*
G36*
G01*
X133206250Y-48550000D02*
X132293750Y-48550000D01*
G75*
G02*
X132050000Y-48306250I0J243750D01*
G01*
X132050000Y-47818750D01*
G75*
G02*
X132293750Y-47575000I243750J0D01*
G01*
X133206250Y-47575000D01*
G75*
G02*
X133450000Y-47818750I0J-243750D01*
G01*
X133450000Y-48306250D01*
G75*
G02*
X133206250Y-48550000I-243750J0D01*
G01*
G37*
G04 #@! TD.AperFunction*
G04 #@! TA.AperFunction,SMDPad,CuDef*
G36*
G01*
X133206250Y-50425000D02*
X132293750Y-50425000D01*
G75*
G02*
X132050000Y-50181250I0J243750D01*
G01*
X132050000Y-49693750D01*
G75*
G02*
X132293750Y-49450000I243750J0D01*
G01*
X133206250Y-49450000D01*
G75*
G02*
X133450000Y-49693750I0J-243750D01*
G01*
X133450000Y-50181250D01*
G75*
G02*
X133206250Y-50425000I-243750J0D01*
G01*
G37*
G04 #@! TD.AperFunction*
G04 #@! TA.AperFunction,SMDPad,CuDef*
G36*
G01*
X136706250Y-48550000D02*
X135793750Y-48550000D01*
G75*
G02*
X135550000Y-48306250I0J243750D01*
G01*
X135550000Y-47818750D01*
G75*
G02*
X135793750Y-47575000I243750J0D01*
G01*
X136706250Y-47575000D01*
G75*
G02*
X136950000Y-47818750I0J-243750D01*
G01*
X136950000Y-48306250D01*
G75*
G02*
X136706250Y-48550000I-243750J0D01*
G01*
G37*
G04 #@! TD.AperFunction*
G04 #@! TA.AperFunction,SMDPad,CuDef*
G36*
G01*
X136706250Y-50425000D02*
X135793750Y-50425000D01*
G75*
G02*
X135550000Y-50181250I0J243750D01*
G01*
X135550000Y-49693750D01*
G75*
G02*
X135793750Y-49450000I243750J0D01*
G01*
X136706250Y-49450000D01*
G75*
G02*
X136950000Y-49693750I0J-243750D01*
G01*
X136950000Y-50181250D01*
G75*
G02*
X136706250Y-50425000I-243750J0D01*
G01*
G37*
G04 #@! TD.AperFunction*
G04 #@! TA.AperFunction,SMDPad,CuDef*
G36*
G01*
X140206250Y-50425000D02*
X139293750Y-50425000D01*
G75*
G02*
X139050000Y-50181250I0J243750D01*
G01*
X139050000Y-49693750D01*
G75*
G02*
X139293750Y-49450000I243750J0D01*
G01*
X140206250Y-49450000D01*
G75*
G02*
X140450000Y-49693750I0J-243750D01*
G01*
X140450000Y-50181250D01*
G75*
G02*
X140206250Y-50425000I-243750J0D01*
G01*
G37*
G04 #@! TD.AperFunction*
G04 #@! TA.AperFunction,SMDPad,CuDef*
G36*
G01*
X140206250Y-48550000D02*
X139293750Y-48550000D01*
G75*
G02*
X139050000Y-48306250I0J243750D01*
G01*
X139050000Y-47818750D01*
G75*
G02*
X139293750Y-47575000I243750J0D01*
G01*
X140206250Y-47575000D01*
G75*
G02*
X140450000Y-47818750I0J-243750D01*
G01*
X140450000Y-48306250D01*
G75*
G02*
X140206250Y-48550000I-243750J0D01*
G01*
G37*
G04 #@! TD.AperFunction*
G04 #@! TA.AperFunction,SMDPad,CuDef*
G36*
G01*
X143706250Y-50425000D02*
X142793750Y-50425000D01*
G75*
G02*
X142550000Y-50181250I0J243750D01*
G01*
X142550000Y-49693750D01*
G75*
G02*
X142793750Y-49450000I243750J0D01*
G01*
X143706250Y-49450000D01*
G75*
G02*
X143950000Y-49693750I0J-243750D01*
G01*
X143950000Y-50181250D01*
G75*
G02*
X143706250Y-50425000I-243750J0D01*
G01*
G37*
G04 #@! TD.AperFunction*
G04 #@! TA.AperFunction,SMDPad,CuDef*
G36*
G01*
X143706250Y-48550000D02*
X142793750Y-48550000D01*
G75*
G02*
X142550000Y-48306250I0J243750D01*
G01*
X142550000Y-47818750D01*
G75*
G02*
X142793750Y-47575000I243750J0D01*
G01*
X143706250Y-47575000D01*
G75*
G02*
X143950000Y-47818750I0J-243750D01*
G01*
X143950000Y-48306250D01*
G75*
G02*
X143706250Y-48550000I-243750J0D01*
G01*
G37*
G04 #@! TD.AperFunction*
G04 #@! TA.AperFunction,SMDPad,CuDef*
G36*
G01*
X112206250Y-54925000D02*
X111293750Y-54925000D01*
G75*
G02*
X111050000Y-54681250I0J243750D01*
G01*
X111050000Y-54193750D01*
G75*
G02*
X111293750Y-53950000I243750J0D01*
G01*
X112206250Y-53950000D01*
G75*
G02*
X112450000Y-54193750I0J-243750D01*
G01*
X112450000Y-54681250D01*
G75*
G02*
X112206250Y-54925000I-243750J0D01*
G01*
G37*
G04 #@! TD.AperFunction*
G04 #@! TA.AperFunction,SMDPad,CuDef*
G36*
G01*
X112206250Y-53050000D02*
X111293750Y-53050000D01*
G75*
G02*
X111050000Y-52806250I0J243750D01*
G01*
X111050000Y-52318750D01*
G75*
G02*
X111293750Y-52075000I243750J0D01*
G01*
X112206250Y-52075000D01*
G75*
G02*
X112450000Y-52318750I0J-243750D01*
G01*
X112450000Y-52806250D01*
G75*
G02*
X112206250Y-53050000I-243750J0D01*
G01*
G37*
G04 #@! TD.AperFunction*
G04 #@! TA.AperFunction,SMDPad,CuDef*
G36*
G01*
X115706250Y-53050000D02*
X114793750Y-53050000D01*
G75*
G02*
X114550000Y-52806250I0J243750D01*
G01*
X114550000Y-52318750D01*
G75*
G02*
X114793750Y-52075000I243750J0D01*
G01*
X115706250Y-52075000D01*
G75*
G02*
X115950000Y-52318750I0J-243750D01*
G01*
X115950000Y-52806250D01*
G75*
G02*
X115706250Y-53050000I-243750J0D01*
G01*
G37*
G04 #@! TD.AperFunction*
G04 #@! TA.AperFunction,SMDPad,CuDef*
G36*
G01*
X115706250Y-54925000D02*
X114793750Y-54925000D01*
G75*
G02*
X114550000Y-54681250I0J243750D01*
G01*
X114550000Y-54193750D01*
G75*
G02*
X114793750Y-53950000I243750J0D01*
G01*
X115706250Y-53950000D01*
G75*
G02*
X115950000Y-54193750I0J-243750D01*
G01*
X115950000Y-54681250D01*
G75*
G02*
X115706250Y-54925000I-243750J0D01*
G01*
G37*
G04 #@! TD.AperFunction*
G04 #@! TA.AperFunction,SMDPad,CuDef*
G36*
G01*
X119206250Y-53050000D02*
X118293750Y-53050000D01*
G75*
G02*
X118050000Y-52806250I0J243750D01*
G01*
X118050000Y-52318750D01*
G75*
G02*
X118293750Y-52075000I243750J0D01*
G01*
X119206250Y-52075000D01*
G75*
G02*
X119450000Y-52318750I0J-243750D01*
G01*
X119450000Y-52806250D01*
G75*
G02*
X119206250Y-53050000I-243750J0D01*
G01*
G37*
G04 #@! TD.AperFunction*
G04 #@! TA.AperFunction,SMDPad,CuDef*
G36*
G01*
X119206250Y-54925000D02*
X118293750Y-54925000D01*
G75*
G02*
X118050000Y-54681250I0J243750D01*
G01*
X118050000Y-54193750D01*
G75*
G02*
X118293750Y-53950000I243750J0D01*
G01*
X119206250Y-53950000D01*
G75*
G02*
X119450000Y-54193750I0J-243750D01*
G01*
X119450000Y-54681250D01*
G75*
G02*
X119206250Y-54925000I-243750J0D01*
G01*
G37*
G04 #@! TD.AperFunction*
G04 #@! TA.AperFunction,SMDPad,CuDef*
G36*
G01*
X122706250Y-54925000D02*
X121793750Y-54925000D01*
G75*
G02*
X121550000Y-54681250I0J243750D01*
G01*
X121550000Y-54193750D01*
G75*
G02*
X121793750Y-53950000I243750J0D01*
G01*
X122706250Y-53950000D01*
G75*
G02*
X122950000Y-54193750I0J-243750D01*
G01*
X122950000Y-54681250D01*
G75*
G02*
X122706250Y-54925000I-243750J0D01*
G01*
G37*
G04 #@! TD.AperFunction*
G04 #@! TA.AperFunction,SMDPad,CuDef*
G36*
G01*
X122706250Y-53050000D02*
X121793750Y-53050000D01*
G75*
G02*
X121550000Y-52806250I0J243750D01*
G01*
X121550000Y-52318750D01*
G75*
G02*
X121793750Y-52075000I243750J0D01*
G01*
X122706250Y-52075000D01*
G75*
G02*
X122950000Y-52318750I0J-243750D01*
G01*
X122950000Y-52806250D01*
G75*
G02*
X122706250Y-53050000I-243750J0D01*
G01*
G37*
G04 #@! TD.AperFunction*
G04 #@! TA.AperFunction,SMDPad,CuDef*
G36*
G01*
X126206250Y-53050000D02*
X125293750Y-53050000D01*
G75*
G02*
X125050000Y-52806250I0J243750D01*
G01*
X125050000Y-52318750D01*
G75*
G02*
X125293750Y-52075000I243750J0D01*
G01*
X126206250Y-52075000D01*
G75*
G02*
X126450000Y-52318750I0J-243750D01*
G01*
X126450000Y-52806250D01*
G75*
G02*
X126206250Y-53050000I-243750J0D01*
G01*
G37*
G04 #@! TD.AperFunction*
G04 #@! TA.AperFunction,SMDPad,CuDef*
G36*
G01*
X126206250Y-54925000D02*
X125293750Y-54925000D01*
G75*
G02*
X125050000Y-54681250I0J243750D01*
G01*
X125050000Y-54193750D01*
G75*
G02*
X125293750Y-53950000I243750J0D01*
G01*
X126206250Y-53950000D01*
G75*
G02*
X126450000Y-54193750I0J-243750D01*
G01*
X126450000Y-54681250D01*
G75*
G02*
X126206250Y-54925000I-243750J0D01*
G01*
G37*
G04 #@! TD.AperFunction*
G04 #@! TA.AperFunction,SMDPad,CuDef*
G36*
G01*
X129706250Y-53050000D02*
X128793750Y-53050000D01*
G75*
G02*
X128550000Y-52806250I0J243750D01*
G01*
X128550000Y-52318750D01*
G75*
G02*
X128793750Y-52075000I243750J0D01*
G01*
X129706250Y-52075000D01*
G75*
G02*
X129950000Y-52318750I0J-243750D01*
G01*
X129950000Y-52806250D01*
G75*
G02*
X129706250Y-53050000I-243750J0D01*
G01*
G37*
G04 #@! TD.AperFunction*
G04 #@! TA.AperFunction,SMDPad,CuDef*
G36*
G01*
X129706250Y-54925000D02*
X128793750Y-54925000D01*
G75*
G02*
X128550000Y-54681250I0J243750D01*
G01*
X128550000Y-54193750D01*
G75*
G02*
X128793750Y-53950000I243750J0D01*
G01*
X129706250Y-53950000D01*
G75*
G02*
X129950000Y-54193750I0J-243750D01*
G01*
X129950000Y-54681250D01*
G75*
G02*
X129706250Y-54925000I-243750J0D01*
G01*
G37*
G04 #@! TD.AperFunction*
G04 #@! TA.AperFunction,SMDPad,CuDef*
G36*
G01*
X133206250Y-53050000D02*
X132293750Y-53050000D01*
G75*
G02*
X132050000Y-52806250I0J243750D01*
G01*
X132050000Y-52318750D01*
G75*
G02*
X132293750Y-52075000I243750J0D01*
G01*
X133206250Y-52075000D01*
G75*
G02*
X133450000Y-52318750I0J-243750D01*
G01*
X133450000Y-52806250D01*
G75*
G02*
X133206250Y-53050000I-243750J0D01*
G01*
G37*
G04 #@! TD.AperFunction*
G04 #@! TA.AperFunction,SMDPad,CuDef*
G36*
G01*
X133206250Y-54925000D02*
X132293750Y-54925000D01*
G75*
G02*
X132050000Y-54681250I0J243750D01*
G01*
X132050000Y-54193750D01*
G75*
G02*
X132293750Y-53950000I243750J0D01*
G01*
X133206250Y-53950000D01*
G75*
G02*
X133450000Y-54193750I0J-243750D01*
G01*
X133450000Y-54681250D01*
G75*
G02*
X133206250Y-54925000I-243750J0D01*
G01*
G37*
G04 #@! TD.AperFunction*
G04 #@! TA.AperFunction,SMDPad,CuDef*
G36*
G01*
X136706250Y-53112500D02*
X135793750Y-53112500D01*
G75*
G02*
X135550000Y-52868750I0J243750D01*
G01*
X135550000Y-52381250D01*
G75*
G02*
X135793750Y-52137500I243750J0D01*
G01*
X136706250Y-52137500D01*
G75*
G02*
X136950000Y-52381250I0J-243750D01*
G01*
X136950000Y-52868750D01*
G75*
G02*
X136706250Y-53112500I-243750J0D01*
G01*
G37*
G04 #@! TD.AperFunction*
G04 #@! TA.AperFunction,SMDPad,CuDef*
G36*
G01*
X136706250Y-54987500D02*
X135793750Y-54987500D01*
G75*
G02*
X135550000Y-54743750I0J243750D01*
G01*
X135550000Y-54256250D01*
G75*
G02*
X135793750Y-54012500I243750J0D01*
G01*
X136706250Y-54012500D01*
G75*
G02*
X136950000Y-54256250I0J-243750D01*
G01*
X136950000Y-54743750D01*
G75*
G02*
X136706250Y-54987500I-243750J0D01*
G01*
G37*
G04 #@! TD.AperFunction*
G04 #@! TA.AperFunction,SMDPad,CuDef*
G36*
G01*
X140206250Y-53050000D02*
X139293750Y-53050000D01*
G75*
G02*
X139050000Y-52806250I0J243750D01*
G01*
X139050000Y-52318750D01*
G75*
G02*
X139293750Y-52075000I243750J0D01*
G01*
X140206250Y-52075000D01*
G75*
G02*
X140450000Y-52318750I0J-243750D01*
G01*
X140450000Y-52806250D01*
G75*
G02*
X140206250Y-53050000I-243750J0D01*
G01*
G37*
G04 #@! TD.AperFunction*
G04 #@! TA.AperFunction,SMDPad,CuDef*
G36*
G01*
X140206250Y-54925000D02*
X139293750Y-54925000D01*
G75*
G02*
X139050000Y-54681250I0J243750D01*
G01*
X139050000Y-54193750D01*
G75*
G02*
X139293750Y-53950000I243750J0D01*
G01*
X140206250Y-53950000D01*
G75*
G02*
X140450000Y-54193750I0J-243750D01*
G01*
X140450000Y-54681250D01*
G75*
G02*
X140206250Y-54925000I-243750J0D01*
G01*
G37*
G04 #@! TD.AperFunction*
G04 #@! TA.AperFunction,SMDPad,CuDef*
G36*
G01*
X143706250Y-54987500D02*
X142793750Y-54987500D01*
G75*
G02*
X142550000Y-54743750I0J243750D01*
G01*
X142550000Y-54256250D01*
G75*
G02*
X142793750Y-54012500I243750J0D01*
G01*
X143706250Y-54012500D01*
G75*
G02*
X143950000Y-54256250I0J-243750D01*
G01*
X143950000Y-54743750D01*
G75*
G02*
X143706250Y-54987500I-243750J0D01*
G01*
G37*
G04 #@! TD.AperFunction*
G04 #@! TA.AperFunction,SMDPad,CuDef*
G36*
G01*
X143706250Y-53112500D02*
X142793750Y-53112500D01*
G75*
G02*
X142550000Y-52868750I0J243750D01*
G01*
X142550000Y-52381250D01*
G75*
G02*
X142793750Y-52137500I243750J0D01*
G01*
X143706250Y-52137500D01*
G75*
G02*
X143950000Y-52381250I0J-243750D01*
G01*
X143950000Y-52868750D01*
G75*
G02*
X143706250Y-53112500I-243750J0D01*
G01*
G37*
G04 #@! TD.AperFunction*
D12*
X148000000Y-60150000D03*
X148000000Y-56850000D03*
G04 #@! TA.AperFunction,SMDPad,CuDef*
G36*
G01*
X112206250Y-57612500D02*
X111293750Y-57612500D01*
G75*
G02*
X111050000Y-57368750I0J243750D01*
G01*
X111050000Y-56881250D01*
G75*
G02*
X111293750Y-56637500I243750J0D01*
G01*
X112206250Y-56637500D01*
G75*
G02*
X112450000Y-56881250I0J-243750D01*
G01*
X112450000Y-57368750D01*
G75*
G02*
X112206250Y-57612500I-243750J0D01*
G01*
G37*
G04 #@! TD.AperFunction*
G04 #@! TA.AperFunction,SMDPad,CuDef*
G36*
G01*
X112206250Y-59487500D02*
X111293750Y-59487500D01*
G75*
G02*
X111050000Y-59243750I0J243750D01*
G01*
X111050000Y-58756250D01*
G75*
G02*
X111293750Y-58512500I243750J0D01*
G01*
X112206250Y-58512500D01*
G75*
G02*
X112450000Y-58756250I0J-243750D01*
G01*
X112450000Y-59243750D01*
G75*
G02*
X112206250Y-59487500I-243750J0D01*
G01*
G37*
G04 #@! TD.AperFunction*
G04 #@! TA.AperFunction,SMDPad,CuDef*
G36*
G01*
X115706250Y-57612500D02*
X114793750Y-57612500D01*
G75*
G02*
X114550000Y-57368750I0J243750D01*
G01*
X114550000Y-56881250D01*
G75*
G02*
X114793750Y-56637500I243750J0D01*
G01*
X115706250Y-56637500D01*
G75*
G02*
X115950000Y-56881250I0J-243750D01*
G01*
X115950000Y-57368750D01*
G75*
G02*
X115706250Y-57612500I-243750J0D01*
G01*
G37*
G04 #@! TD.AperFunction*
G04 #@! TA.AperFunction,SMDPad,CuDef*
G36*
G01*
X115706250Y-59487500D02*
X114793750Y-59487500D01*
G75*
G02*
X114550000Y-59243750I0J243750D01*
G01*
X114550000Y-58756250D01*
G75*
G02*
X114793750Y-58512500I243750J0D01*
G01*
X115706250Y-58512500D01*
G75*
G02*
X115950000Y-58756250I0J-243750D01*
G01*
X115950000Y-59243750D01*
G75*
G02*
X115706250Y-59487500I-243750J0D01*
G01*
G37*
G04 #@! TD.AperFunction*
G04 #@! TA.AperFunction,SMDPad,CuDef*
G36*
G01*
X119206250Y-59487500D02*
X118293750Y-59487500D01*
G75*
G02*
X118050000Y-59243750I0J243750D01*
G01*
X118050000Y-58756250D01*
G75*
G02*
X118293750Y-58512500I243750J0D01*
G01*
X119206250Y-58512500D01*
G75*
G02*
X119450000Y-58756250I0J-243750D01*
G01*
X119450000Y-59243750D01*
G75*
G02*
X119206250Y-59487500I-243750J0D01*
G01*
G37*
G04 #@! TD.AperFunction*
G04 #@! TA.AperFunction,SMDPad,CuDef*
G36*
G01*
X119206250Y-57612500D02*
X118293750Y-57612500D01*
G75*
G02*
X118050000Y-57368750I0J243750D01*
G01*
X118050000Y-56881250D01*
G75*
G02*
X118293750Y-56637500I243750J0D01*
G01*
X119206250Y-56637500D01*
G75*
G02*
X119450000Y-56881250I0J-243750D01*
G01*
X119450000Y-57368750D01*
G75*
G02*
X119206250Y-57612500I-243750J0D01*
G01*
G37*
G04 #@! TD.AperFunction*
G04 #@! TA.AperFunction,SMDPad,CuDef*
G36*
G01*
X122706250Y-57612500D02*
X121793750Y-57612500D01*
G75*
G02*
X121550000Y-57368750I0J243750D01*
G01*
X121550000Y-56881250D01*
G75*
G02*
X121793750Y-56637500I243750J0D01*
G01*
X122706250Y-56637500D01*
G75*
G02*
X122950000Y-56881250I0J-243750D01*
G01*
X122950000Y-57368750D01*
G75*
G02*
X122706250Y-57612500I-243750J0D01*
G01*
G37*
G04 #@! TD.AperFunction*
G04 #@! TA.AperFunction,SMDPad,CuDef*
G36*
G01*
X122706250Y-59487500D02*
X121793750Y-59487500D01*
G75*
G02*
X121550000Y-59243750I0J243750D01*
G01*
X121550000Y-58756250D01*
G75*
G02*
X121793750Y-58512500I243750J0D01*
G01*
X122706250Y-58512500D01*
G75*
G02*
X122950000Y-58756250I0J-243750D01*
G01*
X122950000Y-59243750D01*
G75*
G02*
X122706250Y-59487500I-243750J0D01*
G01*
G37*
G04 #@! TD.AperFunction*
G04 #@! TA.AperFunction,SMDPad,CuDef*
G36*
G01*
X126206250Y-59425000D02*
X125293750Y-59425000D01*
G75*
G02*
X125050000Y-59181250I0J243750D01*
G01*
X125050000Y-58693750D01*
G75*
G02*
X125293750Y-58450000I243750J0D01*
G01*
X126206250Y-58450000D01*
G75*
G02*
X126450000Y-58693750I0J-243750D01*
G01*
X126450000Y-59181250D01*
G75*
G02*
X126206250Y-59425000I-243750J0D01*
G01*
G37*
G04 #@! TD.AperFunction*
G04 #@! TA.AperFunction,SMDPad,CuDef*
G36*
G01*
X126206250Y-57550000D02*
X125293750Y-57550000D01*
G75*
G02*
X125050000Y-57306250I0J243750D01*
G01*
X125050000Y-56818750D01*
G75*
G02*
X125293750Y-56575000I243750J0D01*
G01*
X126206250Y-56575000D01*
G75*
G02*
X126450000Y-56818750I0J-243750D01*
G01*
X126450000Y-57306250D01*
G75*
G02*
X126206250Y-57550000I-243750J0D01*
G01*
G37*
G04 #@! TD.AperFunction*
G04 #@! TA.AperFunction,SMDPad,CuDef*
G36*
G01*
X129706250Y-59425000D02*
X128793750Y-59425000D01*
G75*
G02*
X128550000Y-59181250I0J243750D01*
G01*
X128550000Y-58693750D01*
G75*
G02*
X128793750Y-58450000I243750J0D01*
G01*
X129706250Y-58450000D01*
G75*
G02*
X129950000Y-58693750I0J-243750D01*
G01*
X129950000Y-59181250D01*
G75*
G02*
X129706250Y-59425000I-243750J0D01*
G01*
G37*
G04 #@! TD.AperFunction*
G04 #@! TA.AperFunction,SMDPad,CuDef*
G36*
G01*
X129706250Y-57550000D02*
X128793750Y-57550000D01*
G75*
G02*
X128550000Y-57306250I0J243750D01*
G01*
X128550000Y-56818750D01*
G75*
G02*
X128793750Y-56575000I243750J0D01*
G01*
X129706250Y-56575000D01*
G75*
G02*
X129950000Y-56818750I0J-243750D01*
G01*
X129950000Y-57306250D01*
G75*
G02*
X129706250Y-57550000I-243750J0D01*
G01*
G37*
G04 #@! TD.AperFunction*
G04 #@! TA.AperFunction,SMDPad,CuDef*
G36*
G01*
X133206250Y-59425000D02*
X132293750Y-59425000D01*
G75*
G02*
X132050000Y-59181250I0J243750D01*
G01*
X132050000Y-58693750D01*
G75*
G02*
X132293750Y-58450000I243750J0D01*
G01*
X133206250Y-58450000D01*
G75*
G02*
X133450000Y-58693750I0J-243750D01*
G01*
X133450000Y-59181250D01*
G75*
G02*
X133206250Y-59425000I-243750J0D01*
G01*
G37*
G04 #@! TD.AperFunction*
G04 #@! TA.AperFunction,SMDPad,CuDef*
G36*
G01*
X133206250Y-57550000D02*
X132293750Y-57550000D01*
G75*
G02*
X132050000Y-57306250I0J243750D01*
G01*
X132050000Y-56818750D01*
G75*
G02*
X132293750Y-56575000I243750J0D01*
G01*
X133206250Y-56575000D01*
G75*
G02*
X133450000Y-56818750I0J-243750D01*
G01*
X133450000Y-57306250D01*
G75*
G02*
X133206250Y-57550000I-243750J0D01*
G01*
G37*
G04 #@! TD.AperFunction*
G04 #@! TA.AperFunction,SMDPad,CuDef*
G36*
G01*
X136706250Y-59425000D02*
X135793750Y-59425000D01*
G75*
G02*
X135550000Y-59181250I0J243750D01*
G01*
X135550000Y-58693750D01*
G75*
G02*
X135793750Y-58450000I243750J0D01*
G01*
X136706250Y-58450000D01*
G75*
G02*
X136950000Y-58693750I0J-243750D01*
G01*
X136950000Y-59181250D01*
G75*
G02*
X136706250Y-59425000I-243750J0D01*
G01*
G37*
G04 #@! TD.AperFunction*
G04 #@! TA.AperFunction,SMDPad,CuDef*
G36*
G01*
X136706250Y-57550000D02*
X135793750Y-57550000D01*
G75*
G02*
X135550000Y-57306250I0J243750D01*
G01*
X135550000Y-56818750D01*
G75*
G02*
X135793750Y-56575000I243750J0D01*
G01*
X136706250Y-56575000D01*
G75*
G02*
X136950000Y-56818750I0J-243750D01*
G01*
X136950000Y-57306250D01*
G75*
G02*
X136706250Y-57550000I-243750J0D01*
G01*
G37*
G04 #@! TD.AperFunction*
G04 #@! TA.AperFunction,SMDPad,CuDef*
G36*
G01*
X140206250Y-59425000D02*
X139293750Y-59425000D01*
G75*
G02*
X139050000Y-59181250I0J243750D01*
G01*
X139050000Y-58693750D01*
G75*
G02*
X139293750Y-58450000I243750J0D01*
G01*
X140206250Y-58450000D01*
G75*
G02*
X140450000Y-58693750I0J-243750D01*
G01*
X140450000Y-59181250D01*
G75*
G02*
X140206250Y-59425000I-243750J0D01*
G01*
G37*
G04 #@! TD.AperFunction*
G04 #@! TA.AperFunction,SMDPad,CuDef*
G36*
G01*
X140206250Y-57550000D02*
X139293750Y-57550000D01*
G75*
G02*
X139050000Y-57306250I0J243750D01*
G01*
X139050000Y-56818750D01*
G75*
G02*
X139293750Y-56575000I243750J0D01*
G01*
X140206250Y-56575000D01*
G75*
G02*
X140450000Y-56818750I0J-243750D01*
G01*
X140450000Y-57306250D01*
G75*
G02*
X140206250Y-57550000I-243750J0D01*
G01*
G37*
G04 #@! TD.AperFunction*
G04 #@! TA.AperFunction,SMDPad,CuDef*
G36*
G01*
X143706250Y-57612500D02*
X142793750Y-57612500D01*
G75*
G02*
X142550000Y-57368750I0J243750D01*
G01*
X142550000Y-56881250D01*
G75*
G02*
X142793750Y-56637500I243750J0D01*
G01*
X143706250Y-56637500D01*
G75*
G02*
X143950000Y-56881250I0J-243750D01*
G01*
X143950000Y-57368750D01*
G75*
G02*
X143706250Y-57612500I-243750J0D01*
G01*
G37*
G04 #@! TD.AperFunction*
G04 #@! TA.AperFunction,SMDPad,CuDef*
G36*
G01*
X143706250Y-59487500D02*
X142793750Y-59487500D01*
G75*
G02*
X142550000Y-59243750I0J243750D01*
G01*
X142550000Y-58756250D01*
G75*
G02*
X142793750Y-58512500I243750J0D01*
G01*
X143706250Y-58512500D01*
G75*
G02*
X143950000Y-58756250I0J-243750D01*
G01*
X143950000Y-59243750D01*
G75*
G02*
X143706250Y-59487500I-243750J0D01*
G01*
G37*
G04 #@! TD.AperFunction*
G04 #@! TA.AperFunction,SMDPad,CuDef*
G36*
G01*
X112143750Y-62112500D02*
X111231250Y-62112500D01*
G75*
G02*
X110987500Y-61868750I0J243750D01*
G01*
X110987500Y-61381250D01*
G75*
G02*
X111231250Y-61137500I243750J0D01*
G01*
X112143750Y-61137500D01*
G75*
G02*
X112387500Y-61381250I0J-243750D01*
G01*
X112387500Y-61868750D01*
G75*
G02*
X112143750Y-62112500I-243750J0D01*
G01*
G37*
G04 #@! TD.AperFunction*
G04 #@! TA.AperFunction,SMDPad,CuDef*
G36*
G01*
X112143750Y-63987500D02*
X111231250Y-63987500D01*
G75*
G02*
X110987500Y-63743750I0J243750D01*
G01*
X110987500Y-63256250D01*
G75*
G02*
X111231250Y-63012500I243750J0D01*
G01*
X112143750Y-63012500D01*
G75*
G02*
X112387500Y-63256250I0J-243750D01*
G01*
X112387500Y-63743750D01*
G75*
G02*
X112143750Y-63987500I-243750J0D01*
G01*
G37*
G04 #@! TD.AperFunction*
G04 #@! TA.AperFunction,SMDPad,CuDef*
G36*
G01*
X115706250Y-63925000D02*
X114793750Y-63925000D01*
G75*
G02*
X114550000Y-63681250I0J243750D01*
G01*
X114550000Y-63193750D01*
G75*
G02*
X114793750Y-62950000I243750J0D01*
G01*
X115706250Y-62950000D01*
G75*
G02*
X115950000Y-63193750I0J-243750D01*
G01*
X115950000Y-63681250D01*
G75*
G02*
X115706250Y-63925000I-243750J0D01*
G01*
G37*
G04 #@! TD.AperFunction*
G04 #@! TA.AperFunction,SMDPad,CuDef*
G36*
G01*
X115706250Y-62050000D02*
X114793750Y-62050000D01*
G75*
G02*
X114550000Y-61806250I0J243750D01*
G01*
X114550000Y-61318750D01*
G75*
G02*
X114793750Y-61075000I243750J0D01*
G01*
X115706250Y-61075000D01*
G75*
G02*
X115950000Y-61318750I0J-243750D01*
G01*
X115950000Y-61806250D01*
G75*
G02*
X115706250Y-62050000I-243750J0D01*
G01*
G37*
G04 #@! TD.AperFunction*
G04 #@! TA.AperFunction,SMDPad,CuDef*
G36*
G01*
X119206250Y-62112500D02*
X118293750Y-62112500D01*
G75*
G02*
X118050000Y-61868750I0J243750D01*
G01*
X118050000Y-61381250D01*
G75*
G02*
X118293750Y-61137500I243750J0D01*
G01*
X119206250Y-61137500D01*
G75*
G02*
X119450000Y-61381250I0J-243750D01*
G01*
X119450000Y-61868750D01*
G75*
G02*
X119206250Y-62112500I-243750J0D01*
G01*
G37*
G04 #@! TD.AperFunction*
G04 #@! TA.AperFunction,SMDPad,CuDef*
G36*
G01*
X119206250Y-63987500D02*
X118293750Y-63987500D01*
G75*
G02*
X118050000Y-63743750I0J243750D01*
G01*
X118050000Y-63256250D01*
G75*
G02*
X118293750Y-63012500I243750J0D01*
G01*
X119206250Y-63012500D01*
G75*
G02*
X119450000Y-63256250I0J-243750D01*
G01*
X119450000Y-63743750D01*
G75*
G02*
X119206250Y-63987500I-243750J0D01*
G01*
G37*
G04 #@! TD.AperFunction*
G04 #@! TA.AperFunction,SMDPad,CuDef*
G36*
G01*
X122706250Y-63987500D02*
X121793750Y-63987500D01*
G75*
G02*
X121550000Y-63743750I0J243750D01*
G01*
X121550000Y-63256250D01*
G75*
G02*
X121793750Y-63012500I243750J0D01*
G01*
X122706250Y-63012500D01*
G75*
G02*
X122950000Y-63256250I0J-243750D01*
G01*
X122950000Y-63743750D01*
G75*
G02*
X122706250Y-63987500I-243750J0D01*
G01*
G37*
G04 #@! TD.AperFunction*
G04 #@! TA.AperFunction,SMDPad,CuDef*
G36*
G01*
X122706250Y-62112500D02*
X121793750Y-62112500D01*
G75*
G02*
X121550000Y-61868750I0J243750D01*
G01*
X121550000Y-61381250D01*
G75*
G02*
X121793750Y-61137500I243750J0D01*
G01*
X122706250Y-61137500D01*
G75*
G02*
X122950000Y-61381250I0J-243750D01*
G01*
X122950000Y-61868750D01*
G75*
G02*
X122706250Y-62112500I-243750J0D01*
G01*
G37*
G04 #@! TD.AperFunction*
G04 #@! TA.AperFunction,SMDPad,CuDef*
G36*
G01*
X126206250Y-62050000D02*
X125293750Y-62050000D01*
G75*
G02*
X125050000Y-61806250I0J243750D01*
G01*
X125050000Y-61318750D01*
G75*
G02*
X125293750Y-61075000I243750J0D01*
G01*
X126206250Y-61075000D01*
G75*
G02*
X126450000Y-61318750I0J-243750D01*
G01*
X126450000Y-61806250D01*
G75*
G02*
X126206250Y-62050000I-243750J0D01*
G01*
G37*
G04 #@! TD.AperFunction*
G04 #@! TA.AperFunction,SMDPad,CuDef*
G36*
G01*
X126206250Y-63925000D02*
X125293750Y-63925000D01*
G75*
G02*
X125050000Y-63681250I0J243750D01*
G01*
X125050000Y-63193750D01*
G75*
G02*
X125293750Y-62950000I243750J0D01*
G01*
X126206250Y-62950000D01*
G75*
G02*
X126450000Y-63193750I0J-243750D01*
G01*
X126450000Y-63681250D01*
G75*
G02*
X126206250Y-63925000I-243750J0D01*
G01*
G37*
G04 #@! TD.AperFunction*
G04 #@! TA.AperFunction,SMDPad,CuDef*
G36*
G01*
X129706250Y-62112500D02*
X128793750Y-62112500D01*
G75*
G02*
X128550000Y-61868750I0J243750D01*
G01*
X128550000Y-61381250D01*
G75*
G02*
X128793750Y-61137500I243750J0D01*
G01*
X129706250Y-61137500D01*
G75*
G02*
X129950000Y-61381250I0J-243750D01*
G01*
X129950000Y-61868750D01*
G75*
G02*
X129706250Y-62112500I-243750J0D01*
G01*
G37*
G04 #@! TD.AperFunction*
G04 #@! TA.AperFunction,SMDPad,CuDef*
G36*
G01*
X129706250Y-63987500D02*
X128793750Y-63987500D01*
G75*
G02*
X128550000Y-63743750I0J243750D01*
G01*
X128550000Y-63256250D01*
G75*
G02*
X128793750Y-63012500I243750J0D01*
G01*
X129706250Y-63012500D01*
G75*
G02*
X129950000Y-63256250I0J-243750D01*
G01*
X129950000Y-63743750D01*
G75*
G02*
X129706250Y-63987500I-243750J0D01*
G01*
G37*
G04 #@! TD.AperFunction*
G04 #@! TA.AperFunction,SMDPad,CuDef*
G36*
G01*
X133206250Y-62112500D02*
X132293750Y-62112500D01*
G75*
G02*
X132050000Y-61868750I0J243750D01*
G01*
X132050000Y-61381250D01*
G75*
G02*
X132293750Y-61137500I243750J0D01*
G01*
X133206250Y-61137500D01*
G75*
G02*
X133450000Y-61381250I0J-243750D01*
G01*
X133450000Y-61868750D01*
G75*
G02*
X133206250Y-62112500I-243750J0D01*
G01*
G37*
G04 #@! TD.AperFunction*
G04 #@! TA.AperFunction,SMDPad,CuDef*
G36*
G01*
X133206250Y-63987500D02*
X132293750Y-63987500D01*
G75*
G02*
X132050000Y-63743750I0J243750D01*
G01*
X132050000Y-63256250D01*
G75*
G02*
X132293750Y-63012500I243750J0D01*
G01*
X133206250Y-63012500D01*
G75*
G02*
X133450000Y-63256250I0J-243750D01*
G01*
X133450000Y-63743750D01*
G75*
G02*
X133206250Y-63987500I-243750J0D01*
G01*
G37*
G04 #@! TD.AperFunction*
G04 #@! TA.AperFunction,SMDPad,CuDef*
G36*
G01*
X136706250Y-62050000D02*
X135793750Y-62050000D01*
G75*
G02*
X135550000Y-61806250I0J243750D01*
G01*
X135550000Y-61318750D01*
G75*
G02*
X135793750Y-61075000I243750J0D01*
G01*
X136706250Y-61075000D01*
G75*
G02*
X136950000Y-61318750I0J-243750D01*
G01*
X136950000Y-61806250D01*
G75*
G02*
X136706250Y-62050000I-243750J0D01*
G01*
G37*
G04 #@! TD.AperFunction*
G04 #@! TA.AperFunction,SMDPad,CuDef*
G36*
G01*
X136706250Y-63925000D02*
X135793750Y-63925000D01*
G75*
G02*
X135550000Y-63681250I0J243750D01*
G01*
X135550000Y-63193750D01*
G75*
G02*
X135793750Y-62950000I243750J0D01*
G01*
X136706250Y-62950000D01*
G75*
G02*
X136950000Y-63193750I0J-243750D01*
G01*
X136950000Y-63681250D01*
G75*
G02*
X136706250Y-63925000I-243750J0D01*
G01*
G37*
G04 #@! TD.AperFunction*
G04 #@! TA.AperFunction,SMDPad,CuDef*
G36*
G01*
X140206250Y-62112500D02*
X139293750Y-62112500D01*
G75*
G02*
X139050000Y-61868750I0J243750D01*
G01*
X139050000Y-61381250D01*
G75*
G02*
X139293750Y-61137500I243750J0D01*
G01*
X140206250Y-61137500D01*
G75*
G02*
X140450000Y-61381250I0J-243750D01*
G01*
X140450000Y-61868750D01*
G75*
G02*
X140206250Y-62112500I-243750J0D01*
G01*
G37*
G04 #@! TD.AperFunction*
G04 #@! TA.AperFunction,SMDPad,CuDef*
G36*
G01*
X140206250Y-63987500D02*
X139293750Y-63987500D01*
G75*
G02*
X139050000Y-63743750I0J243750D01*
G01*
X139050000Y-63256250D01*
G75*
G02*
X139293750Y-63012500I243750J0D01*
G01*
X140206250Y-63012500D01*
G75*
G02*
X140450000Y-63256250I0J-243750D01*
G01*
X140450000Y-63743750D01*
G75*
G02*
X140206250Y-63987500I-243750J0D01*
G01*
G37*
G04 #@! TD.AperFunction*
G04 #@! TA.AperFunction,SMDPad,CuDef*
G36*
G01*
X143706250Y-63925000D02*
X142793750Y-63925000D01*
G75*
G02*
X142550000Y-63681250I0J243750D01*
G01*
X142550000Y-63193750D01*
G75*
G02*
X142793750Y-62950000I243750J0D01*
G01*
X143706250Y-62950000D01*
G75*
G02*
X143950000Y-63193750I0J-243750D01*
G01*
X143950000Y-63681250D01*
G75*
G02*
X143706250Y-63925000I-243750J0D01*
G01*
G37*
G04 #@! TD.AperFunction*
G04 #@! TA.AperFunction,SMDPad,CuDef*
G36*
G01*
X143706250Y-62050000D02*
X142793750Y-62050000D01*
G75*
G02*
X142550000Y-61806250I0J243750D01*
G01*
X142550000Y-61318750D01*
G75*
G02*
X142793750Y-61075000I243750J0D01*
G01*
X143706250Y-61075000D01*
G75*
G02*
X143950000Y-61318750I0J-243750D01*
G01*
X143950000Y-61806250D01*
G75*
G02*
X143706250Y-62050000I-243750J0D01*
G01*
G37*
G04 #@! TD.AperFunction*
G04 #@! TA.AperFunction,SMDPad,CuDef*
G36*
G01*
X112206250Y-66612500D02*
X111293750Y-66612500D01*
G75*
G02*
X111050000Y-66368750I0J243750D01*
G01*
X111050000Y-65881250D01*
G75*
G02*
X111293750Y-65637500I243750J0D01*
G01*
X112206250Y-65637500D01*
G75*
G02*
X112450000Y-65881250I0J-243750D01*
G01*
X112450000Y-66368750D01*
G75*
G02*
X112206250Y-66612500I-243750J0D01*
G01*
G37*
G04 #@! TD.AperFunction*
G04 #@! TA.AperFunction,SMDPad,CuDef*
G36*
G01*
X112206250Y-68487500D02*
X111293750Y-68487500D01*
G75*
G02*
X111050000Y-68243750I0J243750D01*
G01*
X111050000Y-67756250D01*
G75*
G02*
X111293750Y-67512500I243750J0D01*
G01*
X112206250Y-67512500D01*
G75*
G02*
X112450000Y-67756250I0J-243750D01*
G01*
X112450000Y-68243750D01*
G75*
G02*
X112206250Y-68487500I-243750J0D01*
G01*
G37*
G04 #@! TD.AperFunction*
G04 #@! TA.AperFunction,SMDPad,CuDef*
G36*
G01*
X115706250Y-68487500D02*
X114793750Y-68487500D01*
G75*
G02*
X114550000Y-68243750I0J243750D01*
G01*
X114550000Y-67756250D01*
G75*
G02*
X114793750Y-67512500I243750J0D01*
G01*
X115706250Y-67512500D01*
G75*
G02*
X115950000Y-67756250I0J-243750D01*
G01*
X115950000Y-68243750D01*
G75*
G02*
X115706250Y-68487500I-243750J0D01*
G01*
G37*
G04 #@! TD.AperFunction*
G04 #@! TA.AperFunction,SMDPad,CuDef*
G36*
G01*
X115706250Y-66612500D02*
X114793750Y-66612500D01*
G75*
G02*
X114550000Y-66368750I0J243750D01*
G01*
X114550000Y-65881250D01*
G75*
G02*
X114793750Y-65637500I243750J0D01*
G01*
X115706250Y-65637500D01*
G75*
G02*
X115950000Y-65881250I0J-243750D01*
G01*
X115950000Y-66368750D01*
G75*
G02*
X115706250Y-66612500I-243750J0D01*
G01*
G37*
G04 #@! TD.AperFunction*
G04 #@! TA.AperFunction,SMDPad,CuDef*
G36*
G01*
X119206250Y-68487500D02*
X118293750Y-68487500D01*
G75*
G02*
X118050000Y-68243750I0J243750D01*
G01*
X118050000Y-67756250D01*
G75*
G02*
X118293750Y-67512500I243750J0D01*
G01*
X119206250Y-67512500D01*
G75*
G02*
X119450000Y-67756250I0J-243750D01*
G01*
X119450000Y-68243750D01*
G75*
G02*
X119206250Y-68487500I-243750J0D01*
G01*
G37*
G04 #@! TD.AperFunction*
G04 #@! TA.AperFunction,SMDPad,CuDef*
G36*
G01*
X119206250Y-66612500D02*
X118293750Y-66612500D01*
G75*
G02*
X118050000Y-66368750I0J243750D01*
G01*
X118050000Y-65881250D01*
G75*
G02*
X118293750Y-65637500I243750J0D01*
G01*
X119206250Y-65637500D01*
G75*
G02*
X119450000Y-65881250I0J-243750D01*
G01*
X119450000Y-66368750D01*
G75*
G02*
X119206250Y-66612500I-243750J0D01*
G01*
G37*
G04 #@! TD.AperFunction*
G04 #@! TA.AperFunction,SMDPad,CuDef*
G36*
G01*
X122706250Y-66487500D02*
X121793750Y-66487500D01*
G75*
G02*
X121550000Y-66243750I0J243750D01*
G01*
X121550000Y-65756250D01*
G75*
G02*
X121793750Y-65512500I243750J0D01*
G01*
X122706250Y-65512500D01*
G75*
G02*
X122950000Y-65756250I0J-243750D01*
G01*
X122950000Y-66243750D01*
G75*
G02*
X122706250Y-66487500I-243750J0D01*
G01*
G37*
G04 #@! TD.AperFunction*
G04 #@! TA.AperFunction,SMDPad,CuDef*
G36*
G01*
X122706250Y-68362500D02*
X121793750Y-68362500D01*
G75*
G02*
X121550000Y-68118750I0J243750D01*
G01*
X121550000Y-67631250D01*
G75*
G02*
X121793750Y-67387500I243750J0D01*
G01*
X122706250Y-67387500D01*
G75*
G02*
X122950000Y-67631250I0J-243750D01*
G01*
X122950000Y-68118750D01*
G75*
G02*
X122706250Y-68362500I-243750J0D01*
G01*
G37*
G04 #@! TD.AperFunction*
G04 #@! TA.AperFunction,SMDPad,CuDef*
G36*
G01*
X126206250Y-68425000D02*
X125293750Y-68425000D01*
G75*
G02*
X125050000Y-68181250I0J243750D01*
G01*
X125050000Y-67693750D01*
G75*
G02*
X125293750Y-67450000I243750J0D01*
G01*
X126206250Y-67450000D01*
G75*
G02*
X126450000Y-67693750I0J-243750D01*
G01*
X126450000Y-68181250D01*
G75*
G02*
X126206250Y-68425000I-243750J0D01*
G01*
G37*
G04 #@! TD.AperFunction*
G04 #@! TA.AperFunction,SMDPad,CuDef*
G36*
G01*
X126206250Y-66550000D02*
X125293750Y-66550000D01*
G75*
G02*
X125050000Y-66306250I0J243750D01*
G01*
X125050000Y-65818750D01*
G75*
G02*
X125293750Y-65575000I243750J0D01*
G01*
X126206250Y-65575000D01*
G75*
G02*
X126450000Y-65818750I0J-243750D01*
G01*
X126450000Y-66306250D01*
G75*
G02*
X126206250Y-66550000I-243750J0D01*
G01*
G37*
G04 #@! TD.AperFunction*
G04 #@! TA.AperFunction,SMDPad,CuDef*
G36*
G01*
X129706250Y-66487500D02*
X128793750Y-66487500D01*
G75*
G02*
X128550000Y-66243750I0J243750D01*
G01*
X128550000Y-65756250D01*
G75*
G02*
X128793750Y-65512500I243750J0D01*
G01*
X129706250Y-65512500D01*
G75*
G02*
X129950000Y-65756250I0J-243750D01*
G01*
X129950000Y-66243750D01*
G75*
G02*
X129706250Y-66487500I-243750J0D01*
G01*
G37*
G04 #@! TD.AperFunction*
G04 #@! TA.AperFunction,SMDPad,CuDef*
G36*
G01*
X129706250Y-68362500D02*
X128793750Y-68362500D01*
G75*
G02*
X128550000Y-68118750I0J243750D01*
G01*
X128550000Y-67631250D01*
G75*
G02*
X128793750Y-67387500I243750J0D01*
G01*
X129706250Y-67387500D01*
G75*
G02*
X129950000Y-67631250I0J-243750D01*
G01*
X129950000Y-68118750D01*
G75*
G02*
X129706250Y-68362500I-243750J0D01*
G01*
G37*
G04 #@! TD.AperFunction*
G04 #@! TA.AperFunction,SMDPad,CuDef*
G36*
G01*
X133206250Y-68487500D02*
X132293750Y-68487500D01*
G75*
G02*
X132050000Y-68243750I0J243750D01*
G01*
X132050000Y-67756250D01*
G75*
G02*
X132293750Y-67512500I243750J0D01*
G01*
X133206250Y-67512500D01*
G75*
G02*
X133450000Y-67756250I0J-243750D01*
G01*
X133450000Y-68243750D01*
G75*
G02*
X133206250Y-68487500I-243750J0D01*
G01*
G37*
G04 #@! TD.AperFunction*
G04 #@! TA.AperFunction,SMDPad,CuDef*
G36*
G01*
X133206250Y-66612500D02*
X132293750Y-66612500D01*
G75*
G02*
X132050000Y-66368750I0J243750D01*
G01*
X132050000Y-65881250D01*
G75*
G02*
X132293750Y-65637500I243750J0D01*
G01*
X133206250Y-65637500D01*
G75*
G02*
X133450000Y-65881250I0J-243750D01*
G01*
X133450000Y-66368750D01*
G75*
G02*
X133206250Y-66612500I-243750J0D01*
G01*
G37*
G04 #@! TD.AperFunction*
G04 #@! TA.AperFunction,SMDPad,CuDef*
G36*
G01*
X136706250Y-68487500D02*
X135793750Y-68487500D01*
G75*
G02*
X135550000Y-68243750I0J243750D01*
G01*
X135550000Y-67756250D01*
G75*
G02*
X135793750Y-67512500I243750J0D01*
G01*
X136706250Y-67512500D01*
G75*
G02*
X136950000Y-67756250I0J-243750D01*
G01*
X136950000Y-68243750D01*
G75*
G02*
X136706250Y-68487500I-243750J0D01*
G01*
G37*
G04 #@! TD.AperFunction*
G04 #@! TA.AperFunction,SMDPad,CuDef*
G36*
G01*
X136706250Y-66612500D02*
X135793750Y-66612500D01*
G75*
G02*
X135550000Y-66368750I0J243750D01*
G01*
X135550000Y-65881250D01*
G75*
G02*
X135793750Y-65637500I243750J0D01*
G01*
X136706250Y-65637500D01*
G75*
G02*
X136950000Y-65881250I0J-243750D01*
G01*
X136950000Y-66368750D01*
G75*
G02*
X136706250Y-66612500I-243750J0D01*
G01*
G37*
G04 #@! TD.AperFunction*
G04 #@! TA.AperFunction,SMDPad,CuDef*
G36*
G01*
X140206250Y-68487500D02*
X139293750Y-68487500D01*
G75*
G02*
X139050000Y-68243750I0J243750D01*
G01*
X139050000Y-67756250D01*
G75*
G02*
X139293750Y-67512500I243750J0D01*
G01*
X140206250Y-67512500D01*
G75*
G02*
X140450000Y-67756250I0J-243750D01*
G01*
X140450000Y-68243750D01*
G75*
G02*
X140206250Y-68487500I-243750J0D01*
G01*
G37*
G04 #@! TD.AperFunction*
G04 #@! TA.AperFunction,SMDPad,CuDef*
G36*
G01*
X140206250Y-66612500D02*
X139293750Y-66612500D01*
G75*
G02*
X139050000Y-66368750I0J243750D01*
G01*
X139050000Y-65881250D01*
G75*
G02*
X139293750Y-65637500I243750J0D01*
G01*
X140206250Y-65637500D01*
G75*
G02*
X140450000Y-65881250I0J-243750D01*
G01*
X140450000Y-66368750D01*
G75*
G02*
X140206250Y-66612500I-243750J0D01*
G01*
G37*
G04 #@! TD.AperFunction*
G04 #@! TA.AperFunction,SMDPad,CuDef*
G36*
G01*
X143706250Y-66612500D02*
X142793750Y-66612500D01*
G75*
G02*
X142550000Y-66368750I0J243750D01*
G01*
X142550000Y-65881250D01*
G75*
G02*
X142793750Y-65637500I243750J0D01*
G01*
X143706250Y-65637500D01*
G75*
G02*
X143950000Y-65881250I0J-243750D01*
G01*
X143950000Y-66368750D01*
G75*
G02*
X143706250Y-66612500I-243750J0D01*
G01*
G37*
G04 #@! TD.AperFunction*
G04 #@! TA.AperFunction,SMDPad,CuDef*
G36*
G01*
X143706250Y-68487500D02*
X142793750Y-68487500D01*
G75*
G02*
X142550000Y-68243750I0J243750D01*
G01*
X142550000Y-67756250D01*
G75*
G02*
X142793750Y-67512500I243750J0D01*
G01*
X143706250Y-67512500D01*
G75*
G02*
X143950000Y-67756250I0J-243750D01*
G01*
X143950000Y-68243750D01*
G75*
G02*
X143706250Y-68487500I-243750J0D01*
G01*
G37*
G04 #@! TD.AperFunction*
G04 #@! TA.AperFunction,SMDPad,CuDef*
G36*
G01*
X112206250Y-72987500D02*
X111293750Y-72987500D01*
G75*
G02*
X111050000Y-72743750I0J243750D01*
G01*
X111050000Y-72256250D01*
G75*
G02*
X111293750Y-72012500I243750J0D01*
G01*
X112206250Y-72012500D01*
G75*
G02*
X112450000Y-72256250I0J-243750D01*
G01*
X112450000Y-72743750D01*
G75*
G02*
X112206250Y-72987500I-243750J0D01*
G01*
G37*
G04 #@! TD.AperFunction*
G04 #@! TA.AperFunction,SMDPad,CuDef*
G36*
G01*
X112206250Y-71112500D02*
X111293750Y-71112500D01*
G75*
G02*
X111050000Y-70868750I0J243750D01*
G01*
X111050000Y-70381250D01*
G75*
G02*
X111293750Y-70137500I243750J0D01*
G01*
X112206250Y-70137500D01*
G75*
G02*
X112450000Y-70381250I0J-243750D01*
G01*
X112450000Y-70868750D01*
G75*
G02*
X112206250Y-71112500I-243750J0D01*
G01*
G37*
G04 #@! TD.AperFunction*
G04 #@! TA.AperFunction,SMDPad,CuDef*
G36*
G01*
X115706250Y-72987500D02*
X114793750Y-72987500D01*
G75*
G02*
X114550000Y-72743750I0J243750D01*
G01*
X114550000Y-72256250D01*
G75*
G02*
X114793750Y-72012500I243750J0D01*
G01*
X115706250Y-72012500D01*
G75*
G02*
X115950000Y-72256250I0J-243750D01*
G01*
X115950000Y-72743750D01*
G75*
G02*
X115706250Y-72987500I-243750J0D01*
G01*
G37*
G04 #@! TD.AperFunction*
G04 #@! TA.AperFunction,SMDPad,CuDef*
G36*
G01*
X115706250Y-71112500D02*
X114793750Y-71112500D01*
G75*
G02*
X114550000Y-70868750I0J243750D01*
G01*
X114550000Y-70381250D01*
G75*
G02*
X114793750Y-70137500I243750J0D01*
G01*
X115706250Y-70137500D01*
G75*
G02*
X115950000Y-70381250I0J-243750D01*
G01*
X115950000Y-70868750D01*
G75*
G02*
X115706250Y-71112500I-243750J0D01*
G01*
G37*
G04 #@! TD.AperFunction*
G04 #@! TA.AperFunction,SMDPad,CuDef*
G36*
G01*
X119206250Y-72925000D02*
X118293750Y-72925000D01*
G75*
G02*
X118050000Y-72681250I0J243750D01*
G01*
X118050000Y-72193750D01*
G75*
G02*
X118293750Y-71950000I243750J0D01*
G01*
X119206250Y-71950000D01*
G75*
G02*
X119450000Y-72193750I0J-243750D01*
G01*
X119450000Y-72681250D01*
G75*
G02*
X119206250Y-72925000I-243750J0D01*
G01*
G37*
G04 #@! TD.AperFunction*
G04 #@! TA.AperFunction,SMDPad,CuDef*
G36*
G01*
X119206250Y-71050000D02*
X118293750Y-71050000D01*
G75*
G02*
X118050000Y-70806250I0J243750D01*
G01*
X118050000Y-70318750D01*
G75*
G02*
X118293750Y-70075000I243750J0D01*
G01*
X119206250Y-70075000D01*
G75*
G02*
X119450000Y-70318750I0J-243750D01*
G01*
X119450000Y-70806250D01*
G75*
G02*
X119206250Y-71050000I-243750J0D01*
G01*
G37*
G04 #@! TD.AperFunction*
G04 #@! TA.AperFunction,SMDPad,CuDef*
G36*
G01*
X122706250Y-72925000D02*
X121793750Y-72925000D01*
G75*
G02*
X121550000Y-72681250I0J243750D01*
G01*
X121550000Y-72193750D01*
G75*
G02*
X121793750Y-71950000I243750J0D01*
G01*
X122706250Y-71950000D01*
G75*
G02*
X122950000Y-72193750I0J-243750D01*
G01*
X122950000Y-72681250D01*
G75*
G02*
X122706250Y-72925000I-243750J0D01*
G01*
G37*
G04 #@! TD.AperFunction*
G04 #@! TA.AperFunction,SMDPad,CuDef*
G36*
G01*
X122706250Y-71050000D02*
X121793750Y-71050000D01*
G75*
G02*
X121550000Y-70806250I0J243750D01*
G01*
X121550000Y-70318750D01*
G75*
G02*
X121793750Y-70075000I243750J0D01*
G01*
X122706250Y-70075000D01*
G75*
G02*
X122950000Y-70318750I0J-243750D01*
G01*
X122950000Y-70806250D01*
G75*
G02*
X122706250Y-71050000I-243750J0D01*
G01*
G37*
G04 #@! TD.AperFunction*
G04 #@! TA.AperFunction,SMDPad,CuDef*
G36*
G01*
X126206250Y-71050000D02*
X125293750Y-71050000D01*
G75*
G02*
X125050000Y-70806250I0J243750D01*
G01*
X125050000Y-70318750D01*
G75*
G02*
X125293750Y-70075000I243750J0D01*
G01*
X126206250Y-70075000D01*
G75*
G02*
X126450000Y-70318750I0J-243750D01*
G01*
X126450000Y-70806250D01*
G75*
G02*
X126206250Y-71050000I-243750J0D01*
G01*
G37*
G04 #@! TD.AperFunction*
G04 #@! TA.AperFunction,SMDPad,CuDef*
G36*
G01*
X126206250Y-72925000D02*
X125293750Y-72925000D01*
G75*
G02*
X125050000Y-72681250I0J243750D01*
G01*
X125050000Y-72193750D01*
G75*
G02*
X125293750Y-71950000I243750J0D01*
G01*
X126206250Y-71950000D01*
G75*
G02*
X126450000Y-72193750I0J-243750D01*
G01*
X126450000Y-72681250D01*
G75*
G02*
X126206250Y-72925000I-243750J0D01*
G01*
G37*
G04 #@! TD.AperFunction*
G04 #@! TA.AperFunction,SMDPad,CuDef*
G36*
G01*
X129706250Y-72987500D02*
X128793750Y-72987500D01*
G75*
G02*
X128550000Y-72743750I0J243750D01*
G01*
X128550000Y-72256250D01*
G75*
G02*
X128793750Y-72012500I243750J0D01*
G01*
X129706250Y-72012500D01*
G75*
G02*
X129950000Y-72256250I0J-243750D01*
G01*
X129950000Y-72743750D01*
G75*
G02*
X129706250Y-72987500I-243750J0D01*
G01*
G37*
G04 #@! TD.AperFunction*
G04 #@! TA.AperFunction,SMDPad,CuDef*
G36*
G01*
X129706250Y-71112500D02*
X128793750Y-71112500D01*
G75*
G02*
X128550000Y-70868750I0J243750D01*
G01*
X128550000Y-70381250D01*
G75*
G02*
X128793750Y-70137500I243750J0D01*
G01*
X129706250Y-70137500D01*
G75*
G02*
X129950000Y-70381250I0J-243750D01*
G01*
X129950000Y-70868750D01*
G75*
G02*
X129706250Y-71112500I-243750J0D01*
G01*
G37*
G04 #@! TD.AperFunction*
G04 #@! TA.AperFunction,SMDPad,CuDef*
G36*
G01*
X133206250Y-72925000D02*
X132293750Y-72925000D01*
G75*
G02*
X132050000Y-72681250I0J243750D01*
G01*
X132050000Y-72193750D01*
G75*
G02*
X132293750Y-71950000I243750J0D01*
G01*
X133206250Y-71950000D01*
G75*
G02*
X133450000Y-72193750I0J-243750D01*
G01*
X133450000Y-72681250D01*
G75*
G02*
X133206250Y-72925000I-243750J0D01*
G01*
G37*
G04 #@! TD.AperFunction*
G04 #@! TA.AperFunction,SMDPad,CuDef*
G36*
G01*
X133206250Y-71050000D02*
X132293750Y-71050000D01*
G75*
G02*
X132050000Y-70806250I0J243750D01*
G01*
X132050000Y-70318750D01*
G75*
G02*
X132293750Y-70075000I243750J0D01*
G01*
X133206250Y-70075000D01*
G75*
G02*
X133450000Y-70318750I0J-243750D01*
G01*
X133450000Y-70806250D01*
G75*
G02*
X133206250Y-71050000I-243750J0D01*
G01*
G37*
G04 #@! TD.AperFunction*
G04 #@! TA.AperFunction,SMDPad,CuDef*
G36*
G01*
X136706250Y-71050000D02*
X135793750Y-71050000D01*
G75*
G02*
X135550000Y-70806250I0J243750D01*
G01*
X135550000Y-70318750D01*
G75*
G02*
X135793750Y-70075000I243750J0D01*
G01*
X136706250Y-70075000D01*
G75*
G02*
X136950000Y-70318750I0J-243750D01*
G01*
X136950000Y-70806250D01*
G75*
G02*
X136706250Y-71050000I-243750J0D01*
G01*
G37*
G04 #@! TD.AperFunction*
G04 #@! TA.AperFunction,SMDPad,CuDef*
G36*
G01*
X136706250Y-72925000D02*
X135793750Y-72925000D01*
G75*
G02*
X135550000Y-72681250I0J243750D01*
G01*
X135550000Y-72193750D01*
G75*
G02*
X135793750Y-71950000I243750J0D01*
G01*
X136706250Y-71950000D01*
G75*
G02*
X136950000Y-72193750I0J-243750D01*
G01*
X136950000Y-72681250D01*
G75*
G02*
X136706250Y-72925000I-243750J0D01*
G01*
G37*
G04 #@! TD.AperFunction*
G04 #@! TA.AperFunction,SMDPad,CuDef*
G36*
G01*
X140206250Y-71112500D02*
X139293750Y-71112500D01*
G75*
G02*
X139050000Y-70868750I0J243750D01*
G01*
X139050000Y-70381250D01*
G75*
G02*
X139293750Y-70137500I243750J0D01*
G01*
X140206250Y-70137500D01*
G75*
G02*
X140450000Y-70381250I0J-243750D01*
G01*
X140450000Y-70868750D01*
G75*
G02*
X140206250Y-71112500I-243750J0D01*
G01*
G37*
G04 #@! TD.AperFunction*
G04 #@! TA.AperFunction,SMDPad,CuDef*
G36*
G01*
X140206250Y-72987500D02*
X139293750Y-72987500D01*
G75*
G02*
X139050000Y-72743750I0J243750D01*
G01*
X139050000Y-72256250D01*
G75*
G02*
X139293750Y-72012500I243750J0D01*
G01*
X140206250Y-72012500D01*
G75*
G02*
X140450000Y-72256250I0J-243750D01*
G01*
X140450000Y-72743750D01*
G75*
G02*
X140206250Y-72987500I-243750J0D01*
G01*
G37*
G04 #@! TD.AperFunction*
G04 #@! TA.AperFunction,SMDPad,CuDef*
G36*
G01*
X143706250Y-72862500D02*
X142793750Y-72862500D01*
G75*
G02*
X142550000Y-72618750I0J243750D01*
G01*
X142550000Y-72131250D01*
G75*
G02*
X142793750Y-71887500I243750J0D01*
G01*
X143706250Y-71887500D01*
G75*
G02*
X143950000Y-72131250I0J-243750D01*
G01*
X143950000Y-72618750D01*
G75*
G02*
X143706250Y-72862500I-243750J0D01*
G01*
G37*
G04 #@! TD.AperFunction*
G04 #@! TA.AperFunction,SMDPad,CuDef*
G36*
G01*
X143706250Y-70987500D02*
X142793750Y-70987500D01*
G75*
G02*
X142550000Y-70743750I0J243750D01*
G01*
X142550000Y-70256250D01*
G75*
G02*
X142793750Y-70012500I243750J0D01*
G01*
X143706250Y-70012500D01*
G75*
G02*
X143950000Y-70256250I0J-243750D01*
G01*
X143950000Y-70743750D01*
G75*
G02*
X143706250Y-70987500I-243750J0D01*
G01*
G37*
G04 #@! TD.AperFunction*
G04 #@! TA.AperFunction,SMDPad,CuDef*
G36*
G01*
X120243750Y-80487500D02*
X121156250Y-80487500D01*
G75*
G02*
X121400000Y-80731250I0J-243750D01*
G01*
X121400000Y-81218750D01*
G75*
G02*
X121156250Y-81462500I-243750J0D01*
G01*
X120243750Y-81462500D01*
G75*
G02*
X120000000Y-81218750I0J243750D01*
G01*
X120000000Y-80731250D01*
G75*
G02*
X120243750Y-80487500I243750J0D01*
G01*
G37*
G04 #@! TD.AperFunction*
G04 #@! TA.AperFunction,SMDPad,CuDef*
G36*
G01*
X120243750Y-78612500D02*
X121156250Y-78612500D01*
G75*
G02*
X121400000Y-78856250I0J-243750D01*
G01*
X121400000Y-79343750D01*
G75*
G02*
X121156250Y-79587500I-243750J0D01*
G01*
X120243750Y-79587500D01*
G75*
G02*
X120000000Y-79343750I0J243750D01*
G01*
X120000000Y-78856250D01*
G75*
G02*
X120243750Y-78612500I243750J0D01*
G01*
G37*
G04 #@! TD.AperFunction*
G04 #@! TA.AperFunction,SMDPad,CuDef*
G36*
G01*
X118956250Y-81462500D02*
X118043750Y-81462500D01*
G75*
G02*
X117800000Y-81218750I0J243750D01*
G01*
X117800000Y-80731250D01*
G75*
G02*
X118043750Y-80487500I243750J0D01*
G01*
X118956250Y-80487500D01*
G75*
G02*
X119200000Y-80731250I0J-243750D01*
G01*
X119200000Y-81218750D01*
G75*
G02*
X118956250Y-81462500I-243750J0D01*
G01*
G37*
G04 #@! TD.AperFunction*
G04 #@! TA.AperFunction,SMDPad,CuDef*
G36*
G01*
X118956250Y-79587500D02*
X118043750Y-79587500D01*
G75*
G02*
X117800000Y-79343750I0J243750D01*
G01*
X117800000Y-78856250D01*
G75*
G02*
X118043750Y-78612500I243750J0D01*
G01*
X118956250Y-78612500D01*
G75*
G02*
X119200000Y-78856250I0J-243750D01*
G01*
X119200000Y-79343750D01*
G75*
G02*
X118956250Y-79587500I-243750J0D01*
G01*
G37*
G04 #@! TD.AperFunction*
D13*
X152697056Y-89302944D03*
X151000000Y-88600000D03*
X149302944Y-89302944D03*
X148600000Y-91000000D03*
X149302944Y-92697056D03*
X151000000Y-93400000D03*
X152697056Y-92697056D03*
X153400000Y-91000000D03*
D14*
X151000000Y-91000000D03*
X104000000Y-91000000D03*
D13*
X106400000Y-91000000D03*
X105697056Y-92697056D03*
X104000000Y-93400000D03*
X102302944Y-92697056D03*
X101600000Y-91000000D03*
X102302944Y-89302944D03*
X104000000Y-88600000D03*
X105697056Y-89302944D03*
X152697056Y-42302944D03*
X151000000Y-41600000D03*
X149302944Y-42302944D03*
X148600000Y-44000000D03*
X149302944Y-45697056D03*
X151000000Y-46400000D03*
X152697056Y-45697056D03*
X153400000Y-44000000D03*
D14*
X151000000Y-44000000D03*
X104000000Y-44000000D03*
D13*
X106400000Y-44000000D03*
X105697056Y-45697056D03*
X104000000Y-46400000D03*
X102302944Y-45697056D03*
X101600000Y-44000000D03*
X102302944Y-42302944D03*
X104000000Y-41600000D03*
X105697056Y-42302944D03*
D15*
X103000000Y-50600000D03*
D16*
X103000000Y-55680000D03*
G04 #@! TA.AperFunction,SMDPad,CuDef*
G36*
G01*
X109374999Y-41475000D02*
X110625001Y-41475000D01*
G75*
G02*
X110875000Y-41724999I0J-249999D01*
G01*
X110875000Y-42350001D01*
G75*
G02*
X110625001Y-42600000I-249999J0D01*
G01*
X109374999Y-42600000D01*
G75*
G02*
X109125000Y-42350001I0J249999D01*
G01*
X109125000Y-41724999D01*
G75*
G02*
X109374999Y-41475000I249999J0D01*
G01*
G37*
G04 #@! TD.AperFunction*
G04 #@! TA.AperFunction,SMDPad,CuDef*
G36*
G01*
X109374999Y-44400000D02*
X110625001Y-44400000D01*
G75*
G02*
X110875000Y-44649999I0J-249999D01*
G01*
X110875000Y-45275001D01*
G75*
G02*
X110625001Y-45525000I-249999J0D01*
G01*
X109374999Y-45525000D01*
G75*
G02*
X109125000Y-45275001I0J249999D01*
G01*
X109125000Y-44649999D01*
G75*
G02*
X109374999Y-44400000I249999J0D01*
G01*
G37*
G04 #@! TD.AperFunction*
G04 #@! TA.AperFunction,SMDPad,CuDef*
G36*
G01*
X113374999Y-44400000D02*
X114625001Y-44400000D01*
G75*
G02*
X114875000Y-44649999I0J-249999D01*
G01*
X114875000Y-45275001D01*
G75*
G02*
X114625001Y-45525000I-249999J0D01*
G01*
X113374999Y-45525000D01*
G75*
G02*
X113125000Y-45275001I0J249999D01*
G01*
X113125000Y-44649999D01*
G75*
G02*
X113374999Y-44400000I249999J0D01*
G01*
G37*
G04 #@! TD.AperFunction*
G04 #@! TA.AperFunction,SMDPad,CuDef*
G36*
G01*
X113374999Y-41475000D02*
X114625001Y-41475000D01*
G75*
G02*
X114875000Y-41724999I0J-249999D01*
G01*
X114875000Y-42350001D01*
G75*
G02*
X114625001Y-42600000I-249999J0D01*
G01*
X113374999Y-42600000D01*
G75*
G02*
X113125000Y-42350001I0J249999D01*
G01*
X113125000Y-41724999D01*
G75*
G02*
X113374999Y-41475000I249999J0D01*
G01*
G37*
G04 #@! TD.AperFunction*
G04 #@! TA.AperFunction,SMDPad,CuDef*
G36*
G01*
X117274999Y-41475000D02*
X118525001Y-41475000D01*
G75*
G02*
X118775000Y-41724999I0J-249999D01*
G01*
X118775000Y-42350001D01*
G75*
G02*
X118525001Y-42600000I-249999J0D01*
G01*
X117274999Y-42600000D01*
G75*
G02*
X117025000Y-42350001I0J249999D01*
G01*
X117025000Y-41724999D01*
G75*
G02*
X117274999Y-41475000I249999J0D01*
G01*
G37*
G04 #@! TD.AperFunction*
G04 #@! TA.AperFunction,SMDPad,CuDef*
G36*
G01*
X117274999Y-44400000D02*
X118525001Y-44400000D01*
G75*
G02*
X118775000Y-44649999I0J-249999D01*
G01*
X118775000Y-45275001D01*
G75*
G02*
X118525001Y-45525000I-249999J0D01*
G01*
X117274999Y-45525000D01*
G75*
G02*
X117025000Y-45275001I0J249999D01*
G01*
X117025000Y-44649999D01*
G75*
G02*
X117274999Y-44400000I249999J0D01*
G01*
G37*
G04 #@! TD.AperFunction*
G04 #@! TA.AperFunction,SMDPad,CuDef*
G36*
G01*
X120874999Y-44400000D02*
X122125001Y-44400000D01*
G75*
G02*
X122375000Y-44649999I0J-249999D01*
G01*
X122375000Y-45275001D01*
G75*
G02*
X122125001Y-45525000I-249999J0D01*
G01*
X120874999Y-45525000D01*
G75*
G02*
X120625000Y-45275001I0J249999D01*
G01*
X120625000Y-44649999D01*
G75*
G02*
X120874999Y-44400000I249999J0D01*
G01*
G37*
G04 #@! TD.AperFunction*
G04 #@! TA.AperFunction,SMDPad,CuDef*
G36*
G01*
X120874999Y-41475000D02*
X122125001Y-41475000D01*
G75*
G02*
X122375000Y-41724999I0J-249999D01*
G01*
X122375000Y-42350001D01*
G75*
G02*
X122125001Y-42600000I-249999J0D01*
G01*
X120874999Y-42600000D01*
G75*
G02*
X120625000Y-42350001I0J249999D01*
G01*
X120625000Y-41724999D01*
G75*
G02*
X120874999Y-41475000I249999J0D01*
G01*
G37*
G04 #@! TD.AperFunction*
G04 #@! TA.AperFunction,SMDPad,CuDef*
G36*
G01*
X124874999Y-41475000D02*
X126125001Y-41475000D01*
G75*
G02*
X126375000Y-41724999I0J-249999D01*
G01*
X126375000Y-42350001D01*
G75*
G02*
X126125001Y-42600000I-249999J0D01*
G01*
X124874999Y-42600000D01*
G75*
G02*
X124625000Y-42350001I0J249999D01*
G01*
X124625000Y-41724999D01*
G75*
G02*
X124874999Y-41475000I249999J0D01*
G01*
G37*
G04 #@! TD.AperFunction*
G04 #@! TA.AperFunction,SMDPad,CuDef*
G36*
G01*
X124874999Y-44400000D02*
X126125001Y-44400000D01*
G75*
G02*
X126375000Y-44649999I0J-249999D01*
G01*
X126375000Y-45275001D01*
G75*
G02*
X126125001Y-45525000I-249999J0D01*
G01*
X124874999Y-45525000D01*
G75*
G02*
X124625000Y-45275001I0J249999D01*
G01*
X124625000Y-44649999D01*
G75*
G02*
X124874999Y-44400000I249999J0D01*
G01*
G37*
G04 #@! TD.AperFunction*
G04 #@! TA.AperFunction,SMDPad,CuDef*
G36*
G01*
X128874999Y-44400000D02*
X130125001Y-44400000D01*
G75*
G02*
X130375000Y-44649999I0J-249999D01*
G01*
X130375000Y-45275001D01*
G75*
G02*
X130125001Y-45525000I-249999J0D01*
G01*
X128874999Y-45525000D01*
G75*
G02*
X128625000Y-45275001I0J249999D01*
G01*
X128625000Y-44649999D01*
G75*
G02*
X128874999Y-44400000I249999J0D01*
G01*
G37*
G04 #@! TD.AperFunction*
G04 #@! TA.AperFunction,SMDPad,CuDef*
G36*
G01*
X128874999Y-41475000D02*
X130125001Y-41475000D01*
G75*
G02*
X130375000Y-41724999I0J-249999D01*
G01*
X130375000Y-42350001D01*
G75*
G02*
X130125001Y-42600000I-249999J0D01*
G01*
X128874999Y-42600000D01*
G75*
G02*
X128625000Y-42350001I0J249999D01*
G01*
X128625000Y-41724999D01*
G75*
G02*
X128874999Y-41475000I249999J0D01*
G01*
G37*
G04 #@! TD.AperFunction*
G04 #@! TA.AperFunction,SMDPad,CuDef*
G36*
G01*
X132374999Y-41475000D02*
X133625001Y-41475000D01*
G75*
G02*
X133875000Y-41724999I0J-249999D01*
G01*
X133875000Y-42350001D01*
G75*
G02*
X133625001Y-42600000I-249999J0D01*
G01*
X132374999Y-42600000D01*
G75*
G02*
X132125000Y-42350001I0J249999D01*
G01*
X132125000Y-41724999D01*
G75*
G02*
X132374999Y-41475000I249999J0D01*
G01*
G37*
G04 #@! TD.AperFunction*
G04 #@! TA.AperFunction,SMDPad,CuDef*
G36*
G01*
X132374999Y-44400000D02*
X133625001Y-44400000D01*
G75*
G02*
X133875000Y-44649999I0J-249999D01*
G01*
X133875000Y-45275001D01*
G75*
G02*
X133625001Y-45525000I-249999J0D01*
G01*
X132374999Y-45525000D01*
G75*
G02*
X132125000Y-45275001I0J249999D01*
G01*
X132125000Y-44649999D01*
G75*
G02*
X132374999Y-44400000I249999J0D01*
G01*
G37*
G04 #@! TD.AperFunction*
G04 #@! TA.AperFunction,SMDPad,CuDef*
G36*
G01*
X136374999Y-44400000D02*
X137625001Y-44400000D01*
G75*
G02*
X137875000Y-44649999I0J-249999D01*
G01*
X137875000Y-45275001D01*
G75*
G02*
X137625001Y-45525000I-249999J0D01*
G01*
X136374999Y-45525000D01*
G75*
G02*
X136125000Y-45275001I0J249999D01*
G01*
X136125000Y-44649999D01*
G75*
G02*
X136374999Y-44400000I249999J0D01*
G01*
G37*
G04 #@! TD.AperFunction*
G04 #@! TA.AperFunction,SMDPad,CuDef*
G36*
G01*
X136374999Y-41475000D02*
X137625001Y-41475000D01*
G75*
G02*
X137875000Y-41724999I0J-249999D01*
G01*
X137875000Y-42350001D01*
G75*
G02*
X137625001Y-42600000I-249999J0D01*
G01*
X136374999Y-42600000D01*
G75*
G02*
X136125000Y-42350001I0J249999D01*
G01*
X136125000Y-41724999D01*
G75*
G02*
X136374999Y-41475000I249999J0D01*
G01*
G37*
G04 #@! TD.AperFunction*
G04 #@! TA.AperFunction,SMDPad,CuDef*
G36*
G01*
X140374999Y-41475000D02*
X141625001Y-41475000D01*
G75*
G02*
X141875000Y-41724999I0J-249999D01*
G01*
X141875000Y-42350001D01*
G75*
G02*
X141625001Y-42600000I-249999J0D01*
G01*
X140374999Y-42600000D01*
G75*
G02*
X140125000Y-42350001I0J249999D01*
G01*
X140125000Y-41724999D01*
G75*
G02*
X140374999Y-41475000I249999J0D01*
G01*
G37*
G04 #@! TD.AperFunction*
G04 #@! TA.AperFunction,SMDPad,CuDef*
G36*
G01*
X140374999Y-44400000D02*
X141625001Y-44400000D01*
G75*
G02*
X141875000Y-44649999I0J-249999D01*
G01*
X141875000Y-45275001D01*
G75*
G02*
X141625001Y-45525000I-249999J0D01*
G01*
X140374999Y-45525000D01*
G75*
G02*
X140125000Y-45275001I0J249999D01*
G01*
X140125000Y-44649999D01*
G75*
G02*
X140374999Y-44400000I249999J0D01*
G01*
G37*
G04 #@! TD.AperFunction*
G04 #@! TA.AperFunction,SMDPad,CuDef*
G36*
G01*
X144374999Y-44400000D02*
X145625001Y-44400000D01*
G75*
G02*
X145875000Y-44649999I0J-249999D01*
G01*
X145875000Y-45275001D01*
G75*
G02*
X145625001Y-45525000I-249999J0D01*
G01*
X144374999Y-45525000D01*
G75*
G02*
X144125000Y-45275001I0J249999D01*
G01*
X144125000Y-44649999D01*
G75*
G02*
X144374999Y-44400000I249999J0D01*
G01*
G37*
G04 #@! TD.AperFunction*
G04 #@! TA.AperFunction,SMDPad,CuDef*
G36*
G01*
X144374999Y-41475000D02*
X145625001Y-41475000D01*
G75*
G02*
X145875000Y-41724999I0J-249999D01*
G01*
X145875000Y-42350001D01*
G75*
G02*
X145625001Y-42600000I-249999J0D01*
G01*
X144374999Y-42600000D01*
G75*
G02*
X144125000Y-42350001I0J249999D01*
G01*
X144125000Y-41724999D01*
G75*
G02*
X144374999Y-41475000I249999J0D01*
G01*
G37*
G04 #@! TD.AperFunction*
G04 #@! TA.AperFunction,SMDPad,CuDef*
G36*
G01*
X114549999Y-89487500D02*
X115450001Y-89487500D01*
G75*
G02*
X115700000Y-89737499I0J-249999D01*
G01*
X115700000Y-90262501D01*
G75*
G02*
X115450001Y-90512500I-249999J0D01*
G01*
X114549999Y-90512500D01*
G75*
G02*
X114300000Y-90262501I0J249999D01*
G01*
X114300000Y-89737499D01*
G75*
G02*
X114549999Y-89487500I249999J0D01*
G01*
G37*
G04 #@! TD.AperFunction*
G04 #@! TA.AperFunction,SMDPad,CuDef*
G36*
G01*
X114549999Y-87662500D02*
X115450001Y-87662500D01*
G75*
G02*
X115700000Y-87912499I0J-249999D01*
G01*
X115700000Y-88437501D01*
G75*
G02*
X115450001Y-88687500I-249999J0D01*
G01*
X114549999Y-88687500D01*
G75*
G02*
X114300000Y-88437501I0J249999D01*
G01*
X114300000Y-87912499D01*
G75*
G02*
X114549999Y-87662500I249999J0D01*
G01*
G37*
G04 #@! TD.AperFunction*
G04 #@! TA.AperFunction,SMDPad,CuDef*
G36*
G01*
X133950001Y-93012500D02*
X133049999Y-93012500D01*
G75*
G02*
X132800000Y-92762501I0J249999D01*
G01*
X132800000Y-92237499D01*
G75*
G02*
X133049999Y-91987500I249999J0D01*
G01*
X133950001Y-91987500D01*
G75*
G02*
X134200000Y-92237499I0J-249999D01*
G01*
X134200000Y-92762501D01*
G75*
G02*
X133950001Y-93012500I-249999J0D01*
G01*
G37*
G04 #@! TD.AperFunction*
G04 #@! TA.AperFunction,SMDPad,CuDef*
G36*
G01*
X133950001Y-91187500D02*
X133049999Y-91187500D01*
G75*
G02*
X132800000Y-90937501I0J249999D01*
G01*
X132800000Y-90412499D01*
G75*
G02*
X133049999Y-90162500I249999J0D01*
G01*
X133950001Y-90162500D01*
G75*
G02*
X134200000Y-90412499I0J-249999D01*
G01*
X134200000Y-90937501D01*
G75*
G02*
X133950001Y-91187500I-249999J0D01*
G01*
G37*
G04 #@! TD.AperFunction*
D17*
X102500000Y-84500000D03*
X102500000Y-79500000D03*
X102500000Y-74500000D03*
D18*
X102500000Y-62160000D03*
X102500000Y-64700000D03*
X102500000Y-67240000D03*
D19*
X121000000Y-92000000D03*
D20*
X128620000Y-84380000D03*
X123540000Y-92000000D03*
X126080000Y-84380000D03*
X126080000Y-92000000D03*
X123540000Y-84380000D03*
X128620000Y-92000000D03*
X121000000Y-84380000D03*
D21*
X107600000Y-59600000D03*
X106200000Y-83600000D03*
X105600000Y-78000000D03*
X108200000Y-70600000D03*
X103200000Y-71800000D03*
X102000000Y-82000000D03*
X105600000Y-53100000D03*
X108100000Y-82900000D03*
X107400000Y-75100000D03*
X115000000Y-79100000D03*
X112600000Y-81500000D03*
X110500000Y-75000000D03*
D22*
X126080000Y-84380000D02*
X126080000Y-83080000D01*
X123000000Y-80000000D02*
X123000000Y-79000000D01*
X126080000Y-83080000D02*
X123000000Y-80000000D01*
X102912510Y-79912510D02*
X102500000Y-79500000D01*
X103100000Y-80100000D02*
X102500000Y-79500000D01*
X121900000Y-80100000D02*
X103100000Y-80100000D01*
X123000000Y-79000000D02*
X121900000Y-80100000D01*
X112000000Y-86120000D02*
X112320000Y-86120000D01*
D23*
X113700000Y-87400000D02*
X113700000Y-88900000D01*
X113700000Y-88900000D02*
X115000000Y-90000000D01*
X112000000Y-85720000D02*
X113700000Y-87400000D01*
D22*
X128620000Y-81570000D02*
X128550000Y-81500000D01*
X128620000Y-84380000D02*
X128620000Y-81570000D01*
D24*
X111750000Y-50000000D02*
X111750000Y-52562500D01*
X110000000Y-46375000D02*
X111750000Y-48125000D01*
X110000000Y-44962500D02*
X110000000Y-46375000D01*
X114000000Y-46812500D02*
X115250000Y-48062500D01*
X114000000Y-44962500D02*
X114000000Y-46812500D01*
X115250000Y-49937500D02*
X115250000Y-52562500D01*
X117900000Y-47212500D02*
X118750000Y-48062500D01*
X117900000Y-44962500D02*
X117900000Y-47212500D01*
X118750000Y-52562500D02*
X118750000Y-49937500D01*
X122250000Y-49937500D02*
X122250000Y-52562500D01*
X121500000Y-47312500D02*
X122250000Y-48062500D01*
X121500000Y-44962500D02*
X121500000Y-47312500D01*
X125500000Y-47812500D02*
X125750000Y-48062500D01*
X125500000Y-44962500D02*
X125500000Y-47812500D01*
X125750000Y-49937500D02*
X125750000Y-52562500D01*
X129500000Y-47812500D02*
X129250000Y-48062500D01*
X129500000Y-44962500D02*
X129500000Y-47812500D01*
X129250000Y-49937500D02*
X129250000Y-52562500D01*
X132750000Y-49937500D02*
X132750000Y-52562500D01*
X133000000Y-47812500D02*
X132750000Y-48062500D01*
X133000000Y-44962500D02*
X133000000Y-47812500D01*
X136250000Y-49937500D02*
X136250000Y-52625000D01*
X137000000Y-47312500D02*
X136250000Y-48062500D01*
X137000000Y-44962500D02*
X137000000Y-47312500D01*
X141000000Y-46812500D02*
X139750000Y-48062500D01*
X141000000Y-44962500D02*
X141000000Y-46812500D01*
X139750000Y-49937500D02*
X139750000Y-52562500D01*
X143250000Y-49937500D02*
X143250000Y-52625000D01*
X145000000Y-46312500D02*
X143250000Y-48062500D01*
X145000000Y-44962500D02*
X145000000Y-46312500D01*
X111750000Y-54437500D02*
X111750000Y-57125000D01*
X115250000Y-54437500D02*
X115250000Y-57125000D01*
X118750000Y-54437500D02*
X118750000Y-57125000D01*
X122250000Y-54437500D02*
X122250000Y-57125000D01*
X125750000Y-54437500D02*
X125750000Y-57062500D01*
X129250000Y-54437500D02*
X129250000Y-57062500D01*
X132750000Y-54437500D02*
X132750000Y-57062500D01*
X136250000Y-54500000D02*
X136250000Y-57062500D01*
X139750000Y-54437500D02*
X139750000Y-57062500D01*
X143250000Y-54500000D02*
X143250000Y-57125000D01*
X110000000Y-42037500D02*
X114000000Y-42037500D01*
X114000000Y-42037500D02*
X117900000Y-42037500D01*
X117900000Y-42037500D02*
X121500000Y-42037500D01*
X121500000Y-42037500D02*
X125500000Y-42037500D01*
X125500000Y-42037500D02*
X129500000Y-42037500D01*
X129500000Y-42037500D02*
X133000000Y-42037500D01*
X133000000Y-42037500D02*
X137000000Y-42037500D01*
X137000000Y-42037500D02*
X141000000Y-42037500D01*
X141000000Y-42037500D02*
X145000000Y-42037500D01*
X145000000Y-42037500D02*
X146037500Y-42037500D01*
D22*
X147000000Y-55850000D02*
X148000000Y-56850000D01*
X147000000Y-43000000D02*
X147000000Y-55850000D01*
X146037500Y-42037500D02*
X147000000Y-43000000D01*
D24*
X110000000Y-42037500D02*
X108674990Y-43362510D01*
D22*
X128620000Y-92000000D02*
X123620000Y-87000000D01*
X123620000Y-87000000D02*
X121000000Y-84380000D01*
X133000000Y-92000000D02*
X133500000Y-92500000D01*
X128620000Y-92000000D02*
X133000000Y-92000000D01*
X120302499Y-83682499D02*
X119082499Y-83682499D01*
X121000000Y-84380000D02*
X120302499Y-83682499D01*
X119082499Y-83682499D02*
X118400000Y-83000000D01*
X108200000Y-83000000D02*
X108100000Y-82900000D01*
X118400000Y-83000000D02*
X108200000Y-83000000D01*
X107400000Y-75100000D02*
X107400000Y-72400000D01*
X107400000Y-72400000D02*
X104500000Y-69500000D01*
X104500000Y-64160000D02*
X102500000Y-62160000D01*
X104500000Y-69500000D02*
X104500000Y-64160000D01*
D24*
X108674990Y-43362510D02*
X108637490Y-43362510D01*
X108637490Y-43362510D02*
X108250000Y-43750000D01*
X108250000Y-56410000D02*
X102500000Y-62160000D01*
X108250000Y-43750000D02*
X108250000Y-56410000D01*
X111750000Y-61562500D02*
X111687500Y-61625000D01*
X111750000Y-59000000D02*
X111750000Y-61562500D01*
X115250000Y-59000000D02*
X115250000Y-61562500D01*
X118750000Y-59000000D02*
X118750000Y-60750000D01*
X118750000Y-60750000D02*
X118750000Y-61625000D01*
X122250000Y-59000000D02*
X122250000Y-61625000D01*
X125750000Y-58937500D02*
X125750000Y-61562500D01*
X129250000Y-58937500D02*
X129250000Y-61625000D01*
X132750000Y-58937500D02*
X132750000Y-61625000D01*
X136250000Y-58937500D02*
X136250000Y-61562500D01*
X139750000Y-58937500D02*
X139750000Y-61625000D01*
X143250000Y-59000000D02*
X143250000Y-61562500D01*
X111687500Y-66062500D02*
X111750000Y-66125000D01*
X111687500Y-63500000D02*
X111687500Y-66062500D01*
X115250000Y-63437500D02*
X115250000Y-66125000D01*
X118750000Y-63500000D02*
X118750000Y-66125000D01*
X122250000Y-63500000D02*
X122250000Y-66000000D01*
X125750000Y-63437500D02*
X125750000Y-66062500D01*
X129250000Y-63500000D02*
X129250000Y-66000000D01*
X132750000Y-63500000D02*
X132750000Y-66125000D01*
X136250000Y-63437500D02*
X136250000Y-66125000D01*
X139750000Y-63500000D02*
X139750000Y-66125000D01*
X143250000Y-63437500D02*
X143250000Y-66125000D01*
X111750000Y-68000000D02*
X111750000Y-70625000D01*
X115250000Y-68000000D02*
X115250000Y-70625000D01*
X118750000Y-68000000D02*
X118750000Y-70562500D01*
X122250000Y-67875000D02*
X122250000Y-70562500D01*
X125750000Y-67937500D02*
X125750000Y-70562500D01*
X129250000Y-67875000D02*
X129250000Y-70625000D01*
X132750000Y-68000000D02*
X132750000Y-70562500D01*
X136250000Y-68000000D02*
X136250000Y-70562500D01*
X139750000Y-68000000D02*
X139750000Y-70625000D01*
X143250000Y-68000000D02*
X143250000Y-70500000D01*
D22*
X123540000Y-85251002D02*
X123540000Y-84380000D01*
X123540000Y-83815000D02*
X120700000Y-80975000D01*
X123540000Y-84380000D02*
X123540000Y-83815000D01*
X120700000Y-80975000D02*
X118500000Y-80975000D01*
X123540000Y-84380000D02*
X123540000Y-84540000D01*
X133500000Y-88600000D02*
X133500000Y-90675000D01*
X133500000Y-87500000D02*
X133500000Y-88600000D01*
X132100000Y-86100000D02*
X133500000Y-87500000D01*
X125000000Y-86100000D02*
X132100000Y-86100000D01*
X123540000Y-84380000D02*
X125000000Y-86100000D01*
X102500000Y-74500000D02*
X104500000Y-76500000D01*
X118100000Y-76500000D02*
X120700000Y-79100000D01*
X104500000Y-76500000D02*
X118100000Y-76500000D01*
X105500000Y-81500000D02*
X102500000Y-84500000D01*
X112600000Y-81500000D02*
X105500000Y-81500000D01*
X118500000Y-79100000D02*
X117650000Y-78250000D01*
X115850000Y-78250000D02*
X115000000Y-79100000D01*
X117650000Y-78250000D02*
X115850000Y-78250000D01*
D24*
X101110199Y-63310199D02*
X102500000Y-64700000D01*
X101110199Y-57569801D02*
X101110199Y-63310199D01*
X103000000Y-55680000D02*
X101110199Y-57569801D01*
D22*
X115000000Y-88175000D02*
X115000000Y-87760000D01*
X122255000Y-88175000D02*
X126080000Y-92000000D01*
D24*
X115000000Y-88175000D02*
X115000000Y-88160000D01*
X116800000Y-89975000D02*
X115000000Y-88175000D01*
D22*
X116800000Y-89975000D02*
X118625000Y-89975000D01*
X120425000Y-88175000D02*
X122255000Y-88175000D01*
X118625000Y-89975000D02*
X120425000Y-88175000D01*
D24*
X113000000Y-91800000D02*
X112000000Y-90800000D01*
X115800000Y-91800000D02*
X113000000Y-91800000D01*
X116800000Y-90800000D02*
X115800000Y-91800000D01*
X116800000Y-89975000D02*
X116800000Y-90800000D01*
D22*
X148000000Y-60150000D02*
X148000000Y-70000000D01*
X145625000Y-72375000D02*
X143250000Y-72375000D01*
X148000000Y-70000000D02*
X145625000Y-72375000D01*
D24*
X111750000Y-72500000D02*
X115250000Y-72500000D01*
X118687500Y-72500000D02*
X118750000Y-72437500D01*
X115250000Y-72500000D02*
X118687500Y-72500000D01*
X118750000Y-72437500D02*
X122250000Y-72437500D01*
X122250000Y-72437500D02*
X125750000Y-72437500D01*
X129187500Y-72437500D02*
X129250000Y-72500000D01*
X125750000Y-72437500D02*
X129187500Y-72437500D01*
X132687500Y-72500000D02*
X132750000Y-72437500D01*
X129250000Y-72500000D02*
X132687500Y-72500000D01*
X132750000Y-72437500D02*
X136250000Y-72437500D01*
X139687500Y-72437500D02*
X139750000Y-72500000D01*
X136250000Y-72437500D02*
X139687500Y-72437500D01*
X143125000Y-72500000D02*
X143250000Y-72375000D01*
X139750000Y-72500000D02*
X143125000Y-72500000D01*
X111750000Y-73750000D02*
X110500000Y-75000000D01*
X111750000Y-72500000D02*
X111750000Y-73750000D01*
D25*
X148277287Y-41106167D02*
X151000000Y-43828880D01*
X151014142Y-43814738D01*
X151185262Y-43985858D01*
X151171120Y-44000000D01*
X153893833Y-46722713D01*
X154213001Y-46540599D01*
X154213001Y-48961337D01*
X154213000Y-48961347D01*
X154213001Y-88459401D01*
X153893833Y-88277287D01*
X151171120Y-91000000D01*
X151185262Y-91014142D01*
X151014142Y-91185262D01*
X151000000Y-91171120D01*
X148277287Y-93893833D01*
X148459401Y-94213000D01*
X106540599Y-94213000D01*
X106722713Y-93893833D01*
X104000000Y-91171120D01*
X103985858Y-91185262D01*
X103814738Y-91014142D01*
X103828880Y-91000000D01*
X104171120Y-91000000D01*
X106893833Y-93722713D01*
X107487284Y-93384095D01*
X107588213Y-93200000D01*
X119191142Y-93200000D01*
X119210527Y-93396818D01*
X119267937Y-93586073D01*
X119361165Y-93760491D01*
X119486630Y-93913370D01*
X119639509Y-94038835D01*
X119813927Y-94132063D01*
X120003182Y-94189473D01*
X120200000Y-94208858D01*
X120628000Y-94204000D01*
X120879000Y-93953000D01*
X120879000Y-92121000D01*
X119447000Y-92121000D01*
X119196000Y-92372000D01*
X119191142Y-93200000D01*
X107588213Y-93200000D01*
X107885391Y-92657950D01*
X108134184Y-91868092D01*
X108224102Y-91044872D01*
X108151692Y-90219929D01*
X107919734Y-89424963D01*
X107537143Y-88690524D01*
X107487284Y-88615905D01*
X106893833Y-88277287D01*
X104171120Y-91000000D01*
X103828880Y-91000000D01*
X101106167Y-88277287D01*
X100787000Y-88459401D01*
X100787000Y-88106167D01*
X101277287Y-88106167D01*
X104000000Y-90828880D01*
X106722713Y-88106167D01*
X106384095Y-87512716D01*
X105657950Y-87114609D01*
X104868092Y-86865816D01*
X104044872Y-86775898D01*
X103219929Y-86848308D01*
X102424963Y-87080266D01*
X101690524Y-87462857D01*
X101615905Y-87512716D01*
X101277287Y-88106167D01*
X100787000Y-88106167D01*
X100787000Y-86199834D01*
X101101316Y-86367840D01*
X101480579Y-86482888D01*
X101776159Y-86512000D01*
X103223841Y-86512000D01*
X103519421Y-86482888D01*
X103898684Y-86367840D01*
X104248216Y-86181011D01*
X104554583Y-85929583D01*
X104806011Y-85623216D01*
X104992840Y-85273684D01*
X105107888Y-84894421D01*
X105146735Y-84500000D01*
X105107888Y-84105579D01*
X104992840Y-83726316D01*
X104830955Y-83423452D01*
X105867407Y-82387000D01*
X107054752Y-82387000D01*
X106982655Y-82561057D01*
X106938000Y-82785553D01*
X106938000Y-83014447D01*
X106982655Y-83238943D01*
X107070249Y-83450413D01*
X107197416Y-83640732D01*
X107359268Y-83802584D01*
X107549587Y-83929751D01*
X107761057Y-84017345D01*
X107985553Y-84062000D01*
X108214447Y-84062000D01*
X108438943Y-84017345D01*
X108650413Y-83929751D01*
X108714394Y-83887000D01*
X111290065Y-83887000D01*
X111207151Y-83912000D01*
X110868749Y-84092151D01*
X110571995Y-84334859D01*
X110328293Y-84630797D01*
X110147009Y-84968593D01*
X110042715Y-85295012D01*
X110251298Y-85599000D01*
X111879000Y-85599000D01*
X111879000Y-85579000D01*
X112121000Y-85579000D01*
X112121000Y-85599000D01*
X113748702Y-85599000D01*
X113957285Y-85295012D01*
X113852991Y-84968593D01*
X113671707Y-84630797D01*
X113428005Y-84334859D01*
X113131251Y-84092151D01*
X112792849Y-83912000D01*
X112709935Y-83887000D01*
X118032593Y-83887000D01*
X118424486Y-84278893D01*
X118452261Y-84312737D01*
X118587324Y-84423580D01*
X118741417Y-84505945D01*
X118908617Y-84556664D01*
X119038932Y-84569499D01*
X119038941Y-84569499D01*
X119082498Y-84573789D01*
X119126055Y-84569499D01*
X119438000Y-84569499D01*
X119438000Y-84856726D01*
X119460602Y-85086205D01*
X119549918Y-85380643D01*
X119694961Y-85651999D01*
X119890157Y-85889844D01*
X120128002Y-86085039D01*
X120399358Y-86230082D01*
X120693796Y-86319398D01*
X121000000Y-86349557D01*
X121306205Y-86319398D01*
X121596831Y-86231238D01*
X122961990Y-87596397D01*
X125507096Y-90141504D01*
X125483169Y-90148762D01*
X122913013Y-87578606D01*
X122885238Y-87544762D01*
X122750175Y-87433919D01*
X122596082Y-87351554D01*
X122428882Y-87300835D01*
X122298567Y-87288000D01*
X122255000Y-87283709D01*
X122211433Y-87288000D01*
X120468556Y-87288000D01*
X120424999Y-87283710D01*
X120381442Y-87288000D01*
X120381433Y-87288000D01*
X120251118Y-87300835D01*
X120083918Y-87351554D01*
X119929825Y-87433919D01*
X119794762Y-87544762D01*
X119766987Y-87578606D01*
X118257593Y-89088000D01*
X117344184Y-89088000D01*
X116465686Y-88209502D01*
X116465686Y-87912499D01*
X116446170Y-87714349D01*
X116388372Y-87523813D01*
X116294512Y-87348215D01*
X116168199Y-87194301D01*
X116014285Y-87067988D01*
X115838687Y-86974128D01*
X115648151Y-86916330D01*
X115450001Y-86896814D01*
X115210075Y-86896814D01*
X115173882Y-86885835D01*
X115000000Y-86868709D01*
X114826119Y-86885835D01*
X114789926Y-86896814D01*
X114549999Y-86896814D01*
X114351849Y-86916330D01*
X114161313Y-86974128D01*
X113985715Y-87067988D01*
X113831801Y-87194301D01*
X113705488Y-87348215D01*
X113611628Y-87523813D01*
X113606712Y-87540018D01*
X113479952Y-87302866D01*
X113361992Y-87159132D01*
X113428005Y-87105141D01*
X113671707Y-86809203D01*
X113852991Y-86471407D01*
X113957285Y-86144988D01*
X113748702Y-85841000D01*
X112121000Y-85841000D01*
X112121000Y-85861000D01*
X111879000Y-85861000D01*
X111879000Y-85841000D01*
X110251298Y-85841000D01*
X110042715Y-86144988D01*
X110147009Y-86471407D01*
X110328293Y-86809203D01*
X110571995Y-87105141D01*
X110638008Y-87159132D01*
X110520048Y-87302866D01*
X110360845Y-87600715D01*
X110262808Y-87923899D01*
X110229705Y-88260000D01*
X110262808Y-88596101D01*
X110360845Y-88919285D01*
X110520048Y-89217134D01*
X110538927Y-89240138D01*
X110458578Y-89306078D01*
X110363355Y-89422108D01*
X110292598Y-89554485D01*
X110249026Y-89698122D01*
X110234314Y-89847500D01*
X110234314Y-91752500D01*
X110249026Y-91901878D01*
X110292598Y-92045515D01*
X110363355Y-92177892D01*
X110458578Y-92293922D01*
X110574608Y-92389145D01*
X110706985Y-92459902D01*
X110850622Y-92503474D01*
X111000000Y-92518186D01*
X112280234Y-92518186D01*
X112280946Y-92519054D01*
X112319558Y-92550742D01*
X112319559Y-92550743D01*
X112435043Y-92645519D01*
X112567203Y-92716159D01*
X112610851Y-92739489D01*
X112801613Y-92797357D01*
X112950289Y-92812000D01*
X112950292Y-92812000D01*
X113000000Y-92816896D01*
X113049708Y-92812000D01*
X115750299Y-92812000D01*
X115800000Y-92816895D01*
X115849701Y-92812000D01*
X115849711Y-92812000D01*
X115998387Y-92797357D01*
X116189149Y-92739489D01*
X116364957Y-92645518D01*
X116435584Y-92587556D01*
X116480441Y-92550743D01*
X116480442Y-92550742D01*
X116519054Y-92519054D01*
X116550742Y-92480442D01*
X117480442Y-91550742D01*
X117519054Y-91519054D01*
X117562826Y-91465718D01*
X117645519Y-91364957D01*
X117739489Y-91189149D01*
X117750067Y-91154278D01*
X117797357Y-90998386D01*
X117810790Y-90862000D01*
X118581433Y-90862000D01*
X118625000Y-90866291D01*
X118668567Y-90862000D01*
X118798882Y-90849165D01*
X118966082Y-90798446D01*
X119120175Y-90716081D01*
X119206375Y-90645339D01*
X119191142Y-90800000D01*
X119196000Y-91628000D01*
X119447000Y-91879000D01*
X120879000Y-91879000D01*
X120879000Y-90047000D01*
X120628000Y-89796000D01*
X120200000Y-89791142D01*
X120048326Y-89806081D01*
X120792407Y-89062000D01*
X121887593Y-89062000D01*
X122967096Y-90141503D01*
X122939357Y-90149918D01*
X122668369Y-90294764D01*
X122638835Y-90239509D01*
X122513370Y-90086630D01*
X122360491Y-89961165D01*
X122186073Y-89867937D01*
X121996818Y-89810527D01*
X121800000Y-89791142D01*
X121372000Y-89796000D01*
X121121000Y-90047000D01*
X121121000Y-91879000D01*
X121141000Y-91879000D01*
X121141000Y-92121000D01*
X121121000Y-92121000D01*
X121121000Y-93953000D01*
X121372000Y-94204000D01*
X121800000Y-94208858D01*
X121996818Y-94189473D01*
X122186073Y-94132063D01*
X122360491Y-94038835D01*
X122513370Y-93913370D01*
X122638835Y-93760491D01*
X122668370Y-93705235D01*
X122939358Y-93850082D01*
X123233796Y-93939398D01*
X123540000Y-93969557D01*
X123846205Y-93939398D01*
X124140643Y-93850082D01*
X124411999Y-93705039D01*
X124649844Y-93509844D01*
X124810000Y-93314694D01*
X124970157Y-93509844D01*
X125208002Y-93705039D01*
X125479358Y-93850082D01*
X125773796Y-93939398D01*
X126080000Y-93969557D01*
X126386205Y-93939398D01*
X126680643Y-93850082D01*
X126951999Y-93705039D01*
X127189844Y-93509844D01*
X127350000Y-93314694D01*
X127510157Y-93509844D01*
X127748002Y-93705039D01*
X128019358Y-93850082D01*
X128313796Y-93939398D01*
X128620000Y-93969557D01*
X128926205Y-93939398D01*
X129220643Y-93850082D01*
X129491999Y-93705039D01*
X129729844Y-93509844D01*
X129925039Y-93271999D01*
X130070082Y-93000643D01*
X130104555Y-92887000D01*
X132046576Y-92887000D01*
X132053830Y-92960651D01*
X132111628Y-93151187D01*
X132205488Y-93326785D01*
X132331801Y-93480699D01*
X132485715Y-93607012D01*
X132661313Y-93700872D01*
X132851849Y-93758670D01*
X133049999Y-93778186D01*
X133950001Y-93778186D01*
X134148151Y-93758670D01*
X134338687Y-93700872D01*
X134514285Y-93607012D01*
X134668199Y-93480699D01*
X134794512Y-93326785D01*
X134888372Y-93151187D01*
X134946170Y-92960651D01*
X134965686Y-92762501D01*
X134965686Y-92237499D01*
X134946170Y-92039349D01*
X134888372Y-91848813D01*
X134794512Y-91673215D01*
X134724168Y-91587500D01*
X134794512Y-91501785D01*
X134888372Y-91326187D01*
X134946170Y-91135651D01*
X134963949Y-90955128D01*
X146775898Y-90955128D01*
X146848308Y-91780071D01*
X147080266Y-92575037D01*
X147462857Y-93309476D01*
X147512716Y-93384095D01*
X148106167Y-93722713D01*
X150828880Y-91000000D01*
X148106167Y-88277287D01*
X147512716Y-88615905D01*
X147114609Y-89342050D01*
X146865816Y-90131908D01*
X146775898Y-90955128D01*
X134963949Y-90955128D01*
X134965686Y-90937501D01*
X134965686Y-90412499D01*
X134946170Y-90214349D01*
X134888372Y-90023813D01*
X134794512Y-89848215D01*
X134668199Y-89694301D01*
X134514285Y-89567988D01*
X134387000Y-89499952D01*
X134387000Y-88106167D01*
X148277287Y-88106167D01*
X151000000Y-90828880D01*
X153722713Y-88106167D01*
X153384095Y-87512716D01*
X152657950Y-87114609D01*
X151868092Y-86865816D01*
X151044872Y-86775898D01*
X150219929Y-86848308D01*
X149424963Y-87080266D01*
X148690524Y-87462857D01*
X148615905Y-87512716D01*
X148277287Y-88106167D01*
X134387000Y-88106167D01*
X134387000Y-87543567D01*
X134391291Y-87500000D01*
X134374165Y-87326118D01*
X134366496Y-87300836D01*
X134323446Y-87158918D01*
X134241081Y-87004825D01*
X134237121Y-87000000D01*
X134158010Y-86903602D01*
X134158008Y-86903600D01*
X134130238Y-86869762D01*
X134096401Y-86841993D01*
X132758013Y-85503606D01*
X132730238Y-85469762D01*
X132595175Y-85358919D01*
X132441082Y-85276554D01*
X132273882Y-85225835D01*
X132143567Y-85213000D01*
X132100000Y-85208709D01*
X132056433Y-85213000D01*
X130120935Y-85213000D01*
X130159398Y-85086205D01*
X130182000Y-84856725D01*
X130182000Y-83903274D01*
X130159398Y-83673795D01*
X130070082Y-83379357D01*
X129925039Y-83108001D01*
X129729844Y-82870156D01*
X129507000Y-82687273D01*
X129507000Y-82412164D01*
X129598725Y-82300396D01*
X129690275Y-82129119D01*
X129746650Y-81943273D01*
X129765686Y-81750000D01*
X129765686Y-81250000D01*
X129746650Y-81056727D01*
X129690275Y-80870881D01*
X129598725Y-80699604D01*
X129475521Y-80549479D01*
X129325396Y-80426275D01*
X129154119Y-80334725D01*
X128968273Y-80278350D01*
X128775000Y-80259314D01*
X128325000Y-80259314D01*
X128131727Y-80278350D01*
X128125223Y-80280323D01*
X128010491Y-80186165D01*
X127836073Y-80092937D01*
X127646818Y-80035527D01*
X127450000Y-80016142D01*
X127372000Y-80021000D01*
X127121000Y-80272000D01*
X127121000Y-81379000D01*
X127141000Y-81379000D01*
X127141000Y-81621000D01*
X127121000Y-81621000D01*
X127121000Y-81641000D01*
X126879000Y-81641000D01*
X126879000Y-81621000D01*
X126859000Y-81621000D01*
X126859000Y-81379000D01*
X126879000Y-81379000D01*
X126879000Y-80272000D01*
X126628000Y-80021000D01*
X126550000Y-80016142D01*
X126353182Y-80035527D01*
X126163927Y-80092937D01*
X125989509Y-80186165D01*
X125836630Y-80311630D01*
X125711165Y-80464509D01*
X125617937Y-80638927D01*
X125560527Y-80828182D01*
X125541142Y-81025000D01*
X125546000Y-81128000D01*
X125796998Y-81378998D01*
X125633406Y-81378998D01*
X124671002Y-80416595D01*
X124671002Y-80228002D01*
X124922000Y-80479000D01*
X125000000Y-80483858D01*
X125196818Y-80464473D01*
X125386073Y-80407063D01*
X125560491Y-80313835D01*
X125713370Y-80188370D01*
X125838835Y-80035491D01*
X125932063Y-79861073D01*
X125989473Y-79671818D01*
X126008858Y-79475000D01*
X126004000Y-79372000D01*
X125753000Y-79121000D01*
X124671000Y-79121000D01*
X124671000Y-79141000D01*
X124429000Y-79141000D01*
X124429000Y-79121000D01*
X124409000Y-79121000D01*
X124409000Y-78879000D01*
X124429000Y-78879000D01*
X124429000Y-77772000D01*
X124671000Y-77772000D01*
X124671000Y-78879000D01*
X125753000Y-78879000D01*
X126004000Y-78628000D01*
X126008858Y-78525000D01*
X125989473Y-78328182D01*
X125932063Y-78138927D01*
X125838835Y-77964509D01*
X125713370Y-77811630D01*
X125560491Y-77686165D01*
X125386073Y-77592937D01*
X125196818Y-77535527D01*
X125000000Y-77516142D01*
X124922000Y-77521000D01*
X124671000Y-77772000D01*
X124429000Y-77772000D01*
X124178000Y-77521000D01*
X124100000Y-77516142D01*
X123903182Y-77535527D01*
X123713927Y-77592937D01*
X123539509Y-77686165D01*
X123424777Y-77780323D01*
X123418273Y-77778350D01*
X123225000Y-77759314D01*
X122775000Y-77759314D01*
X122581727Y-77778350D01*
X122395881Y-77834725D01*
X122224604Y-77926275D01*
X122074479Y-78049479D01*
X121951275Y-78199604D01*
X121937723Y-78224957D01*
X121870029Y-78142471D01*
X121717063Y-78016935D01*
X121542544Y-77923653D01*
X121353181Y-77866210D01*
X121156250Y-77846814D01*
X120701222Y-77846814D01*
X118758013Y-75903606D01*
X118730238Y-75869762D01*
X118595175Y-75758919D01*
X118441082Y-75676554D01*
X118273882Y-75625835D01*
X118143567Y-75613000D01*
X118100000Y-75608709D01*
X118056433Y-75613000D01*
X111487932Y-75613000D01*
X111529751Y-75550413D01*
X111617345Y-75338943D01*
X111623578Y-75307606D01*
X112430447Y-74500738D01*
X112469054Y-74469054D01*
X112500738Y-74430447D01*
X112500743Y-74430442D01*
X112595518Y-74314958D01*
X112689488Y-74139150D01*
X112689489Y-74139149D01*
X112747357Y-73948387D01*
X112762000Y-73799711D01*
X112762000Y-73799701D01*
X112766895Y-73750000D01*
X112762000Y-73700299D01*
X112762000Y-73585771D01*
X112767063Y-73583065D01*
X112853656Y-73512000D01*
X114146344Y-73512000D01*
X114232937Y-73583065D01*
X114407456Y-73676347D01*
X114596819Y-73733790D01*
X114793750Y-73753186D01*
X115706250Y-73753186D01*
X115903181Y-73733790D01*
X116092544Y-73676347D01*
X116267063Y-73583065D01*
X116353656Y-73512000D01*
X117722501Y-73512000D01*
X117732937Y-73520565D01*
X117907456Y-73613847D01*
X118096819Y-73671290D01*
X118293750Y-73690686D01*
X119206250Y-73690686D01*
X119403181Y-73671290D01*
X119592544Y-73613847D01*
X119767063Y-73520565D01*
X119853656Y-73449500D01*
X121146344Y-73449500D01*
X121232937Y-73520565D01*
X121407456Y-73613847D01*
X121596819Y-73671290D01*
X121793750Y-73690686D01*
X122706250Y-73690686D01*
X122903181Y-73671290D01*
X123092544Y-73613847D01*
X123267063Y-73520565D01*
X123353656Y-73449500D01*
X124646344Y-73449500D01*
X124732937Y-73520565D01*
X124907456Y-73613847D01*
X125096819Y-73671290D01*
X125293750Y-73690686D01*
X126206250Y-73690686D01*
X126403181Y-73671290D01*
X126592544Y-73613847D01*
X126767063Y-73520565D01*
X126853656Y-73449500D01*
X128073382Y-73449500D01*
X128079971Y-73457529D01*
X128232937Y-73583065D01*
X128407456Y-73676347D01*
X128596819Y-73733790D01*
X128793750Y-73753186D01*
X129706250Y-73753186D01*
X129903181Y-73733790D01*
X130092544Y-73676347D01*
X130267063Y-73583065D01*
X130353656Y-73512000D01*
X131722501Y-73512000D01*
X131732937Y-73520565D01*
X131907456Y-73613847D01*
X132096819Y-73671290D01*
X132293750Y-73690686D01*
X133206250Y-73690686D01*
X133403181Y-73671290D01*
X133592544Y-73613847D01*
X133767063Y-73520565D01*
X133853656Y-73449500D01*
X135146344Y-73449500D01*
X135232937Y-73520565D01*
X135407456Y-73613847D01*
X135596819Y-73671290D01*
X135793750Y-73690686D01*
X136706250Y-73690686D01*
X136903181Y-73671290D01*
X137092544Y-73613847D01*
X137267063Y-73520565D01*
X137353656Y-73449500D01*
X138573382Y-73449500D01*
X138579971Y-73457529D01*
X138732937Y-73583065D01*
X138907456Y-73676347D01*
X139096819Y-73733790D01*
X139293750Y-73753186D01*
X140206250Y-73753186D01*
X140403181Y-73733790D01*
X140592544Y-73676347D01*
X140767063Y-73583065D01*
X140853656Y-73512000D01*
X142333843Y-73512000D01*
X142407456Y-73551347D01*
X142596819Y-73608790D01*
X142793750Y-73628186D01*
X143706250Y-73628186D01*
X143903181Y-73608790D01*
X144092544Y-73551347D01*
X144267063Y-73458065D01*
X144420029Y-73332529D01*
X144477911Y-73262000D01*
X145581433Y-73262000D01*
X145625000Y-73266291D01*
X145668567Y-73262000D01*
X145798882Y-73249165D01*
X145966082Y-73198446D01*
X146120175Y-73116081D01*
X146255238Y-73005238D01*
X146283013Y-72971394D01*
X148596400Y-70658008D01*
X148630238Y-70630238D01*
X148741081Y-70495175D01*
X148823446Y-70341082D01*
X148874165Y-70173882D01*
X148887000Y-70043567D01*
X148887000Y-70043558D01*
X148891290Y-70000001D01*
X148887000Y-69956444D01*
X148887000Y-61309227D01*
X148893015Y-61307402D01*
X149025392Y-61236645D01*
X149141422Y-61141422D01*
X149236645Y-61025392D01*
X149307402Y-60893015D01*
X149350974Y-60749378D01*
X149365686Y-60600000D01*
X149365686Y-59700000D01*
X149350974Y-59550622D01*
X149307402Y-59406985D01*
X149236645Y-59274608D01*
X149141422Y-59158578D01*
X149025392Y-59063355D01*
X148893015Y-58992598D01*
X148749378Y-58949026D01*
X148600000Y-58934314D01*
X147400000Y-58934314D01*
X147250622Y-58949026D01*
X147106985Y-58992598D01*
X146974608Y-59063355D01*
X146858578Y-59158578D01*
X146763355Y-59274608D01*
X146692598Y-59406985D01*
X146649026Y-59550622D01*
X146634314Y-59700000D01*
X146634314Y-60600000D01*
X146649026Y-60749378D01*
X146692598Y-60893015D01*
X146763355Y-61025392D01*
X146858578Y-61141422D01*
X146974608Y-61236645D01*
X147106985Y-61307402D01*
X147113000Y-61309227D01*
X147113001Y-69632591D01*
X145257593Y-71488000D01*
X144477911Y-71488000D01*
X144436466Y-71437500D01*
X144545565Y-71304563D01*
X144638847Y-71130044D01*
X144696290Y-70940681D01*
X144715686Y-70743750D01*
X144715686Y-70256250D01*
X144696290Y-70059319D01*
X144638847Y-69869956D01*
X144545565Y-69695437D01*
X144420029Y-69542471D01*
X144267063Y-69416935D01*
X144262000Y-69414229D01*
X144262000Y-69085771D01*
X144267063Y-69083065D01*
X144420029Y-68957529D01*
X144545565Y-68804563D01*
X144638847Y-68630044D01*
X144696290Y-68440681D01*
X144715686Y-68243750D01*
X144715686Y-67756250D01*
X144696290Y-67559319D01*
X144638847Y-67369956D01*
X144545565Y-67195437D01*
X144436466Y-67062500D01*
X144545565Y-66929563D01*
X144638847Y-66755044D01*
X144696290Y-66565681D01*
X144715686Y-66368750D01*
X144715686Y-65881250D01*
X144696290Y-65684319D01*
X144638847Y-65494956D01*
X144545565Y-65320437D01*
X144420029Y-65167471D01*
X144267063Y-65041935D01*
X144262000Y-65039229D01*
X144262000Y-64523271D01*
X144267063Y-64520565D01*
X144420029Y-64395029D01*
X144545565Y-64242063D01*
X144638847Y-64067544D01*
X144696290Y-63878181D01*
X144715686Y-63681250D01*
X144715686Y-63193750D01*
X144696290Y-62996819D01*
X144638847Y-62807456D01*
X144545565Y-62632937D01*
X144436466Y-62500000D01*
X144545565Y-62367063D01*
X144638847Y-62192544D01*
X144696290Y-62003181D01*
X144715686Y-61806250D01*
X144715686Y-61318750D01*
X144696290Y-61121819D01*
X144638847Y-60932456D01*
X144545565Y-60757937D01*
X144420029Y-60604971D01*
X144267063Y-60479435D01*
X144262000Y-60476729D01*
X144262000Y-60085771D01*
X144267063Y-60083065D01*
X144420029Y-59957529D01*
X144545565Y-59804563D01*
X144638847Y-59630044D01*
X144696290Y-59440681D01*
X144715686Y-59243750D01*
X144715686Y-58756250D01*
X144696290Y-58559319D01*
X144638847Y-58369956D01*
X144545565Y-58195437D01*
X144436466Y-58062500D01*
X144545565Y-57929563D01*
X144638847Y-57755044D01*
X144696290Y-57565681D01*
X144715686Y-57368750D01*
X144715686Y-56881250D01*
X144696290Y-56684319D01*
X144638847Y-56494956D01*
X144545565Y-56320437D01*
X144420029Y-56167471D01*
X144267063Y-56041935D01*
X144262000Y-56039229D01*
X144262000Y-55585771D01*
X144267063Y-55583065D01*
X144420029Y-55457529D01*
X144545565Y-55304563D01*
X144638847Y-55130044D01*
X144696290Y-54940681D01*
X144715686Y-54743750D01*
X144715686Y-54256250D01*
X144696290Y-54059319D01*
X144638847Y-53869956D01*
X144545565Y-53695437D01*
X144436466Y-53562500D01*
X144545565Y-53429563D01*
X144638847Y-53255044D01*
X144696290Y-53065681D01*
X144715686Y-52868750D01*
X144715686Y-52381250D01*
X144696290Y-52184319D01*
X144638847Y-51994956D01*
X144545565Y-51820437D01*
X144420029Y-51667471D01*
X144267063Y-51541935D01*
X144262000Y-51539229D01*
X144262000Y-51023271D01*
X144267063Y-51020565D01*
X144420029Y-50895029D01*
X144545565Y-50742063D01*
X144638847Y-50567544D01*
X144696290Y-50378181D01*
X144715686Y-50181250D01*
X144715686Y-49693750D01*
X144696290Y-49496819D01*
X144638847Y-49307456D01*
X144545565Y-49132937D01*
X144436466Y-49000000D01*
X144545565Y-48867063D01*
X144638847Y-48692544D01*
X144696290Y-48503181D01*
X144715686Y-48306250D01*
X144715686Y-48027998D01*
X145680442Y-47063242D01*
X145719054Y-47031554D01*
X145845518Y-46877457D01*
X145939489Y-46701649D01*
X145997357Y-46510887D01*
X146012000Y-46362211D01*
X146012000Y-46362208D01*
X146016896Y-46312500D01*
X146012000Y-46262792D01*
X146012000Y-46213884D01*
X146013687Y-46213372D01*
X146113000Y-46160287D01*
X146113001Y-55806423D01*
X146108709Y-55850000D01*
X146125835Y-56023881D01*
X146176555Y-56191082D01*
X146258919Y-56345174D01*
X146303914Y-56400000D01*
X146369763Y-56480238D01*
X146403601Y-56508008D01*
X146634314Y-56738721D01*
X146634314Y-57300000D01*
X146649026Y-57449378D01*
X146692598Y-57593015D01*
X146763355Y-57725392D01*
X146858578Y-57841422D01*
X146974608Y-57936645D01*
X147106985Y-58007402D01*
X147250622Y-58050974D01*
X147400000Y-58065686D01*
X148600000Y-58065686D01*
X148749378Y-58050974D01*
X148893015Y-58007402D01*
X149025392Y-57936645D01*
X149141422Y-57841422D01*
X149236645Y-57725392D01*
X149307402Y-57593015D01*
X149350974Y-57449378D01*
X149365686Y-57300000D01*
X149365686Y-56400000D01*
X149350974Y-56250622D01*
X149307402Y-56106985D01*
X149236645Y-55974608D01*
X149141422Y-55858578D01*
X149025392Y-55763355D01*
X148893015Y-55692598D01*
X148749378Y-55649026D01*
X148600000Y-55634314D01*
X148038721Y-55634314D01*
X147887000Y-55482593D01*
X147887000Y-46893833D01*
X148277287Y-46893833D01*
X148615905Y-47487284D01*
X149342050Y-47885391D01*
X150131908Y-48134184D01*
X150955128Y-48224102D01*
X151780071Y-48151692D01*
X152575037Y-47919734D01*
X153309476Y-47537143D01*
X153384095Y-47487284D01*
X153722713Y-46893833D01*
X151000000Y-44171120D01*
X148277287Y-46893833D01*
X147887000Y-46893833D01*
X147887000Y-46597658D01*
X148106167Y-46722713D01*
X150828880Y-44000000D01*
X148106167Y-41277287D01*
X147512716Y-41615905D01*
X147285235Y-42030828D01*
X147009313Y-41754906D01*
X146976989Y-41648351D01*
X146883018Y-41472543D01*
X146756554Y-41318446D01*
X146602457Y-41191982D01*
X146426649Y-41098011D01*
X146415203Y-41094539D01*
X146343199Y-41006801D01*
X146189285Y-40880488D01*
X146014383Y-40787000D01*
X148459401Y-40787000D01*
X148277287Y-41106167D01*
G04 #@! TA.AperFunction,Conductor*
D26*
G36*
X148277287Y-41106167D02*
G01*
X151000000Y-43828880D01*
X151014142Y-43814738D01*
X151185262Y-43985858D01*
X151171120Y-44000000D01*
X153893833Y-46722713D01*
X154213001Y-46540599D01*
X154213001Y-48961337D01*
X154213000Y-48961347D01*
X154213001Y-88459401D01*
X153893833Y-88277287D01*
X151171120Y-91000000D01*
X151185262Y-91014142D01*
X151014142Y-91185262D01*
X151000000Y-91171120D01*
X148277287Y-93893833D01*
X148459401Y-94213000D01*
X106540599Y-94213000D01*
X106722713Y-93893833D01*
X104000000Y-91171120D01*
X103985858Y-91185262D01*
X103814738Y-91014142D01*
X103828880Y-91000000D01*
X104171120Y-91000000D01*
X106893833Y-93722713D01*
X107487284Y-93384095D01*
X107588213Y-93200000D01*
X119191142Y-93200000D01*
X119210527Y-93396818D01*
X119267937Y-93586073D01*
X119361165Y-93760491D01*
X119486630Y-93913370D01*
X119639509Y-94038835D01*
X119813927Y-94132063D01*
X120003182Y-94189473D01*
X120200000Y-94208858D01*
X120628000Y-94204000D01*
X120879000Y-93953000D01*
X120879000Y-92121000D01*
X119447000Y-92121000D01*
X119196000Y-92372000D01*
X119191142Y-93200000D01*
X107588213Y-93200000D01*
X107885391Y-92657950D01*
X108134184Y-91868092D01*
X108224102Y-91044872D01*
X108151692Y-90219929D01*
X107919734Y-89424963D01*
X107537143Y-88690524D01*
X107487284Y-88615905D01*
X106893833Y-88277287D01*
X104171120Y-91000000D01*
X103828880Y-91000000D01*
X101106167Y-88277287D01*
X100787000Y-88459401D01*
X100787000Y-88106167D01*
X101277287Y-88106167D01*
X104000000Y-90828880D01*
X106722713Y-88106167D01*
X106384095Y-87512716D01*
X105657950Y-87114609D01*
X104868092Y-86865816D01*
X104044872Y-86775898D01*
X103219929Y-86848308D01*
X102424963Y-87080266D01*
X101690524Y-87462857D01*
X101615905Y-87512716D01*
X101277287Y-88106167D01*
X100787000Y-88106167D01*
X100787000Y-86199834D01*
X101101316Y-86367840D01*
X101480579Y-86482888D01*
X101776159Y-86512000D01*
X103223841Y-86512000D01*
X103519421Y-86482888D01*
X103898684Y-86367840D01*
X104248216Y-86181011D01*
X104554583Y-85929583D01*
X104806011Y-85623216D01*
X104992840Y-85273684D01*
X105107888Y-84894421D01*
X105146735Y-84500000D01*
X105107888Y-84105579D01*
X104992840Y-83726316D01*
X104830955Y-83423452D01*
X105867407Y-82387000D01*
X107054752Y-82387000D01*
X106982655Y-82561057D01*
X106938000Y-82785553D01*
X106938000Y-83014447D01*
X106982655Y-83238943D01*
X107070249Y-83450413D01*
X107197416Y-83640732D01*
X107359268Y-83802584D01*
X107549587Y-83929751D01*
X107761057Y-84017345D01*
X107985553Y-84062000D01*
X108214447Y-84062000D01*
X108438943Y-84017345D01*
X108650413Y-83929751D01*
X108714394Y-83887000D01*
X111290065Y-83887000D01*
X111207151Y-83912000D01*
X110868749Y-84092151D01*
X110571995Y-84334859D01*
X110328293Y-84630797D01*
X110147009Y-84968593D01*
X110042715Y-85295012D01*
X110251298Y-85599000D01*
X111879000Y-85599000D01*
X111879000Y-85579000D01*
X112121000Y-85579000D01*
X112121000Y-85599000D01*
X113748702Y-85599000D01*
X113957285Y-85295012D01*
X113852991Y-84968593D01*
X113671707Y-84630797D01*
X113428005Y-84334859D01*
X113131251Y-84092151D01*
X112792849Y-83912000D01*
X112709935Y-83887000D01*
X118032593Y-83887000D01*
X118424486Y-84278893D01*
X118452261Y-84312737D01*
X118587324Y-84423580D01*
X118741417Y-84505945D01*
X118908617Y-84556664D01*
X119038932Y-84569499D01*
X119038941Y-84569499D01*
X119082498Y-84573789D01*
X119126055Y-84569499D01*
X119438000Y-84569499D01*
X119438000Y-84856726D01*
X119460602Y-85086205D01*
X119549918Y-85380643D01*
X119694961Y-85651999D01*
X119890157Y-85889844D01*
X120128002Y-86085039D01*
X120399358Y-86230082D01*
X120693796Y-86319398D01*
X121000000Y-86349557D01*
X121306205Y-86319398D01*
X121596831Y-86231238D01*
X122961990Y-87596397D01*
X125507096Y-90141504D01*
X125483169Y-90148762D01*
X122913013Y-87578606D01*
X122885238Y-87544762D01*
X122750175Y-87433919D01*
X122596082Y-87351554D01*
X122428882Y-87300835D01*
X122298567Y-87288000D01*
X122255000Y-87283709D01*
X122211433Y-87288000D01*
X120468556Y-87288000D01*
X120424999Y-87283710D01*
X120381442Y-87288000D01*
X120381433Y-87288000D01*
X120251118Y-87300835D01*
X120083918Y-87351554D01*
X119929825Y-87433919D01*
X119794762Y-87544762D01*
X119766987Y-87578606D01*
X118257593Y-89088000D01*
X117344184Y-89088000D01*
X116465686Y-88209502D01*
X116465686Y-87912499D01*
X116446170Y-87714349D01*
X116388372Y-87523813D01*
X116294512Y-87348215D01*
X116168199Y-87194301D01*
X116014285Y-87067988D01*
X115838687Y-86974128D01*
X115648151Y-86916330D01*
X115450001Y-86896814D01*
X115210075Y-86896814D01*
X115173882Y-86885835D01*
X115000000Y-86868709D01*
X114826119Y-86885835D01*
X114789926Y-86896814D01*
X114549999Y-86896814D01*
X114351849Y-86916330D01*
X114161313Y-86974128D01*
X113985715Y-87067988D01*
X113831801Y-87194301D01*
X113705488Y-87348215D01*
X113611628Y-87523813D01*
X113606712Y-87540018D01*
X113479952Y-87302866D01*
X113361992Y-87159132D01*
X113428005Y-87105141D01*
X113671707Y-86809203D01*
X113852991Y-86471407D01*
X113957285Y-86144988D01*
X113748702Y-85841000D01*
X112121000Y-85841000D01*
X112121000Y-85861000D01*
X111879000Y-85861000D01*
X111879000Y-85841000D01*
X110251298Y-85841000D01*
X110042715Y-86144988D01*
X110147009Y-86471407D01*
X110328293Y-86809203D01*
X110571995Y-87105141D01*
X110638008Y-87159132D01*
X110520048Y-87302866D01*
X110360845Y-87600715D01*
X110262808Y-87923899D01*
X110229705Y-88260000D01*
X110262808Y-88596101D01*
X110360845Y-88919285D01*
X110520048Y-89217134D01*
X110538927Y-89240138D01*
X110458578Y-89306078D01*
X110363355Y-89422108D01*
X110292598Y-89554485D01*
X110249026Y-89698122D01*
X110234314Y-89847500D01*
X110234314Y-91752500D01*
X110249026Y-91901878D01*
X110292598Y-92045515D01*
X110363355Y-92177892D01*
X110458578Y-92293922D01*
X110574608Y-92389145D01*
X110706985Y-92459902D01*
X110850622Y-92503474D01*
X111000000Y-92518186D01*
X112280234Y-92518186D01*
X112280946Y-92519054D01*
X112319558Y-92550742D01*
X112319559Y-92550743D01*
X112435043Y-92645519D01*
X112567203Y-92716159D01*
X112610851Y-92739489D01*
X112801613Y-92797357D01*
X112950289Y-92812000D01*
X112950292Y-92812000D01*
X113000000Y-92816896D01*
X113049708Y-92812000D01*
X115750299Y-92812000D01*
X115800000Y-92816895D01*
X115849701Y-92812000D01*
X115849711Y-92812000D01*
X115998387Y-92797357D01*
X116189149Y-92739489D01*
X116364957Y-92645518D01*
X116435584Y-92587556D01*
X116480441Y-92550743D01*
X116480442Y-92550742D01*
X116519054Y-92519054D01*
X116550742Y-92480442D01*
X117480442Y-91550742D01*
X117519054Y-91519054D01*
X117562826Y-91465718D01*
X117645519Y-91364957D01*
X117739489Y-91189149D01*
X117750067Y-91154278D01*
X117797357Y-90998386D01*
X117810790Y-90862000D01*
X118581433Y-90862000D01*
X118625000Y-90866291D01*
X118668567Y-90862000D01*
X118798882Y-90849165D01*
X118966082Y-90798446D01*
X119120175Y-90716081D01*
X119206375Y-90645339D01*
X119191142Y-90800000D01*
X119196000Y-91628000D01*
X119447000Y-91879000D01*
X120879000Y-91879000D01*
X120879000Y-90047000D01*
X120628000Y-89796000D01*
X120200000Y-89791142D01*
X120048326Y-89806081D01*
X120792407Y-89062000D01*
X121887593Y-89062000D01*
X122967096Y-90141503D01*
X122939357Y-90149918D01*
X122668369Y-90294764D01*
X122638835Y-90239509D01*
X122513370Y-90086630D01*
X122360491Y-89961165D01*
X122186073Y-89867937D01*
X121996818Y-89810527D01*
X121800000Y-89791142D01*
X121372000Y-89796000D01*
X121121000Y-90047000D01*
X121121000Y-91879000D01*
X121141000Y-91879000D01*
X121141000Y-92121000D01*
X121121000Y-92121000D01*
X121121000Y-93953000D01*
X121372000Y-94204000D01*
X121800000Y-94208858D01*
X121996818Y-94189473D01*
X122186073Y-94132063D01*
X122360491Y-94038835D01*
X122513370Y-93913370D01*
X122638835Y-93760491D01*
X122668370Y-93705235D01*
X122939358Y-93850082D01*
X123233796Y-93939398D01*
X123540000Y-93969557D01*
X123846205Y-93939398D01*
X124140643Y-93850082D01*
X124411999Y-93705039D01*
X124649844Y-93509844D01*
X124810000Y-93314694D01*
X124970157Y-93509844D01*
X125208002Y-93705039D01*
X125479358Y-93850082D01*
X125773796Y-93939398D01*
X126080000Y-93969557D01*
X126386205Y-93939398D01*
X126680643Y-93850082D01*
X126951999Y-93705039D01*
X127189844Y-93509844D01*
X127350000Y-93314694D01*
X127510157Y-93509844D01*
X127748002Y-93705039D01*
X128019358Y-93850082D01*
X128313796Y-93939398D01*
X128620000Y-93969557D01*
X128926205Y-93939398D01*
X129220643Y-93850082D01*
X129491999Y-93705039D01*
X129729844Y-93509844D01*
X129925039Y-93271999D01*
X130070082Y-93000643D01*
X130104555Y-92887000D01*
X132046576Y-92887000D01*
X132053830Y-92960651D01*
X132111628Y-93151187D01*
X132205488Y-93326785D01*
X132331801Y-93480699D01*
X132485715Y-93607012D01*
X132661313Y-93700872D01*
X132851849Y-93758670D01*
X133049999Y-93778186D01*
X133950001Y-93778186D01*
X134148151Y-93758670D01*
X134338687Y-93700872D01*
X134514285Y-93607012D01*
X134668199Y-93480699D01*
X134794512Y-93326785D01*
X134888372Y-93151187D01*
X134946170Y-92960651D01*
X134965686Y-92762501D01*
X134965686Y-92237499D01*
X134946170Y-92039349D01*
X134888372Y-91848813D01*
X134794512Y-91673215D01*
X134724168Y-91587500D01*
X134794512Y-91501785D01*
X134888372Y-91326187D01*
X134946170Y-91135651D01*
X134963949Y-90955128D01*
X146775898Y-90955128D01*
X146848308Y-91780071D01*
X147080266Y-92575037D01*
X147462857Y-93309476D01*
X147512716Y-93384095D01*
X148106167Y-93722713D01*
X150828880Y-91000000D01*
X148106167Y-88277287D01*
X147512716Y-88615905D01*
X147114609Y-89342050D01*
X146865816Y-90131908D01*
X146775898Y-90955128D01*
X134963949Y-90955128D01*
X134965686Y-90937501D01*
X134965686Y-90412499D01*
X134946170Y-90214349D01*
X134888372Y-90023813D01*
X134794512Y-89848215D01*
X134668199Y-89694301D01*
X134514285Y-89567988D01*
X134387000Y-89499952D01*
X134387000Y-88106167D01*
X148277287Y-88106167D01*
X151000000Y-90828880D01*
X153722713Y-88106167D01*
X153384095Y-87512716D01*
X152657950Y-87114609D01*
X151868092Y-86865816D01*
X151044872Y-86775898D01*
X150219929Y-86848308D01*
X149424963Y-87080266D01*
X148690524Y-87462857D01*
X148615905Y-87512716D01*
X148277287Y-88106167D01*
X134387000Y-88106167D01*
X134387000Y-87543567D01*
X134391291Y-87500000D01*
X134374165Y-87326118D01*
X134366496Y-87300836D01*
X134323446Y-87158918D01*
X134241081Y-87004825D01*
X134237121Y-87000000D01*
X134158010Y-86903602D01*
X134158008Y-86903600D01*
X134130238Y-86869762D01*
X134096401Y-86841993D01*
X132758013Y-85503606D01*
X132730238Y-85469762D01*
X132595175Y-85358919D01*
X132441082Y-85276554D01*
X132273882Y-85225835D01*
X132143567Y-85213000D01*
X132100000Y-85208709D01*
X132056433Y-85213000D01*
X130120935Y-85213000D01*
X130159398Y-85086205D01*
X130182000Y-84856725D01*
X130182000Y-83903274D01*
X130159398Y-83673795D01*
X130070082Y-83379357D01*
X129925039Y-83108001D01*
X129729844Y-82870156D01*
X129507000Y-82687273D01*
X129507000Y-82412164D01*
X129598725Y-82300396D01*
X129690275Y-82129119D01*
X129746650Y-81943273D01*
X129765686Y-81750000D01*
X129765686Y-81250000D01*
X129746650Y-81056727D01*
X129690275Y-80870881D01*
X129598725Y-80699604D01*
X129475521Y-80549479D01*
X129325396Y-80426275D01*
X129154119Y-80334725D01*
X128968273Y-80278350D01*
X128775000Y-80259314D01*
X128325000Y-80259314D01*
X128131727Y-80278350D01*
X128125223Y-80280323D01*
X128010491Y-80186165D01*
X127836073Y-80092937D01*
X127646818Y-80035527D01*
X127450000Y-80016142D01*
X127372000Y-80021000D01*
X127121000Y-80272000D01*
X127121000Y-81379000D01*
X127141000Y-81379000D01*
X127141000Y-81621000D01*
X127121000Y-81621000D01*
X127121000Y-81641000D01*
X126879000Y-81641000D01*
X126879000Y-81621000D01*
X126859000Y-81621000D01*
X126859000Y-81379000D01*
X126879000Y-81379000D01*
X126879000Y-80272000D01*
X126628000Y-80021000D01*
X126550000Y-80016142D01*
X126353182Y-80035527D01*
X126163927Y-80092937D01*
X125989509Y-80186165D01*
X125836630Y-80311630D01*
X125711165Y-80464509D01*
X125617937Y-80638927D01*
X125560527Y-80828182D01*
X125541142Y-81025000D01*
X125546000Y-81128000D01*
X125796998Y-81378998D01*
X125633406Y-81378998D01*
X124671002Y-80416595D01*
X124671002Y-80228002D01*
X124922000Y-80479000D01*
X125000000Y-80483858D01*
X125196818Y-80464473D01*
X125386073Y-80407063D01*
X125560491Y-80313835D01*
X125713370Y-80188370D01*
X125838835Y-80035491D01*
X125932063Y-79861073D01*
X125989473Y-79671818D01*
X126008858Y-79475000D01*
X126004000Y-79372000D01*
X125753000Y-79121000D01*
X124671000Y-79121000D01*
X124671000Y-79141000D01*
X124429000Y-79141000D01*
X124429000Y-79121000D01*
X124409000Y-79121000D01*
X124409000Y-78879000D01*
X124429000Y-78879000D01*
X124429000Y-77772000D01*
X124671000Y-77772000D01*
X124671000Y-78879000D01*
X125753000Y-78879000D01*
X126004000Y-78628000D01*
X126008858Y-78525000D01*
X125989473Y-78328182D01*
X125932063Y-78138927D01*
X125838835Y-77964509D01*
X125713370Y-77811630D01*
X125560491Y-77686165D01*
X125386073Y-77592937D01*
X125196818Y-77535527D01*
X125000000Y-77516142D01*
X124922000Y-77521000D01*
X124671000Y-77772000D01*
X124429000Y-77772000D01*
X124178000Y-77521000D01*
X124100000Y-77516142D01*
X123903182Y-77535527D01*
X123713927Y-77592937D01*
X123539509Y-77686165D01*
X123424777Y-77780323D01*
X123418273Y-77778350D01*
X123225000Y-77759314D01*
X122775000Y-77759314D01*
X122581727Y-77778350D01*
X122395881Y-77834725D01*
X122224604Y-77926275D01*
X122074479Y-78049479D01*
X121951275Y-78199604D01*
X121937723Y-78224957D01*
X121870029Y-78142471D01*
X121717063Y-78016935D01*
X121542544Y-77923653D01*
X121353181Y-77866210D01*
X121156250Y-77846814D01*
X120701222Y-77846814D01*
X118758013Y-75903606D01*
X118730238Y-75869762D01*
X118595175Y-75758919D01*
X118441082Y-75676554D01*
X118273882Y-75625835D01*
X118143567Y-75613000D01*
X118100000Y-75608709D01*
X118056433Y-75613000D01*
X111487932Y-75613000D01*
X111529751Y-75550413D01*
X111617345Y-75338943D01*
X111623578Y-75307606D01*
X112430447Y-74500738D01*
X112469054Y-74469054D01*
X112500738Y-74430447D01*
X112500743Y-74430442D01*
X112595518Y-74314958D01*
X112689488Y-74139150D01*
X112689489Y-74139149D01*
X112747357Y-73948387D01*
X112762000Y-73799711D01*
X112762000Y-73799701D01*
X112766895Y-73750000D01*
X112762000Y-73700299D01*
X112762000Y-73585771D01*
X112767063Y-73583065D01*
X112853656Y-73512000D01*
X114146344Y-73512000D01*
X114232937Y-73583065D01*
X114407456Y-73676347D01*
X114596819Y-73733790D01*
X114793750Y-73753186D01*
X115706250Y-73753186D01*
X115903181Y-73733790D01*
X116092544Y-73676347D01*
X116267063Y-73583065D01*
X116353656Y-73512000D01*
X117722501Y-73512000D01*
X117732937Y-73520565D01*
X117907456Y-73613847D01*
X118096819Y-73671290D01*
X118293750Y-73690686D01*
X119206250Y-73690686D01*
X119403181Y-73671290D01*
X119592544Y-73613847D01*
X119767063Y-73520565D01*
X119853656Y-73449500D01*
X121146344Y-73449500D01*
X121232937Y-73520565D01*
X121407456Y-73613847D01*
X121596819Y-73671290D01*
X121793750Y-73690686D01*
X122706250Y-73690686D01*
X122903181Y-73671290D01*
X123092544Y-73613847D01*
X123267063Y-73520565D01*
X123353656Y-73449500D01*
X124646344Y-73449500D01*
X124732937Y-73520565D01*
X124907456Y-73613847D01*
X125096819Y-73671290D01*
X125293750Y-73690686D01*
X126206250Y-73690686D01*
X126403181Y-73671290D01*
X126592544Y-73613847D01*
X126767063Y-73520565D01*
X126853656Y-73449500D01*
X128073382Y-73449500D01*
X128079971Y-73457529D01*
X128232937Y-73583065D01*
X128407456Y-73676347D01*
X128596819Y-73733790D01*
X128793750Y-73753186D01*
X129706250Y-73753186D01*
X129903181Y-73733790D01*
X130092544Y-73676347D01*
X130267063Y-73583065D01*
X130353656Y-73512000D01*
X131722501Y-73512000D01*
X131732937Y-73520565D01*
X131907456Y-73613847D01*
X132096819Y-73671290D01*
X132293750Y-73690686D01*
X133206250Y-73690686D01*
X133403181Y-73671290D01*
X133592544Y-73613847D01*
X133767063Y-73520565D01*
X133853656Y-73449500D01*
X135146344Y-73449500D01*
X135232937Y-73520565D01*
X135407456Y-73613847D01*
X135596819Y-73671290D01*
X135793750Y-73690686D01*
X136706250Y-73690686D01*
X136903181Y-73671290D01*
X137092544Y-73613847D01*
X137267063Y-73520565D01*
X137353656Y-73449500D01*
X138573382Y-73449500D01*
X138579971Y-73457529D01*
X138732937Y-73583065D01*
X138907456Y-73676347D01*
X139096819Y-73733790D01*
X139293750Y-73753186D01*
X140206250Y-73753186D01*
X140403181Y-73733790D01*
X140592544Y-73676347D01*
X140767063Y-73583065D01*
X140853656Y-73512000D01*
X142333843Y-73512000D01*
X142407456Y-73551347D01*
X142596819Y-73608790D01*
X142793750Y-73628186D01*
X143706250Y-73628186D01*
X143903181Y-73608790D01*
X144092544Y-73551347D01*
X144267063Y-73458065D01*
X144420029Y-73332529D01*
X144477911Y-73262000D01*
X145581433Y-73262000D01*
X145625000Y-73266291D01*
X145668567Y-73262000D01*
X145798882Y-73249165D01*
X145966082Y-73198446D01*
X146120175Y-73116081D01*
X146255238Y-73005238D01*
X146283013Y-72971394D01*
X148596400Y-70658008D01*
X148630238Y-70630238D01*
X148741081Y-70495175D01*
X148823446Y-70341082D01*
X148874165Y-70173882D01*
X148887000Y-70043567D01*
X148887000Y-70043558D01*
X148891290Y-70000001D01*
X148887000Y-69956444D01*
X148887000Y-61309227D01*
X148893015Y-61307402D01*
X149025392Y-61236645D01*
X149141422Y-61141422D01*
X149236645Y-61025392D01*
X149307402Y-60893015D01*
X149350974Y-60749378D01*
X149365686Y-60600000D01*
X149365686Y-59700000D01*
X149350974Y-59550622D01*
X149307402Y-59406985D01*
X149236645Y-59274608D01*
X149141422Y-59158578D01*
X149025392Y-59063355D01*
X148893015Y-58992598D01*
X148749378Y-58949026D01*
X148600000Y-58934314D01*
X147400000Y-58934314D01*
X147250622Y-58949026D01*
X147106985Y-58992598D01*
X146974608Y-59063355D01*
X146858578Y-59158578D01*
X146763355Y-59274608D01*
X146692598Y-59406985D01*
X146649026Y-59550622D01*
X146634314Y-59700000D01*
X146634314Y-60600000D01*
X146649026Y-60749378D01*
X146692598Y-60893015D01*
X146763355Y-61025392D01*
X146858578Y-61141422D01*
X146974608Y-61236645D01*
X147106985Y-61307402D01*
X147113000Y-61309227D01*
X147113001Y-69632591D01*
X145257593Y-71488000D01*
X144477911Y-71488000D01*
X144436466Y-71437500D01*
X144545565Y-71304563D01*
X144638847Y-71130044D01*
X144696290Y-70940681D01*
X144715686Y-70743750D01*
X144715686Y-70256250D01*
X144696290Y-70059319D01*
X144638847Y-69869956D01*
X144545565Y-69695437D01*
X144420029Y-69542471D01*
X144267063Y-69416935D01*
X144262000Y-69414229D01*
X144262000Y-69085771D01*
X144267063Y-69083065D01*
X144420029Y-68957529D01*
X144545565Y-68804563D01*
X144638847Y-68630044D01*
X144696290Y-68440681D01*
X144715686Y-68243750D01*
X144715686Y-67756250D01*
X144696290Y-67559319D01*
X144638847Y-67369956D01*
X144545565Y-67195437D01*
X144436466Y-67062500D01*
X144545565Y-66929563D01*
X144638847Y-66755044D01*
X144696290Y-66565681D01*
X144715686Y-66368750D01*
X144715686Y-65881250D01*
X144696290Y-65684319D01*
X144638847Y-65494956D01*
X144545565Y-65320437D01*
X144420029Y-65167471D01*
X144267063Y-65041935D01*
X144262000Y-65039229D01*
X144262000Y-64523271D01*
X144267063Y-64520565D01*
X144420029Y-64395029D01*
X144545565Y-64242063D01*
X144638847Y-64067544D01*
X144696290Y-63878181D01*
X144715686Y-63681250D01*
X144715686Y-63193750D01*
X144696290Y-62996819D01*
X144638847Y-62807456D01*
X144545565Y-62632937D01*
X144436466Y-62500000D01*
X144545565Y-62367063D01*
X144638847Y-62192544D01*
X144696290Y-62003181D01*
X144715686Y-61806250D01*
X144715686Y-61318750D01*
X144696290Y-61121819D01*
X144638847Y-60932456D01*
X144545565Y-60757937D01*
X144420029Y-60604971D01*
X144267063Y-60479435D01*
X144262000Y-60476729D01*
X144262000Y-60085771D01*
X144267063Y-60083065D01*
X144420029Y-59957529D01*
X144545565Y-59804563D01*
X144638847Y-59630044D01*
X144696290Y-59440681D01*
X144715686Y-59243750D01*
X144715686Y-58756250D01*
X144696290Y-58559319D01*
X144638847Y-58369956D01*
X144545565Y-58195437D01*
X144436466Y-58062500D01*
X144545565Y-57929563D01*
X144638847Y-57755044D01*
X144696290Y-57565681D01*
X144715686Y-57368750D01*
X144715686Y-56881250D01*
X144696290Y-56684319D01*
X144638847Y-56494956D01*
X144545565Y-56320437D01*
X144420029Y-56167471D01*
X144267063Y-56041935D01*
X144262000Y-56039229D01*
X144262000Y-55585771D01*
X144267063Y-55583065D01*
X144420029Y-55457529D01*
X144545565Y-55304563D01*
X144638847Y-55130044D01*
X144696290Y-54940681D01*
X144715686Y-54743750D01*
X144715686Y-54256250D01*
X144696290Y-54059319D01*
X144638847Y-53869956D01*
X144545565Y-53695437D01*
X144436466Y-53562500D01*
X144545565Y-53429563D01*
X144638847Y-53255044D01*
X144696290Y-53065681D01*
X144715686Y-52868750D01*
X144715686Y-52381250D01*
X144696290Y-52184319D01*
X144638847Y-51994956D01*
X144545565Y-51820437D01*
X144420029Y-51667471D01*
X144267063Y-51541935D01*
X144262000Y-51539229D01*
X144262000Y-51023271D01*
X144267063Y-51020565D01*
X144420029Y-50895029D01*
X144545565Y-50742063D01*
X144638847Y-50567544D01*
X144696290Y-50378181D01*
X144715686Y-50181250D01*
X144715686Y-49693750D01*
X144696290Y-49496819D01*
X144638847Y-49307456D01*
X144545565Y-49132937D01*
X144436466Y-49000000D01*
X144545565Y-48867063D01*
X144638847Y-48692544D01*
X144696290Y-48503181D01*
X144715686Y-48306250D01*
X144715686Y-48027998D01*
X145680442Y-47063242D01*
X145719054Y-47031554D01*
X145845518Y-46877457D01*
X145939489Y-46701649D01*
X145997357Y-46510887D01*
X146012000Y-46362211D01*
X146012000Y-46362208D01*
X146016896Y-46312500D01*
X146012000Y-46262792D01*
X146012000Y-46213884D01*
X146013687Y-46213372D01*
X146113000Y-46160287D01*
X146113001Y-55806423D01*
X146108709Y-55850000D01*
X146125835Y-56023881D01*
X146176555Y-56191082D01*
X146258919Y-56345174D01*
X146303914Y-56400000D01*
X146369763Y-56480238D01*
X146403601Y-56508008D01*
X146634314Y-56738721D01*
X146634314Y-57300000D01*
X146649026Y-57449378D01*
X146692598Y-57593015D01*
X146763355Y-57725392D01*
X146858578Y-57841422D01*
X146974608Y-57936645D01*
X147106985Y-58007402D01*
X147250622Y-58050974D01*
X147400000Y-58065686D01*
X148600000Y-58065686D01*
X148749378Y-58050974D01*
X148893015Y-58007402D01*
X149025392Y-57936645D01*
X149141422Y-57841422D01*
X149236645Y-57725392D01*
X149307402Y-57593015D01*
X149350974Y-57449378D01*
X149365686Y-57300000D01*
X149365686Y-56400000D01*
X149350974Y-56250622D01*
X149307402Y-56106985D01*
X149236645Y-55974608D01*
X149141422Y-55858578D01*
X149025392Y-55763355D01*
X148893015Y-55692598D01*
X148749378Y-55649026D01*
X148600000Y-55634314D01*
X148038721Y-55634314D01*
X147887000Y-55482593D01*
X147887000Y-46893833D01*
X148277287Y-46893833D01*
X148615905Y-47487284D01*
X149342050Y-47885391D01*
X150131908Y-48134184D01*
X150955128Y-48224102D01*
X151780071Y-48151692D01*
X152575037Y-47919734D01*
X153309476Y-47537143D01*
X153384095Y-47487284D01*
X153722713Y-46893833D01*
X151000000Y-44171120D01*
X148277287Y-46893833D01*
X147887000Y-46893833D01*
X147887000Y-46597658D01*
X148106167Y-46722713D01*
X150828880Y-44000000D01*
X148106167Y-41277287D01*
X147512716Y-41615905D01*
X147285235Y-42030828D01*
X147009313Y-41754906D01*
X146976989Y-41648351D01*
X146883018Y-41472543D01*
X146756554Y-41318446D01*
X146602457Y-41191982D01*
X146426649Y-41098011D01*
X146415203Y-41094539D01*
X146343199Y-41006801D01*
X146189285Y-40880488D01*
X146014383Y-40787000D01*
X148459401Y-40787000D01*
X148277287Y-41106167D01*
G37*
G04 #@! TD.AperFunction*
D25*
X115121000Y-89879000D02*
X115141000Y-89879000D01*
X115141000Y-90121000D01*
X115121000Y-90121000D01*
X115121000Y-90141000D01*
X114879000Y-90141000D01*
X114879000Y-90121000D01*
X114859000Y-90121000D01*
X114859000Y-89879000D01*
X114879000Y-89879000D01*
X114879000Y-89859000D01*
X115121000Y-89859000D01*
X115121000Y-89879000D01*
G04 #@! TA.AperFunction,Conductor*
D26*
G36*
X115121000Y-89879000D02*
G01*
X115141000Y-89879000D01*
X115141000Y-90121000D01*
X115121000Y-90121000D01*
X115121000Y-90141000D01*
X114879000Y-90141000D01*
X114879000Y-90121000D01*
X114859000Y-90121000D01*
X114859000Y-89879000D01*
X114879000Y-89879000D01*
X114879000Y-89859000D01*
X115121000Y-89859000D01*
X115121000Y-89879000D01*
G37*
G04 #@! TD.AperFunction*
D25*
X103254567Y-82491026D02*
X103223841Y-82488000D01*
X101776159Y-82488000D01*
X101480579Y-82517112D01*
X101101316Y-82632160D01*
X100787000Y-82800166D01*
X100787000Y-81199834D01*
X101101316Y-81367840D01*
X101480579Y-81482888D01*
X101776159Y-81512000D01*
X103223841Y-81512000D01*
X103519421Y-81482888D01*
X103898684Y-81367840D01*
X104248216Y-81181011D01*
X104484620Y-80987000D01*
X104758593Y-80987000D01*
X103254567Y-82491026D01*
G04 #@! TA.AperFunction,Conductor*
D26*
G36*
X103254567Y-82491026D02*
G01*
X103223841Y-82488000D01*
X101776159Y-82488000D01*
X101480579Y-82517112D01*
X101101316Y-82632160D01*
X100787000Y-82800166D01*
X100787000Y-81199834D01*
X101101316Y-81367840D01*
X101480579Y-81482888D01*
X101776159Y-81512000D01*
X103223841Y-81512000D01*
X103519421Y-81482888D01*
X103898684Y-81367840D01*
X104248216Y-81181011D01*
X104484620Y-80987000D01*
X104758593Y-80987000D01*
X103254567Y-82491026D01*
G37*
G04 #@! TD.AperFunction*
D25*
X101101316Y-76367840D02*
X101480579Y-76482888D01*
X101776159Y-76512000D01*
X103223841Y-76512000D01*
X103254566Y-76508974D01*
X103841989Y-77096397D01*
X103869762Y-77130238D01*
X104004825Y-77241081D01*
X104158918Y-77323446D01*
X104326118Y-77374165D01*
X104456433Y-77387000D01*
X104456435Y-77387000D01*
X104499999Y-77391291D01*
X104543563Y-77387000D01*
X115639312Y-77387000D01*
X115508918Y-77426554D01*
X115354825Y-77508919D01*
X115219762Y-77619762D01*
X115191987Y-77653606D01*
X114907593Y-77938000D01*
X114885553Y-77938000D01*
X114661057Y-77982655D01*
X114449587Y-78070249D01*
X114259268Y-78197416D01*
X114097416Y-78359268D01*
X113970249Y-78549587D01*
X113882655Y-78761057D01*
X113838000Y-78985553D01*
X113838000Y-79213000D01*
X105118468Y-79213000D01*
X105107888Y-79105579D01*
X104992840Y-78726316D01*
X104806011Y-78376784D01*
X104554583Y-78070417D01*
X104248216Y-77818989D01*
X103898684Y-77632160D01*
X103519421Y-77517112D01*
X103223841Y-77488000D01*
X101776159Y-77488000D01*
X101480579Y-77517112D01*
X101101316Y-77632160D01*
X100787000Y-77800166D01*
X100787000Y-76199834D01*
X101101316Y-76367840D01*
G04 #@! TA.AperFunction,Conductor*
D26*
G36*
X101101316Y-76367840D02*
G01*
X101480579Y-76482888D01*
X101776159Y-76512000D01*
X103223841Y-76512000D01*
X103254566Y-76508974D01*
X103841989Y-77096397D01*
X103869762Y-77130238D01*
X104004825Y-77241081D01*
X104158918Y-77323446D01*
X104326118Y-77374165D01*
X104456433Y-77387000D01*
X104456435Y-77387000D01*
X104499999Y-77391291D01*
X104543563Y-77387000D01*
X115639312Y-77387000D01*
X115508918Y-77426554D01*
X115354825Y-77508919D01*
X115219762Y-77619762D01*
X115191987Y-77653606D01*
X114907593Y-77938000D01*
X114885553Y-77938000D01*
X114661057Y-77982655D01*
X114449587Y-78070249D01*
X114259268Y-78197416D01*
X114097416Y-78359268D01*
X113970249Y-78549587D01*
X113882655Y-78761057D01*
X113838000Y-78985553D01*
X113838000Y-79213000D01*
X105118468Y-79213000D01*
X105107888Y-79105579D01*
X104992840Y-78726316D01*
X104806011Y-78376784D01*
X104554583Y-78070417D01*
X104248216Y-77818989D01*
X103898684Y-77632160D01*
X103519421Y-77517112D01*
X103223841Y-77488000D01*
X101776159Y-77488000D01*
X101480579Y-77517112D01*
X101101316Y-77632160D01*
X100787000Y-77800166D01*
X100787000Y-76199834D01*
X101101316Y-76367840D01*
G37*
G04 #@! TD.AperFunction*
D25*
X109280947Y-47094054D02*
X109319554Y-47125738D01*
X110284314Y-48090498D01*
X110284314Y-48368750D01*
X110303710Y-48565681D01*
X110361153Y-48755044D01*
X110454435Y-48929563D01*
X110563534Y-49062500D01*
X110454435Y-49195437D01*
X110361153Y-49369956D01*
X110303710Y-49559319D01*
X110284314Y-49756250D01*
X110284314Y-50243750D01*
X110303710Y-50440681D01*
X110361153Y-50630044D01*
X110454435Y-50804563D01*
X110579971Y-50957529D01*
X110732937Y-51083065D01*
X110738000Y-51085771D01*
X110738001Y-51476728D01*
X110732937Y-51479435D01*
X110579971Y-51604971D01*
X110454435Y-51757937D01*
X110361153Y-51932456D01*
X110303710Y-52121819D01*
X110284314Y-52318750D01*
X110284314Y-52806250D01*
X110303710Y-53003181D01*
X110361153Y-53192544D01*
X110454435Y-53367063D01*
X110563534Y-53500000D01*
X110454435Y-53632937D01*
X110361153Y-53807456D01*
X110303710Y-53996819D01*
X110284314Y-54193750D01*
X110284314Y-54681250D01*
X110303710Y-54878181D01*
X110361153Y-55067544D01*
X110454435Y-55242063D01*
X110579971Y-55395029D01*
X110732937Y-55520565D01*
X110738000Y-55523271D01*
X110738001Y-56039228D01*
X110732937Y-56041935D01*
X110579971Y-56167471D01*
X110454435Y-56320437D01*
X110361153Y-56494956D01*
X110303710Y-56684319D01*
X110284314Y-56881250D01*
X110284314Y-57368750D01*
X110303710Y-57565681D01*
X110361153Y-57755044D01*
X110454435Y-57929563D01*
X110563534Y-58062500D01*
X110454435Y-58195437D01*
X110361153Y-58369956D01*
X110303710Y-58559319D01*
X110284314Y-58756250D01*
X110284314Y-59243750D01*
X110303710Y-59440681D01*
X110361153Y-59630044D01*
X110454435Y-59804563D01*
X110579971Y-59957529D01*
X110732937Y-60083065D01*
X110738000Y-60085771D01*
X110738001Y-60505822D01*
X110670437Y-60541935D01*
X110517471Y-60667471D01*
X110391935Y-60820437D01*
X110298653Y-60994956D01*
X110241210Y-61184319D01*
X110221814Y-61381250D01*
X110221814Y-61868750D01*
X110241210Y-62065681D01*
X110298653Y-62255044D01*
X110391935Y-62429563D01*
X110501034Y-62562500D01*
X110391935Y-62695437D01*
X110298653Y-62869956D01*
X110241210Y-63059319D01*
X110221814Y-63256250D01*
X110221814Y-63743750D01*
X110241210Y-63940681D01*
X110298653Y-64130044D01*
X110391935Y-64304563D01*
X110517471Y-64457529D01*
X110670437Y-64583065D01*
X110675500Y-64585771D01*
X110675501Y-65089072D01*
X110579971Y-65167471D01*
X110454435Y-65320437D01*
X110361153Y-65494956D01*
X110303710Y-65684319D01*
X110284314Y-65881250D01*
X110284314Y-66368750D01*
X110303710Y-66565681D01*
X110361153Y-66755044D01*
X110454435Y-66929563D01*
X110563534Y-67062500D01*
X110454435Y-67195437D01*
X110361153Y-67369956D01*
X110303710Y-67559319D01*
X110284314Y-67756250D01*
X110284314Y-68243750D01*
X110303710Y-68440681D01*
X110361153Y-68630044D01*
X110454435Y-68804563D01*
X110579971Y-68957529D01*
X110732937Y-69083065D01*
X110738000Y-69085771D01*
X110738001Y-69539228D01*
X110732937Y-69541935D01*
X110579971Y-69667471D01*
X110454435Y-69820437D01*
X110361153Y-69994956D01*
X110303710Y-70184319D01*
X110284314Y-70381250D01*
X110284314Y-70868750D01*
X110303710Y-71065681D01*
X110361153Y-71255044D01*
X110454435Y-71429563D01*
X110563534Y-71562500D01*
X110454435Y-71695437D01*
X110361153Y-71869956D01*
X110303710Y-72059319D01*
X110284314Y-72256250D01*
X110284314Y-72743750D01*
X110303710Y-72940681D01*
X110361153Y-73130044D01*
X110454435Y-73304563D01*
X110579971Y-73457529D01*
X110597171Y-73471645D01*
X110192394Y-73876422D01*
X110161057Y-73882655D01*
X109949587Y-73970249D01*
X109759268Y-74097416D01*
X109597416Y-74259268D01*
X109470249Y-74449587D01*
X109382655Y-74661057D01*
X109338000Y-74885553D01*
X109338000Y-75114447D01*
X109382655Y-75338943D01*
X109470249Y-75550413D01*
X109512068Y-75613000D01*
X108445248Y-75613000D01*
X108517345Y-75438943D01*
X108562000Y-75214447D01*
X108562000Y-74985553D01*
X108517345Y-74761057D01*
X108429751Y-74549587D01*
X108302584Y-74359268D01*
X108287000Y-74343684D01*
X108287000Y-72443556D01*
X108291290Y-72399999D01*
X108287000Y-72356442D01*
X108287000Y-72356433D01*
X108274165Y-72226118D01*
X108223446Y-72058918D01*
X108141081Y-71904825D01*
X108030238Y-71769762D01*
X107996400Y-71741992D01*
X105387000Y-69132593D01*
X105387000Y-64203563D01*
X105391291Y-64159999D01*
X105387000Y-64116433D01*
X105374165Y-63986118D01*
X105323446Y-63818918D01*
X105241081Y-63664825D01*
X105130238Y-63529762D01*
X105096400Y-63501992D01*
X104155382Y-62560974D01*
X104201800Y-62327613D01*
X104201800Y-61992387D01*
X104184711Y-61906473D01*
X108930447Y-57160738D01*
X108969054Y-57129054D01*
X109000738Y-57090447D01*
X109000743Y-57090442D01*
X109095518Y-56974958D01*
X109161909Y-56850747D01*
X109189489Y-56799149D01*
X109247357Y-56608387D01*
X109262000Y-56459711D01*
X109262000Y-56459701D01*
X109266895Y-56410000D01*
X109262000Y-56360299D01*
X109262000Y-47070967D01*
X109280947Y-47094054D01*
G04 #@! TA.AperFunction,Conductor*
D26*
G36*
X109280947Y-47094054D02*
G01*
X109319554Y-47125738D01*
X110284314Y-48090498D01*
X110284314Y-48368750D01*
X110303710Y-48565681D01*
X110361153Y-48755044D01*
X110454435Y-48929563D01*
X110563534Y-49062500D01*
X110454435Y-49195437D01*
X110361153Y-49369956D01*
X110303710Y-49559319D01*
X110284314Y-49756250D01*
X110284314Y-50243750D01*
X110303710Y-50440681D01*
X110361153Y-50630044D01*
X110454435Y-50804563D01*
X110579971Y-50957529D01*
X110732937Y-51083065D01*
X110738000Y-51085771D01*
X110738001Y-51476728D01*
X110732937Y-51479435D01*
X110579971Y-51604971D01*
X110454435Y-51757937D01*
X110361153Y-51932456D01*
X110303710Y-52121819D01*
X110284314Y-52318750D01*
X110284314Y-52806250D01*
X110303710Y-53003181D01*
X110361153Y-53192544D01*
X110454435Y-53367063D01*
X110563534Y-53500000D01*
X110454435Y-53632937D01*
X110361153Y-53807456D01*
X110303710Y-53996819D01*
X110284314Y-54193750D01*
X110284314Y-54681250D01*
X110303710Y-54878181D01*
X110361153Y-55067544D01*
X110454435Y-55242063D01*
X110579971Y-55395029D01*
X110732937Y-55520565D01*
X110738000Y-55523271D01*
X110738001Y-56039228D01*
X110732937Y-56041935D01*
X110579971Y-56167471D01*
X110454435Y-56320437D01*
X110361153Y-56494956D01*
X110303710Y-56684319D01*
X110284314Y-56881250D01*
X110284314Y-57368750D01*
X110303710Y-57565681D01*
X110361153Y-57755044D01*
X110454435Y-57929563D01*
X110563534Y-58062500D01*
X110454435Y-58195437D01*
X110361153Y-58369956D01*
X110303710Y-58559319D01*
X110284314Y-58756250D01*
X110284314Y-59243750D01*
X110303710Y-59440681D01*
X110361153Y-59630044D01*
X110454435Y-59804563D01*
X110579971Y-59957529D01*
X110732937Y-60083065D01*
X110738000Y-60085771D01*
X110738001Y-60505822D01*
X110670437Y-60541935D01*
X110517471Y-60667471D01*
X110391935Y-60820437D01*
X110298653Y-60994956D01*
X110241210Y-61184319D01*
X110221814Y-61381250D01*
X110221814Y-61868750D01*
X110241210Y-62065681D01*
X110298653Y-62255044D01*
X110391935Y-62429563D01*
X110501034Y-62562500D01*
X110391935Y-62695437D01*
X110298653Y-62869956D01*
X110241210Y-63059319D01*
X110221814Y-63256250D01*
X110221814Y-63743750D01*
X110241210Y-63940681D01*
X110298653Y-64130044D01*
X110391935Y-64304563D01*
X110517471Y-64457529D01*
X110670437Y-64583065D01*
X110675500Y-64585771D01*
X110675501Y-65089072D01*
X110579971Y-65167471D01*
X110454435Y-65320437D01*
X110361153Y-65494956D01*
X110303710Y-65684319D01*
X110284314Y-65881250D01*
X110284314Y-66368750D01*
X110303710Y-66565681D01*
X110361153Y-66755044D01*
X110454435Y-66929563D01*
X110563534Y-67062500D01*
X110454435Y-67195437D01*
X110361153Y-67369956D01*
X110303710Y-67559319D01*
X110284314Y-67756250D01*
X110284314Y-68243750D01*
X110303710Y-68440681D01*
X110361153Y-68630044D01*
X110454435Y-68804563D01*
X110579971Y-68957529D01*
X110732937Y-69083065D01*
X110738000Y-69085771D01*
X110738001Y-69539228D01*
X110732937Y-69541935D01*
X110579971Y-69667471D01*
X110454435Y-69820437D01*
X110361153Y-69994956D01*
X110303710Y-70184319D01*
X110284314Y-70381250D01*
X110284314Y-70868750D01*
X110303710Y-71065681D01*
X110361153Y-71255044D01*
X110454435Y-71429563D01*
X110563534Y-71562500D01*
X110454435Y-71695437D01*
X110361153Y-71869956D01*
X110303710Y-72059319D01*
X110284314Y-72256250D01*
X110284314Y-72743750D01*
X110303710Y-72940681D01*
X110361153Y-73130044D01*
X110454435Y-73304563D01*
X110579971Y-73457529D01*
X110597171Y-73471645D01*
X110192394Y-73876422D01*
X110161057Y-73882655D01*
X109949587Y-73970249D01*
X109759268Y-74097416D01*
X109597416Y-74259268D01*
X109470249Y-74449587D01*
X109382655Y-74661057D01*
X109338000Y-74885553D01*
X109338000Y-75114447D01*
X109382655Y-75338943D01*
X109470249Y-75550413D01*
X109512068Y-75613000D01*
X108445248Y-75613000D01*
X108517345Y-75438943D01*
X108562000Y-75214447D01*
X108562000Y-74985553D01*
X108517345Y-74761057D01*
X108429751Y-74549587D01*
X108302584Y-74359268D01*
X108287000Y-74343684D01*
X108287000Y-72443556D01*
X108291290Y-72399999D01*
X108287000Y-72356442D01*
X108287000Y-72356433D01*
X108274165Y-72226118D01*
X108223446Y-72058918D01*
X108141081Y-71904825D01*
X108030238Y-71769762D01*
X107996400Y-71741992D01*
X105387000Y-69132593D01*
X105387000Y-64203563D01*
X105391291Y-64159999D01*
X105387000Y-64116433D01*
X105374165Y-63986118D01*
X105323446Y-63818918D01*
X105241081Y-63664825D01*
X105130238Y-63529762D01*
X105096400Y-63501992D01*
X104155382Y-62560974D01*
X104201800Y-62327613D01*
X104201800Y-61992387D01*
X104184711Y-61906473D01*
X108930447Y-57160738D01*
X108969054Y-57129054D01*
X109000738Y-57090447D01*
X109000743Y-57090442D01*
X109095518Y-56974958D01*
X109161909Y-56850747D01*
X109189489Y-56799149D01*
X109247357Y-56608387D01*
X109262000Y-56459711D01*
X109262000Y-56459701D01*
X109266895Y-56410000D01*
X109262000Y-56360299D01*
X109262000Y-47070967D01*
X109280947Y-47094054D01*
G37*
G04 #@! TD.AperFunction*
D25*
X100815289Y-64446473D02*
X100798200Y-64532387D01*
X100798200Y-64867613D01*
X100863599Y-65196397D01*
X100991885Y-65506104D01*
X101178126Y-65784834D01*
X101363292Y-65970000D01*
X101178126Y-66155166D01*
X100991885Y-66433896D01*
X100863599Y-66743603D01*
X100798200Y-67072387D01*
X100798200Y-67407613D01*
X100863599Y-67736397D01*
X100991885Y-68046104D01*
X101178126Y-68324834D01*
X101415166Y-68561874D01*
X101693896Y-68748115D01*
X102003603Y-68876401D01*
X102332387Y-68941800D01*
X102667613Y-68941800D01*
X102996397Y-68876401D01*
X103306104Y-68748115D01*
X103584834Y-68561874D01*
X103613000Y-68533708D01*
X103613000Y-69456433D01*
X103608709Y-69500000D01*
X103613000Y-69543566D01*
X103625835Y-69673881D01*
X103676554Y-69841081D01*
X103758919Y-69995174D01*
X103869762Y-70130238D01*
X103903606Y-70158013D01*
X106513001Y-72767409D01*
X106513000Y-74343684D01*
X106497416Y-74359268D01*
X106370249Y-74549587D01*
X106282655Y-74761057D01*
X106238000Y-74985553D01*
X106238000Y-75214447D01*
X106282655Y-75438943D01*
X106354752Y-75613000D01*
X104867408Y-75613000D01*
X104830956Y-75576548D01*
X104992840Y-75273684D01*
X105107888Y-74894421D01*
X105146735Y-74500000D01*
X105107888Y-74105579D01*
X104992840Y-73726316D01*
X104806011Y-73376784D01*
X104554583Y-73070417D01*
X104248216Y-72818989D01*
X103898684Y-72632160D01*
X103519421Y-72517112D01*
X103223841Y-72488000D01*
X101776159Y-72488000D01*
X101480579Y-72517112D01*
X101101316Y-72632160D01*
X100787000Y-72800166D01*
X100787000Y-64418184D01*
X100815289Y-64446473D01*
G04 #@! TA.AperFunction,Conductor*
D26*
G36*
X100815289Y-64446473D02*
G01*
X100798200Y-64532387D01*
X100798200Y-64867613D01*
X100863599Y-65196397D01*
X100991885Y-65506104D01*
X101178126Y-65784834D01*
X101363292Y-65970000D01*
X101178126Y-66155166D01*
X100991885Y-66433896D01*
X100863599Y-66743603D01*
X100798200Y-67072387D01*
X100798200Y-67407613D01*
X100863599Y-67736397D01*
X100991885Y-68046104D01*
X101178126Y-68324834D01*
X101415166Y-68561874D01*
X101693896Y-68748115D01*
X102003603Y-68876401D01*
X102332387Y-68941800D01*
X102667613Y-68941800D01*
X102996397Y-68876401D01*
X103306104Y-68748115D01*
X103584834Y-68561874D01*
X103613000Y-68533708D01*
X103613000Y-69456433D01*
X103608709Y-69500000D01*
X103613000Y-69543566D01*
X103625835Y-69673881D01*
X103676554Y-69841081D01*
X103758919Y-69995174D01*
X103869762Y-70130238D01*
X103903606Y-70158013D01*
X106513001Y-72767409D01*
X106513000Y-74343684D01*
X106497416Y-74359268D01*
X106370249Y-74549587D01*
X106282655Y-74761057D01*
X106238000Y-74985553D01*
X106238000Y-75214447D01*
X106282655Y-75438943D01*
X106354752Y-75613000D01*
X104867408Y-75613000D01*
X104830956Y-75576548D01*
X104992840Y-75273684D01*
X105107888Y-74894421D01*
X105146735Y-74500000D01*
X105107888Y-74105579D01*
X104992840Y-73726316D01*
X104806011Y-73376784D01*
X104554583Y-73070417D01*
X104248216Y-72818989D01*
X103898684Y-72632160D01*
X103519421Y-72517112D01*
X103223841Y-72488000D01*
X101776159Y-72488000D01*
X101480579Y-72517112D01*
X101101316Y-72632160D01*
X100787000Y-72800166D01*
X100787000Y-64418184D01*
X100815289Y-64446473D01*
G37*
G04 #@! TD.AperFunction*
D25*
X108810715Y-40880488D02*
X108656801Y-41006801D01*
X108530488Y-41160715D01*
X108436628Y-41336313D01*
X108378830Y-41526849D01*
X108359314Y-41724999D01*
X108359314Y-42247002D01*
X108108605Y-42497711D01*
X108072533Y-42516992D01*
X107970919Y-42600384D01*
X107919734Y-42424963D01*
X107537143Y-41690524D01*
X107487284Y-41615905D01*
X106893833Y-41277287D01*
X104171120Y-44000000D01*
X106893833Y-46722713D01*
X107238000Y-46526334D01*
X107238001Y-55990814D01*
X102753527Y-60475289D01*
X102667613Y-60458200D01*
X102332387Y-60458200D01*
X102122199Y-60500009D01*
X102122199Y-57988985D01*
X102280740Y-57830444D01*
X102340199Y-57855073D01*
X102777212Y-57942000D01*
X103222788Y-57942000D01*
X103659801Y-57855073D01*
X104071459Y-57684559D01*
X104441941Y-57437010D01*
X104757010Y-57121941D01*
X105004559Y-56751459D01*
X105175073Y-56339801D01*
X105262000Y-55902788D01*
X105262000Y-55457212D01*
X105175073Y-55020199D01*
X105004559Y-54608541D01*
X104757010Y-54238059D01*
X104441941Y-53922990D01*
X104071459Y-53675441D01*
X103659801Y-53504927D01*
X103222788Y-53418000D01*
X102777212Y-53418000D01*
X102340199Y-53504927D01*
X101928541Y-53675441D01*
X101558059Y-53922990D01*
X101242990Y-54238059D01*
X100995441Y-54608541D01*
X100824927Y-55020199D01*
X100787000Y-55210872D01*
X100787000Y-52813674D01*
X100939509Y-52938835D01*
X101113927Y-53032063D01*
X101303182Y-53089473D01*
X101500000Y-53108858D01*
X102628000Y-53104000D01*
X102879000Y-52853000D01*
X102879000Y-50721000D01*
X103121000Y-50721000D01*
X103121000Y-52853000D01*
X103372000Y-53104000D01*
X104500000Y-53108858D01*
X104696818Y-53089473D01*
X104886073Y-53032063D01*
X105060491Y-52938835D01*
X105213370Y-52813370D01*
X105338835Y-52660491D01*
X105432063Y-52486073D01*
X105489473Y-52296818D01*
X105508858Y-52100000D01*
X105504000Y-50972000D01*
X105253000Y-50721000D01*
X103121000Y-50721000D01*
X102879000Y-50721000D01*
X102859000Y-50721000D01*
X102859000Y-50479000D01*
X102879000Y-50479000D01*
X102879000Y-48347000D01*
X102628000Y-48096000D01*
X101500000Y-48091142D01*
X101303182Y-48110527D01*
X101113927Y-48167937D01*
X100939509Y-48261165D01*
X100787000Y-48386326D01*
X100787000Y-46893833D01*
X101277287Y-46893833D01*
X101615905Y-47487284D01*
X102342050Y-47885391D01*
X103131908Y-48134184D01*
X103313934Y-48154066D01*
X103121000Y-48347000D01*
X103121000Y-50479000D01*
X105253000Y-50479000D01*
X105504000Y-50228000D01*
X105508858Y-49100000D01*
X105489473Y-48903182D01*
X105432063Y-48713927D01*
X105338835Y-48539509D01*
X105213370Y-48386630D01*
X105060491Y-48261165D01*
X104886073Y-48167937D01*
X104806805Y-48143891D01*
X105575037Y-47919734D01*
X106309476Y-47537143D01*
X106384095Y-47487284D01*
X106722713Y-46893833D01*
X104000000Y-44171120D01*
X101277287Y-46893833D01*
X100787000Y-46893833D01*
X100787000Y-46540599D01*
X101106167Y-46722713D01*
X103828880Y-44000000D01*
X103814738Y-43985858D01*
X103985858Y-43814738D01*
X104000000Y-43828880D01*
X106722713Y-41106167D01*
X106540599Y-40787000D01*
X108985617Y-40787000D01*
X108810715Y-40880488D01*
G04 #@! TA.AperFunction,Conductor*
D26*
G36*
X108810715Y-40880488D02*
G01*
X108656801Y-41006801D01*
X108530488Y-41160715D01*
X108436628Y-41336313D01*
X108378830Y-41526849D01*
X108359314Y-41724999D01*
X108359314Y-42247002D01*
X108108605Y-42497711D01*
X108072533Y-42516992D01*
X107970919Y-42600384D01*
X107919734Y-42424963D01*
X107537143Y-41690524D01*
X107487284Y-41615905D01*
X106893833Y-41277287D01*
X104171120Y-44000000D01*
X106893833Y-46722713D01*
X107238000Y-46526334D01*
X107238001Y-55990814D01*
X102753527Y-60475289D01*
X102667613Y-60458200D01*
X102332387Y-60458200D01*
X102122199Y-60500009D01*
X102122199Y-57988985D01*
X102280740Y-57830444D01*
X102340199Y-57855073D01*
X102777212Y-57942000D01*
X103222788Y-57942000D01*
X103659801Y-57855073D01*
X104071459Y-57684559D01*
X104441941Y-57437010D01*
X104757010Y-57121941D01*
X105004559Y-56751459D01*
X105175073Y-56339801D01*
X105262000Y-55902788D01*
X105262000Y-55457212D01*
X105175073Y-55020199D01*
X105004559Y-54608541D01*
X104757010Y-54238059D01*
X104441941Y-53922990D01*
X104071459Y-53675441D01*
X103659801Y-53504927D01*
X103222788Y-53418000D01*
X102777212Y-53418000D01*
X102340199Y-53504927D01*
X101928541Y-53675441D01*
X101558059Y-53922990D01*
X101242990Y-54238059D01*
X100995441Y-54608541D01*
X100824927Y-55020199D01*
X100787000Y-55210872D01*
X100787000Y-52813674D01*
X100939509Y-52938835D01*
X101113927Y-53032063D01*
X101303182Y-53089473D01*
X101500000Y-53108858D01*
X102628000Y-53104000D01*
X102879000Y-52853000D01*
X102879000Y-50721000D01*
X103121000Y-50721000D01*
X103121000Y-52853000D01*
X103372000Y-53104000D01*
X104500000Y-53108858D01*
X104696818Y-53089473D01*
X104886073Y-53032063D01*
X105060491Y-52938835D01*
X105213370Y-52813370D01*
X105338835Y-52660491D01*
X105432063Y-52486073D01*
X105489473Y-52296818D01*
X105508858Y-52100000D01*
X105504000Y-50972000D01*
X105253000Y-50721000D01*
X103121000Y-50721000D01*
X102879000Y-50721000D01*
X102859000Y-50721000D01*
X102859000Y-50479000D01*
X102879000Y-50479000D01*
X102879000Y-48347000D01*
X102628000Y-48096000D01*
X101500000Y-48091142D01*
X101303182Y-48110527D01*
X101113927Y-48167937D01*
X100939509Y-48261165D01*
X100787000Y-48386326D01*
X100787000Y-46893833D01*
X101277287Y-46893833D01*
X101615905Y-47487284D01*
X102342050Y-47885391D01*
X103131908Y-48134184D01*
X103313934Y-48154066D01*
X103121000Y-48347000D01*
X103121000Y-50479000D01*
X105253000Y-50479000D01*
X105504000Y-50228000D01*
X105508858Y-49100000D01*
X105489473Y-48903182D01*
X105432063Y-48713927D01*
X105338835Y-48539509D01*
X105213370Y-48386630D01*
X105060491Y-48261165D01*
X104886073Y-48167937D01*
X104806805Y-48143891D01*
X105575037Y-47919734D01*
X106309476Y-47537143D01*
X106384095Y-47487284D01*
X106722713Y-46893833D01*
X104000000Y-44171120D01*
X101277287Y-46893833D01*
X100787000Y-46893833D01*
X100787000Y-46540599D01*
X101106167Y-46722713D01*
X103828880Y-44000000D01*
X103814738Y-43985858D01*
X103985858Y-43814738D01*
X104000000Y-43828880D01*
X106722713Y-41106167D01*
X106540599Y-40787000D01*
X108985617Y-40787000D01*
X108810715Y-40880488D01*
G37*
G04 #@! TD.AperFunction*
M02*
