G04 #@! TF.GenerationSoftware,KiCad,Pcbnew,(5.1.7)-1*
G04 #@! TF.CreationDate,2020-11-08T23:09:12+01:00*
G04 #@! TF.ProjectId,Red Power LED Board 50x50,52656420-506f-4776-9572-204c45442042,rev?*
G04 #@! TF.SameCoordinates,Original*
G04 #@! TF.FileFunction,Copper,L2,Bot*
G04 #@! TF.FilePolarity,Positive*
%FSLAX46Y46*%
G04 Gerber Fmt 4.6, Leading zero omitted, Abs format (unit mm)*
G04 Created by KiCad (PCBNEW (5.1.7)-1) date 2020-11-08 23:09:12*
%MOMM*%
%LPD*%
G01*
G04 APERTURE LIST*
G04 #@! TA.AperFunction,ComponentPad*
%ADD10R,2.000000X1.905000*%
G04 #@! TD*
G04 #@! TA.AperFunction,ComponentPad*
%ADD11O,2.000000X1.905000*%
G04 #@! TD*
G04 #@! TA.AperFunction,ComponentPad*
%ADD12C,0.800000*%
G04 #@! TD*
G04 #@! TA.AperFunction,ComponentPad*
%ADD13C,6.400000*%
G04 #@! TD*
G04 #@! TA.AperFunction,ComponentPad*
%ADD14R,3.000000X3.000000*%
G04 #@! TD*
G04 #@! TA.AperFunction,ComponentPad*
%ADD15C,3.000000*%
G04 #@! TD*
G04 #@! TA.AperFunction,ComponentPad*
%ADD16O,3.750000X2.500000*%
G04 #@! TD*
G04 #@! TA.AperFunction,ComponentPad*
%ADD17C,1.879600*%
G04 #@! TD*
G04 #@! TA.AperFunction,ComponentPad*
%ADD18R,1.600000X2.400000*%
G04 #@! TD*
G04 #@! TA.AperFunction,ComponentPad*
%ADD19O,1.600000X2.400000*%
G04 #@! TD*
G04 #@! TA.AperFunction,ViaPad*
%ADD20C,0.800000*%
G04 #@! TD*
G04 #@! TA.AperFunction,Conductor*
%ADD21C,0.250000*%
G04 #@! TD*
G04 #@! TA.AperFunction,Conductor*
%ADD22C,0.500000*%
G04 #@! TD*
G04 #@! TA.AperFunction,Conductor*
%ADD23C,0.508000*%
G04 #@! TD*
G04 #@! TA.AperFunction,Conductor*
%ADD24C,0.100000*%
G04 #@! TD*
G04 APERTURE END LIST*
D10*
X112000000Y-90800000D03*
D11*
X112000000Y-88260000D03*
X112000000Y-85720000D03*
D12*
X152697056Y-89302944D03*
X151000000Y-88600000D03*
X149302944Y-89302944D03*
X148600000Y-91000000D03*
X149302944Y-92697056D03*
X151000000Y-93400000D03*
X152697056Y-92697056D03*
X153400000Y-91000000D03*
D13*
X151000000Y-91000000D03*
X104000000Y-91000000D03*
D12*
X106400000Y-91000000D03*
X105697056Y-92697056D03*
X104000000Y-93400000D03*
X102302944Y-92697056D03*
X101600000Y-91000000D03*
X102302944Y-89302944D03*
X104000000Y-88600000D03*
X105697056Y-89302944D03*
X152697056Y-42302944D03*
X151000000Y-41600000D03*
X149302944Y-42302944D03*
X148600000Y-44000000D03*
X149302944Y-45697056D03*
X151000000Y-46400000D03*
X152697056Y-45697056D03*
X153400000Y-44000000D03*
D13*
X151000000Y-44000000D03*
X104000000Y-44000000D03*
D12*
X106400000Y-44000000D03*
X105697056Y-45697056D03*
X104000000Y-46400000D03*
X102302944Y-45697056D03*
X101600000Y-44000000D03*
X102302944Y-42302944D03*
X104000000Y-41600000D03*
X105697056Y-42302944D03*
D14*
X103000000Y-50600000D03*
D15*
X103000000Y-55680000D03*
D16*
X102500000Y-84500000D03*
X102500000Y-79500000D03*
X102500000Y-74500000D03*
D17*
X102500000Y-62160000D03*
X102500000Y-64700000D03*
X102500000Y-67240000D03*
D18*
X121000000Y-92000000D03*
D19*
X128620000Y-84380000D03*
X123540000Y-92000000D03*
X126080000Y-84380000D03*
X126080000Y-92000000D03*
X123540000Y-84380000D03*
X128620000Y-92000000D03*
X121000000Y-84380000D03*
D20*
X107600000Y-59600000D03*
X106200000Y-83600000D03*
X105600000Y-78000000D03*
X108200000Y-70600000D03*
X103200000Y-71800000D03*
X102000000Y-82000000D03*
X105600000Y-53100000D03*
X108100000Y-82900000D03*
X107400000Y-75100000D03*
X115000000Y-79100000D03*
X112600000Y-81500000D03*
X110500000Y-75000000D03*
D21*
X126080000Y-89460000D02*
X123540000Y-92000000D01*
X126080000Y-84380000D02*
X126080000Y-89460000D01*
X106200000Y-83600000D02*
X106200000Y-83000000D01*
X105600000Y-82400000D02*
X105600000Y-78000000D01*
X106200000Y-83000000D02*
X105600000Y-82400000D01*
X104800000Y-71800000D02*
X103200000Y-71800000D01*
X105600000Y-72600000D02*
X104800000Y-71800000D01*
X105600000Y-78000000D02*
X105600000Y-72600000D01*
X103200000Y-71800000D02*
X103200000Y-71000000D01*
X103200000Y-71000000D02*
X103600000Y-70600000D01*
X103600000Y-70600000D02*
X108200000Y-70600000D01*
X106200000Y-83600000D02*
X104800000Y-82200000D01*
X102200000Y-82200000D02*
X102000000Y-82000000D01*
X104800000Y-82200000D02*
X102200000Y-82200000D01*
D22*
X105600000Y-53100000D02*
X105600000Y-56100000D01*
X107600000Y-58100000D02*
X107600000Y-59600000D01*
X105600000Y-56100000D02*
X107600000Y-58100000D01*
D21*
X108100000Y-82900000D02*
X107300000Y-82100000D01*
X107300000Y-75200000D02*
X107400000Y-75100000D01*
X107300000Y-82100000D02*
X107300000Y-75200000D01*
X115000000Y-79100000D02*
X112600000Y-81500000D01*
X111260000Y-88660000D02*
X112000000Y-88660000D01*
D22*
X109500000Y-87500000D02*
X110660000Y-88660000D01*
X109500000Y-76000000D02*
X109500000Y-87500000D01*
X110500000Y-75000000D02*
X109500000Y-76000000D01*
X111600000Y-88660000D02*
X112000000Y-88260000D01*
X110660000Y-88660000D02*
X111600000Y-88660000D01*
D23*
X148277287Y-41106167D02*
X151000000Y-43828880D01*
X151014142Y-43814738D01*
X151185262Y-43985858D01*
X151171120Y-44000000D01*
X153893833Y-46722713D01*
X154213001Y-46540599D01*
X154213001Y-48961337D01*
X154213000Y-48961347D01*
X154213001Y-88459401D01*
X153893833Y-88277287D01*
X151171120Y-91000000D01*
X151185262Y-91014142D01*
X151014142Y-91185262D01*
X151000000Y-91171120D01*
X148277287Y-93893833D01*
X148459401Y-94213000D01*
X106540599Y-94213000D01*
X106722713Y-93893833D01*
X104000000Y-91171120D01*
X103985858Y-91185262D01*
X103814738Y-91014142D01*
X103828880Y-91000000D01*
X104171120Y-91000000D01*
X106893833Y-93722713D01*
X107487284Y-93384095D01*
X107588213Y-93200000D01*
X119191142Y-93200000D01*
X119210527Y-93396818D01*
X119267937Y-93586073D01*
X119361165Y-93760491D01*
X119486630Y-93913370D01*
X119639509Y-94038835D01*
X119813927Y-94132063D01*
X120003182Y-94189473D01*
X120200000Y-94208858D01*
X120628000Y-94204000D01*
X120879000Y-93953000D01*
X120879000Y-92121000D01*
X119447000Y-92121000D01*
X119196000Y-92372000D01*
X119191142Y-93200000D01*
X107588213Y-93200000D01*
X107885391Y-92657950D01*
X108134184Y-91868092D01*
X108224102Y-91044872D01*
X108151692Y-90219929D01*
X107919734Y-89424963D01*
X107537143Y-88690524D01*
X107487284Y-88615905D01*
X106893833Y-88277287D01*
X104171120Y-91000000D01*
X103828880Y-91000000D01*
X101106167Y-88277287D01*
X100787000Y-88459401D01*
X100787000Y-88106167D01*
X101277287Y-88106167D01*
X104000000Y-90828880D01*
X106722713Y-88106167D01*
X106384095Y-87512716D01*
X105657950Y-87114609D01*
X104868092Y-86865816D01*
X104044872Y-86775898D01*
X103219929Y-86848308D01*
X102424963Y-87080266D01*
X101690524Y-87462857D01*
X101615905Y-87512716D01*
X101277287Y-88106167D01*
X100787000Y-88106167D01*
X100787000Y-86199834D01*
X101101316Y-86367840D01*
X101480579Y-86482888D01*
X101776159Y-86512000D01*
X103223841Y-86512000D01*
X103519421Y-86482888D01*
X103898684Y-86367840D01*
X104248216Y-86181011D01*
X104554583Y-85929583D01*
X104806011Y-85623216D01*
X104992840Y-85273684D01*
X105107888Y-84894421D01*
X105146735Y-84500000D01*
X105107888Y-84105579D01*
X104992840Y-83726316D01*
X104806011Y-83376784D01*
X104554583Y-83070417D01*
X104248216Y-82818989D01*
X103898684Y-82632160D01*
X103519421Y-82517112D01*
X103223841Y-82488000D01*
X101776159Y-82488000D01*
X101480579Y-82517112D01*
X101101316Y-82632160D01*
X100787000Y-82800166D01*
X100787000Y-81199834D01*
X101101316Y-81367840D01*
X101480579Y-81482888D01*
X101776159Y-81512000D01*
X103223841Y-81512000D01*
X103519421Y-81482888D01*
X103898684Y-81367840D01*
X104248216Y-81181011D01*
X104554583Y-80929583D01*
X104806011Y-80623216D01*
X104992840Y-80273684D01*
X105107888Y-79894421D01*
X105146735Y-79500000D01*
X105107888Y-79105579D01*
X104992840Y-78726316D01*
X104806011Y-78376784D01*
X104554583Y-78070417D01*
X104248216Y-77818989D01*
X103898684Y-77632160D01*
X103519421Y-77517112D01*
X103223841Y-77488000D01*
X101776159Y-77488000D01*
X101480579Y-77517112D01*
X101101316Y-77632160D01*
X100787000Y-77800166D01*
X100787000Y-76199834D01*
X101101316Y-76367840D01*
X101480579Y-76482888D01*
X101776159Y-76512000D01*
X103223841Y-76512000D01*
X103519421Y-76482888D01*
X103898684Y-76367840D01*
X104248216Y-76181011D01*
X104554583Y-75929583D01*
X104806011Y-75623216D01*
X104992840Y-75273684D01*
X105080243Y-74985553D01*
X106238000Y-74985553D01*
X106238000Y-75214447D01*
X106282655Y-75438943D01*
X106370249Y-75650413D01*
X106413001Y-75714396D01*
X106413000Y-82056433D01*
X106408709Y-82100000D01*
X106422570Y-82240732D01*
X106425835Y-82273881D01*
X106476554Y-82441081D01*
X106558919Y-82595174D01*
X106669762Y-82730238D01*
X106703605Y-82758012D01*
X106938000Y-82992407D01*
X106938000Y-83014447D01*
X106982655Y-83238943D01*
X107070249Y-83450413D01*
X107197416Y-83640732D01*
X107359268Y-83802584D01*
X107549587Y-83929751D01*
X107761057Y-84017345D01*
X107985553Y-84062000D01*
X108214447Y-84062000D01*
X108438943Y-84017345D01*
X108488001Y-83997025D01*
X108488001Y-87450289D01*
X108483105Y-87500000D01*
X108488001Y-87549711D01*
X108502644Y-87698387D01*
X108525278Y-87773000D01*
X108560512Y-87889149D01*
X108654482Y-88064957D01*
X108749257Y-88180441D01*
X108749263Y-88180447D01*
X108780947Y-88219054D01*
X108819554Y-88250738D01*
X109909258Y-89340442D01*
X109940946Y-89379054D01*
X109979558Y-89410742D01*
X109979559Y-89410743D01*
X109996886Y-89424963D01*
X110095043Y-89505518D01*
X110270851Y-89599489D01*
X110278264Y-89601738D01*
X110249026Y-89698122D01*
X110234314Y-89847500D01*
X110234314Y-91752500D01*
X110249026Y-91901878D01*
X110292598Y-92045515D01*
X110363355Y-92177892D01*
X110458578Y-92293922D01*
X110574608Y-92389145D01*
X110706985Y-92459902D01*
X110850622Y-92503474D01*
X111000000Y-92518186D01*
X113000000Y-92518186D01*
X113149378Y-92503474D01*
X113293015Y-92459902D01*
X113425392Y-92389145D01*
X113541422Y-92293922D01*
X113636645Y-92177892D01*
X113707402Y-92045515D01*
X113750974Y-91901878D01*
X113765686Y-91752500D01*
X113765686Y-90800000D01*
X119191142Y-90800000D01*
X119196000Y-91628000D01*
X119447000Y-91879000D01*
X120879000Y-91879000D01*
X120879000Y-90047000D01*
X120628000Y-89796000D01*
X120200000Y-89791142D01*
X120003182Y-89810527D01*
X119813927Y-89867937D01*
X119639509Y-89961165D01*
X119486630Y-90086630D01*
X119361165Y-90239509D01*
X119267937Y-90413927D01*
X119210527Y-90603182D01*
X119191142Y-90800000D01*
X113765686Y-90800000D01*
X113765686Y-89847500D01*
X113750974Y-89698122D01*
X113707402Y-89554485D01*
X113636645Y-89422108D01*
X113541422Y-89306078D01*
X113461073Y-89240138D01*
X113479952Y-89217134D01*
X113639155Y-88919285D01*
X113737192Y-88596101D01*
X113770295Y-88260000D01*
X113737192Y-87923899D01*
X113639155Y-87600715D01*
X113479952Y-87302866D01*
X113361992Y-87159132D01*
X113428005Y-87105141D01*
X113671707Y-86809203D01*
X113852991Y-86471407D01*
X113957285Y-86144988D01*
X113748702Y-85841000D01*
X112121000Y-85841000D01*
X112121000Y-85861000D01*
X111879000Y-85861000D01*
X111879000Y-85841000D01*
X111859000Y-85841000D01*
X111859000Y-85599000D01*
X111879000Y-85599000D01*
X111879000Y-84016772D01*
X112121000Y-84016772D01*
X112121000Y-85599000D01*
X113748702Y-85599000D01*
X113957285Y-85295012D01*
X113852991Y-84968593D01*
X113671707Y-84630797D01*
X113428005Y-84334859D01*
X113131251Y-84092151D01*
X112792849Y-83912000D01*
X112763912Y-83903275D01*
X119438000Y-83903275D01*
X119438000Y-84856726D01*
X119460602Y-85086205D01*
X119549918Y-85380643D01*
X119694961Y-85651999D01*
X119890157Y-85889844D01*
X120128002Y-86085039D01*
X120399358Y-86230082D01*
X120693796Y-86319398D01*
X121000000Y-86349557D01*
X121306205Y-86319398D01*
X121600643Y-86230082D01*
X121871999Y-86085039D01*
X122109844Y-85889844D01*
X122270000Y-85694694D01*
X122430157Y-85889844D01*
X122668002Y-86085039D01*
X122939358Y-86230082D01*
X123233796Y-86319398D01*
X123540000Y-86349557D01*
X123846205Y-86319398D01*
X124140643Y-86230082D01*
X124411999Y-86085039D01*
X124649844Y-85889844D01*
X124810000Y-85694694D01*
X124970157Y-85889844D01*
X125193000Y-86072727D01*
X125193001Y-89092592D01*
X124136831Y-90148762D01*
X123846204Y-90060602D01*
X123540000Y-90030443D01*
X123233795Y-90060602D01*
X122939357Y-90149918D01*
X122668369Y-90294764D01*
X122638835Y-90239509D01*
X122513370Y-90086630D01*
X122360491Y-89961165D01*
X122186073Y-89867937D01*
X121996818Y-89810527D01*
X121800000Y-89791142D01*
X121372000Y-89796000D01*
X121121000Y-90047000D01*
X121121000Y-91879000D01*
X121141000Y-91879000D01*
X121141000Y-92121000D01*
X121121000Y-92121000D01*
X121121000Y-93953000D01*
X121372000Y-94204000D01*
X121800000Y-94208858D01*
X121996818Y-94189473D01*
X122186073Y-94132063D01*
X122360491Y-94038835D01*
X122513370Y-93913370D01*
X122638835Y-93760491D01*
X122668370Y-93705235D01*
X122939358Y-93850082D01*
X123233796Y-93939398D01*
X123540000Y-93969557D01*
X123846205Y-93939398D01*
X124140643Y-93850082D01*
X124411999Y-93705039D01*
X124649844Y-93509844D01*
X124810000Y-93314694D01*
X124970157Y-93509844D01*
X125208002Y-93705039D01*
X125479358Y-93850082D01*
X125773796Y-93939398D01*
X126080000Y-93969557D01*
X126386205Y-93939398D01*
X126680643Y-93850082D01*
X126951999Y-93705039D01*
X127189844Y-93509844D01*
X127350000Y-93314694D01*
X127510157Y-93509844D01*
X127748002Y-93705039D01*
X128019358Y-93850082D01*
X128313796Y-93939398D01*
X128620000Y-93969557D01*
X128926205Y-93939398D01*
X129220643Y-93850082D01*
X129491999Y-93705039D01*
X129729844Y-93509844D01*
X129925039Y-93271999D01*
X130070082Y-93000643D01*
X130159398Y-92706205D01*
X130182000Y-92476725D01*
X130182000Y-91523274D01*
X130159398Y-91293795D01*
X130070082Y-90999357D01*
X130046442Y-90955128D01*
X146775898Y-90955128D01*
X146848308Y-91780071D01*
X147080266Y-92575037D01*
X147462857Y-93309476D01*
X147512716Y-93384095D01*
X148106167Y-93722713D01*
X150828880Y-91000000D01*
X148106167Y-88277287D01*
X147512716Y-88615905D01*
X147114609Y-89342050D01*
X146865816Y-90131908D01*
X146775898Y-90955128D01*
X130046442Y-90955128D01*
X129925039Y-90728001D01*
X129757815Y-90524239D01*
X129849878Y-90486105D01*
X130261306Y-90211197D01*
X130611197Y-89861306D01*
X130886105Y-89449878D01*
X131075465Y-88992723D01*
X131172000Y-88507410D01*
X131172000Y-88106167D01*
X148277287Y-88106167D01*
X151000000Y-90828880D01*
X153722713Y-88106167D01*
X153384095Y-87512716D01*
X152657950Y-87114609D01*
X151868092Y-86865816D01*
X151044872Y-86775898D01*
X150219929Y-86848308D01*
X149424963Y-87080266D01*
X148690524Y-87462857D01*
X148615905Y-87512716D01*
X148277287Y-88106167D01*
X131172000Y-88106167D01*
X131172000Y-88012590D01*
X131075465Y-87527277D01*
X130886105Y-87070122D01*
X130611197Y-86658694D01*
X130261306Y-86308803D01*
X129849878Y-86033895D01*
X129653456Y-85952534D01*
X129729844Y-85889844D01*
X129925039Y-85651999D01*
X130070082Y-85380643D01*
X130159398Y-85086205D01*
X130182000Y-84856725D01*
X130182000Y-83903274D01*
X130159398Y-83673795D01*
X130070082Y-83379357D01*
X129925039Y-83108001D01*
X129729844Y-82870156D01*
X129491998Y-82674961D01*
X129220642Y-82529918D01*
X128926204Y-82440602D01*
X128620000Y-82410443D01*
X128313795Y-82440602D01*
X128019357Y-82529918D01*
X127748001Y-82674961D01*
X127510156Y-82870156D01*
X127350000Y-83065306D01*
X127189844Y-82870156D01*
X126951998Y-82674961D01*
X126680642Y-82529918D01*
X126386204Y-82440602D01*
X126080000Y-82410443D01*
X125773795Y-82440602D01*
X125479357Y-82529918D01*
X125208001Y-82674961D01*
X124970156Y-82870156D01*
X124810000Y-83065306D01*
X124649844Y-82870156D01*
X124411998Y-82674961D01*
X124140642Y-82529918D01*
X123846204Y-82440602D01*
X123540000Y-82410443D01*
X123233795Y-82440602D01*
X122939357Y-82529918D01*
X122668001Y-82674961D01*
X122430156Y-82870156D01*
X122270000Y-83065306D01*
X122109844Y-82870156D01*
X121871998Y-82674961D01*
X121600642Y-82529918D01*
X121306204Y-82440602D01*
X121000000Y-82410443D01*
X120693795Y-82440602D01*
X120399357Y-82529918D01*
X120128001Y-82674961D01*
X119890156Y-82870156D01*
X119694961Y-83108002D01*
X119549918Y-83379358D01*
X119460602Y-83673796D01*
X119438000Y-83903275D01*
X112763912Y-83903275D01*
X112425804Y-83801330D01*
X112121000Y-84016772D01*
X111879000Y-84016772D01*
X111574196Y-83801330D01*
X111207151Y-83912000D01*
X110868749Y-84092151D01*
X110571995Y-84334859D01*
X110512000Y-84407714D01*
X110512000Y-81385553D01*
X111438000Y-81385553D01*
X111438000Y-81614447D01*
X111482655Y-81838943D01*
X111570249Y-82050413D01*
X111697416Y-82240732D01*
X111859268Y-82402584D01*
X112049587Y-82529751D01*
X112261057Y-82617345D01*
X112485553Y-82662000D01*
X112714447Y-82662000D01*
X112938943Y-82617345D01*
X113150413Y-82529751D01*
X113340732Y-82402584D01*
X113502584Y-82240732D01*
X113629751Y-82050413D01*
X113717345Y-81838943D01*
X113762000Y-81614447D01*
X113762000Y-81592407D01*
X115092407Y-80262000D01*
X115114447Y-80262000D01*
X115338943Y-80217345D01*
X115550413Y-80129751D01*
X115740732Y-80002584D01*
X115902584Y-79840732D01*
X116029751Y-79650413D01*
X116117345Y-79438943D01*
X116162000Y-79214447D01*
X116162000Y-78985553D01*
X116117345Y-78761057D01*
X116029751Y-78549587D01*
X115902584Y-78359268D01*
X115740732Y-78197416D01*
X115550413Y-78070249D01*
X115338943Y-77982655D01*
X115114447Y-77938000D01*
X114885553Y-77938000D01*
X114661057Y-77982655D01*
X114449587Y-78070249D01*
X114259268Y-78197416D01*
X114097416Y-78359268D01*
X113970249Y-78549587D01*
X113882655Y-78761057D01*
X113838000Y-78985553D01*
X113838000Y-79007593D01*
X112507593Y-80338000D01*
X112485553Y-80338000D01*
X112261057Y-80382655D01*
X112049587Y-80470249D01*
X111859268Y-80597416D01*
X111697416Y-80759268D01*
X111570249Y-80949587D01*
X111482655Y-81161057D01*
X111438000Y-81385553D01*
X110512000Y-81385553D01*
X110512000Y-76419184D01*
X110807606Y-76123578D01*
X110838943Y-76117345D01*
X111050413Y-76029751D01*
X111240732Y-75902584D01*
X111402584Y-75740732D01*
X111529751Y-75550413D01*
X111617345Y-75338943D01*
X111662000Y-75114447D01*
X111662000Y-74885553D01*
X111617345Y-74661057D01*
X111529751Y-74449587D01*
X111402584Y-74259268D01*
X111240732Y-74097416D01*
X111050413Y-73970249D01*
X110838943Y-73882655D01*
X110614447Y-73838000D01*
X110385553Y-73838000D01*
X110161057Y-73882655D01*
X109949587Y-73970249D01*
X109759268Y-74097416D01*
X109597416Y-74259268D01*
X109470249Y-74449587D01*
X109382655Y-74661057D01*
X109376422Y-74692394D01*
X108819558Y-75249258D01*
X108780946Y-75280946D01*
X108654482Y-75435043D01*
X108560511Y-75610852D01*
X108502643Y-75801614D01*
X108488000Y-75950290D01*
X108488000Y-75950299D01*
X108483105Y-76000000D01*
X108488000Y-76049701D01*
X108488001Y-81802975D01*
X108438943Y-81782655D01*
X108214447Y-81738000D01*
X108192407Y-81738000D01*
X108187000Y-81732593D01*
X108187000Y-75956316D01*
X108302584Y-75840732D01*
X108429751Y-75650413D01*
X108517345Y-75438943D01*
X108562000Y-75214447D01*
X108562000Y-74985553D01*
X108517345Y-74761057D01*
X108429751Y-74549587D01*
X108302584Y-74359268D01*
X108140732Y-74197416D01*
X107950413Y-74070249D01*
X107738943Y-73982655D01*
X107514447Y-73938000D01*
X107285553Y-73938000D01*
X107061057Y-73982655D01*
X106849587Y-74070249D01*
X106659268Y-74197416D01*
X106497416Y-74359268D01*
X106370249Y-74549587D01*
X106282655Y-74761057D01*
X106238000Y-74985553D01*
X105080243Y-74985553D01*
X105107888Y-74894421D01*
X105146735Y-74500000D01*
X105107888Y-74105579D01*
X104992840Y-73726316D01*
X104806011Y-73376784D01*
X104554583Y-73070417D01*
X104248216Y-72818989D01*
X103898684Y-72632160D01*
X103519421Y-72517112D01*
X103223841Y-72488000D01*
X101776159Y-72488000D01*
X101480579Y-72517112D01*
X101101316Y-72632160D01*
X100787000Y-72800166D01*
X100787000Y-61992387D01*
X100798200Y-61992387D01*
X100798200Y-62327613D01*
X100863599Y-62656397D01*
X100991885Y-62966104D01*
X101178126Y-63244834D01*
X101363292Y-63430000D01*
X101178126Y-63615166D01*
X100991885Y-63893896D01*
X100863599Y-64203603D01*
X100798200Y-64532387D01*
X100798200Y-64867613D01*
X100863599Y-65196397D01*
X100991885Y-65506104D01*
X101178126Y-65784834D01*
X101363292Y-65970000D01*
X101178126Y-66155166D01*
X100991885Y-66433896D01*
X100863599Y-66743603D01*
X100798200Y-67072387D01*
X100798200Y-67407613D01*
X100863599Y-67736397D01*
X100991885Y-68046104D01*
X101178126Y-68324834D01*
X101415166Y-68561874D01*
X101693896Y-68748115D01*
X102003603Y-68876401D01*
X102332387Y-68941800D01*
X102667613Y-68941800D01*
X102996397Y-68876401D01*
X103306104Y-68748115D01*
X103584834Y-68561874D01*
X103821874Y-68324834D01*
X104008115Y-68046104D01*
X104136401Y-67736397D01*
X104201800Y-67407613D01*
X104201800Y-67072387D01*
X104136401Y-66743603D01*
X104008115Y-66433896D01*
X103821874Y-66155166D01*
X103636708Y-65970000D01*
X103821874Y-65784834D01*
X104008115Y-65506104D01*
X104136401Y-65196397D01*
X104201800Y-64867613D01*
X104201800Y-64532387D01*
X104136401Y-64203603D01*
X104008115Y-63893896D01*
X103821874Y-63615166D01*
X103636708Y-63430000D01*
X103821874Y-63244834D01*
X104008115Y-62966104D01*
X104136401Y-62656397D01*
X104201800Y-62327613D01*
X104201800Y-61992387D01*
X104136401Y-61663603D01*
X104008115Y-61353896D01*
X103821874Y-61075166D01*
X103584834Y-60838126D01*
X103306104Y-60651885D01*
X102996397Y-60523599D01*
X102667613Y-60458200D01*
X102332387Y-60458200D01*
X102003603Y-60523599D01*
X101693896Y-60651885D01*
X101415166Y-60838126D01*
X101178126Y-61075166D01*
X100991885Y-61353896D01*
X100863599Y-61663603D01*
X100798200Y-61992387D01*
X100787000Y-61992387D01*
X100787000Y-56149128D01*
X100824927Y-56339801D01*
X100995441Y-56751459D01*
X101242990Y-57121941D01*
X101558059Y-57437010D01*
X101928541Y-57684559D01*
X102340199Y-57855073D01*
X102777212Y-57942000D01*
X103222788Y-57942000D01*
X103659801Y-57855073D01*
X104071459Y-57684559D01*
X104441941Y-57437010D01*
X104757010Y-57121941D01*
X105004559Y-56751459D01*
X105175073Y-56339801D01*
X105262000Y-55902788D01*
X105262000Y-55457212D01*
X105175073Y-55020199D01*
X105004559Y-54608541D01*
X104757010Y-54238059D01*
X104441941Y-53922990D01*
X104071459Y-53675441D01*
X103659801Y-53504927D01*
X103222788Y-53418000D01*
X102777212Y-53418000D01*
X102340199Y-53504927D01*
X101928541Y-53675441D01*
X101558059Y-53922990D01*
X101242990Y-54238059D01*
X100995441Y-54608541D01*
X100824927Y-55020199D01*
X100787000Y-55210872D01*
X100787000Y-52813674D01*
X100939509Y-52938835D01*
X101113927Y-53032063D01*
X101303182Y-53089473D01*
X101500000Y-53108858D01*
X102628000Y-53104000D01*
X102879000Y-52853000D01*
X102879000Y-50721000D01*
X103121000Y-50721000D01*
X103121000Y-52853000D01*
X103372000Y-53104000D01*
X104500000Y-53108858D01*
X104696818Y-53089473D01*
X104886073Y-53032063D01*
X105060491Y-52938835D01*
X105213370Y-52813370D01*
X105338835Y-52660491D01*
X105432063Y-52486073D01*
X105489473Y-52296818D01*
X105508858Y-52100000D01*
X105504000Y-50972000D01*
X105253000Y-50721000D01*
X103121000Y-50721000D01*
X102879000Y-50721000D01*
X102859000Y-50721000D01*
X102859000Y-50479000D01*
X102879000Y-50479000D01*
X102879000Y-48347000D01*
X102628000Y-48096000D01*
X101500000Y-48091142D01*
X101303182Y-48110527D01*
X101113927Y-48167937D01*
X100939509Y-48261165D01*
X100787000Y-48386326D01*
X100787000Y-46893833D01*
X101277287Y-46893833D01*
X101615905Y-47487284D01*
X102342050Y-47885391D01*
X103131908Y-48134184D01*
X103313934Y-48154066D01*
X103121000Y-48347000D01*
X103121000Y-50479000D01*
X105253000Y-50479000D01*
X105504000Y-50228000D01*
X105508858Y-49100000D01*
X105489473Y-48903182D01*
X105432063Y-48713927D01*
X105338835Y-48539509D01*
X105213370Y-48386630D01*
X105060491Y-48261165D01*
X104886073Y-48167937D01*
X104806805Y-48143891D01*
X105575037Y-47919734D01*
X106309476Y-47537143D01*
X106384095Y-47487284D01*
X106722713Y-46893833D01*
X148277287Y-46893833D01*
X148615905Y-47487284D01*
X149342050Y-47885391D01*
X150131908Y-48134184D01*
X150955128Y-48224102D01*
X151780071Y-48151692D01*
X152575037Y-47919734D01*
X153309476Y-47537143D01*
X153384095Y-47487284D01*
X153722713Y-46893833D01*
X151000000Y-44171120D01*
X148277287Y-46893833D01*
X106722713Y-46893833D01*
X104000000Y-44171120D01*
X101277287Y-46893833D01*
X100787000Y-46893833D01*
X100787000Y-46540599D01*
X101106167Y-46722713D01*
X103828880Y-44000000D01*
X104171120Y-44000000D01*
X106893833Y-46722713D01*
X107487284Y-46384095D01*
X107885391Y-45657950D01*
X108134184Y-44868092D01*
X108224102Y-44044872D01*
X108216225Y-43955128D01*
X146775898Y-43955128D01*
X146848308Y-44780071D01*
X147080266Y-45575037D01*
X147462857Y-46309476D01*
X147512716Y-46384095D01*
X148106167Y-46722713D01*
X150828880Y-44000000D01*
X148106167Y-41277287D01*
X147512716Y-41615905D01*
X147114609Y-42342050D01*
X146865816Y-43131908D01*
X146775898Y-43955128D01*
X108216225Y-43955128D01*
X108151692Y-43219929D01*
X107919734Y-42424963D01*
X107537143Y-41690524D01*
X107487284Y-41615905D01*
X106893833Y-41277287D01*
X104171120Y-44000000D01*
X103828880Y-44000000D01*
X103814738Y-43985858D01*
X103985858Y-43814738D01*
X104000000Y-43828880D01*
X106722713Y-41106167D01*
X106540599Y-40787000D01*
X148459401Y-40787000D01*
X148277287Y-41106167D01*
G04 #@! TA.AperFunction,Conductor*
D24*
G36*
X148277287Y-41106167D02*
G01*
X151000000Y-43828880D01*
X151014142Y-43814738D01*
X151185262Y-43985858D01*
X151171120Y-44000000D01*
X153893833Y-46722713D01*
X154213001Y-46540599D01*
X154213001Y-48961337D01*
X154213000Y-48961347D01*
X154213001Y-88459401D01*
X153893833Y-88277287D01*
X151171120Y-91000000D01*
X151185262Y-91014142D01*
X151014142Y-91185262D01*
X151000000Y-91171120D01*
X148277287Y-93893833D01*
X148459401Y-94213000D01*
X106540599Y-94213000D01*
X106722713Y-93893833D01*
X104000000Y-91171120D01*
X103985858Y-91185262D01*
X103814738Y-91014142D01*
X103828880Y-91000000D01*
X104171120Y-91000000D01*
X106893833Y-93722713D01*
X107487284Y-93384095D01*
X107588213Y-93200000D01*
X119191142Y-93200000D01*
X119210527Y-93396818D01*
X119267937Y-93586073D01*
X119361165Y-93760491D01*
X119486630Y-93913370D01*
X119639509Y-94038835D01*
X119813927Y-94132063D01*
X120003182Y-94189473D01*
X120200000Y-94208858D01*
X120628000Y-94204000D01*
X120879000Y-93953000D01*
X120879000Y-92121000D01*
X119447000Y-92121000D01*
X119196000Y-92372000D01*
X119191142Y-93200000D01*
X107588213Y-93200000D01*
X107885391Y-92657950D01*
X108134184Y-91868092D01*
X108224102Y-91044872D01*
X108151692Y-90219929D01*
X107919734Y-89424963D01*
X107537143Y-88690524D01*
X107487284Y-88615905D01*
X106893833Y-88277287D01*
X104171120Y-91000000D01*
X103828880Y-91000000D01*
X101106167Y-88277287D01*
X100787000Y-88459401D01*
X100787000Y-88106167D01*
X101277287Y-88106167D01*
X104000000Y-90828880D01*
X106722713Y-88106167D01*
X106384095Y-87512716D01*
X105657950Y-87114609D01*
X104868092Y-86865816D01*
X104044872Y-86775898D01*
X103219929Y-86848308D01*
X102424963Y-87080266D01*
X101690524Y-87462857D01*
X101615905Y-87512716D01*
X101277287Y-88106167D01*
X100787000Y-88106167D01*
X100787000Y-86199834D01*
X101101316Y-86367840D01*
X101480579Y-86482888D01*
X101776159Y-86512000D01*
X103223841Y-86512000D01*
X103519421Y-86482888D01*
X103898684Y-86367840D01*
X104248216Y-86181011D01*
X104554583Y-85929583D01*
X104806011Y-85623216D01*
X104992840Y-85273684D01*
X105107888Y-84894421D01*
X105146735Y-84500000D01*
X105107888Y-84105579D01*
X104992840Y-83726316D01*
X104806011Y-83376784D01*
X104554583Y-83070417D01*
X104248216Y-82818989D01*
X103898684Y-82632160D01*
X103519421Y-82517112D01*
X103223841Y-82488000D01*
X101776159Y-82488000D01*
X101480579Y-82517112D01*
X101101316Y-82632160D01*
X100787000Y-82800166D01*
X100787000Y-81199834D01*
X101101316Y-81367840D01*
X101480579Y-81482888D01*
X101776159Y-81512000D01*
X103223841Y-81512000D01*
X103519421Y-81482888D01*
X103898684Y-81367840D01*
X104248216Y-81181011D01*
X104554583Y-80929583D01*
X104806011Y-80623216D01*
X104992840Y-80273684D01*
X105107888Y-79894421D01*
X105146735Y-79500000D01*
X105107888Y-79105579D01*
X104992840Y-78726316D01*
X104806011Y-78376784D01*
X104554583Y-78070417D01*
X104248216Y-77818989D01*
X103898684Y-77632160D01*
X103519421Y-77517112D01*
X103223841Y-77488000D01*
X101776159Y-77488000D01*
X101480579Y-77517112D01*
X101101316Y-77632160D01*
X100787000Y-77800166D01*
X100787000Y-76199834D01*
X101101316Y-76367840D01*
X101480579Y-76482888D01*
X101776159Y-76512000D01*
X103223841Y-76512000D01*
X103519421Y-76482888D01*
X103898684Y-76367840D01*
X104248216Y-76181011D01*
X104554583Y-75929583D01*
X104806011Y-75623216D01*
X104992840Y-75273684D01*
X105080243Y-74985553D01*
X106238000Y-74985553D01*
X106238000Y-75214447D01*
X106282655Y-75438943D01*
X106370249Y-75650413D01*
X106413001Y-75714396D01*
X106413000Y-82056433D01*
X106408709Y-82100000D01*
X106422570Y-82240732D01*
X106425835Y-82273881D01*
X106476554Y-82441081D01*
X106558919Y-82595174D01*
X106669762Y-82730238D01*
X106703605Y-82758012D01*
X106938000Y-82992407D01*
X106938000Y-83014447D01*
X106982655Y-83238943D01*
X107070249Y-83450413D01*
X107197416Y-83640732D01*
X107359268Y-83802584D01*
X107549587Y-83929751D01*
X107761057Y-84017345D01*
X107985553Y-84062000D01*
X108214447Y-84062000D01*
X108438943Y-84017345D01*
X108488001Y-83997025D01*
X108488001Y-87450289D01*
X108483105Y-87500000D01*
X108488001Y-87549711D01*
X108502644Y-87698387D01*
X108525278Y-87773000D01*
X108560512Y-87889149D01*
X108654482Y-88064957D01*
X108749257Y-88180441D01*
X108749263Y-88180447D01*
X108780947Y-88219054D01*
X108819554Y-88250738D01*
X109909258Y-89340442D01*
X109940946Y-89379054D01*
X109979558Y-89410742D01*
X109979559Y-89410743D01*
X109996886Y-89424963D01*
X110095043Y-89505518D01*
X110270851Y-89599489D01*
X110278264Y-89601738D01*
X110249026Y-89698122D01*
X110234314Y-89847500D01*
X110234314Y-91752500D01*
X110249026Y-91901878D01*
X110292598Y-92045515D01*
X110363355Y-92177892D01*
X110458578Y-92293922D01*
X110574608Y-92389145D01*
X110706985Y-92459902D01*
X110850622Y-92503474D01*
X111000000Y-92518186D01*
X113000000Y-92518186D01*
X113149378Y-92503474D01*
X113293015Y-92459902D01*
X113425392Y-92389145D01*
X113541422Y-92293922D01*
X113636645Y-92177892D01*
X113707402Y-92045515D01*
X113750974Y-91901878D01*
X113765686Y-91752500D01*
X113765686Y-90800000D01*
X119191142Y-90800000D01*
X119196000Y-91628000D01*
X119447000Y-91879000D01*
X120879000Y-91879000D01*
X120879000Y-90047000D01*
X120628000Y-89796000D01*
X120200000Y-89791142D01*
X120003182Y-89810527D01*
X119813927Y-89867937D01*
X119639509Y-89961165D01*
X119486630Y-90086630D01*
X119361165Y-90239509D01*
X119267937Y-90413927D01*
X119210527Y-90603182D01*
X119191142Y-90800000D01*
X113765686Y-90800000D01*
X113765686Y-89847500D01*
X113750974Y-89698122D01*
X113707402Y-89554485D01*
X113636645Y-89422108D01*
X113541422Y-89306078D01*
X113461073Y-89240138D01*
X113479952Y-89217134D01*
X113639155Y-88919285D01*
X113737192Y-88596101D01*
X113770295Y-88260000D01*
X113737192Y-87923899D01*
X113639155Y-87600715D01*
X113479952Y-87302866D01*
X113361992Y-87159132D01*
X113428005Y-87105141D01*
X113671707Y-86809203D01*
X113852991Y-86471407D01*
X113957285Y-86144988D01*
X113748702Y-85841000D01*
X112121000Y-85841000D01*
X112121000Y-85861000D01*
X111879000Y-85861000D01*
X111879000Y-85841000D01*
X111859000Y-85841000D01*
X111859000Y-85599000D01*
X111879000Y-85599000D01*
X111879000Y-84016772D01*
X112121000Y-84016772D01*
X112121000Y-85599000D01*
X113748702Y-85599000D01*
X113957285Y-85295012D01*
X113852991Y-84968593D01*
X113671707Y-84630797D01*
X113428005Y-84334859D01*
X113131251Y-84092151D01*
X112792849Y-83912000D01*
X112763912Y-83903275D01*
X119438000Y-83903275D01*
X119438000Y-84856726D01*
X119460602Y-85086205D01*
X119549918Y-85380643D01*
X119694961Y-85651999D01*
X119890157Y-85889844D01*
X120128002Y-86085039D01*
X120399358Y-86230082D01*
X120693796Y-86319398D01*
X121000000Y-86349557D01*
X121306205Y-86319398D01*
X121600643Y-86230082D01*
X121871999Y-86085039D01*
X122109844Y-85889844D01*
X122270000Y-85694694D01*
X122430157Y-85889844D01*
X122668002Y-86085039D01*
X122939358Y-86230082D01*
X123233796Y-86319398D01*
X123540000Y-86349557D01*
X123846205Y-86319398D01*
X124140643Y-86230082D01*
X124411999Y-86085039D01*
X124649844Y-85889844D01*
X124810000Y-85694694D01*
X124970157Y-85889844D01*
X125193000Y-86072727D01*
X125193001Y-89092592D01*
X124136831Y-90148762D01*
X123846204Y-90060602D01*
X123540000Y-90030443D01*
X123233795Y-90060602D01*
X122939357Y-90149918D01*
X122668369Y-90294764D01*
X122638835Y-90239509D01*
X122513370Y-90086630D01*
X122360491Y-89961165D01*
X122186073Y-89867937D01*
X121996818Y-89810527D01*
X121800000Y-89791142D01*
X121372000Y-89796000D01*
X121121000Y-90047000D01*
X121121000Y-91879000D01*
X121141000Y-91879000D01*
X121141000Y-92121000D01*
X121121000Y-92121000D01*
X121121000Y-93953000D01*
X121372000Y-94204000D01*
X121800000Y-94208858D01*
X121996818Y-94189473D01*
X122186073Y-94132063D01*
X122360491Y-94038835D01*
X122513370Y-93913370D01*
X122638835Y-93760491D01*
X122668370Y-93705235D01*
X122939358Y-93850082D01*
X123233796Y-93939398D01*
X123540000Y-93969557D01*
X123846205Y-93939398D01*
X124140643Y-93850082D01*
X124411999Y-93705039D01*
X124649844Y-93509844D01*
X124810000Y-93314694D01*
X124970157Y-93509844D01*
X125208002Y-93705039D01*
X125479358Y-93850082D01*
X125773796Y-93939398D01*
X126080000Y-93969557D01*
X126386205Y-93939398D01*
X126680643Y-93850082D01*
X126951999Y-93705039D01*
X127189844Y-93509844D01*
X127350000Y-93314694D01*
X127510157Y-93509844D01*
X127748002Y-93705039D01*
X128019358Y-93850082D01*
X128313796Y-93939398D01*
X128620000Y-93969557D01*
X128926205Y-93939398D01*
X129220643Y-93850082D01*
X129491999Y-93705039D01*
X129729844Y-93509844D01*
X129925039Y-93271999D01*
X130070082Y-93000643D01*
X130159398Y-92706205D01*
X130182000Y-92476725D01*
X130182000Y-91523274D01*
X130159398Y-91293795D01*
X130070082Y-90999357D01*
X130046442Y-90955128D01*
X146775898Y-90955128D01*
X146848308Y-91780071D01*
X147080266Y-92575037D01*
X147462857Y-93309476D01*
X147512716Y-93384095D01*
X148106167Y-93722713D01*
X150828880Y-91000000D01*
X148106167Y-88277287D01*
X147512716Y-88615905D01*
X147114609Y-89342050D01*
X146865816Y-90131908D01*
X146775898Y-90955128D01*
X130046442Y-90955128D01*
X129925039Y-90728001D01*
X129757815Y-90524239D01*
X129849878Y-90486105D01*
X130261306Y-90211197D01*
X130611197Y-89861306D01*
X130886105Y-89449878D01*
X131075465Y-88992723D01*
X131172000Y-88507410D01*
X131172000Y-88106167D01*
X148277287Y-88106167D01*
X151000000Y-90828880D01*
X153722713Y-88106167D01*
X153384095Y-87512716D01*
X152657950Y-87114609D01*
X151868092Y-86865816D01*
X151044872Y-86775898D01*
X150219929Y-86848308D01*
X149424963Y-87080266D01*
X148690524Y-87462857D01*
X148615905Y-87512716D01*
X148277287Y-88106167D01*
X131172000Y-88106167D01*
X131172000Y-88012590D01*
X131075465Y-87527277D01*
X130886105Y-87070122D01*
X130611197Y-86658694D01*
X130261306Y-86308803D01*
X129849878Y-86033895D01*
X129653456Y-85952534D01*
X129729844Y-85889844D01*
X129925039Y-85651999D01*
X130070082Y-85380643D01*
X130159398Y-85086205D01*
X130182000Y-84856725D01*
X130182000Y-83903274D01*
X130159398Y-83673795D01*
X130070082Y-83379357D01*
X129925039Y-83108001D01*
X129729844Y-82870156D01*
X129491998Y-82674961D01*
X129220642Y-82529918D01*
X128926204Y-82440602D01*
X128620000Y-82410443D01*
X128313795Y-82440602D01*
X128019357Y-82529918D01*
X127748001Y-82674961D01*
X127510156Y-82870156D01*
X127350000Y-83065306D01*
X127189844Y-82870156D01*
X126951998Y-82674961D01*
X126680642Y-82529918D01*
X126386204Y-82440602D01*
X126080000Y-82410443D01*
X125773795Y-82440602D01*
X125479357Y-82529918D01*
X125208001Y-82674961D01*
X124970156Y-82870156D01*
X124810000Y-83065306D01*
X124649844Y-82870156D01*
X124411998Y-82674961D01*
X124140642Y-82529918D01*
X123846204Y-82440602D01*
X123540000Y-82410443D01*
X123233795Y-82440602D01*
X122939357Y-82529918D01*
X122668001Y-82674961D01*
X122430156Y-82870156D01*
X122270000Y-83065306D01*
X122109844Y-82870156D01*
X121871998Y-82674961D01*
X121600642Y-82529918D01*
X121306204Y-82440602D01*
X121000000Y-82410443D01*
X120693795Y-82440602D01*
X120399357Y-82529918D01*
X120128001Y-82674961D01*
X119890156Y-82870156D01*
X119694961Y-83108002D01*
X119549918Y-83379358D01*
X119460602Y-83673796D01*
X119438000Y-83903275D01*
X112763912Y-83903275D01*
X112425804Y-83801330D01*
X112121000Y-84016772D01*
X111879000Y-84016772D01*
X111574196Y-83801330D01*
X111207151Y-83912000D01*
X110868749Y-84092151D01*
X110571995Y-84334859D01*
X110512000Y-84407714D01*
X110512000Y-81385553D01*
X111438000Y-81385553D01*
X111438000Y-81614447D01*
X111482655Y-81838943D01*
X111570249Y-82050413D01*
X111697416Y-82240732D01*
X111859268Y-82402584D01*
X112049587Y-82529751D01*
X112261057Y-82617345D01*
X112485553Y-82662000D01*
X112714447Y-82662000D01*
X112938943Y-82617345D01*
X113150413Y-82529751D01*
X113340732Y-82402584D01*
X113502584Y-82240732D01*
X113629751Y-82050413D01*
X113717345Y-81838943D01*
X113762000Y-81614447D01*
X113762000Y-81592407D01*
X115092407Y-80262000D01*
X115114447Y-80262000D01*
X115338943Y-80217345D01*
X115550413Y-80129751D01*
X115740732Y-80002584D01*
X115902584Y-79840732D01*
X116029751Y-79650413D01*
X116117345Y-79438943D01*
X116162000Y-79214447D01*
X116162000Y-78985553D01*
X116117345Y-78761057D01*
X116029751Y-78549587D01*
X115902584Y-78359268D01*
X115740732Y-78197416D01*
X115550413Y-78070249D01*
X115338943Y-77982655D01*
X115114447Y-77938000D01*
X114885553Y-77938000D01*
X114661057Y-77982655D01*
X114449587Y-78070249D01*
X114259268Y-78197416D01*
X114097416Y-78359268D01*
X113970249Y-78549587D01*
X113882655Y-78761057D01*
X113838000Y-78985553D01*
X113838000Y-79007593D01*
X112507593Y-80338000D01*
X112485553Y-80338000D01*
X112261057Y-80382655D01*
X112049587Y-80470249D01*
X111859268Y-80597416D01*
X111697416Y-80759268D01*
X111570249Y-80949587D01*
X111482655Y-81161057D01*
X111438000Y-81385553D01*
X110512000Y-81385553D01*
X110512000Y-76419184D01*
X110807606Y-76123578D01*
X110838943Y-76117345D01*
X111050413Y-76029751D01*
X111240732Y-75902584D01*
X111402584Y-75740732D01*
X111529751Y-75550413D01*
X111617345Y-75338943D01*
X111662000Y-75114447D01*
X111662000Y-74885553D01*
X111617345Y-74661057D01*
X111529751Y-74449587D01*
X111402584Y-74259268D01*
X111240732Y-74097416D01*
X111050413Y-73970249D01*
X110838943Y-73882655D01*
X110614447Y-73838000D01*
X110385553Y-73838000D01*
X110161057Y-73882655D01*
X109949587Y-73970249D01*
X109759268Y-74097416D01*
X109597416Y-74259268D01*
X109470249Y-74449587D01*
X109382655Y-74661057D01*
X109376422Y-74692394D01*
X108819558Y-75249258D01*
X108780946Y-75280946D01*
X108654482Y-75435043D01*
X108560511Y-75610852D01*
X108502643Y-75801614D01*
X108488000Y-75950290D01*
X108488000Y-75950299D01*
X108483105Y-76000000D01*
X108488000Y-76049701D01*
X108488001Y-81802975D01*
X108438943Y-81782655D01*
X108214447Y-81738000D01*
X108192407Y-81738000D01*
X108187000Y-81732593D01*
X108187000Y-75956316D01*
X108302584Y-75840732D01*
X108429751Y-75650413D01*
X108517345Y-75438943D01*
X108562000Y-75214447D01*
X108562000Y-74985553D01*
X108517345Y-74761057D01*
X108429751Y-74549587D01*
X108302584Y-74359268D01*
X108140732Y-74197416D01*
X107950413Y-74070249D01*
X107738943Y-73982655D01*
X107514447Y-73938000D01*
X107285553Y-73938000D01*
X107061057Y-73982655D01*
X106849587Y-74070249D01*
X106659268Y-74197416D01*
X106497416Y-74359268D01*
X106370249Y-74549587D01*
X106282655Y-74761057D01*
X106238000Y-74985553D01*
X105080243Y-74985553D01*
X105107888Y-74894421D01*
X105146735Y-74500000D01*
X105107888Y-74105579D01*
X104992840Y-73726316D01*
X104806011Y-73376784D01*
X104554583Y-73070417D01*
X104248216Y-72818989D01*
X103898684Y-72632160D01*
X103519421Y-72517112D01*
X103223841Y-72488000D01*
X101776159Y-72488000D01*
X101480579Y-72517112D01*
X101101316Y-72632160D01*
X100787000Y-72800166D01*
X100787000Y-61992387D01*
X100798200Y-61992387D01*
X100798200Y-62327613D01*
X100863599Y-62656397D01*
X100991885Y-62966104D01*
X101178126Y-63244834D01*
X101363292Y-63430000D01*
X101178126Y-63615166D01*
X100991885Y-63893896D01*
X100863599Y-64203603D01*
X100798200Y-64532387D01*
X100798200Y-64867613D01*
X100863599Y-65196397D01*
X100991885Y-65506104D01*
X101178126Y-65784834D01*
X101363292Y-65970000D01*
X101178126Y-66155166D01*
X100991885Y-66433896D01*
X100863599Y-66743603D01*
X100798200Y-67072387D01*
X100798200Y-67407613D01*
X100863599Y-67736397D01*
X100991885Y-68046104D01*
X101178126Y-68324834D01*
X101415166Y-68561874D01*
X101693896Y-68748115D01*
X102003603Y-68876401D01*
X102332387Y-68941800D01*
X102667613Y-68941800D01*
X102996397Y-68876401D01*
X103306104Y-68748115D01*
X103584834Y-68561874D01*
X103821874Y-68324834D01*
X104008115Y-68046104D01*
X104136401Y-67736397D01*
X104201800Y-67407613D01*
X104201800Y-67072387D01*
X104136401Y-66743603D01*
X104008115Y-66433896D01*
X103821874Y-66155166D01*
X103636708Y-65970000D01*
X103821874Y-65784834D01*
X104008115Y-65506104D01*
X104136401Y-65196397D01*
X104201800Y-64867613D01*
X104201800Y-64532387D01*
X104136401Y-64203603D01*
X104008115Y-63893896D01*
X103821874Y-63615166D01*
X103636708Y-63430000D01*
X103821874Y-63244834D01*
X104008115Y-62966104D01*
X104136401Y-62656397D01*
X104201800Y-62327613D01*
X104201800Y-61992387D01*
X104136401Y-61663603D01*
X104008115Y-61353896D01*
X103821874Y-61075166D01*
X103584834Y-60838126D01*
X103306104Y-60651885D01*
X102996397Y-60523599D01*
X102667613Y-60458200D01*
X102332387Y-60458200D01*
X102003603Y-60523599D01*
X101693896Y-60651885D01*
X101415166Y-60838126D01*
X101178126Y-61075166D01*
X100991885Y-61353896D01*
X100863599Y-61663603D01*
X100798200Y-61992387D01*
X100787000Y-61992387D01*
X100787000Y-56149128D01*
X100824927Y-56339801D01*
X100995441Y-56751459D01*
X101242990Y-57121941D01*
X101558059Y-57437010D01*
X101928541Y-57684559D01*
X102340199Y-57855073D01*
X102777212Y-57942000D01*
X103222788Y-57942000D01*
X103659801Y-57855073D01*
X104071459Y-57684559D01*
X104441941Y-57437010D01*
X104757010Y-57121941D01*
X105004559Y-56751459D01*
X105175073Y-56339801D01*
X105262000Y-55902788D01*
X105262000Y-55457212D01*
X105175073Y-55020199D01*
X105004559Y-54608541D01*
X104757010Y-54238059D01*
X104441941Y-53922990D01*
X104071459Y-53675441D01*
X103659801Y-53504927D01*
X103222788Y-53418000D01*
X102777212Y-53418000D01*
X102340199Y-53504927D01*
X101928541Y-53675441D01*
X101558059Y-53922990D01*
X101242990Y-54238059D01*
X100995441Y-54608541D01*
X100824927Y-55020199D01*
X100787000Y-55210872D01*
X100787000Y-52813674D01*
X100939509Y-52938835D01*
X101113927Y-53032063D01*
X101303182Y-53089473D01*
X101500000Y-53108858D01*
X102628000Y-53104000D01*
X102879000Y-52853000D01*
X102879000Y-50721000D01*
X103121000Y-50721000D01*
X103121000Y-52853000D01*
X103372000Y-53104000D01*
X104500000Y-53108858D01*
X104696818Y-53089473D01*
X104886073Y-53032063D01*
X105060491Y-52938835D01*
X105213370Y-52813370D01*
X105338835Y-52660491D01*
X105432063Y-52486073D01*
X105489473Y-52296818D01*
X105508858Y-52100000D01*
X105504000Y-50972000D01*
X105253000Y-50721000D01*
X103121000Y-50721000D01*
X102879000Y-50721000D01*
X102859000Y-50721000D01*
X102859000Y-50479000D01*
X102879000Y-50479000D01*
X102879000Y-48347000D01*
X102628000Y-48096000D01*
X101500000Y-48091142D01*
X101303182Y-48110527D01*
X101113927Y-48167937D01*
X100939509Y-48261165D01*
X100787000Y-48386326D01*
X100787000Y-46893833D01*
X101277287Y-46893833D01*
X101615905Y-47487284D01*
X102342050Y-47885391D01*
X103131908Y-48134184D01*
X103313934Y-48154066D01*
X103121000Y-48347000D01*
X103121000Y-50479000D01*
X105253000Y-50479000D01*
X105504000Y-50228000D01*
X105508858Y-49100000D01*
X105489473Y-48903182D01*
X105432063Y-48713927D01*
X105338835Y-48539509D01*
X105213370Y-48386630D01*
X105060491Y-48261165D01*
X104886073Y-48167937D01*
X104806805Y-48143891D01*
X105575037Y-47919734D01*
X106309476Y-47537143D01*
X106384095Y-47487284D01*
X106722713Y-46893833D01*
X148277287Y-46893833D01*
X148615905Y-47487284D01*
X149342050Y-47885391D01*
X150131908Y-48134184D01*
X150955128Y-48224102D01*
X151780071Y-48151692D01*
X152575037Y-47919734D01*
X153309476Y-47537143D01*
X153384095Y-47487284D01*
X153722713Y-46893833D01*
X151000000Y-44171120D01*
X148277287Y-46893833D01*
X106722713Y-46893833D01*
X104000000Y-44171120D01*
X101277287Y-46893833D01*
X100787000Y-46893833D01*
X100787000Y-46540599D01*
X101106167Y-46722713D01*
X103828880Y-44000000D01*
X104171120Y-44000000D01*
X106893833Y-46722713D01*
X107487284Y-46384095D01*
X107885391Y-45657950D01*
X108134184Y-44868092D01*
X108224102Y-44044872D01*
X108216225Y-43955128D01*
X146775898Y-43955128D01*
X146848308Y-44780071D01*
X147080266Y-45575037D01*
X147462857Y-46309476D01*
X147512716Y-46384095D01*
X148106167Y-46722713D01*
X150828880Y-44000000D01*
X148106167Y-41277287D01*
X147512716Y-41615905D01*
X147114609Y-42342050D01*
X146865816Y-43131908D01*
X146775898Y-43955128D01*
X108216225Y-43955128D01*
X108151692Y-43219929D01*
X107919734Y-42424963D01*
X107537143Y-41690524D01*
X107487284Y-41615905D01*
X106893833Y-41277287D01*
X104171120Y-44000000D01*
X103828880Y-44000000D01*
X103814738Y-43985858D01*
X103985858Y-43814738D01*
X104000000Y-43828880D01*
X106722713Y-41106167D01*
X106540599Y-40787000D01*
X148459401Y-40787000D01*
X148277287Y-41106167D01*
G37*
G04 #@! TD.AperFunction*
M02*
