%TF.GenerationSoftware,KiCad,Pcbnew,(5.1.5)-3*%
%TF.CreationDate,2020-11-10T23:28:25+01:00*%
%TF.ProjectId,Microstrip Filter,4d696372-6f73-4747-9269-702046696c74,1*%
%TF.SameCoordinates,Original*%
%TF.FileFunction,Copper,L2,Bot*%
%TF.FilePolarity,Positive*%
%FSLAX46Y46*%
G04 Gerber Fmt 4.6, Leading zero omitted, Abs format (unit mm)*
G04 Created by KiCad (PCBNEW (5.1.5)-3) date 2020-11-10 23:28:25*
%MOMM*%
%LPD*%
G04 APERTURE LIST*
%TA.AperFunction,SMDPad,CuDef*%
%ADD10R,4.200000X1.350000*%
%TD*%
%TA.AperFunction,Conductor*%
%ADD11C,0.100000*%
%TD*%
G04 APERTURE END LIST*
D10*
%TO.P,J1,2*%
%TO.N,GND*%
X30988000Y-66263000D03*
X30988000Y-71913000D03*
%TD*%
%TO.P,J2,2*%
%TO.N,GND*%
X97790000Y-29433000D03*
X97790000Y-35083000D03*
%TD*%
D11*
%TO.N,GND*%
G36*
X100409001Y-28212998D02*
G01*
X100013357Y-28212998D01*
X99989025Y-28206114D01*
X99879455Y-28197399D01*
X99149500Y-28200000D01*
X99136502Y-28212998D01*
X99030000Y-28212998D01*
X99030000Y-28319500D01*
X99010000Y-28339500D01*
X99010000Y-28808000D01*
X99030000Y-28808000D01*
X99030000Y-30058000D01*
X99010000Y-30058000D01*
X99010000Y-30526500D01*
X99030000Y-30546500D01*
X99030000Y-30653002D01*
X99136502Y-30653002D01*
X99149500Y-30666000D01*
X99879455Y-30668601D01*
X99989025Y-30659886D01*
X100013357Y-30653002D01*
X100409001Y-30653002D01*
X100409001Y-33862998D01*
X100013357Y-33862998D01*
X99989025Y-33856114D01*
X99879455Y-33847399D01*
X99149500Y-33850000D01*
X99136502Y-33862998D01*
X99030000Y-33862998D01*
X99030000Y-33969500D01*
X99010000Y-33989500D01*
X99010000Y-34458000D01*
X99030000Y-34458000D01*
X99030000Y-35708000D01*
X99010000Y-35708000D01*
X99010000Y-36176500D01*
X99030000Y-36196500D01*
X99030000Y-36303002D01*
X99136502Y-36303002D01*
X99149500Y-36316000D01*
X99879455Y-36318601D01*
X99989025Y-36309886D01*
X100013357Y-36303002D01*
X100409001Y-36303002D01*
X100409000Y-72977000D01*
X33489619Y-72977000D01*
X33548264Y-72908221D01*
X33601892Y-72812275D01*
X33635772Y-72707710D01*
X33646000Y-72677500D01*
X33506500Y-72538000D01*
X32208000Y-72538000D01*
X32208000Y-72588000D01*
X29768000Y-72588000D01*
X29768000Y-72538000D01*
X29748000Y-72538000D01*
X29748000Y-71288000D01*
X29768000Y-71288000D01*
X29768000Y-70819500D01*
X32208000Y-70819500D01*
X32208000Y-71288000D01*
X33506500Y-71288000D01*
X33646000Y-71148500D01*
X33635772Y-71118290D01*
X33601892Y-71013725D01*
X33548264Y-70917779D01*
X33476948Y-70834139D01*
X33390685Y-70766019D01*
X33292790Y-70716037D01*
X33187025Y-70686114D01*
X33077455Y-70677399D01*
X32347500Y-70680000D01*
X32208000Y-70819500D01*
X29768000Y-70819500D01*
X29748000Y-70799500D01*
X29748000Y-70692998D01*
X29641498Y-70692998D01*
X29628500Y-70680000D01*
X28898545Y-70677399D01*
X28788975Y-70686114D01*
X28764643Y-70692998D01*
X28623000Y-70692998D01*
X28623000Y-67483002D01*
X28764643Y-67483002D01*
X28788975Y-67489886D01*
X28898545Y-67498601D01*
X29628500Y-67496000D01*
X29641498Y-67483002D01*
X29748000Y-67483002D01*
X29748000Y-67376500D01*
X29768000Y-67356500D01*
X29768000Y-66888000D01*
X32208000Y-66888000D01*
X32208000Y-67356500D01*
X32347500Y-67496000D01*
X33077455Y-67498601D01*
X33187025Y-67489886D01*
X33292790Y-67459963D01*
X33390685Y-67409981D01*
X33476948Y-67341861D01*
X33548264Y-67258221D01*
X33601892Y-67162275D01*
X33635772Y-67057710D01*
X33646000Y-67027500D01*
X33506500Y-66888000D01*
X32208000Y-66888000D01*
X29768000Y-66888000D01*
X29748000Y-66888000D01*
X29748000Y-65638000D01*
X29768000Y-65638000D01*
X29768000Y-65169500D01*
X32208000Y-65169500D01*
X32208000Y-65638000D01*
X33506500Y-65638000D01*
X33646000Y-65498500D01*
X33635772Y-65468290D01*
X33601892Y-65363725D01*
X33548264Y-65267779D01*
X33476948Y-65184139D01*
X33390685Y-65116019D01*
X33292790Y-65066037D01*
X33187025Y-65036114D01*
X33077455Y-65027399D01*
X32347500Y-65030000D01*
X32208000Y-65169500D01*
X29768000Y-65169500D01*
X29748000Y-65149500D01*
X29748000Y-65042998D01*
X29641498Y-65042998D01*
X29628500Y-65030000D01*
X28898545Y-65027399D01*
X28788975Y-65036114D01*
X28764643Y-65042998D01*
X28623000Y-65042998D01*
X28623000Y-35847500D01*
X95132000Y-35847500D01*
X95142228Y-35877710D01*
X95176108Y-35982275D01*
X95229736Y-36078221D01*
X95301052Y-36161861D01*
X95387315Y-36229981D01*
X95485210Y-36279963D01*
X95590975Y-36309886D01*
X95700545Y-36318601D01*
X96430500Y-36316000D01*
X96570000Y-36176500D01*
X96570000Y-35708000D01*
X95271500Y-35708000D01*
X95132000Y-35847500D01*
X28623000Y-35847500D01*
X28623000Y-34318500D01*
X95132000Y-34318500D01*
X95271500Y-34458000D01*
X96570000Y-34458000D01*
X96570000Y-33989500D01*
X96430500Y-33850000D01*
X95700545Y-33847399D01*
X95590975Y-33856114D01*
X95485210Y-33886037D01*
X95387315Y-33936019D01*
X95301052Y-34004139D01*
X95229736Y-34087779D01*
X95176108Y-34183725D01*
X95142228Y-34288290D01*
X95132000Y-34318500D01*
X28623000Y-34318500D01*
X28623000Y-30197500D01*
X95132000Y-30197500D01*
X95142228Y-30227710D01*
X95176108Y-30332275D01*
X95229736Y-30428221D01*
X95301052Y-30511861D01*
X95387315Y-30579981D01*
X95485210Y-30629963D01*
X95590975Y-30659886D01*
X95700545Y-30668601D01*
X96430500Y-30666000D01*
X96570000Y-30526500D01*
X96570000Y-30058000D01*
X95271500Y-30058000D01*
X95132000Y-30197500D01*
X28623000Y-30197500D01*
X28623000Y-28668500D01*
X95132000Y-28668500D01*
X95271500Y-28808000D01*
X96570000Y-28808000D01*
X96570000Y-28339500D01*
X96430500Y-28200000D01*
X95700545Y-28197399D01*
X95590975Y-28206114D01*
X95485210Y-28236037D01*
X95387315Y-28286019D01*
X95301052Y-28354139D01*
X95229736Y-28437779D01*
X95176108Y-28533725D01*
X95142228Y-28638290D01*
X95132000Y-28668500D01*
X28623000Y-28668500D01*
X28623000Y-28115000D01*
X100409001Y-28115000D01*
X100409001Y-28212998D01*
G37*
X100409001Y-28212998D02*
X100013357Y-28212998D01*
X99989025Y-28206114D01*
X99879455Y-28197399D01*
X99149500Y-28200000D01*
X99136502Y-28212998D01*
X99030000Y-28212998D01*
X99030000Y-28319500D01*
X99010000Y-28339500D01*
X99010000Y-28808000D01*
X99030000Y-28808000D01*
X99030000Y-30058000D01*
X99010000Y-30058000D01*
X99010000Y-30526500D01*
X99030000Y-30546500D01*
X99030000Y-30653002D01*
X99136502Y-30653002D01*
X99149500Y-30666000D01*
X99879455Y-30668601D01*
X99989025Y-30659886D01*
X100013357Y-30653002D01*
X100409001Y-30653002D01*
X100409001Y-33862998D01*
X100013357Y-33862998D01*
X99989025Y-33856114D01*
X99879455Y-33847399D01*
X99149500Y-33850000D01*
X99136502Y-33862998D01*
X99030000Y-33862998D01*
X99030000Y-33969500D01*
X99010000Y-33989500D01*
X99010000Y-34458000D01*
X99030000Y-34458000D01*
X99030000Y-35708000D01*
X99010000Y-35708000D01*
X99010000Y-36176500D01*
X99030000Y-36196500D01*
X99030000Y-36303002D01*
X99136502Y-36303002D01*
X99149500Y-36316000D01*
X99879455Y-36318601D01*
X99989025Y-36309886D01*
X100013357Y-36303002D01*
X100409001Y-36303002D01*
X100409000Y-72977000D01*
X33489619Y-72977000D01*
X33548264Y-72908221D01*
X33601892Y-72812275D01*
X33635772Y-72707710D01*
X33646000Y-72677500D01*
X33506500Y-72538000D01*
X32208000Y-72538000D01*
X32208000Y-72588000D01*
X29768000Y-72588000D01*
X29768000Y-72538000D01*
X29748000Y-72538000D01*
X29748000Y-71288000D01*
X29768000Y-71288000D01*
X29768000Y-70819500D01*
X32208000Y-70819500D01*
X32208000Y-71288000D01*
X33506500Y-71288000D01*
X33646000Y-71148500D01*
X33635772Y-71118290D01*
X33601892Y-71013725D01*
X33548264Y-70917779D01*
X33476948Y-70834139D01*
X33390685Y-70766019D01*
X33292790Y-70716037D01*
X33187025Y-70686114D01*
X33077455Y-70677399D01*
X32347500Y-70680000D01*
X32208000Y-70819500D01*
X29768000Y-70819500D01*
X29748000Y-70799500D01*
X29748000Y-70692998D01*
X29641498Y-70692998D01*
X29628500Y-70680000D01*
X28898545Y-70677399D01*
X28788975Y-70686114D01*
X28764643Y-70692998D01*
X28623000Y-70692998D01*
X28623000Y-67483002D01*
X28764643Y-67483002D01*
X28788975Y-67489886D01*
X28898545Y-67498601D01*
X29628500Y-67496000D01*
X29641498Y-67483002D01*
X29748000Y-67483002D01*
X29748000Y-67376500D01*
X29768000Y-67356500D01*
X29768000Y-66888000D01*
X32208000Y-66888000D01*
X32208000Y-67356500D01*
X32347500Y-67496000D01*
X33077455Y-67498601D01*
X33187025Y-67489886D01*
X33292790Y-67459963D01*
X33390685Y-67409981D01*
X33476948Y-67341861D01*
X33548264Y-67258221D01*
X33601892Y-67162275D01*
X33635772Y-67057710D01*
X33646000Y-67027500D01*
X33506500Y-66888000D01*
X32208000Y-66888000D01*
X29768000Y-66888000D01*
X29748000Y-66888000D01*
X29748000Y-65638000D01*
X29768000Y-65638000D01*
X29768000Y-65169500D01*
X32208000Y-65169500D01*
X32208000Y-65638000D01*
X33506500Y-65638000D01*
X33646000Y-65498500D01*
X33635772Y-65468290D01*
X33601892Y-65363725D01*
X33548264Y-65267779D01*
X33476948Y-65184139D01*
X33390685Y-65116019D01*
X33292790Y-65066037D01*
X33187025Y-65036114D01*
X33077455Y-65027399D01*
X32347500Y-65030000D01*
X32208000Y-65169500D01*
X29768000Y-65169500D01*
X29748000Y-65149500D01*
X29748000Y-65042998D01*
X29641498Y-65042998D01*
X29628500Y-65030000D01*
X28898545Y-65027399D01*
X28788975Y-65036114D01*
X28764643Y-65042998D01*
X28623000Y-65042998D01*
X28623000Y-35847500D01*
X95132000Y-35847500D01*
X95142228Y-35877710D01*
X95176108Y-35982275D01*
X95229736Y-36078221D01*
X95301052Y-36161861D01*
X95387315Y-36229981D01*
X95485210Y-36279963D01*
X95590975Y-36309886D01*
X95700545Y-36318601D01*
X96430500Y-36316000D01*
X96570000Y-36176500D01*
X96570000Y-35708000D01*
X95271500Y-35708000D01*
X95132000Y-35847500D01*
X28623000Y-35847500D01*
X28623000Y-34318500D01*
X95132000Y-34318500D01*
X95271500Y-34458000D01*
X96570000Y-34458000D01*
X96570000Y-33989500D01*
X96430500Y-33850000D01*
X95700545Y-33847399D01*
X95590975Y-33856114D01*
X95485210Y-33886037D01*
X95387315Y-33936019D01*
X95301052Y-34004139D01*
X95229736Y-34087779D01*
X95176108Y-34183725D01*
X95142228Y-34288290D01*
X95132000Y-34318500D01*
X28623000Y-34318500D01*
X28623000Y-30197500D01*
X95132000Y-30197500D01*
X95142228Y-30227710D01*
X95176108Y-30332275D01*
X95229736Y-30428221D01*
X95301052Y-30511861D01*
X95387315Y-30579981D01*
X95485210Y-30629963D01*
X95590975Y-30659886D01*
X95700545Y-30668601D01*
X96430500Y-30666000D01*
X96570000Y-30526500D01*
X96570000Y-30058000D01*
X95271500Y-30058000D01*
X95132000Y-30197500D01*
X28623000Y-30197500D01*
X28623000Y-28668500D01*
X95132000Y-28668500D01*
X95271500Y-28808000D01*
X96570000Y-28808000D01*
X96570000Y-28339500D01*
X96430500Y-28200000D01*
X95700545Y-28197399D01*
X95590975Y-28206114D01*
X95485210Y-28236037D01*
X95387315Y-28286019D01*
X95301052Y-28354139D01*
X95229736Y-28437779D01*
X95176108Y-28533725D01*
X95142228Y-28638290D01*
X95132000Y-28668500D01*
X28623000Y-28668500D01*
X28623000Y-28115000D01*
X100409001Y-28115000D01*
X100409001Y-28212998D01*
%TD*%
M02*
