G04 #@! TF.GenerationSoftware,KiCad,Pcbnew,(5.1.7)-1*
G04 #@! TF.CreationDate,2020-11-10T17:22:49+01:00*
G04 #@! TF.ProjectId,137_MHz_BPF_2nd_Order,3133375f-4d48-47a5-9f42-50465f326e64,rev?*
G04 #@! TF.SameCoordinates,Original*
G04 #@! TF.FileFunction,Soldermask,Bot*
G04 #@! TF.FilePolarity,Negative*
%FSLAX46Y46*%
G04 Gerber Fmt 4.6, Leading zero omitted, Abs format (unit mm)*
G04 Created by KiCad (PCBNEW (5.1.7)-1) date 2020-11-10 17:22:49*
%MOMM*%
%LPD*%
G01*
G04 APERTURE LIST*
G04 APERTURE END LIST*
G36*
G01*
X30900000Y-60099200D02*
X35100000Y-60099200D01*
G75*
G02*
X35150800Y-60150000I0J-50800D01*
G01*
X35150800Y-61500000D01*
G75*
G02*
X35100000Y-61550800I-50800J0D01*
G01*
X30900000Y-61550800D01*
G75*
G02*
X30849200Y-61500000I0J50800D01*
G01*
X30849200Y-60150000D01*
G75*
G02*
X30900000Y-60099200I50800J0D01*
G01*
G37*
G36*
G01*
X30900000Y-54449200D02*
X35100000Y-54449200D01*
G75*
G02*
X35150800Y-54500000I0J-50800D01*
G01*
X35150800Y-55850000D01*
G75*
G02*
X35100000Y-55900800I-50800J0D01*
G01*
X30900000Y-55900800D01*
G75*
G02*
X30849200Y-55850000I0J50800D01*
G01*
X30849200Y-54500000D01*
G75*
G02*
X30900000Y-54449200I50800J0D01*
G01*
G37*
G36*
G01*
X55400000Y-61550800D02*
X51200000Y-61550800D01*
G75*
G02*
X51149200Y-61500000I0J50800D01*
G01*
X51149200Y-60150000D01*
G75*
G02*
X51200000Y-60099200I50800J0D01*
G01*
X55400000Y-60099200D01*
G75*
G02*
X55450800Y-60150000I0J-50800D01*
G01*
X55450800Y-61500000D01*
G75*
G02*
X55400000Y-61550800I-50800J0D01*
G01*
G37*
G36*
G01*
X55400000Y-55900800D02*
X51200000Y-55900800D01*
G75*
G02*
X51149200Y-55850000I0J50800D01*
G01*
X51149200Y-54500000D01*
G75*
G02*
X51200000Y-54449200I50800J0D01*
G01*
X55400000Y-54449200D01*
G75*
G02*
X55450800Y-54500000I0J-50800D01*
G01*
X55450800Y-55850000D01*
G75*
G02*
X55400000Y-55900800I-50800J0D01*
G01*
G37*
G36*
G01*
X30900000Y-65449200D02*
X35100000Y-65449200D01*
G75*
G02*
X35150800Y-65500000I0J-50800D01*
G01*
X35150800Y-66850000D01*
G75*
G02*
X35100000Y-66900800I-50800J0D01*
G01*
X30900000Y-66900800D01*
G75*
G02*
X30849200Y-66850000I0J50800D01*
G01*
X30849200Y-65500000D01*
G75*
G02*
X30900000Y-65449200I50800J0D01*
G01*
G37*
G36*
G01*
X30900000Y-71099200D02*
X35100000Y-71099200D01*
G75*
G02*
X35150800Y-71150000I0J-50800D01*
G01*
X35150800Y-72500000D01*
G75*
G02*
X35100000Y-72550800I-50800J0D01*
G01*
X30900000Y-72550800D01*
G75*
G02*
X30849200Y-72500000I0J50800D01*
G01*
X30849200Y-71150000D01*
G75*
G02*
X30900000Y-71099200I50800J0D01*
G01*
G37*
G36*
G01*
X55400000Y-66900800D02*
X51200000Y-66900800D01*
G75*
G02*
X51149200Y-66850000I0J50800D01*
G01*
X51149200Y-65500000D01*
G75*
G02*
X51200000Y-65449200I50800J0D01*
G01*
X55400000Y-65449200D01*
G75*
G02*
X55450800Y-65500000I0J-50800D01*
G01*
X55450800Y-66850000D01*
G75*
G02*
X55400000Y-66900800I-50800J0D01*
G01*
G37*
G36*
G01*
X55400000Y-72550800D02*
X51200000Y-72550800D01*
G75*
G02*
X51149200Y-72500000I0J50800D01*
G01*
X51149200Y-71150000D01*
G75*
G02*
X51200000Y-71099200I50800J0D01*
G01*
X55400000Y-71099200D01*
G75*
G02*
X55450800Y-71150000I0J-50800D01*
G01*
X55450800Y-72500000D01*
G75*
G02*
X55400000Y-72550800I-50800J0D01*
G01*
G37*
M02*
