G04 #@! TF.GenerationSoftware,KiCad,Pcbnew,(5.1.7)-1*
G04 #@! TF.CreationDate,2020-11-10T17:22:49+01:00*
G04 #@! TF.ProjectId,137_MHz_BPF_2nd_Order,3133375f-4d48-47a5-9f42-50465f326e64,rev?*
G04 #@! TF.SameCoordinates,Original*
G04 #@! TF.FileFunction,Paste,Top*
G04 #@! TF.FilePolarity,Positive*
%FSLAX46Y46*%
G04 Gerber Fmt 4.6, Leading zero omitted, Abs format (unit mm)*
G04 Created by KiCad (PCBNEW (5.1.7)-1) date 2020-11-10 17:22:49*
%MOMM*%
%LPD*%
G01*
G04 APERTURE LIST*
%ADD10R,3.600000X1.270000*%
%ADD11R,4.200000X1.350000*%
G04 APERTURE END LIST*
G36*
G01*
X39325000Y-58237500D02*
X39325000Y-57762500D01*
G75*
G02*
X39562500Y-57525000I237500J0D01*
G01*
X40162500Y-57525000D01*
G75*
G02*
X40400000Y-57762500I0J-237500D01*
G01*
X40400000Y-58237500D01*
G75*
G02*
X40162500Y-58475000I-237500J0D01*
G01*
X39562500Y-58475000D01*
G75*
G02*
X39325000Y-58237500I0J237500D01*
G01*
G37*
G36*
G01*
X37600000Y-58237500D02*
X37600000Y-57762500D01*
G75*
G02*
X37837500Y-57525000I237500J0D01*
G01*
X38437500Y-57525000D01*
G75*
G02*
X38675000Y-57762500I0J-237500D01*
G01*
X38675000Y-58237500D01*
G75*
G02*
X38437500Y-58475000I-237500J0D01*
G01*
X37837500Y-58475000D01*
G75*
G02*
X37600000Y-58237500I0J237500D01*
G01*
G37*
G36*
G01*
X39762500Y-55625000D02*
X40237500Y-55625000D01*
G75*
G02*
X40475000Y-55862500I0J-237500D01*
G01*
X40475000Y-56462500D01*
G75*
G02*
X40237500Y-56700000I-237500J0D01*
G01*
X39762500Y-56700000D01*
G75*
G02*
X39525000Y-56462500I0J237500D01*
G01*
X39525000Y-55862500D01*
G75*
G02*
X39762500Y-55625000I237500J0D01*
G01*
G37*
G36*
G01*
X39762500Y-53900000D02*
X40237500Y-53900000D01*
G75*
G02*
X40475000Y-54137500I0J-237500D01*
G01*
X40475000Y-54737500D01*
G75*
G02*
X40237500Y-54975000I-237500J0D01*
G01*
X39762500Y-54975000D01*
G75*
G02*
X39525000Y-54737500I0J237500D01*
G01*
X39525000Y-54137500D01*
G75*
G02*
X39762500Y-53900000I237500J0D01*
G01*
G37*
G36*
G01*
X41600000Y-58237500D02*
X41600000Y-57762500D01*
G75*
G02*
X41837500Y-57525000I237500J0D01*
G01*
X42437500Y-57525000D01*
G75*
G02*
X42675000Y-57762500I0J-237500D01*
G01*
X42675000Y-58237500D01*
G75*
G02*
X42437500Y-58475000I-237500J0D01*
G01*
X41837500Y-58475000D01*
G75*
G02*
X41600000Y-58237500I0J237500D01*
G01*
G37*
G36*
G01*
X43325000Y-58237500D02*
X43325000Y-57762500D01*
G75*
G02*
X43562500Y-57525000I237500J0D01*
G01*
X44162500Y-57525000D01*
G75*
G02*
X44400000Y-57762500I0J-237500D01*
G01*
X44400000Y-58237500D01*
G75*
G02*
X44162500Y-58475000I-237500J0D01*
G01*
X43562500Y-58475000D01*
G75*
G02*
X43325000Y-58237500I0J237500D01*
G01*
G37*
G36*
G01*
X44237500Y-62062500D02*
X43762500Y-62062500D01*
G75*
G02*
X43525000Y-61825000I0J237500D01*
G01*
X43525000Y-61225000D01*
G75*
G02*
X43762500Y-60987500I237500J0D01*
G01*
X44237500Y-60987500D01*
G75*
G02*
X44475000Y-61225000I0J-237500D01*
G01*
X44475000Y-61825000D01*
G75*
G02*
X44237500Y-62062500I-237500J0D01*
G01*
G37*
G36*
G01*
X44237500Y-60337500D02*
X43762500Y-60337500D01*
G75*
G02*
X43525000Y-60100000I0J237500D01*
G01*
X43525000Y-59500000D01*
G75*
G02*
X43762500Y-59262500I237500J0D01*
G01*
X44237500Y-59262500D01*
G75*
G02*
X44475000Y-59500000I0J-237500D01*
G01*
X44475000Y-60100000D01*
G75*
G02*
X44237500Y-60337500I-237500J0D01*
G01*
G37*
G36*
G01*
X47325000Y-58237500D02*
X47325000Y-57762500D01*
G75*
G02*
X47562500Y-57525000I237500J0D01*
G01*
X48162500Y-57525000D01*
G75*
G02*
X48400000Y-57762500I0J-237500D01*
G01*
X48400000Y-58237500D01*
G75*
G02*
X48162500Y-58475000I-237500J0D01*
G01*
X47562500Y-58475000D01*
G75*
G02*
X47325000Y-58237500I0J237500D01*
G01*
G37*
G36*
G01*
X45600000Y-58237500D02*
X45600000Y-57762500D01*
G75*
G02*
X45837500Y-57525000I237500J0D01*
G01*
X46437500Y-57525000D01*
G75*
G02*
X46675000Y-57762500I0J-237500D01*
G01*
X46675000Y-58237500D01*
G75*
G02*
X46437500Y-58475000I-237500J0D01*
G01*
X45837500Y-58475000D01*
G75*
G02*
X45600000Y-58237500I0J237500D01*
G01*
G37*
G36*
G01*
X37462500Y-69237500D02*
X37462500Y-68762500D01*
G75*
G02*
X37700000Y-68525000I237500J0D01*
G01*
X38300000Y-68525000D01*
G75*
G02*
X38537500Y-68762500I0J-237500D01*
G01*
X38537500Y-69237500D01*
G75*
G02*
X38300000Y-69475000I-237500J0D01*
G01*
X37700000Y-69475000D01*
G75*
G02*
X37462500Y-69237500I0J237500D01*
G01*
G37*
G36*
G01*
X35737500Y-69237500D02*
X35737500Y-68762500D01*
G75*
G02*
X35975000Y-68525000I237500J0D01*
G01*
X36575000Y-68525000D01*
G75*
G02*
X36812500Y-68762500I0J-237500D01*
G01*
X36812500Y-69237500D01*
G75*
G02*
X36575000Y-69475000I-237500J0D01*
G01*
X35975000Y-69475000D01*
G75*
G02*
X35737500Y-69237500I0J237500D01*
G01*
G37*
G36*
G01*
X39737500Y-69237500D02*
X39737500Y-68762500D01*
G75*
G02*
X39975000Y-68525000I237500J0D01*
G01*
X40575000Y-68525000D01*
G75*
G02*
X40812500Y-68762500I0J-237500D01*
G01*
X40812500Y-69237500D01*
G75*
G02*
X40575000Y-69475000I-237500J0D01*
G01*
X39975000Y-69475000D01*
G75*
G02*
X39737500Y-69237500I0J237500D01*
G01*
G37*
G36*
G01*
X41462500Y-69237500D02*
X41462500Y-68762500D01*
G75*
G02*
X41700000Y-68525000I237500J0D01*
G01*
X42300000Y-68525000D01*
G75*
G02*
X42537500Y-68762500I0J-237500D01*
G01*
X42537500Y-69237500D01*
G75*
G02*
X42300000Y-69475000I-237500J0D01*
G01*
X41700000Y-69475000D01*
G75*
G02*
X41462500Y-69237500I0J237500D01*
G01*
G37*
G36*
G01*
X45462500Y-69237500D02*
X45462500Y-68762500D01*
G75*
G02*
X45700000Y-68525000I237500J0D01*
G01*
X46300000Y-68525000D01*
G75*
G02*
X46537500Y-68762500I0J-237500D01*
G01*
X46537500Y-69237500D01*
G75*
G02*
X46300000Y-69475000I-237500J0D01*
G01*
X45700000Y-69475000D01*
G75*
G02*
X45462500Y-69237500I0J237500D01*
G01*
G37*
G36*
G01*
X43737500Y-69237500D02*
X43737500Y-68762500D01*
G75*
G02*
X43975000Y-68525000I237500J0D01*
G01*
X44575000Y-68525000D01*
G75*
G02*
X44812500Y-68762500I0J-237500D01*
G01*
X44812500Y-69237500D01*
G75*
G02*
X44575000Y-69475000I-237500J0D01*
G01*
X43975000Y-69475000D01*
G75*
G02*
X43737500Y-69237500I0J237500D01*
G01*
G37*
G36*
G01*
X49462500Y-69237500D02*
X49462500Y-68762500D01*
G75*
G02*
X49700000Y-68525000I237500J0D01*
G01*
X50300000Y-68525000D01*
G75*
G02*
X50537500Y-68762500I0J-237500D01*
G01*
X50537500Y-69237500D01*
G75*
G02*
X50300000Y-69475000I-237500J0D01*
G01*
X49700000Y-69475000D01*
G75*
G02*
X49462500Y-69237500I0J237500D01*
G01*
G37*
G36*
G01*
X47737500Y-69237500D02*
X47737500Y-68762500D01*
G75*
G02*
X47975000Y-68525000I237500J0D01*
G01*
X48575000Y-68525000D01*
G75*
G02*
X48812500Y-68762500I0J-237500D01*
G01*
X48812500Y-69237500D01*
G75*
G02*
X48575000Y-69475000I-237500J0D01*
G01*
X47975000Y-69475000D01*
G75*
G02*
X47737500Y-69237500I0J237500D01*
G01*
G37*
G36*
G01*
X40437500Y-73062500D02*
X39962500Y-73062500D01*
G75*
G02*
X39725000Y-72825000I0J237500D01*
G01*
X39725000Y-72225000D01*
G75*
G02*
X39962500Y-71987500I237500J0D01*
G01*
X40437500Y-71987500D01*
G75*
G02*
X40675000Y-72225000I0J-237500D01*
G01*
X40675000Y-72825000D01*
G75*
G02*
X40437500Y-73062500I-237500J0D01*
G01*
G37*
G36*
G01*
X40437500Y-71337500D02*
X39962500Y-71337500D01*
G75*
G02*
X39725000Y-71100000I0J237500D01*
G01*
X39725000Y-70500000D01*
G75*
G02*
X39962500Y-70262500I237500J0D01*
G01*
X40437500Y-70262500D01*
G75*
G02*
X40675000Y-70500000I0J-237500D01*
G01*
X40675000Y-71100000D01*
G75*
G02*
X40437500Y-71337500I-237500J0D01*
G01*
G37*
G36*
G01*
X43862500Y-64962500D02*
X44337500Y-64962500D01*
G75*
G02*
X44575000Y-65200000I0J-237500D01*
G01*
X44575000Y-65800000D01*
G75*
G02*
X44337500Y-66037500I-237500J0D01*
G01*
X43862500Y-66037500D01*
G75*
G02*
X43625000Y-65800000I0J237500D01*
G01*
X43625000Y-65200000D01*
G75*
G02*
X43862500Y-64962500I237500J0D01*
G01*
G37*
G36*
G01*
X43862500Y-66687500D02*
X44337500Y-66687500D01*
G75*
G02*
X44575000Y-66925000I0J-237500D01*
G01*
X44575000Y-67525000D01*
G75*
G02*
X44337500Y-67762500I-237500J0D01*
G01*
X43862500Y-67762500D01*
G75*
G02*
X43625000Y-67525000I0J237500D01*
G01*
X43625000Y-66925000D01*
G75*
G02*
X43862500Y-66687500I237500J0D01*
G01*
G37*
G36*
G01*
X46437500Y-73037500D02*
X45962500Y-73037500D01*
G75*
G02*
X45725000Y-72800000I0J237500D01*
G01*
X45725000Y-72200000D01*
G75*
G02*
X45962500Y-71962500I237500J0D01*
G01*
X46437500Y-71962500D01*
G75*
G02*
X46675000Y-72200000I0J-237500D01*
G01*
X46675000Y-72800000D01*
G75*
G02*
X46437500Y-73037500I-237500J0D01*
G01*
G37*
G36*
G01*
X46437500Y-71312500D02*
X45962500Y-71312500D01*
G75*
G02*
X45725000Y-71075000I0J237500D01*
G01*
X45725000Y-70475000D01*
G75*
G02*
X45962500Y-70237500I237500J0D01*
G01*
X46437500Y-70237500D01*
G75*
G02*
X46675000Y-70475000I0J-237500D01*
G01*
X46675000Y-71075000D01*
G75*
G02*
X46437500Y-71312500I-237500J0D01*
G01*
G37*
D10*
X32800000Y-58000000D03*
D11*
X33000000Y-60825000D03*
X33000000Y-55175000D03*
X53300000Y-60825000D03*
X53300000Y-55175000D03*
D10*
X53500000Y-58000000D03*
D11*
X33000000Y-66175000D03*
X33000000Y-71825000D03*
D10*
X32800000Y-69000000D03*
X53500000Y-69000000D03*
D11*
X53300000Y-66175000D03*
X53300000Y-71825000D03*
G36*
G01*
X42237500Y-56700000D02*
X41762500Y-56700000D01*
G75*
G02*
X41525000Y-56462500I0J237500D01*
G01*
X41525000Y-55887500D01*
G75*
G02*
X41762500Y-55650000I237500J0D01*
G01*
X42237500Y-55650000D01*
G75*
G02*
X42475000Y-55887500I0J-237500D01*
G01*
X42475000Y-56462500D01*
G75*
G02*
X42237500Y-56700000I-237500J0D01*
G01*
G37*
G36*
G01*
X42237500Y-54950000D02*
X41762500Y-54950000D01*
G75*
G02*
X41525000Y-54712500I0J237500D01*
G01*
X41525000Y-54137500D01*
G75*
G02*
X41762500Y-53900000I237500J0D01*
G01*
X42237500Y-53900000D01*
G75*
G02*
X42475000Y-54137500I0J-237500D01*
G01*
X42475000Y-54712500D01*
G75*
G02*
X42237500Y-54950000I-237500J0D01*
G01*
G37*
G36*
G01*
X45762500Y-59275000D02*
X46237500Y-59275000D01*
G75*
G02*
X46475000Y-59512500I0J-237500D01*
G01*
X46475000Y-60087500D01*
G75*
G02*
X46237500Y-60325000I-237500J0D01*
G01*
X45762500Y-60325000D01*
G75*
G02*
X45525000Y-60087500I0J237500D01*
G01*
X45525000Y-59512500D01*
G75*
G02*
X45762500Y-59275000I237500J0D01*
G01*
G37*
G36*
G01*
X45762500Y-61025000D02*
X46237500Y-61025000D01*
G75*
G02*
X46475000Y-61262500I0J-237500D01*
G01*
X46475000Y-61837500D01*
G75*
G02*
X46237500Y-62075000I-237500J0D01*
G01*
X45762500Y-62075000D01*
G75*
G02*
X45525000Y-61837500I0J237500D01*
G01*
X45525000Y-61262500D01*
G75*
G02*
X45762500Y-61025000I237500J0D01*
G01*
G37*
G36*
G01*
X37962500Y-72025000D02*
X38437500Y-72025000D01*
G75*
G02*
X38675000Y-72262500I0J-237500D01*
G01*
X38675000Y-72837500D01*
G75*
G02*
X38437500Y-73075000I-237500J0D01*
G01*
X37962500Y-73075000D01*
G75*
G02*
X37725000Y-72837500I0J237500D01*
G01*
X37725000Y-72262500D01*
G75*
G02*
X37962500Y-72025000I237500J0D01*
G01*
G37*
G36*
G01*
X37962500Y-70275000D02*
X38437500Y-70275000D01*
G75*
G02*
X38675000Y-70512500I0J-237500D01*
G01*
X38675000Y-71087500D01*
G75*
G02*
X38437500Y-71325000I-237500J0D01*
G01*
X37962500Y-71325000D01*
G75*
G02*
X37725000Y-71087500I0J237500D01*
G01*
X37725000Y-70512500D01*
G75*
G02*
X37962500Y-70275000I237500J0D01*
G01*
G37*
G36*
G01*
X42337500Y-67775000D02*
X41862500Y-67775000D01*
G75*
G02*
X41625000Y-67537500I0J237500D01*
G01*
X41625000Y-66962500D01*
G75*
G02*
X41862500Y-66725000I237500J0D01*
G01*
X42337500Y-66725000D01*
G75*
G02*
X42575000Y-66962500I0J-237500D01*
G01*
X42575000Y-67537500D01*
G75*
G02*
X42337500Y-67775000I-237500J0D01*
G01*
G37*
G36*
G01*
X42337500Y-66025000D02*
X41862500Y-66025000D01*
G75*
G02*
X41625000Y-65787500I0J237500D01*
G01*
X41625000Y-65212500D01*
G75*
G02*
X41862500Y-64975000I237500J0D01*
G01*
X42337500Y-64975000D01*
G75*
G02*
X42575000Y-65212500I0J-237500D01*
G01*
X42575000Y-65787500D01*
G75*
G02*
X42337500Y-66025000I-237500J0D01*
G01*
G37*
G36*
G01*
X47962500Y-71975000D02*
X48437500Y-71975000D01*
G75*
G02*
X48675000Y-72212500I0J-237500D01*
G01*
X48675000Y-72787500D01*
G75*
G02*
X48437500Y-73025000I-237500J0D01*
G01*
X47962500Y-73025000D01*
G75*
G02*
X47725000Y-72787500I0J237500D01*
G01*
X47725000Y-72212500D01*
G75*
G02*
X47962500Y-71975000I237500J0D01*
G01*
G37*
G36*
G01*
X47962500Y-70225000D02*
X48437500Y-70225000D01*
G75*
G02*
X48675000Y-70462500I0J-237500D01*
G01*
X48675000Y-71037500D01*
G75*
G02*
X48437500Y-71275000I-237500J0D01*
G01*
X47962500Y-71275000D01*
G75*
G02*
X47725000Y-71037500I0J237500D01*
G01*
X47725000Y-70462500D01*
G75*
G02*
X47962500Y-70225000I237500J0D01*
G01*
G37*
M02*
